<svg width="120" height="80" viewBox="0 0 120 80" fill="none" xmlns="http://www.w3.org/2000/svg">
<g clip-path="url(#clip0_823_247)">
<rect x="1.375" y="1.375" width="117.25" height="77.25" rx="6.625" fill="white"/>
<path d="M55.5533 22.9046C61.103 22.9046 64.9675 26.7301 64.9675 32.2997C64.9675 37.8892 61.0235 41.7345 55.4142 41.7345H49.2696V51.5062H44.8301V22.9046L55.5533 22.9046ZM49.2695 38.0081H54.3635C58.2288 38.0081 60.4286 35.9271 60.4286 32.3196C60.4286 28.7124 58.2288 26.6509 54.3834 26.6509H49.2695V38.0081Z" fill="black"/>
<path d="M66.1274 45.5799C66.1274 41.9326 68.9222 39.6929 73.8778 39.4154L79.5858 39.0786V37.4732C79.5858 35.1541 78.0198 33.7666 75.404 33.7666C72.9258 33.7666 71.3797 34.9556 71.0035 36.8191H66.9601C67.1979 33.0528 70.4086 30.278 75.5623 30.278C80.6165 30.278 83.8471 32.9538 83.8471 37.136V51.5062H79.7441V48.0772H79.6454C78.4365 50.3963 75.8001 51.8629 73.065 51.8629C68.9818 51.8629 66.1274 49.3258 66.1274 45.5799ZM79.5858 43.697V42.0518L74.452 42.3688C71.8951 42.5473 70.4484 43.6771 70.4484 45.461C70.4484 47.2842 71.9547 48.4736 74.254 48.4736C77.2468 48.4736 79.5858 46.4122 79.5858 43.697Z" fill="black"/>
<path d="M87.7206 59.177V55.7082C88.0372 55.7874 88.7506 55.7874 89.1077 55.7874C91.0896 55.7874 92.1601 54.9551 92.8139 52.8145C92.8139 52.7747 93.1908 51.5459 93.1908 51.5261L85.6592 30.6546H90.2967L95.5696 47.6214H95.6484L100.921 30.6546H105.44L97.6303 52.5962C95.8472 57.6508 93.7857 59.276 89.4648 59.276C89.1077 59.276 88.0372 59.2363 87.7206 59.177Z" fill="black"/>
<path d="M31.7358 25.6955C32.8058 24.3572 33.5319 22.5603 33.3404 20.724C31.7741 20.8019 29.8627 21.7573 28.7562 23.0967C27.7626 24.2436 26.8832 26.1158 27.1124 27.8751C28.8707 28.0276 30.6273 26.9962 31.7358 25.6955Z" fill="black"/>
<path d="M33.3204 28.2186C30.7671 28.0665 28.5961 29.6678 27.3767 29.6678C26.1567 29.6678 24.2894 28.2952 22.2698 28.3322C19.6412 28.3708 17.2022 29.8571 15.8682 32.2209C13.1246 36.9497 15.1442 43.9642 17.8122 47.8155C19.1079 49.7209 20.6694 51.8189 22.7269 51.7435C24.6709 51.6672 25.4328 50.4847 27.7958 50.4847C30.1571 50.4847 30.8435 51.7435 32.9013 51.7054C35.0353 51.6672 36.3695 49.799 37.6651 47.8918C39.1515 45.7198 39.7599 43.6225 39.7982 43.5073C39.7599 43.4692 35.6832 41.9053 35.6454 37.2158C35.6069 33.2892 38.8461 31.4215 38.9985 31.3057C37.1694 28.6003 34.3113 28.2952 33.3204 28.2186Z" fill="black"/>
<rect x="1.375" y="1.375" width="117.25" height="77.25" rx="6.625" stroke="black" stroke-width="2.75"/>
</g>
<defs>
<clipPath id="clip0_823_247">
<rect width="120" height="80" rx="4" fill="white"/>
</clipPath>
</defs>
</svg>
