<?xml version="1.0" encoding="UTF-8" standalone="no" ?>
<!DOCTYPE svg PUBLIC "-//W3C//DTD SVG 1.1//EN" "http://www.w3.org/Graphics/SVG/1.1/DTD/svg11.dtd">
<svg xmlns="http://www.w3.org/2000/svg" xmlns:xlink="http://www.w3.org/1999/xlink" version="1.1" width="1080" height="1080" viewBox="0 0 1080 1080" xml:space="preserve">
<desc>Created with Fabric.js 5.2.4</desc>
<defs>
</defs>
<g transform="matrix(1 0 0 1 540 540)" id="65847296-0daf-4b94-8469-0bdfef628784"  >
<rect style="stroke: none; stroke-width: 1; stroke-dasharray: none; stroke-linecap: butt; stroke-dashoffset: 0; stroke-linejoin: miter; stroke-miterlimit: 4; fill: #FAFAFA; fill-rule: nonzero; opacity: 1; visibility: hidden;" vector-effect="non-scaling-stroke"  x="-540" y="-540" rx="0" ry="0" width="1080" height="1080" />
</g>
<g transform="matrix(1 0 0 1 540 540)" id="ab02a9be-10c8-45ef-af4f-996f778681ca"  >
</g>
<g transform="matrix(2.57 0 0 2.72 533.02 538.09)"  >
<g style="" vector-effect="non-scaling-stroke"   >
		<g transform="matrix(1 0 0 1 0 0)" id="object-0"  >
<path style="stroke: none; stroke-width: 1; stroke-dasharray: none; stroke-linecap: butt; stroke-dashoffset: 0; stroke-linejoin: miter; stroke-miterlimit: 4; fill: #FAFAFA; fill-rule: nonzero; opacity: 1;" vector-effect="non-scaling-stroke"  transform=" translate(-246.25, -252.93)" d="M 315.87 407.76 C 315.252 407.787 314.633 407.81 313.904 407.7 C 313.784 406.955 313.773 406.346 313.773 405.737 C 313.771 387.226 313.773 368.713 313.753 350.201 C 313.75 349.446 313.517 348.691 313.392 347.935 C 313.376 347.726 313.36 347.514 313.423 347.125 C 313.59 346.223 313.753 345.499 313.753 344.775 C 313.771 328.528 313.768 312.28 313.771 296.032 C 313.773 263.013 313.779 229.993 313.76 196.975 C 313.76 196.316 313.488 195.66 313.345 195.001 C 311.127 191.566 309.008 188.06 306.671 184.707 C 300.92 176.446 293.964 169.364 285.601 163.707 C 285.355 163.54 285.083 163.409 284.691 163.187 C 283.434 164.813 282.068 166.337 280.985 168.042 C 279.78 169.942 278.315 170.483 276.146 169.968 C 273.748 169.398 271.281 169.119 268.736 168.695 C 268.656 169.228 268.567 169.552 268.566 169.879 C 268.553 172.407 268.522 174.935 268.595 177.46 C 268.608 177.889 269 178.529 269.38 178.691 C 278.305 182.497 284.482 189.143 289.232 197.411 C 290.625 199.832 291.053 202.206 291.051 204.924 C 291.002 272.976 291.01 341.028 291.012 409.08 C 291.012 409.548 291.059 410.016 291.088 410.56 C 293.869 410.56 296.543 410.56 299.382 410.56 C 299.382 410.024 299.382 409.559 299.382 409.093 C 299.382 339.168 299.385 269.242 299.362 199.317 C 299.362 198.666 299.157 197.936 298.823 197.377 C 296.3 193.156 293.817 188.9 290.429 185.279 C 289.554 184.343 289.64 183.528 290.528 182.704 C 290.91 182.348 291.281 181.978 291.683 181.648 C 293.43 180.226 293.6 180.109 294.949 181.961 C 297.969 186.105 300.736 190.429 303.746 194.577 C 304.99 196.29 305.15 198.07 305.15 200.062 C 305.12 255.435 305.125 310.809 305.125 366.182 C 305.125 380.429 305.12 394.676 305.118 408.921 C 305.118 409.436 305.118 409.95 305.118 410.56 C 312.372 410.56 319.493 410.56 326.771 410.56 C 326.797 410.103 326.849 409.642 326.849 409.184 C 326.854 357.339 326.854 305.494 326.86 253.649 C 326.86 241.843 326.933 230.035 326.808 218.23 C 326.786 216.339 325.926 214.447 325.401 212.57 C 324.737 210.197 326.353 208.325 328.849 208.628 C 329.702 208.731 330.274 209.119 330.522 210.01 C 331.147 212.227 331.89 214.41 332.454 216.641 C 332.66 217.457 332.499 218.367 332.499 219.233 C 332.501 249.992 332.503 280.75 332.503 311.509 C 332.506 343.661 332.506 375.815 332.506 407.967 C 332.506 408.79 332.506 409.611 332.506 410.539 C 335.092 410.539 337.547 410.539 340.092 410.539 C 340.129 410.194 340.2 409.862 340.2 409.53 C 340.202 377.379 340.2 345.224 340.197 313.074 C 340.197 282.533 340.202 251.993 340.171 221.453 C 340.171 220.516 340.542 220.154 341.313 219.862 C 343.459 219.053 345.585 218.197 347.906 217.285 C 346.824 214.616 345.896 212.04 344.751 209.564 C 340.25 199.827 334.462 190.936 327.401 182.827 C 318.173 172.224 307.392 163.621 295.106 156.858 C 294.078 156.291 292.996 155.82 291.982 155.232 C 290.594 154.427 290.215 153.12 290.915 151.808 C 291.833 150.09 293.019 149.473 294.494 150.354 C 300.052 153.677 305.719 156.858 311.01 160.57 C 322.923 168.928 332.757 179.379 340.895 191.435 C 344.429 196.669 347.585 202.112 350.126 207.899 C 351.187 210.315 352.157 212.772 353.15 215.348 C 353.179 215.626 353.226 215.765 353.273 215.903 C 353.273 215.903 353.249 215.891 353.249 215.985 C 353.522 216.801 353.796 217.526 354.067 218.249 C 354.067 218.249 354.047 218.239 354.044 218.331 C 354.604 220.359 355.145 222.301 355.741 224.225 C 355.887 224.699 356.214 225.116 356.46 225.56 C 358.122 231.26 359.296 237.088 359.456 243.001 C 359.801 255.748 359.821 268.504 359.973 281.257 C 359.978 281.78 360.017 282.307 359.963 282.824 C 359.84 283.989 360.368 284.35 361.479 284.312 C 363.395 284.248 365.313 284.225 367.227 284.311 C 368.458 284.366 368.879 284.002 368.871 282.713 C 368.822 271.913 368.851 261.112 368.827 250.312 C 368.817 245.305 368.919 240.289 368.668 235.293 C 368.124 224.337 365.125 213.96 360.731 203.966 C 355.427 191.911 348.121 181.154 339.394 171.327 C 339.227 171.136 339.047 170.956 338.804 170.697 C 337.706 171.265 336.605 171.772 335.567 172.386 C 334.579 172.974 333.899 172.843 333.087 171.979 C 325.461 163.883 316.905 156.926 307.374 151.191 C 295.312 143.936 282.399 138.773 268.543 135.458 C 267.317 135.164 266.246 134.978 265.175 134.794 C 265.119 134.792 265.062 134.789 264.867 134.691 C 263.946 134.384 263.174 134.113 262.377 133.982 C 258.842 133.393 258.839 133.409 259.122 129.869 C 259.122 129.869 259.13 129.888 259.174 129.846 C 259.276 129.739 259.335 129.671 259.393 129.601 C 259.393 129.601 259.394 129.627 259.435 129.584 C 259.538 129.478 259.599 129.41 259.66 129.344 C 259.66 129.344 259.66 129.37 259.698 129.325 C 259.796 129.222 259.857 129.159 259.918 129.099 C 259.918 129.099 259.915 129.111 260.019 129.101 C 260.747 129.023 261.369 128.955 261.992 128.884 C 268.645 129.61 275.041 131.427 281.381 133.472 C 295.403 137.995 308.375 144.585 320.288 153.261 C 322.564 154.919 322.581 154.876 324.321 152.629 C 326.962 149.222 329.612 145.826 332.266 142.431 C 333.667 140.637 334.148 140.564 335.975 141.947 C 345.773 149.35 354.815 157.562 362.493 167.184 C 365.421 170.851 368.15 174.679 370.973 178.432 C 371.18 178.707 371.405 178.971 371.663 179.292 C 373.758 177.983 375.807 176.686 377.872 175.418 C 378.698 174.908 378.248 174.389 377.924 173.889 C 375.095 169.555 372.403 165.122 369.392 160.915 C 361.803 150.322 352.996 140.807 343.13 132.298 C 334.765 125.083 325.668 118.901 315.977 113.592 C 314.902 113.003 314.364 113.066 313.768 114.219 C 312.526 116.611 311.115 118.914 309.792 121.266 C 308.686 123.232 308.061 123.405 306.017 122.414 C 301.521 120.229 297.077 117.91 292.481 115.954 C 276.869 109.32 260.662 105.556 243.578 106.298 C 241.728 106.379 241.633 106.266 241.594 104.468 C 241.587 104.162 241.552 103.853 241.585 103.553 C 241.691 102.596 241.354 102.249 240.335 102.332 C 233.671 102.873 227.143 104.063 220.798 106.211 C 210.576 109.673 201.439 114.979 193.955 122.775 C 190.476 126.396 187.607 130.601 184.465 134.544 C 184.222 134.85 184.005 135.176 183.644 135.569 C 183.452 135.741 183.393 135.836 183.335 135.93 C 183.335 135.93 183.332 135.905 183.294 135.965 C 183.192 136.17 183.131 136.316 183.068 136.46 C 183.068 136.46 183.053 136.431 183.02 136.473 C 182.924 136.58 182.861 136.645 182.797 136.708 C 182.797 136.708 182.806 136.69 182.709 136.703 C 178.247 137.495 173.879 138.258 169.522 139.082 C 168.889 139.203 168.312 139.613 167.711 139.887 C 162.59 141.252 157.469 142.613 152.348 143.978 C 138.77 147.591 125.652 152.375 113.355 159.252 C 99.148 167.2 86.725 177.295 76.553 190.053 C 69.395 199.032 64.176 209.047 60.983 220.098 C 60.9 220.39 60.798 220.677 60.584 221.108 C 59.767 224.012 59.075 226.776 58.38 229.54 C 58.38 229.54 58.382 229.646 58.306 229.768 C 57.957 231.151 57.582 232.4 57.431 233.674 C 57.157 235.937 57.02 238.214 56.827 240.486 C 56.816 240.851 56.806 241.216 56.738 241.786 C 56.633 243.915 56.573 245.838 56.56 247.762 C 56.56 248.021 56.798 248.282 56.926 248.543 C 58.296 250.19 59.601 249.982 60.371 247.99 C 64.779 236.637 70.175 225.786 76.906 215.624 C 85.439 202.741 95.759 191.649 108.982 183.399 C 119.114 177.076 129.901 172.198 141.17 168.331 C 151.025 164.952 161.102 162.439 171.392 160.813 C 180.365 159.394 189.403 158.976 198.483 159.281 C 204.222 159.477 209.974 159.796 215.706 159.608 C 220.73 159.443 225.6 158.183 230.024 155.592 C 233.996 153.272 236.904 150.019 238.578 145.727 C 238.978 144.705 239.57 144.069 240.597 143.714 C 244.964 142.203 247.194 138.953 247.529 134.504 C 247.87 129.985 246.261 126.197 242.372 123.614 C 236.784 119.902 228.701 120.352 223.558 124.623 C 221.636 126.217 220.299 128.251 219.439 130.57 C 217.925 134.651 214.62 136.839 210.98 138.637 C 209.542 139.346 207.784 138.609 207.189 137.304 C 206.569 135.942 207.113 134.541 208.603 133.705 C 209.399 133.258 210.208 132.834 211.018 132.413 C 212.856 131.456 214.027 130.113 214.805 128.055 C 217.451 121.052 222.966 117.387 230.105 116.135 C 237.118 114.906 243.422 116.705 248.391 121.87 C 256.6 130.403 253.197 144.148 243.822 148.237 C 243.387 148.427 242.948 148.851 242.741 149.277 C 239.001 156.965 232.724 161.422 224.644 163.642 C 218.21 165.411 211.658 165.511 205.068 165.106 C 189.634 164.16 174.364 165.046 159.304 168.836 C 147.847 171.72 136.67 175.364 125.956 180.367 C 117.012 184.544 108.551 189.524 101.029 195.958 C 93.872 202.078 87.922 209.282 82.579 217.013 C 77.989 223.653 74.101 230.687 70.437 238.028 C 70.067 238.649 69.856 239.184 69.645 239.719 C 69.645 239.719 69.639 239.701 69.568 239.746 C 69.361 240.2 69.226 240.607 69.093 241.014 C 69.093 241.014 69.082 240.989 69.042 241.045 C 68.947 241.246 68.888 241.393 68.831 241.539 C 68.831 241.539 68.831 241.517 68.758 241.558 C 68.56 242.013 68.434 242.428 68.311 242.843 C 68.311 242.843 68.306 242.821 68.238 242.864 C 67.438 244.719 66.703 246.53 65.966 248.34 C 65.966 248.34 65.953 248.316 65.932 248.357 C 65.908 248.535 65.906 248.674 65.903 248.812 C 65.234 250.594 64.753 252.452 63.253 253.822 C 61.179 255.715 58.495 256.27 55.875 255.033 C 53.261 253.797 51.371 251.969 51.337 248.771 C 51.152 230.684 55.601 213.755 64.531 198.099 C 67.422 193.03 71.043 188.316 74.76 183.795 C 85.418 170.846 98.619 160.991 113.324 153.102 C 124.057 147.34 135.369 142.953 147.141 139.864 C 157.022 137.273 166.976 134.965 176.935 132.68 C 178.772 132.256 180.03 131.655 181.124 129.997 C 187.414 120.466 195.538 112.834 205.517 107.236 C 212.971 103.054 220.885 100.058 229.309 98.555 C 232.898 97.914 236.543 97.595 240.164 97.13 C 240.588 97.075 241.013 97.028 241.532 96.965 C 241.532 95.716 241.539 94.552 241.53 93.387 C 241.515 91.311 242.063 90.668 244.111 90.37 C 251.768 89.256 259.397 89.677 267.014 90.783 C 279.147 92.545 290.674 96.361 301.975 100.996 C 310.082 104.322 317.844 108.308 325.341 112.831 C 336.161 119.355 346.121 127.002 355.053 135.934 C 367.115 147.996 377.533 161.331 385.671 176.365 C 387.448 179.648 388.935 183.086 390.528 186.604 C 390.637 187.059 390.778 187.36 390.919 187.663 C 390.919 187.663 390.896 187.661 390.909 187.741 C 391.097 188.207 391.272 188.589 391.448 188.973 C 391.448 188.973 391.423 188.962 391.429 189.051 C 392.046 190.564 392.655 191.99 393.266 193.414 C 393.266 193.414 393.249 193.409 393.243 193.498 C 393.421 193.965 393.604 194.344 393.787 194.722 C 393.787 194.722 393.769 194.719 393.776 194.8 C 393.899 195.087 394.015 195.289 394.129 195.492 C 396.809 202.969 398.579 210.657 399.52 218.541 C 400.683 228.263 400.236 238.028 400.25 247.776 C 400.299 282.313 400.268 316.848 400.262 351.383 C 400.259 370.548 400.254 389.71 400.247 408.871 C 400.247 410.654 400.244 410.67 402.014 410.648 C 403.182 410.636 404.353 410.568 405.666 410.366 C 405.891 409.311 406.047 408.411 406.047 407.511 C 406.058 370.394 406.053 333.275 406.053 296.159 C 406.053 275.117 406.061 254.075 406.042 233.033 C 406.039 232.379 405.749 231.726 405.595 231.072 C 405.389 229.889 405.161 228.709 404.986 227.522 C 404.858 226.657 405.302 226.089 406.105 225.851 C 406.891 225.617 407.697 225.361 408.508 225.304 C 410.188 225.183 411.067 225.932 411.084 227.623 C 411.171 235.462 411.234 243.302 411.237 251.142 C 411.252 303.719 411.247 356.296 411.249 408.873 C 411.249 409.391 411.249 409.906 411.249 410.542 C 413.385 410.542 415.411 410.542 417.55 410.359 C 417.717 409.569 417.816 408.965 417.816 408.361 C 417.824 352.301 417.824 296.243 417.814 240.185 C 417.814 239.499 417.656 238.814 417.573 238.128 C 417.562 237.842 417.552 237.557 417.586 237.1 C 417.578 236.718 417.531 236.506 417.484 236.294 C 417.017 232.981 416.638 229.651 416.062 226.356 C 412.998 208.815 407.284 192.175 398.952 176.435 C 390.365 160.217 379.535 145.667 366.182 133.08 C 349.736 117.572 331.038 105.621 309.603 98.163 C 307.35 97.378 305.024 96.78 302.703 96.21 C 301.165 95.834 300.388 95.099 300.431 93.692 C 300.473 92.224 301.57 90.989 303.037 90.934 C 303.758 90.906 304.512 91.063 305.21 91.272 C 313.978 93.897 322.546 97.078 330.559 101.519 C 336.979 105.077 343.35 108.774 349.461 112.834 C 358.323 118.723 366.378 125.65 373.852 133.244 C 381.291 140.802 388.062 148.914 393.989 157.7 C 401.355 168.614 407.626 180.126 412.251 192.486 C 413.736 196.452 415.055 200.48 416.41 204.633 C 416.431 205.005 416.491 205.223 416.548 205.441 C 416.548 205.441 416.525 205.432 416.527 205.51 C 416.624 205.801 416.713 206.015 416.804 206.228 C 416.804 206.228 416.781 206.216 416.786 206.297 C 416.904 206.582 417.017 206.788 417.131 206.993 C 417.205 207.03 417.249 207.09 417.202 207.302 C 417.265 208.189 417.322 208.966 417.526 209.701 C 418.125 211.863 418.783 214.01 419.421 216.162 C 419.421 216.162 419.398 216.148 419.395 216.209 C 419.495 216.474 419.596 216.678 419.698 216.883 C 420.55 221.671 421.607 226.434 422.193 231.254 C 422.674 235.216 422.746 239.245 422.746 243.243 C 422.78 298.399 422.77 353.556 422.768 408.708 C 422.768 409.274 422.768 409.836 422.768 410.551 C 423.311 410.578 423.771 410.625 424.229 410.625 C 428.848 410.63 433.467 410.617 438.083 410.63 C 440.002 410.636 441.25 411.841 441.171 413.558 C 441.098 415.126 440.063 416.125 438.476 416.123 C 422.487 416.114 406.5 416.099 390.511 416.094 C 383.931 416.091 377.354 416.099 370.774 416.117 C 369.041 416.123 368.817 415.952 368.817 414.172 C 368.809 403.457 368.817 392.739 368.819 382.024 C 368.827 363.9 368.825 345.776 368.864 327.652 C 368.867 326.468 368.448 326.165 367.343 326.204 C 365.429 326.275 363.504 326.277 361.594 326.188 C 360.324 326.128 359.926 326.604 359.934 327.843 C 359.978 335.599 359.973 343.353 359.978 351.109 C 359.986 372.02 359.994 392.932 359.997 413.843 C 359.997 415.723 359.547 416.136 357.673 416.136 C 327.004 416.12 296.332 416.107 265.662 416.102 C 258.604 416.099 251.547 416.12 244.489 416.125 C 242.635 416.125 242.366 415.869 242.366 414.029 C 242.367 403.658 242.384 393.291 242.364 382.923 C 242.363 382.338 242.13 381.271 241.934 381.253 C 240.894 381.167 239.657 381.033 238.821 381.506 C 237.813 382.076 237.337 383.202 237.352 384.612 C 237.435 392.493 237.377 400.381 237.359 408.267 C 237.359 408.861 237.29 409.457 237.248 410.131 C 235.452 410.131 233.77 410.131 231.929 410.131 C 231.929 409.59 231.929 409.124 231.929 408.657 C 231.931 399.813 231.915 390.969 231.969 382.125 C 231.973 381.433 232.31 380.607 232.764 380.076 C 233.864 378.787 235.09 377.598 236.343 376.456 C 236.754 376.082 237.402 375.789 237.951 375.773 C 240.78 375.692 243.613 375.718 246.444 375.692 C 247.596 375.679 247.876 376.268 247.874 377.344 C 247.848 387.887 247.867 398.43 247.874 408.975 C 247.874 409.451 247.874 409.927 247.874 410.525 C 255.032 410.525 262.099 410.525 269.298 410.525 C 269.322 410.069 269.369 409.605 269.369 409.143 C 269.375 378.037 269.382 346.928 269.343 315.824 C 269.342 315.143 268.93 314.361 268.485 313.807 C 267.726 312.86 266.656 312.153 265.959 311.172 C 265.063 309.911 263.957 309.671 262.514 309.673 C 233.543 309.709 204.571 309.716 175.6 309.679 C 174.126 309.677 173.074 310.082 172.073 311.16 C 169.701 313.711 167.233 316.173 164.762 318.629 C 164.111 319.278 163.962 319.981 163.962 320.851 C 163.97 342.723 163.96 364.592 163.954 386.463 C 163.952 393.955 163.954 401.449 163.957 408.941 C 163.957 409.454 163.957 409.964 163.957 410.628 C 165.675 410.628 167.23 410.644 168.783 410.622 C 169.711 410.607 169.452 409.862 169.454 409.357 C 169.469 405.219 169.455 401.081 169.455 396.94 C 169.451 374.372 169.448 351.807 169.446 329.239 C 169.446 327.21 170.088 326.35 171.693 326.222 C 173.596 326.068 174.442 326.816 174.443 328.714 C 174.453 350.583 174.458 372.456 174.461 394.326 C 174.462 399.248 174.452 404.17 174.454 409.093 C 174.454 409.561 174.498 410.029 174.529 410.656 C 176.187 410.656 177.743 410.656 179.462 410.557 C 179.728 409.697 179.916 408.933 179.917 408.17 C 179.933 400.509 179.912 392.849 179.912 385.19 C 179.912 365.167 179.917 345.146 179.919 325.124 C 180.656 324.106 181.605 323.661 182.849 324.066 C 184.16 324.493 184.388 325.48 184.387 326.737 C 184.354 354.329 184.35 381.919 184.344 409.509 C 184.344 409.812 184.379 410.112 184.406 410.534 C 185.657 410.534 186.891 410.534 188.25 410.361 C 188.436 409.673 188.55 409.158 188.551 408.644 C 188.56 400.195 188.559 391.748 188.541 383.299 C 188.539 382.745 188.382 382.191 188.297 381.637 C 188.281 381.271 188.266 380.905 188.312 380.335 C 188.349 379.239 188.323 378.345 188.299 377.454 C 188.285 376.746 188.27 376.035 188.302 375.146 C 188.332 374.752 188.315 374.534 188.298 374.317 C 188.283 373.522 188.268 372.725 188.306 371.742 C 188.337 371.254 188.315 370.953 188.294 370.655 C 188.28 369.774 188.267 368.893 188.315 367.793 C 188.435 367.061 188.542 366.545 188.542 366.03 C 188.556 353.608 188.561 341.185 188.548 328.763 C 188.547 328.172 188.368 327.579 188.272 326.988 C 190.581 324.524 192.89 322.06 195.38 319.404 C 197.267 321.391 198.871 323.272 200.681 324.927 C 202.179 326.298 202.486 327.853 202.482 329.78 C 202.43 355.914 202.438 382.047 202.447 408.183 C 202.448 411.08 202.075 410.594 204.958 410.646 C 205.775 410.662 206.592 410.648 207.599 410.648 C 207.599 410 207.599 409.496 207.599 408.989 C 207.596 381.634 207.592 354.282 207.587 326.928 C 207.587 324.693 208.235 323.839 209.98 323.824 C 211.723 323.809 212.617 324.753 212.616 326.62 C 212.609 342.344 212.6 358.068 212.595 373.792 C 212.591 385.464 212.592 397.139 212.591 408.811 C 212.591 409.365 212.591 409.922 212.591 410.805 C 214.224 410.622 215.676 410.46 217.233 410.118 C 217.415 409.297 217.56 408.659 217.561 408.021 C 217.578 401.449 217.569 394.88 217.568 388.311 C 217.565 367.212 217.561 346.11 217.558 325.011 C 218.468 323.79 219.749 323.653 221.083 323.928 C 222.106 324.139 222.746 324.759 222.717 325.95 C 222.667 327.976 222.703 330.005 222.703 332.143 C 224.062 331.176 225.3 330.235 226.603 329.395 C 227.084 329.084 227.715 328.865 228.281 328.857 C 232.898 328.81 237.514 328.8 242.131 328.824 C 244.469 328.834 245.979 330.499 247.603 331.83 C 247.94 332.104 247.854 332.975 247.855 333.571 C 247.87 340.322 247.896 347.073 247.835 353.825 C 247.822 355.129 248.158 355.53 249.506 355.504 C 254.209 355.411 258.914 355.453 263.618 355.464 C 265.596 355.467 265.863 355.759 265.887 357.746 C 265.892 358.227 265.937 358.711 265.885 359.184 C 265.765 360.276 265.181 360.98 264.03 360.982 C 257.235 360.991 250.44 360.967 243.645 360.982 C 242.448 360.985 242.345 360.284 242.347 359.356 C 242.363 351.998 242.361 344.637 242.362 337.274 C 242.362 336.752 242.315 336.224 242.36 335.706 C 242.453 334.653 241.953 334.365 240.968 334.381 C 237.266 334.436 233.563 334.407 229.862 334.477 C 229.313 334.488 228.667 334.736 228.244 335.089 C 226.606 336.454 224.983 337.847 223.485 339.358 C 223.013 339.834 222.735 340.712 222.733 341.405 C 222.686 358.045 222.69 374.683 222.684 391.322 C 222.681 398.814 222.679 406.306 222.672 413.798 C 222.67 416.08 222.65 416.112 220.342 416.112 C 204.182 416.112 188.022 416.102 171.862 416.097 C 167.986 416.097 164.109 416.117 160.232 416.094 C 159.691 416.089 159.15 415.89 158.612 415.595 C 158.666 414.716 158.763 414.023 158.763 413.333 C 158.766 390.904 158.758 368.474 158.747 346.045 C 158.742 336.462 158.724 326.881 158.71 317.301 C 158.71 317.301 158.726 317.308 158.768 317.254 C 158.878 317.064 158.943 316.927 159.011 316.79 C 162.964 312.805 166.89 308.793 170.902 304.868 C 171.422 304.359 172.374 304.082 173.134 304.062 C 177.315 303.953 181.498 303.957 185.68 303.923 C 186.093 303.92 186.506 303.922 187.296 303.922 C 186.302 302.818 185.609 301.948 184.813 301.183 C 181.877 298.358 180.684 295.047 180.533 290.868 C 180.165 280.661 182.723 271.249 186.883 262.087 C 189.785 255.694 193.993 250.251 198.55 245.016 C 199.148 244.327 199.655 243.554 200.281 242.894 C 203.849 239.128 205.513 234.282 207.512 229.695 C 210.689 222.404 213.53 214.961 216.328 207.514 C 217.474 204.461 218.088 201.215 217.602 197.895 C 217.248 195.488 216.255 193.43 214.23 191.93 C 211.993 190.27 209.734 188.623 207.618 186.816 C 204.963 184.55 202.527 182.069 201.026 178.812 C 200.851 178.43 200.171 178.098 199.7 178.059 C 189.988 177.28 180.299 177.397 170.636 178.791 C 156.169 180.879 142.262 184.895 128.922 190.855 C 120.721 194.523 112.937 198.935 105.685 204.26 C 104.23 205.331 102.43 205.149 101.526 203.886 C 100.682 202.705 101.155 201.018 102.598 199.952 C 117.533 188.912 134.224 181.65 152.086 176.89 C 160.729 174.589 169.49 172.815 178.416 172.36 C 185.361 172.005 192.343 172.247 199.303 172.399 C 203.174 172.483 207.037 172.911 210.902 173.22 C 212.693 173.361 213.617 174.407 213.457 175.993 C 213.296 177.586 212.047 178.55 210.331 178.388 C 209.39 178.302 208.452 178.187 207.125 178.043 C 208.482 180.103 209.875 181.59 211.508 182.877 C 213.935 184.785 216.392 186.662 218.764 188.638 C 221.581 190.986 222.702 194.219 223.039 197.728 C 223.465 202.14 222.476 206.383 221.134 210.555 C 217.61 221.52 212.887 231.987 207.683 242.231 C 206.486 244.587 204.559 246.636 202.722 248.596 C 194.902 256.937 189.972 266.775 187.29 277.809 C 186.074 282.81 185.918 287.882 186.268 292.999 C 186.37 294.492 187.172 295.532 188.085 296.493 C 190.181 298.702 192.32 300.877 194.562 302.935 C 195.157 303.482 196.186 303.808 197.017 303.81 C 213.309 303.862 229.602 303.836 245.894 303.886 C 247.304 303.89 247.298 303.18 247.297 302.181 C 247.276 285.017 247.26 267.853 247.259 250.688 C 247.259 218.972 247.268 187.256 247.278 155.54 C 247.279 152.723 249.579 151.395 252.163 152.686 C 253.092 153.148 253.223 153.928 253.221 154.868 C 253.196 162.839 253.201 170.812 253.199 178.785 C 253.19 219.911 253.182 261.037 253.173 302.163 C 253.173 303.855 253.174 303.85 254.916 303.848 C 258.354 303.845 261.791 303.847 265.387 303.847 C 265.415 303.24 265.458 302.736 265.458 302.232 C 265.46 288.247 265.446 274.262 265.479 260.278 C 265.482 259.13 265.234 258.54 263.985 258.731 C 262.655 258.933 262.79 258.01 262.791 257.167 C 262.798 238.521 262.804 219.875 262.803 201.228 C 262.802 185.371 262.794 169.513 262.788 153.655 C 262.787 150.835 264.337 149.489 267.21 149.86 C 271.444 150.409 275.401 151.883 279.231 153.666 C 286.061 156.85 292.155 161.153 297.827 166.339 C 297.984 166.57 298.046 166.661 298.112 166.755 C 298.112 166.755 298.083 166.744 298.117 166.815 C 298.671 167.351 299.189 167.817 299.709 168.285 C 299.709 168.285 299.678 168.295 299.727 168.342 C 299.932 168.452 300.086 168.509 300.24 168.567 C 300.379 168.68 300.519 168.786 300.747 169.006 C 300.904 169.194 300.969 169.273 301.034 169.351 C 301.108 169.356 301.165 169.387 301.275 169.552 C 301.411 169.727 301.479 169.801 301.547 169.874 C 301.625 169.889 301.683 169.929 301.756 170.136 C 301.968 170.481 302.148 170.689 302.328 170.899 C 302.328 170.899 302.302 170.902 302.331 170.954 C 302.433 171.058 302.509 171.11 302.587 171.162 C 302.587 171.162 302.567 171.16 302.59 171.233 C 302.857 171.526 303.102 171.748 303.348 171.968 C 303.348 171.968 303.322 171.973 303.356 172.02 C 303.463 172.122 303.536 172.179 303.609 172.235 C 303.609 172.235 303.581 172.235 303.615 172.281 C 303.721 172.384 303.798 172.438 303.874 172.493 C 303.874 172.493 303.845 172.498 303.894 172.554 C 304.046 172.66 304.148 172.713 304.25 172.768 C 306.945 176.224 309.748 179.601 312.301 183.159 C 314.275 185.904 315.789 188.986 317.801 191.697 C 318.824 193.07 319.127 194.379 319.127 195.961 C 319.125 216.911 319.148 237.86 319.153 258.811 C 319.159 294.612 319.153 330.415 319.153 366.216 C 319.153 379.326 319.163 392.436 319.148 405.546 C 319.148 406.395 319.464 407.477 317.948 407.716 C 317.13 407.702 316.5 407.731 315.87 407.76 M 375.465 186.356 C 375.465 186.356 375.473 186.333 375.493 186.492 C 375.585 186.62 375.676 186.746 375.747 186.863 C 375.747 186.863 375.758 186.843 375.755 187.007 C 375.849 187.135 375.94 187.263 376.016 187.386 C 376.016 187.386 376.021 187.365 376.014 187.567 C 376.369 188.204 376.724 188.842 377.059 189.478 C 377.059 189.478 377.059 189.456 377.075 189.618 C 377.161 189.749 377.25 189.883 377.31 190.003 C 377.31 190.003 377.32 189.979 377.331 190.142 C 377.422 190.27 377.516 190.395 377.582 190.523 C 377.582 190.523 377.582 190.492 377.635 190.625 C 377.705 190.685 377.775 190.745 377.82 190.803 C 377.82 190.803 377.825 190.779 377.833 190.957 C 377.929 191.166 378.029 191.373 378.105 191.569 C 378.105 191.569 378.115 191.548 378.112 191.746 C 378.463 192.387 378.81 193.03 379.14 193.665 C 379.14 193.665 379.145 193.645 379.14 193.809 C 379.289 194.018 379.438 194.227 379.639 194.625 C 382.51 200.357 384.423 206.442 386.232 212.564 C 386.713 214.191 385.765 215.502 383.811 216.012 C 382.269 216.416 381.16 215.701 380.755 214.019 C 378.735 205.635 375.485 197.717 371.449 190.131 C 365.309 178.585 357.354 168.373 347.935 159.323 C 344.108 155.648 340.017 152.25 336.057 148.71 C 335.348 148.077 334.89 148.116 334.292 148.924 C 332.117 151.86 329.884 154.759 327.623 157.632 C 327.037 158.38 327.079 158.839 327.793 159.459 C 329.733 161.143 331.636 162.87 333.51 164.625 C 335.377 166.376 335.356 166.399 337.599 165.257 C 339.74 164.165 339.943 164.175 341.616 165.932 C 346.722 171.307 351.357 177.058 355.479 183.225 C 358.838 188.248 361.686 193.54 364.307 198.99 C 366.93 204.445 369.152 210.022 370.811 215.828 C 371.622 218.663 372.286 221.539 373.041 224.497 C 374.853 224.009 376.649 223.524 378.445 223.039 C 380.797 222.406 383.139 221.733 385.506 221.154 C 387.207 220.738 387.759 221.229 387.751 222.953 C 387.748 224.347 387.743 225.741 387.743 227.135 C 387.736 287.773 387.728 348.411 387.725 409.049 C 387.725 409.551 387.78 410.05 387.808 410.544 C 390.211 410.544 392.451 410.544 394.812 410.544 C 394.812 410.013 394.812 409.587 394.812 409.158 C 394.815 395.437 394.822 381.715 394.822 367.993 C 394.825 325.26 394.812 282.526 394.835 239.792 C 394.841 231.119 394.739 222.467 393.285 213.88 C 391.614 204.025 388.397 194.68 384.235 185.632 C 383.37 183.747 382.387 181.917 381.427 180.004 C 379.284 181.348 377.302 182.591 375.313 183.829 C 374.819 184.134 374.494 184.474 374.806 185.182 C 374.949 185.397 375.094 185.611 375.214 185.836 C 375.214 185.836 375.203 185.812 375.258 185.961 C 375.334 186.094 375.41 186.231 375.465 186.356 M 271.16 186.251 C 271.067 186.798 270.894 187.347 270.894 187.896 C 270.884 227.086 270.887 266.277 270.902 305.468 C 270.902 306.108 271.065 306.748 271.175 307.572 C 272.232 308.775 273.338 309.94 274.322 311.2 C 274.712 311.7 275.018 312.403 275.042 313.027 C 275.125 315.202 275.065 317.382 275.065 319.56 C 275.057 349.315 275.05 379.073 275.047 408.827 C 275.047 409.412 275.112 409.998 275.144 410.554 C 278.612 410.554 281.904 410.554 285.268 410.554 C 285.3 410.076 285.344 409.692 285.344 409.311 C 285.35 393.887 285.352 378.466 285.355 363.042 C 285.358 331.414 285.362 299.785 285.365 268.156 C 285.368 246.721 285.381 225.287 285.334 203.852 C 285.331 202.775 285.049 201.554 284.492 200.653 C 282.783 197.884 281.024 195.119 279.003 192.575 C 276.891 189.919 274.367 187.627 271.16 186.251 M 345.927 361.634 C 345.927 365.685 345.93 369.737 345.93 373.789 C 345.93 385.637 345.94 397.484 345.906 409.331 C 345.903 410.359 346.202 410.704 347.235 410.67 C 349.192 410.599 351.155 410.591 353.111 410.672 C 354.194 410.714 354.483 410.275 354.42 409.303 C 354.36 408.39 354.379 407.472 354.379 406.557 C 354.376 363.045 354.402 319.533 354.358 276.02 C 354.348 265.489 354.254 254.954 353.937 244.429 C 353.744 237.929 352.434 231.555 350.63 225.299 C 350.384 224.441 350.073 223.601 349.78 222.72 C 349.116 222.927 348.612 223.06 348.126 223.238 C 345.452 224.216 345.951 223.629 345.951 226.261 C 345.933 271.299 345.933 316.336 345.927 361.634 M 374.613 390.912 C 374.607 397.014 374.61 403.112 374.588 409.211 C 374.586 410.084 374.617 410.722 375.81 410.659 C 377.548 410.565 379.294 410.599 381.035 410.656 C 381.916 410.688 382.133 410.361 382.131 409.519 C 382.102 399.936 382.11 390.352 382.107 380.769 C 382.105 356.421 382.097 332.072 382.097 307.722 C 382.099 281.761 382.11 255.799 382.11 229.839 C 382.11 229.302 382.026 228.765 381.971 228.088 C 379.451 228.791 377.103 229.415 374.785 230.137 C 374.523 230.219 374.277 230.859 374.288 231.233 C 374.354 233.364 374.602 235.492 374.602 237.622 C 374.62 288.632 374.613 339.643 374.613 390.912 M 275.37 97.823 C 269.788 96.947 264.227 95.888 258.618 95.264 C 255.309 94.895 251.925 95.188 248.576 95.261 C 248.153 95.269 247.402 95.731 247.38 96.027 C 247.261 97.611 247.323 99.206 247.323 100.863 C 268.385 100.928 287.621 107.022 306.119 116.307 C 307.193 114.271 308.218 112.329 309.329 110.224 C 298.386 104.902 287.258 100.648 275.37 97.823 M 197.549 330.588 C 197.811 328.787 196.275 328.246 195.476 327.312 C 193.493 328.23 193.235 329.73 193.239 331.584 C 193.288 357.448 193.27 383.312 193.273 409.177 C 193.273 409.634 193.321 410.092 193.352 410.638 C 194.332 410.638 195.163 410.562 195.976 410.654 C 197.232 410.801 197.587 410.353 197.585 409.078 C 197.546 382.996 197.552 356.915 197.549 330.588 M 359.971 316.931 C 359.978 317.802 360.023 318.674 359.978 319.542 C 359.937 320.355 360.308 320.602 361.06 320.598 C 363.15 320.585 365.241 320.551 367.327 320.646 C 368.534 320.702 368.882 320.283 368.877 319.094 C 368.833 309.821 368.851 300.548 368.843 291.276 C 368.843 290.853 368.793 290.43 368.759 289.873 C 366.184 289.873 363.711 289.919 361.241 289.85 C 360.182 289.821 359.939 290.196 359.944 291.202 C 359.981 299.692 359.968 308.181 359.971 316.931 M 279.365 159.69 C 275.962 157.979 272.479 156.495 268.557 155.671 C 268.557 157.995 268.53 160.118 268.591 162.238 C 268.599 162.513 269.024 162.946 269.325 163.017 C 271.519 163.527 273.726 163.984 275.939 164.4 C 276.285 164.465 276.83 164.368 277.037 164.131 C 277.977 163.051 278.858 161.916 279.686 160.75 C 279.822 160.56 279.593 160.107 279.365 159.69 Z" stroke-linecap="round" />
</g>
		<g transform="matrix(1 0 0 1 43.09 -123.91)" id="object-1"  >
<path style="stroke: none; stroke-width: 1; stroke-dasharray: none; stroke-linecap: butt; stroke-dashoffset: 0; stroke-linejoin: miter; stroke-miterlimit: 4; fill: #FAFAFA; fill-rule: nonzero; opacity: 1;" vector-effect="non-scaling-stroke"  transform=" translate(-289.35, -129.02)" d="M 254.556 114.711 C 261.74 115.008 268.677 116.195 275.543 117.85 C 284.005 119.889 292.298 122.462 300.399 125.664 C 309.112 129.106 317.559 133.067 325.367 138.284 C 327.356 139.613 327.301 141.978 325.244 143.092 C 324.68 143.396 323.618 143.416 323.1 143.078 C 312.746 136.34 301.492 131.543 289.856 127.559 C 280.45 124.34 270.861 121.873 260.99 120.594 C 259.006 120.338 257.002 120.229 255.004 120.109 C 253.108 119.99 252.076 119.256 251.896 117.779 C 251.708 116.237 252.574 115.193 254.556 114.711 Z" stroke-linecap="round" />
</g>
		<g transform="matrix(1 0 0 1 -16.76 -118.62)" id="object-2"  >
<path style="stroke: none; stroke-width: 1; stroke-dasharray: none; stroke-linecap: butt; stroke-dashoffset: 0; stroke-linejoin: miter; stroke-miterlimit: 4; fill: #FAFAFA; fill-rule: nonzero; opacity: 1;" vector-effect="non-scaling-stroke"  transform=" translate(-229.5, -134.31)" d="M 236.626 128.108 C 239.711 132.951 238.865 138.514 234.561 142.138 C 230.584 145.487 224.733 144.556 221.995 140.135 C 219.748 136.512 220.115 131.142 222.83 127.878 C 226.671 123.258 232.541 123.326 236.626 128.108 M 226.18 136.774 C 227.332 138.577 229.033 139.21 230.686 138.449 C 233.142 137.32 234.112 134.034 232.688 131.666 C 231.29 129.342 228.345 129.222 226.744 131.438 C 225.595 133.03 225.326 134.756 226.18 136.774 Z" stroke-linecap="round" />
</g>
		<g transform="matrix(1 0 0 1 67.29 18.15)" id="object-3"  >
<path style="stroke: none; stroke-width: 1; stroke-dasharray: none; stroke-linecap: butt; stroke-dashoffset: 0; stroke-linejoin: miter; stroke-miterlimit: 4; fill: #FAFAFA; fill-rule: nonzero; opacity: 1;" vector-effect="non-scaling-stroke"  transform=" translate(-313.54, -271.07)" d="M 313.342 195.121 C 313.488 195.66 313.76 196.316 313.76 196.975 C 313.779 229.993 313.773 263.013 313.771 296.032 C 313.768 312.28 313.771 328.528 313.753 344.775 C 313.753 345.499 313.59 346.223 313.449 347.023 C 313.378 339.082 313.349 331.069 313.347 323.054 C 313.332 280.885 313.326 238.718 313.315 196.551 C 313.315 196.115 313.332 195.678 313.342 195.121 Z" stroke-linecap="round" />
</g>
		<g transform="matrix(1 0 0 1 159.57 67.81)" id="object-4"  >
<path style="stroke: none; stroke-width: 1; stroke-dasharray: none; stroke-linecap: butt; stroke-dashoffset: 0; stroke-linejoin: miter; stroke-miterlimit: 4; fill: #FAFAFA; fill-rule: nonzero; opacity: 1;" vector-effect="non-scaling-stroke"  transform=" translate(-405.82, -320.74)" d="M 405.592 231.193 C 405.749 231.726 406.039 232.379 406.042 233.033 C 406.061 254.075 406.053 275.117 406.053 296.159 C 406.053 333.275 406.058 370.394 406.047 407.511 C 406.047 408.411 405.891 409.311 405.754 410.283 C 405.7 402.472 405.697 394.587 405.697 386.705 C 405.694 341.398 405.697 296.092 405.686 250.786 C 405.686 244.295 405.626 237.805 405.592 231.193 Z" stroke-linecap="round" />
</g>
		<g transform="matrix(1 0 0 1 171.42 71.33)" id="object-5"  >
<path style="stroke: none; stroke-width: 1; stroke-dasharray: none; stroke-linecap: butt; stroke-dashoffset: 0; stroke-linejoin: miter; stroke-miterlimit: 4; fill: #FAFAFA; fill-rule: nonzero; opacity: 1;" vector-effect="non-scaling-stroke"  transform=" translate(-417.68, -324.26)" d="M 417.56 238.249 C 417.656 238.814 417.814 239.499 417.814 240.185 C 417.824 296.243 417.824 352.301 417.816 408.361 C 417.816 408.965 417.717 409.569 417.623 410.272 C 417.57 398.607 417.552 386.844 417.55 375.083 C 417.539 329.947 417.536 284.812 417.534 239.677 C 417.534 239.242 417.544 238.807 417.56 238.249 Z" stroke-linecap="round" />
</g>
		<g transform="matrix(1 0 0 1 67.3 124.95)" id="object-6"  >
<path style="stroke: none; stroke-width: 1; stroke-dasharray: none; stroke-linecap: butt; stroke-dashoffset: 0; stroke-linejoin: miter; stroke-miterlimit: 4; fill: #FAFAFA; fill-rule: nonzero; opacity: 1;" vector-effect="non-scaling-stroke"  transform=" translate(-313.55, -377.87)" d="M 313.376 348.056 C 313.517 348.691 313.75 349.446 313.753 350.201 C 313.773 368.713 313.771 387.226 313.773 405.737 C 313.773 406.346 313.784 406.955 313.789 407.69 C 313.625 407.315 313.321 406.814 313.321 406.312 C 313.315 386.933 313.34 367.554 313.376 348.056 Z" stroke-linecap="round" />
</g>
		<g transform="matrix(1 0 0 1 -28.87 114.63)" id="object-7"  >
<path style="stroke: none; stroke-width: 1; stroke-dasharray: none; stroke-linecap: butt; stroke-dashoffset: 0; stroke-linejoin: miter; stroke-miterlimit: 4; fill: #FAFAFA; fill-rule: nonzero; opacity: 1;" vector-effect="non-scaling-stroke"  transform=" translate(-217.38, -367.56)" d="M 217.478 325.104 C 217.561 346.11 217.565 367.212 217.568 388.311 C 217.569 394.88 217.578 401.449 217.561 408.021 C 217.56 408.659 217.415 409.297 217.289 410.013 C 217.225 403.036 217.193 395.983 217.193 388.927 C 217.193 368.284 217.205 347.642 217.222 326.999 C 217.222 326.397 217.337 325.796 217.478 325.104 Z" stroke-linecap="round" />
</g>
		<g transform="matrix(1 0 0 1 -87.65 113.51)" id="object-8"  >
<path style="stroke: none; stroke-width: 1; stroke-dasharray: none; stroke-linecap: butt; stroke-dashoffset: 0; stroke-linejoin: miter; stroke-miterlimit: 4; fill: #FAFAFA; fill-rule: nonzero; opacity: 1;" vector-effect="non-scaling-stroke"  transform=" translate(-158.61, -366.43)" d="M 158.616 317.365 C 158.724 326.881 158.742 336.462 158.747 346.045 C 158.758 368.474 158.766 390.904 158.763 413.333 C 158.763 414.023 158.666 414.716 158.57 415.503 C 158.496 409.248 158.452 402.895 158.452 396.543 C 158.449 370.647 158.462 344.754 158.47 318.86 C 158.47 318.383 158.504 317.906 158.616 317.365 Z" stroke-linecap="round" />
</g>
		<g transform="matrix(1 0 0 1 -66.51 114.96)" id="object-9"  >
<path style="stroke: none; stroke-width: 1; stroke-dasharray: none; stroke-linecap: butt; stroke-dashoffset: 0; stroke-linejoin: miter; stroke-miterlimit: 4; fill: #FAFAFA; fill-rule: nonzero; opacity: 1;" vector-effect="non-scaling-stroke"  transform=" translate(-179.75, -367.88)" d="M 179.84 325.205 C 179.917 345.146 179.912 365.167 179.912 385.19 C 179.912 392.849 179.933 400.509 179.917 408.17 C 179.916 408.933 179.728 409.697 179.576 410.562 C 179.557 403.656 179.611 396.65 179.614 389.644 C 179.623 368.663 179.611 347.685 179.615 326.706 C 179.615 326.233 179.709 325.76 179.84 325.205 Z" stroke-linecap="round" />
</g>
		<g transform="matrix(1 0 0 1 -57.85 94.47)" id="object-10"  >
<path style="stroke: none; stroke-width: 1; stroke-dasharray: none; stroke-linecap: butt; stroke-dashoffset: 0; stroke-linejoin: miter; stroke-miterlimit: 4; fill: #FAFAFA; fill-rule: nonzero; opacity: 1;" vector-effect="non-scaling-stroke"  transform=" translate(-188.4, -347.39)" d="M 188.255 327.108 C 188.368 327.579 188.547 328.172 188.548 328.763 C 188.561 341.185 188.556 353.608 188.542 366.03 C 188.542 366.545 188.435 367.061 188.338 367.674 C 188.281 357.126 188.263 346.482 188.247 335.835 C 188.243 332.967 188.242 330.099 188.255 327.108 Z" stroke-linecap="round" />
</g>
		<g transform="matrix(1 0 0 1 -57.83 143.1)" id="object-11"  >
<path style="stroke: none; stroke-width: 1; stroke-dasharray: none; stroke-linecap: butt; stroke-dashoffset: 0; stroke-linejoin: miter; stroke-miterlimit: 4; fill: #FAFAFA; fill-rule: nonzero; opacity: 1;" vector-effect="non-scaling-stroke"  transform=" translate(-188.42, -396.02)" d="M 188.283 381.757 C 188.382 382.191 188.539 382.745 188.541 383.299 C 188.559 391.748 188.56 400.195 188.551 408.644 C 188.55 409.158 188.436 409.673 188.333 410.291 C 188.284 400.885 188.277 391.382 188.283 381.757 Z" stroke-linecap="round" />
</g>
		<g transform="matrix(1 0 0 1 -70.99 -114.64)" id="object-12"  >
<path style="stroke: none; stroke-width: 1; stroke-dasharray: none; stroke-linecap: butt; stroke-dashoffset: 0; stroke-linejoin: miter; stroke-miterlimit: 4; fill: #FAFAFA; fill-rule: nonzero; opacity: 1;" vector-effect="non-scaling-stroke"  transform=" translate(-175.27, -138.29)" d="M 167.816 139.874 C 168.312 139.613 168.889 139.203 169.522 139.082 C 173.879 138.258 178.247 137.495 182.718 136.706 C 181.723 136.988 180.631 137.328 179.516 137.555 C 175.655 138.342 171.786 139.092 167.816 139.874 Z" stroke-linecap="round" />
</g>
		<g transform="matrix(1 0 0 1 -188.65 -17.8)" id="object-13"  >
<path style="stroke: none; stroke-width: 1; stroke-dasharray: none; stroke-linecap: butt; stroke-dashoffset: 0; stroke-linejoin: miter; stroke-miterlimit: 4; fill: #FAFAFA; fill-rule: nonzero; opacity: 1;" vector-effect="non-scaling-stroke"  transform=" translate(-57.6, -235.12)" d="M 56.906 240.421 C 57.02 238.214 57.157 235.937 57.431 233.674 C 57.582 232.4 57.957 231.151 58.302 229.821 C 58.205 230.939 58.037 232.125 57.883 233.314 C 57.58 235.661 57.285 238.008 56.906 240.421 Z" stroke-linecap="round" />
</g>
		<g transform="matrix(1 0 0 1 15.41 -120.64)" id="object-14"  >
<path style="stroke: none; stroke-width: 1; stroke-dasharray: none; stroke-linecap: butt; stroke-dashoffset: 0; stroke-linejoin: miter; stroke-miterlimit: 4; fill: #FAFAFA; fill-rule: nonzero; opacity: 1;" vector-effect="non-scaling-stroke"  transform=" translate(-261.66, -132.29)" d="M 259.04 129.917 C 258.839 133.409 258.842 133.393 262.377 133.982 C 263.174 134.113 263.946 134.384 264.79 134.654 C 263.607 134.528 262.364 134.199 261.119 134.191 C 258.482 134.178 258.312 132.481 258.676 130.547 C 258.715 130.342 258.861 130.16 259.04 129.917 Z" stroke-linecap="round" />
</g>
		<g transform="matrix(1 0 0 1 172.07 -41.22)" id="object-15"  >
<path style="stroke: none; stroke-width: 1; stroke-dasharray: none; stroke-linecap: butt; stroke-dashoffset: 0; stroke-linejoin: miter; stroke-miterlimit: 4; fill: #FAFAFA; fill-rule: nonzero; opacity: 1;" vector-effect="non-scaling-stroke"  transform=" translate(-418.32, -211.7)" d="M 419.445 216.051 C 418.783 214.01 418.125 211.863 417.526 209.701 C 417.322 208.966 417.265 208.189 417.199 207.359 C 417.997 210.172 418.731 213.057 419.445 216.051 Z" stroke-linecap="round" />
</g>
		<g transform="matrix(1 0 0 1 -186.75 -27.59)" id="object-16"  >
<path style="stroke: none; stroke-width: 1; stroke-dasharray: none; stroke-linecap: butt; stroke-dashoffset: 0; stroke-linejoin: miter; stroke-miterlimit: 4; fill: #FAFAFA; fill-rule: nonzero; opacity: 1;" vector-effect="non-scaling-stroke"  transform=" translate(-59.5, -225.33)" d="M 58.458 229.479 C 59.075 226.776 59.767 224.012 60.539 221.184 C 59.922 223.885 59.229 226.652 58.458 229.479 Z" stroke-linecap="round" />
</g>
		<g transform="matrix(1 0 0 1 108.99 -31.04)" id="object-17"  >
<path style="stroke: none; stroke-width: 1; stroke-dasharray: none; stroke-linecap: butt; stroke-dashoffset: 0; stroke-linejoin: miter; stroke-miterlimit: 4; fill: #FAFAFA; fill-rule: nonzero; opacity: 1;" vector-effect="non-scaling-stroke"  transform=" translate(-355.25, -221.89)" d="M 356.442 225.455 C 356.214 225.116 355.887 224.699 355.741 224.225 C 355.145 222.301 354.604 220.359 354.049 218.32 C 354.844 220.594 355.633 222.972 356.442 225.455 Z" stroke-linecap="round" />
</g>
		<g transform="matrix(1 0 0 1 -189.52 -7.76)" id="object-18"  >
<path style="stroke: none; stroke-width: 1; stroke-dasharray: none; stroke-linecap: butt; stroke-dashoffset: 0; stroke-linejoin: miter; stroke-miterlimit: 4; fill: #FAFAFA; fill-rule: nonzero; opacity: 1;" vector-effect="non-scaling-stroke"  transform=" translate(-56.73, -245.17)" d="M 56.908 248.438 C 56.798 248.282 56.56 248.021 56.56 247.762 C 56.573 245.838 56.633 243.915 56.719 241.895 C 56.804 243.976 56.845 246.155 56.908 248.438 Z" stroke-linecap="round" />
</g>
		<g transform="matrix(1 0 0 1 -179.1 -7.34)" id="object-19"  >
<path style="stroke: none; stroke-width: 1; stroke-dasharray: none; stroke-linecap: butt; stroke-dashoffset: 0; stroke-linejoin: miter; stroke-miterlimit: 4; fill: #FAFAFA; fill-rule: nonzero; opacity: 1;" vector-effect="non-scaling-stroke"  transform=" translate(-67.15, -245.58)" d="M 66.05 248.3 C 66.703 246.53 67.438 244.719 68.25 242.863 C 67.597 244.631 66.865 246.445 66.05 248.3 Z" stroke-linecap="round" />
</g>
		<g transform="matrix(1 0 0 1 146.1 -61.75)" id="object-20"  >
<path style="stroke: none; stroke-width: 1; stroke-dasharray: none; stroke-linecap: butt; stroke-dashoffset: 0; stroke-linejoin: miter; stroke-miterlimit: 4; fill: #FAFAFA; fill-rule: nonzero; opacity: 1;" vector-effect="non-scaling-stroke"  transform=" translate(-392.35, -191.18)" d="M 393.264 193.312 C 392.655 191.99 392.046 190.564 391.434 189.04 C 392.043 190.361 392.653 191.786 393.264 193.312 Z" stroke-linecap="round" />
</g>
		<g transform="matrix(1 0 0 1 20.62 -117.81)" id="object-21"  >
<path style="stroke: none; stroke-width: 1; stroke-dasharray: none; stroke-linecap: butt; stroke-dashoffset: 0; stroke-linejoin: miter; stroke-miterlimit: 4; fill: #FAFAFA; fill-rule: nonzero; opacity: 1;" vector-effect="non-scaling-stroke"  transform=" translate(-266.87, -135.11)" d="M 265.277 134.819 C 266.246 134.978 267.317 135.164 268.464 135.406 C 267.486 135.258 266.432 135.051 265.277 134.819 Z" stroke-linecap="round" />
</g>
		<g transform="matrix(1 0 0 1 52.66 -85.43)" id="object-22"  >
<path style="stroke: none; stroke-width: 1; stroke-dasharray: none; stroke-linecap: butt; stroke-dashoffset: 0; stroke-linejoin: miter; stroke-miterlimit: 4; fill: #FAFAFA; fill-rule: nonzero; opacity: 1;" vector-effect="non-scaling-stroke"  transform=" translate(-298.92, -167.5)" d="M 299.712 168.193 C 299.189 167.817 298.671 167.351 298.123 166.8 C 298.635 167.179 299.174 167.641 299.712 168.193 Z" stroke-linecap="round" />
</g>
		<g transform="matrix(1 0 0 1 107.41 -35.87)" id="object-23"  >
<path style="stroke: none; stroke-width: 1; stroke-dasharray: none; stroke-linecap: butt; stroke-dashoffset: 0; stroke-linejoin: miter; stroke-miterlimit: 4; fill: #FAFAFA; fill-rule: nonzero; opacity: 1;" vector-effect="non-scaling-stroke"  transform=" translate(-353.67, -217.06)" d="M 354.078 218.147 C 353.796 217.526 353.522 216.801 353.257 215.973 C 353.54 216.594 353.814 217.319 354.078 218.147 Z" stroke-linecap="round" />
</g>
		<g transform="matrix(1 0 0 1 14.7 -123.94)" id="object-24"  >
<path style="stroke: none; stroke-width: 1; stroke-dasharray: none; stroke-linecap: butt; stroke-dashoffset: 0; stroke-linejoin: miter; stroke-miterlimit: 4; fill: #FAFAFA; fill-rule: nonzero; opacity: 1;" vector-effect="non-scaling-stroke"  transform=" translate(-260.96, -128.98)" d="M 261.902 128.869 C 261.369 128.955 260.747 129.023 260.014 129.096 C 260.541 129.02 261.178 128.937 261.902 128.869 Z" stroke-linecap="round" />
</g>
		<g transform="matrix(1 0 0 1 -57.94 125.97)" id="object-25"  >
<path style="stroke: none; stroke-width: 1; stroke-dasharray: none; stroke-linecap: butt; stroke-dashoffset: 0; stroke-linejoin: miter; stroke-miterlimit: 4; fill: #FAFAFA; fill-rule: nonzero; opacity: 1;" vector-effect="non-scaling-stroke"  transform=" translate(-188.31, -378.9)" d="M 188.285 377.572 C 188.323 378.345 188.349 379.239 188.333 380.228 C 188.287 379.446 188.279 378.567 188.285 377.572 Z" stroke-linecap="round" />
</g>
		<g transform="matrix(1 0 0 1 -176.21 -14.06)" id="object-26"  >
<path style="stroke: none; stroke-width: 1; stroke-dasharray: none; stroke-linecap: butt; stroke-dashoffset: 0; stroke-linejoin: miter; stroke-miterlimit: 4; fill: #FAFAFA; fill-rule: nonzero; opacity: 1;" vector-effect="non-scaling-stroke"  transform=" translate(-70.04, -238.86)" d="M 69.728 239.677 C 69.856 239.184 70.067 238.649 70.355 238.049 C 70.224 238.535 70.018 239.085 69.728 239.677 Z" stroke-linecap="round" />
</g>
		<g transform="matrix(1 0 0 1 70.66 154.82)" id="object-27"  >
<path style="stroke: none; stroke-width: 1; stroke-dasharray: none; stroke-linecap: butt; stroke-dashoffset: 0; stroke-linejoin: miter; stroke-miterlimit: 4; fill: #FAFAFA; fill-rule: nonzero; opacity: 1;" vector-effect="non-scaling-stroke"  transform=" translate(-316.92, -407.74)" d="M 315.984 407.776 C 316.5 407.731 317.13 407.702 317.852 407.71 C 317.326 407.762 316.712 407.778 315.984 407.776 Z" stroke-linecap="round" />
</g>
		<g transform="matrix(1 0 0 1 147.26 -58.87)" id="object-28"  >
<path style="stroke: none; stroke-width: 1; stroke-dasharray: none; stroke-linecap: butt; stroke-dashoffset: 0; stroke-linejoin: miter; stroke-miterlimit: 4; fill: #FAFAFA; fill-rule: nonzero; opacity: 1;" vector-effect="non-scaling-stroke"  transform=" translate(-393.51, -194.06)" d="M 393.784 194.63 C 393.604 194.344 393.421 193.965 393.246 193.49 C 393.429 193.775 393.604 194.156 393.784 194.63 Z" stroke-linecap="round" />
</g>
		<g transform="matrix(1 0 0 1 144.93 -64.62)" id="object-29"  >
<path style="stroke: none; stroke-width: 1; stroke-dasharray: none; stroke-linecap: butt; stroke-dashoffset: 0; stroke-linejoin: miter; stroke-miterlimit: 4; fill: #FAFAFA; fill-rule: nonzero; opacity: 1;" vector-effect="non-scaling-stroke"  transform=" translate(-391.19, -188.31)" d="M 391.463 188.879 C 391.272 188.589 391.097 188.207 390.909 187.731 C 391.092 188.019 391.283 188.401 391.463 188.879 Z" stroke-linecap="round" />
</g>
		<g transform="matrix(1 0 0 1 -177.68 -10.76)" id="object-30"  >
<path style="stroke: none; stroke-width: 1; stroke-dasharray: none; stroke-linecap: butt; stroke-dashoffset: 0; stroke-linejoin: miter; stroke-miterlimit: 4; fill: #FAFAFA; fill-rule: nonzero; opacity: 1;" vector-effect="non-scaling-stroke"  transform=" translate(-68.57, -242.17)" d="M 68.376 242.78 C 68.434 242.428 68.56 242.013 68.768 241.557 C 68.716 241.916 68.58 242.317 68.376 242.78 Z" stroke-linecap="round" />
</g>
		<g transform="matrix(1 0 0 1 -176.89 -12.58)" id="object-31"  >
<path style="stroke: none; stroke-width: 1; stroke-dasharray: none; stroke-linecap: butt; stroke-dashoffset: 0; stroke-linejoin: miter; stroke-miterlimit: 4; fill: #FAFAFA; fill-rule: nonzero; opacity: 1;" vector-effect="non-scaling-stroke"  transform=" translate(-69.37, -240.35)" d="M 69.155 240.949 C 69.226 240.607 69.361 240.2 69.576 239.744 C 69.511 240.091 69.364 240.487 69.155 240.949 Z" stroke-linecap="round" />
</g>
		<g transform="matrix(1 0 0 1 56.71 -81.37)" id="object-32"  >
<path style="stroke: none; stroke-width: 1; stroke-dasharray: none; stroke-linecap: butt; stroke-dashoffset: 0; stroke-linejoin: miter; stroke-miterlimit: 4; fill: #FAFAFA; fill-rule: nonzero; opacity: 1;" vector-effect="non-scaling-stroke"  transform=" translate(-302.96, -171.55)" d="M 303.333 171.885 C 303.102 171.748 302.857 171.526 302.59 171.222 C 302.82 171.361 303.068 171.581 303.333 171.885 Z" stroke-linecap="round" />
</g>
		<g transform="matrix(1 0 0 1 144.48 -65.79)" id="object-33"  >
<path style="stroke: none; stroke-width: 1; stroke-dasharray: none; stroke-linecap: butt; stroke-dashoffset: 0; stroke-linejoin: miter; stroke-miterlimit: 4; fill: #FAFAFA; fill-rule: nonzero; opacity: 1;" vector-effect="non-scaling-stroke"  transform=" translate(-390.73, -187.13)" d="M 390.924 187.572 C 390.778 187.36 390.637 187.059 390.545 186.696 C 390.708 186.918 390.82 187.2 390.924 187.572 Z" stroke-linecap="round" />
</g>
		<g transform="matrix(1 0 0 1 55.8 -82.43)" id="object-34"  >
<path style="stroke: none; stroke-width: 1; stroke-dasharray: none; stroke-linecap: butt; stroke-dashoffset: 0; stroke-linejoin: miter; stroke-miterlimit: 4; fill: #FAFAFA; fill-rule: nonzero; opacity: 1;" vector-effect="non-scaling-stroke"  transform=" translate(-302.05, -170.5)" d="M 302.339 170.812 C 302.148 170.689 301.968 170.481 301.769 170.188 C 301.952 170.31 302.151 170.517 302.339 170.812 Z" stroke-linecap="round" />
</g>
		<g transform="matrix(1 0 0 1 -57.95 118.26)" id="object-35"  >
<path style="stroke: none; stroke-width: 1; stroke-dasharray: none; stroke-linecap: butt; stroke-dashoffset: 0; stroke-linejoin: miter; stroke-miterlimit: 4; fill: #FAFAFA; fill-rule: nonzero; opacity: 1;" vector-effect="non-scaling-stroke"  transform=" translate(-188.31, -371.19)" d="M 188.281 370.759 C 188.315 370.953 188.337 371.254 188.328 371.622 C 188.287 371.418 188.278 371.141 188.281 370.759 Z" stroke-linecap="round" />
</g>
		<g transform="matrix(1 0 0 1 173.29 -36.43)" id="object-36"  >
<path style="stroke: none; stroke-width: 1; stroke-dasharray: none; stroke-linecap: butt; stroke-dashoffset: 0; stroke-linejoin: miter; stroke-miterlimit: 4; fill: #FAFAFA; fill-rule: nonzero; opacity: 1;" vector-effect="non-scaling-stroke"  transform=" translate(-419.55, -216.5)" d="M 419.688 216.797 C 419.596 216.678 419.495 216.474 419.403 216.198 C 419.502 216.321 419.589 216.517 419.688 216.797 Z" stroke-linecap="round" />
</g>
		<g transform="matrix(1 0 0 1 -57.95 121.8)" id="object-37"  >
<path style="stroke: none; stroke-width: 1; stroke-dasharray: none; stroke-linecap: butt; stroke-dashoffset: 0; stroke-linejoin: miter; stroke-miterlimit: 4; fill: #FAFAFA; fill-rule: nonzero; opacity: 1;" vector-effect="non-scaling-stroke"  transform=" translate(-188.31, -374.72)" d="M 188.286 374.414 C 188.315 374.534 188.332 374.752 188.323 375.031 C 188.29 374.898 188.281 374.704 188.286 374.414 Z" stroke-linecap="round" />
</g>
		<g transform="matrix(1 0 0 1 170.24 -47.89)" id="object-38"  >
<path style="stroke: none; stroke-width: 1; stroke-dasharray: none; stroke-linecap: butt; stroke-dashoffset: 0; stroke-linejoin: miter; stroke-miterlimit: 4; fill: #FAFAFA; fill-rule: nonzero; opacity: 1;" vector-effect="non-scaling-stroke"  transform=" translate(-416.5, -205.04)" d="M 416.575 205.346 C 416.491 205.223 416.431 205.005 416.42 204.731 C 416.514 204.868 416.556 205.059 416.575 205.346 Z" stroke-linecap="round" />
</g>
		<g transform="matrix(1 0 0 1 171.29 -16.23)" id="object-39"  >
<path style="stroke: none; stroke-width: 1; stroke-dasharray: none; stroke-linecap: butt; stroke-dashoffset: 0; stroke-linejoin: miter; stroke-miterlimit: 4; fill: #FAFAFA; fill-rule: nonzero; opacity: 1;" vector-effect="non-scaling-stroke"  transform=" translate(-417.54, -236.69)" d="M 417.484 236.39 C 417.531 236.506 417.578 236.718 417.602 236.994 C 417.544 236.867 417.516 236.677 417.484 236.39 Z" stroke-linecap="round" />
</g>
		<g transform="matrix(1 0 0 1 170.7 -46.33)" id="object-40"  >
<path style="stroke: none; stroke-width: 1; stroke-dasharray: none; stroke-linecap: butt; stroke-dashoffset: 0; stroke-linejoin: miter; stroke-miterlimit: 4; fill: #FAFAFA; fill-rule: nonzero; opacity: 1;" vector-effect="non-scaling-stroke"  transform=" translate(-416.95, -206.59)" d="M 417.111 206.903 C 417.017 206.788 416.904 206.582 416.792 206.285 C 416.894 206.4 416.992 206.607 417.111 206.903 Z" stroke-linecap="round" />
</g>
		<g transform="matrix(1 0 0 1 147.69 -57.83)" id="object-41"  >
<path style="stroke: none; stroke-width: 1; stroke-dasharray: none; stroke-linecap: butt; stroke-dashoffset: 0; stroke-linejoin: miter; stroke-miterlimit: 4; fill: #FAFAFA; fill-rule: nonzero; opacity: 1;" vector-effect="non-scaling-stroke"  transform=" translate(-393.94, -195.1)" d="M 394.106 195.406 C 394.015 195.289 393.899 195.087 393.779 194.789 C 393.876 194.907 393.981 195.113 394.106 195.406 Z" stroke-linecap="round" />
</g>
		<g transform="matrix(1 0 0 1 170.42 -47.11)" id="object-42"  >
<path style="stroke: none; stroke-width: 1; stroke-dasharray: none; stroke-linecap: butt; stroke-dashoffset: 0; stroke-linejoin: miter; stroke-miterlimit: 4; fill: #FAFAFA; fill-rule: nonzero; opacity: 1;" vector-effect="non-scaling-stroke"  transform=" translate(-416.68, -205.82)" d="M 416.823 206.136 C 416.713 206.015 416.624 205.801 416.533 205.498 C 416.638 205.62 416.739 205.832 416.823 206.136 Z" stroke-linecap="round" />
</g>
		<g transform="matrix(1 0 0 1 -63.03 -116.74)" id="object-43"  >
<path style="stroke: none; stroke-width: 1; stroke-dasharray: none; stroke-linecap: butt; stroke-dashoffset: 0; stroke-linejoin: miter; stroke-miterlimit: 4; fill: #FAFAFA; fill-rule: nonzero; opacity: 1;" vector-effect="non-scaling-stroke"  transform=" translate(-183.22, -136.19)" d="M 183.141 136.415 C 183.131 136.316 183.192 136.17 183.306 135.963 C 183.309 136.06 183.262 136.217 183.141 136.415 Z" stroke-linecap="round" />
</g>
		<g transform="matrix(1 0 0 1 -87.4 64.12)" id="object-44"  >
<path style="stroke: none; stroke-width: 1; stroke-dasharray: none; stroke-linecap: butt; stroke-dashoffset: 0; stroke-linejoin: miter; stroke-miterlimit: 4; fill: #FAFAFA; fill-rule: nonzero; opacity: 1;" vector-effect="non-scaling-stroke"  transform=" translate(-158.85, -317.05)" d="M 158.943 316.836 C 158.943 316.927 158.878 317.064 158.76 317.259 C 158.766 317.172 158.818 317.027 158.943 316.836 Z" stroke-linecap="round" />
</g>
		<g transform="matrix(1 0 0 1 53.7 -84.51)" id="object-45"  >
<path style="stroke: none; stroke-width: 1; stroke-dasharray: none; stroke-linecap: butt; stroke-dashoffset: 0; stroke-linejoin: miter; stroke-miterlimit: 4; fill: #FAFAFA; fill-rule: nonzero; opacity: 1;" vector-effect="non-scaling-stroke"  transform=" translate(-299.95, -168.41)" d="M 300.182 168.499 C 300.086 168.509 299.932 168.452 299.722 168.327 C 299.821 168.319 299.974 168.376 300.182 168.499 Z" stroke-linecap="round" />
</g>
		<g transform="matrix(1 0 0 1 -180.32 -4.39)" id="object-46"  >
<path style="stroke: none; stroke-width: 1; stroke-dasharray: none; stroke-linecap: butt; stroke-dashoffset: 0; stroke-linejoin: miter; stroke-miterlimit: 4; fill: #FAFAFA; fill-rule: nonzero; opacity: 1;" vector-effect="non-scaling-stroke"  transform=" translate(-65.94, -248.54)" d="M 65.929 248.728 C 65.906 248.674 65.908 248.535 65.945 248.349 C 65.971 248.417 65.963 248.531 65.929 248.728 Z" stroke-linecap="round" />
</g>
		<g transform="matrix(1 0 0 1 -177.27 -11.66)" id="object-47"  >
<path style="stroke: none; stroke-width: 1; stroke-dasharray: none; stroke-linecap: butt; stroke-dashoffset: 0; stroke-linejoin: miter; stroke-miterlimit: 4; fill: #FAFAFA; fill-rule: nonzero; opacity: 1;" vector-effect="non-scaling-stroke"  transform=" translate(-68.98, -241.27)" d="M 68.902 241.494 C 68.888 241.393 68.947 241.246 69.056 241.039 C 69.061 241.135 69.014 241.291 68.902 241.494 Z" stroke-linecap="round" />
</g>
		<g transform="matrix(1 0 0 1 106.97 -37.3)" id="object-48"  >
<path style="stroke: none; stroke-width: 1; stroke-dasharray: none; stroke-linecap: butt; stroke-dashoffset: 0; stroke-linejoin: miter; stroke-miterlimit: 4; fill: #FAFAFA; fill-rule: nonzero; opacity: 1;" vector-effect="non-scaling-stroke"  transform=" translate(-353.23, -215.63)" d="M 353.281 215.817 C 353.226 215.765 353.179 215.626 353.171 215.442 C 353.234 215.507 353.263 215.619 353.281 215.817 Z" stroke-linecap="round" />
</g>
		<g transform="matrix(1 0 0 1 -62.76 -117.19)" id="object-49"  >
<path style="stroke: none; stroke-width: 1; stroke-dasharray: none; stroke-linecap: butt; stroke-dashoffset: 0; stroke-linejoin: miter; stroke-miterlimit: 4; fill: #FAFAFA; fill-rule: nonzero; opacity: 1;" vector-effect="non-scaling-stroke"  transform=" translate(-183.49, -135.74)" d="M 183.423 135.898 C 183.393 135.836 183.452 135.741 183.561 135.579 C 183.578 135.629 183.544 135.746 183.423 135.898 Z" stroke-linecap="round" />
</g>
		<g transform="matrix(1 0 0 1 57.79 -80.31)" id="object-50"  >
<path style="stroke: none; stroke-width: 1; stroke-dasharray: none; stroke-linecap: butt; stroke-dashoffset: 0; stroke-linejoin: miter; stroke-miterlimit: 4; fill: #FAFAFA; fill-rule: nonzero; opacity: 1;" vector-effect="non-scaling-stroke"  transform=" translate(-304.04, -172.62)" d="M 304.193 172.697 C 304.148 172.713 304.046 172.66 303.892 172.538 C 303.939 172.522 304.039 172.577 304.193 172.697 Z" stroke-linecap="round" />
</g>
		<g transform="matrix(1 0 0 1 57.48 -80.58)" id="object-51"  >
<path style="stroke: none; stroke-width: 1; stroke-dasharray: none; stroke-linecap: butt; stroke-dashoffset: 0; stroke-linejoin: miter; stroke-miterlimit: 4; fill: #FAFAFA; fill-rule: nonzero; opacity: 1;" vector-effect="non-scaling-stroke"  transform=" translate(-303.74, -172.34)" d="M 303.86 172.415 C 303.798 172.438 303.721 172.384 303.615 172.269 C 303.669 172.25 303.758 172.295 303.86 172.415 Z" stroke-linecap="round" />
</g>
		<g transform="matrix(1 0 0 1 13.51 -123.7)" id="object-52"  >
<path style="stroke: none; stroke-width: 1; stroke-dasharray: none; stroke-linecap: butt; stroke-dashoffset: 0; stroke-linejoin: miter; stroke-miterlimit: 4; fill: #FAFAFA; fill-rule: nonzero; opacity: 1;" vector-effect="non-scaling-stroke"  transform=" translate(-259.77, -129.22)" d="M 259.847 129.114 C 259.857 129.159 259.796 129.222 259.684 129.328 C 259.681 129.292 259.729 129.211 259.847 129.114 Z" stroke-linecap="round" />
</g>
		<g transform="matrix(1 0 0 1 13.25 -123.46)" id="object-53"  >
<path style="stroke: none; stroke-width: 1; stroke-dasharray: none; stroke-linecap: butt; stroke-dashoffset: 0; stroke-linejoin: miter; stroke-miterlimit: 4; fill: #FAFAFA; fill-rule: nonzero; opacity: 1;" vector-effect="non-scaling-stroke"  transform=" translate(-259.5, -129.47)" d="M 259.582 129.355 C 259.599 129.41 259.538 129.478 259.422 129.584 C 259.414 129.541 259.459 129.454 259.582 129.355 Z" stroke-linecap="round" />
</g>
		<g transform="matrix(1 0 0 1 12.99 -123.2)" id="object-54"  >
<path style="stroke: none; stroke-width: 1; stroke-dasharray: none; stroke-linecap: butt; stroke-dashoffset: 0; stroke-linejoin: miter; stroke-miterlimit: 4; fill: #FAFAFA; fill-rule: nonzero; opacity: 1;" vector-effect="non-scaling-stroke"  transform=" translate(-259.24, -129.73)" d="M 259.317 129.61 C 259.335 129.671 259.276 129.739 259.165 129.851 C 259.155 129.804 259.198 129.713 259.317 129.61 Z" stroke-linecap="round" />
</g>
		<g transform="matrix(1 0 0 1 55.15 -83.22)" id="object-55"  >
<path style="stroke: none; stroke-width: 1; stroke-dasharray: none; stroke-linecap: butt; stroke-dashoffset: 0; stroke-linejoin: miter; stroke-miterlimit: 4; fill: #FAFAFA; fill-rule: nonzero; opacity: 1;" vector-effect="non-scaling-stroke"  transform=" translate(-301.4, -169.7)" d="M 301.51 169.806 C 301.479 169.801 301.411 169.727 301.288 169.6 C 301.314 169.61 301.396 169.675 301.51 169.806 Z" stroke-linecap="round" />
</g>
		<g transform="matrix(1 0 0 1 57.22 -80.84)" id="object-56"  >
<path style="stroke: none; stroke-width: 1; stroke-dasharray: none; stroke-linecap: butt; stroke-dashoffset: 0; stroke-linejoin: miter; stroke-miterlimit: 4; fill: #FAFAFA; fill-rule: nonzero; opacity: 1;" vector-effect="non-scaling-stroke"  transform=" translate(-303.47, -172.08)" d="M 303.596 172.156 C 303.536 172.179 303.463 172.122 303.353 172.007 C 303.405 171.991 303.497 172.036 303.596 172.156 Z" stroke-linecap="round" />
</g>
		<g transform="matrix(1 0 0 1 -63.3 -116.35)" id="object-57"  >
<path style="stroke: none; stroke-width: 1; stroke-dasharray: none; stroke-linecap: butt; stroke-dashoffset: 0; stroke-linejoin: miter; stroke-miterlimit: 4; fill: #FAFAFA; fill-rule: nonzero; opacity: 1;" vector-effect="non-scaling-stroke"  transform=" translate(-182.95, -136.58)" d="M 182.87 136.693 C 182.861 136.645 182.924 136.58 183.035 136.465 C 183.035 136.502 182.988 136.588 182.87 136.693 Z" stroke-linecap="round" />
</g>
		<g transform="matrix(1 0 0 1 51.73 -86.39)" id="object-58"  >
<path style="stroke: none; stroke-width: 1; stroke-dasharray: none; stroke-linecap: butt; stroke-dashoffset: 0; stroke-linejoin: miter; stroke-miterlimit: 4; fill: #FAFAFA; fill-rule: nonzero; opacity: 1;" vector-effect="non-scaling-stroke"  transform=" translate(-297.98, -166.54)" d="M 298.094 166.669 C 298.046 166.661 297.984 166.57 297.866 166.408 C 297.9 166.421 297.989 166.502 298.094 166.669 Z" stroke-linecap="round" />
</g>
		<g transform="matrix(1 0 0 1 56.21 -81.92)" id="object-59"  >
<path style="stroke: none; stroke-width: 1; stroke-dasharray: none; stroke-linecap: butt; stroke-dashoffset: 0; stroke-linejoin: miter; stroke-miterlimit: 4; fill: #FAFAFA; fill-rule: nonzero; opacity: 1;" vector-effect="non-scaling-stroke"  transform=" translate(-302.46, -171.01)" d="M 302.59 171.076 C 302.509 171.11 302.433 171.058 302.328 170.94 C 302.399 170.912 302.496 170.951 302.59 171.076 Z" stroke-linecap="round" />
</g>
		<g transform="matrix(1 0 0 1 54.63 -83.75)" id="object-60"  >
<path style="stroke: none; stroke-width: 1; stroke-dasharray: none; stroke-linecap: butt; stroke-dashoffset: 0; stroke-linejoin: miter; stroke-miterlimit: 4; fill: #FAFAFA; fill-rule: nonzero; opacity: 1;" vector-effect="non-scaling-stroke"  transform=" translate(-300.88, -169.18)" d="M 300.992 169.285 C 300.969 169.273 300.904 169.194 300.773 169.069 C 300.792 169.087 300.872 169.155 300.992 169.285 Z" stroke-linecap="round" />
</g>
		<g transform="matrix(1 0 0 1 24.84 -6.2)" id="object-61"  >
<path style="stroke: none; stroke-width: 1; stroke-dasharray: none; stroke-linecap: butt; stroke-dashoffset: 0; stroke-linejoin: miter; stroke-miterlimit: 4; fill: #FAFAFA; fill-rule: nonzero; opacity: 1;" vector-effect="non-scaling-stroke"  transform=" translate(-271.1, -246.72)" d="M 271.211 186.173 C 271.276 194.321 271.305 202.548 271.303 210.775 C 271.294 242.336 271.276 273.895 271.259 305.455 C 271.259 306.021 271.234 306.586 271.187 307.27 C 271.065 306.748 270.902 306.108 270.902 305.468 C 270.887 266.277 270.884 227.086 270.894 187.896 C 270.894 187.347 271.067 186.798 271.211 186.173 Z" stroke-linecap="round" />
</g>
		<g transform="matrix(1 0 0 1 132.38 -60.32)" id="object-62"  >
<path style="stroke: none; stroke-width: 1; stroke-dasharray: none; stroke-linecap: butt; stroke-dashoffset: 0; stroke-linejoin: miter; stroke-miterlimit: 4; fill: #FAFAFA; fill-rule: nonzero; opacity: 1;" vector-effect="non-scaling-stroke"  transform=" translate(-378.64, -192.61)" d="M 378.112 191.647 C 378.463 192.191 378.813 192.834 379.16 193.574 C 378.81 193.03 378.463 192.387 378.112 191.647 Z" stroke-linecap="round" />
</g>
		<g transform="matrix(1 0 0 1 130.3 -64.5)" id="object-63"  >
<path style="stroke: none; stroke-width: 1; stroke-dasharray: none; stroke-linecap: butt; stroke-dashoffset: 0; stroke-linejoin: miter; stroke-miterlimit: 4; fill: #FAFAFA; fill-rule: nonzero; opacity: 1;" vector-effect="non-scaling-stroke"  transform=" translate(-376.55, -188.43)" d="M 376.018 187.467 C 376.377 188.006 376.735 188.646 377.085 189.384 C 376.724 188.842 376.369 188.204 376.018 187.467 Z" stroke-linecap="round" />
</g>
		<g transform="matrix(1 0 0 1 133.11 -58.88)" id="object-64"  >
<path style="stroke: none; stroke-width: 1; stroke-dasharray: none; stroke-linecap: butt; stroke-dashoffset: 0; stroke-linejoin: miter; stroke-miterlimit: 4; fill: #FAFAFA; fill-rule: nonzero; opacity: 1;" vector-effect="non-scaling-stroke"  transform=" translate(-379.36, -194.04)" d="M 379.143 193.728 C 379.287 193.856 379.427 194.068 379.579 194.358 C 379.438 194.227 379.289 194.018 379.143 193.728 Z" stroke-linecap="round" />
</g>
		<g transform="matrix(1 0 0 1 128.78 -67.49)" id="object-65"  >
<path style="stroke: none; stroke-width: 1; stroke-dasharray: none; stroke-linecap: butt; stroke-dashoffset: 0; stroke-linejoin: miter; stroke-miterlimit: 4; fill: #FAFAFA; fill-rule: nonzero; opacity: 1;" vector-effect="non-scaling-stroke"  transform=" translate(-375.04, -185.43)" d="M 374.855 185.125 C 375.001 185.266 375.098 185.465 375.219 185.741 C 375.094 185.611 374.949 185.397 374.855 185.125 Z" stroke-linecap="round" />
</g>
		<g transform="matrix(1 0 0 1 131.73 -61.75)" id="object-66"  >
<path style="stroke: none; stroke-width: 1; stroke-dasharray: none; stroke-linecap: butt; stroke-dashoffset: 0; stroke-linejoin: miter; stroke-miterlimit: 4; fill: #FAFAFA; fill-rule: nonzero; opacity: 1;" vector-effect="non-scaling-stroke"  transform=" translate(-377.98, -191.18)" d="M 377.827 190.868 C 377.935 190.986 378.045 191.192 378.142 191.49 C 378.029 191.373 377.929 191.166 377.827 190.868 Z" stroke-linecap="round" />
</g>
		<g transform="matrix(1 0 0 1 131.22 -62.68)" id="object-67"  >
<path style="stroke: none; stroke-width: 1; stroke-dasharray: none; stroke-linecap: butt; stroke-dashoffset: 0; stroke-linejoin: miter; stroke-miterlimit: 4; fill: #FAFAFA; fill-rule: nonzero; opacity: 1;" vector-effect="non-scaling-stroke"  transform=" translate(-377.48, -190.25)" d="M 377.326 190.06 C 377.428 190.102 377.533 190.225 377.624 190.434 C 377.516 190.395 377.422 190.27 377.326 190.06 Z" stroke-linecap="round" />
</g>
		<g transform="matrix(1 0 0 1 130.95 -63.19)" id="object-68"  >
<path style="stroke: none; stroke-width: 1; stroke-dasharray: none; stroke-linecap: butt; stroke-dashoffset: 0; stroke-linejoin: miter; stroke-miterlimit: 4; fill: #FAFAFA; fill-rule: nonzero; opacity: 1;" vector-effect="non-scaling-stroke"  transform=" translate(-377.21, -189.73)" d="M 377.067 189.538 C 377.159 189.584 377.257 189.712 377.347 189.927 C 377.25 189.883 377.161 189.749 377.067 189.538 Z" stroke-linecap="round" />
</g>
		<g transform="matrix(1 0 0 1 129.65 -65.81)" id="object-69"  >
<path style="stroke: none; stroke-width: 1; stroke-dasharray: none; stroke-linecap: butt; stroke-dashoffset: 0; stroke-linejoin: miter; stroke-miterlimit: 4; fill: #FAFAFA; fill-rule: nonzero; opacity: 1;" vector-effect="non-scaling-stroke"  transform=" translate(-375.9, -187.12)" d="M 375.755 186.926 C 375.856 186.968 375.956 187.093 376.045 187.305 C 375.94 187.263 375.849 187.135 375.755 186.926 Z" stroke-linecap="round" />
</g>
		<g transform="matrix(1 0 0 1 129.37 -66.33)" id="object-70"  >
<path style="stroke: none; stroke-width: 1; stroke-dasharray: none; stroke-linecap: butt; stroke-dashoffset: 0; stroke-linejoin: miter; stroke-miterlimit: 4; fill: #FAFAFA; fill-rule: nonzero; opacity: 1;" vector-effect="non-scaling-stroke"  transform=" translate(-375.63, -186.6)" d="M 375.483 186.413 C 375.574 186.456 375.673 186.581 375.773 186.787 C 375.676 186.746 375.585 186.62 375.483 186.413 Z" stroke-linecap="round" />
</g>
		<g transform="matrix(1 0 0 1 129.1 -66.84)" id="object-71"  >
<path style="stroke: none; stroke-width: 1; stroke-dasharray: none; stroke-linecap: butt; stroke-dashoffset: 0; stroke-linejoin: miter; stroke-miterlimit: 4; fill: #FAFAFA; fill-rule: nonzero; opacity: 1;" vector-effect="non-scaling-stroke"  transform=" translate(-375.35, -186.09)" d="M 375.229 185.888 C 375.289 185.943 375.379 186.074 375.475 186.285 C 375.41 186.231 375.334 186.094 375.229 185.888 Z" stroke-linecap="round" />
</g>
		<g transform="matrix(1 0 0 1 131.47 -62.28)" id="object-72"  >
<path style="stroke: none; stroke-width: 1; stroke-dasharray: none; stroke-linecap: butt; stroke-dashoffset: 0; stroke-linejoin: miter; stroke-miterlimit: 4; fill: #FAFAFA; fill-rule: nonzero; opacity: 1;" vector-effect="non-scaling-stroke"  transform=" translate(-377.72, -190.64)" d="M 377.608 190.56 C 377.661 190.546 377.736 190.598 377.83 190.729 C 377.775 190.745 377.705 190.685 377.608 190.56 Z" stroke-linecap="round" />
</g>
</g>
</g>
</svg>