<?xml version="1.0" encoding="utf-8"?>
<svg xmlns="http://www.w3.org/2000/svg" viewBox="51.0714 103.1 860.6089 134.9" width="860.609px" height="134.9px">
  <g id="Layer_2" data-name="Layer 2" transform="matrix(1, 0, 0, 1, 51.071437835693374, 103.0999984741211)">
    <g id="Layer_1-2" data-name="Layer 1">
      <path d="M13.33,37.78v14A35.62,35.62,0,0,1,15.93,46a15.9,15.9,0,0,1,3.58-4Q26,36.4,35.58,36.4a29.16,29.16,0,0,1,11.33,2.27,24.52,24.52,0,0,1,9,6.25,26.6,26.6,0,0,1,5.22,9.68,42.31,42.31,0,0,1,1.92,13q0,14.41-7.35,22.73T35.58,98.63q-15.79,0-21.71-14.15V134.9H0V37.78ZM32.7,41.49A15.52,15.52,0,0,0,25,43.41a18.57,18.57,0,0,0-5.91,5.29,25.56,25.56,0,0,0-3.84,8.17,38.27,38.27,0,0,0-1.38,10.58q0,11.82,5.16,19A16,16,0,0,0,32.7,93.55a13.77,13.77,0,0,0,5.56-1.17,14.88,14.88,0,0,0,4.6-3.09q2.34-2.48,3.85-8.17a48.78,48.78,0,0,0,1.51-12.43q0-14.16-3.71-20.68T32.7,41.49Z"/>
      <path d="M110.72,36q15.38,0,24,8.45T143.28,68a34.59,34.59,0,0,1-2.82,14,26.39,26.39,0,0,1-7.62,10.3,31.15,31.15,0,0,1-10,5A41.59,41.59,0,0,1,110.72,99q-15.25,0-23.9-8.37T78.16,67.45a35.62,35.62,0,0,1,2.27-13,27.54,27.54,0,0,1,6.53-10,28.63,28.63,0,0,1,10.3-6.32A39.26,39.26,0,0,1,110.72,36Zm.14,4.4q-9.08,0-13.47,6.73T93,68q0,26.66,17.31,26.65,9.33,0,13.73-6.53t4.4-20.4q0-14.14-4.26-20.74T110.86,40.39Z"/>
      <path d="M176.52,97.12H162.65V0h13.87Z"/>
      <path d="M214.29,97.12H200.42V0h13.87Z"/>
      <path d="M245.07,2.75A9.47,9.47,0,0,1,251.73,5a7.78,7.78,0,0,1,2.4,6,7.34,7.34,0,0,1-2.47,5.77,11,11,0,0,1-13.18,0A7.46,7.46,0,0,1,236,10.85,7.46,7.46,0,0,1,238.48,5,9.51,9.51,0,0,1,245.07,2.75Zm6.87,94.37H238.06V37.78h13.88Z"/>
      <path d="M288.61,54.26q5-17.85,23.35-17.86,13.34,0,18.55,8.66a18.38,18.38,0,0,1,2.27,5.77,41.5,41.5,0,0,1,.61,8V97.12H319.52V59.34a47,47,0,0,0-.48-7.83A14.4,14.4,0,0,0,317.46,47a10,10,0,0,0-4-3.57,12.51,12.51,0,0,0-5.64-1.24,16.34,16.34,0,0,0-7.9,2.06,15,15,0,0,0-5.83,5.5,28.84,28.84,0,0,0-3.44,9.13A66.12,66.12,0,0,0,289.57,72V97.12H275.7V37.78h12.91Z"/>
      <path d="M394.25,84.35q-3,7.55-8.18,10.92t-13.66,3.36q-10.17,0-15.87-4.6t-5.7-12.71q0-11,11.13-15.66A29.75,29.75,0,0,1,367,64a59.57,59.57,0,0,1,6.59-1.17q3.78-.48,8.59-.76t11.13-.55v-5.9q0-8.39-2.68-11.75t-9.41-3.37c-4.22,0-7.28,1.08-9.21,3.23s-2.93,5.57-3,10.24v.27h-14.7a15.31,15.31,0,0,1,7.08-13.19q6.93-4.66,19.57-4.67,15.66,0,22.26,7.15a15.26,15.26,0,0,1,3.43,6.18,36.78,36.78,0,0,1,1,9.48V97.12H394.25Zm-1-18.82a88.66,88.66,0,0,0-13.19.82A27.89,27.89,0,0,0,371.37,69a10.69,10.69,0,0,0-4.8,4.74,16.34,16.34,0,0,0-1.44,7.21q0,5.91,2.95,9.07t8.31,3.16a15.29,15.29,0,0,0,9-2.75,16.25,16.25,0,0,0,5.83-7.83A26.44,26.44,0,0,0,392.8,76,86.36,86.36,0,0,0,393.29,65.53Z"/>
      <path d="M431.2,37.78V21l13.88-3.3V37.78h18.68v4.81H445.08V80.22c0,4.68.59,8,1.78,9.83s3.25,2.81,6.18,2.81a31.73,31.73,0,0,0,4.06-.34q2.53-.34,5.42-1l1-.27v4.94A81.79,81.79,0,0,1,454.76,98a52.24,52.24,0,0,1-7.07.54,18.41,18.41,0,0,1-8.38-1.85,13.43,13.43,0,0,1-5.77-5.42,16.52,16.52,0,0,1-1.79-4.81,35.22,35.22,0,0,1-.55-7V42.59H420.35V37.78Z"/>
      <path d="M485.6,2.75A9.47,9.47,0,0,1,492.26,5a7.78,7.78,0,0,1,2.4,6,7.34,7.34,0,0,1-2.47,5.77,11,11,0,0,1-13.19,0,7.49,7.49,0,0,1-2.47-5.91A7.48,7.48,0,0,1,479,5,9.55,9.55,0,0,1,485.6,2.75Zm6.86,94.37H478.59V37.78h13.87Z"/>
      <path d="M544.39,36q15.39,0,24,8.45T577,68a34.59,34.59,0,0,1-2.82,14,26.39,26.39,0,0,1-7.62,10.3,31,31,0,0,1-10,5A41.59,41.59,0,0,1,544.39,99q-15.24,0-23.9-8.37t-8.66-23.22a35.62,35.62,0,0,1,2.27-13,27.54,27.54,0,0,1,6.53-10,28.63,28.63,0,0,1,10.3-6.32A39.3,39.3,0,0,1,544.39,36Zm.14,4.4c-6,0-10.54,2.24-13.46,6.73s-4.4,11.45-4.4,20.88q0,26.66,17.31,26.65,9.33,0,13.74-6.53t4.39-20.4q0-14.14-4.25-20.74T544.53,40.39Z"/>
      <path d="M609.23,54.26q4.95-17.85,23.35-17.86,13.32,0,18.55,8.66a18.12,18.12,0,0,1,2.26,5.77,40.59,40.59,0,0,1,.62,8V97.12H640.14V59.34a48.16,48.16,0,0,0-.48-7.83A14.66,14.66,0,0,0,638.08,47a10,10,0,0,0-4-3.57,12.5,12.5,0,0,0-5.63-1.24,16.31,16.31,0,0,0-7.9,2.06,15.12,15.12,0,0,0-5.84,5.5,28.83,28.83,0,0,0-3.43,9.13A65.37,65.37,0,0,0,610.19,72V97.12H596.32V37.78h12.91Z"/>
      <path d="M684.65,79.13q0,7.83,3.36,11.47t10.79,3.64a14.4,14.4,0,0,0,9.34-2.89,9,9,0,0,0,3.57-7.28,7.41,7.41,0,0,0-2.75-5.9q-2.75-2.34-9.34-4.13L691.93,72q-10.3-2.61-14.63-6.59T673,54.67a15.6,15.6,0,0,1,1.79-7.48,17.36,17.36,0,0,1,4.94-5.77,23.23,23.23,0,0,1,7.69-3.71,35.63,35.63,0,0,1,9.89-1.31q10.86,0,16.9,4.54t6.87,13.32H708a44.88,44.88,0,0,0-.48-5.36,13,13,0,0,0-1.17-3.7,7.72,7.72,0,0,0-3.91-3.3,15.31,15.31,0,0,0-6.26-1.24,13.58,13.58,0,0,0-8.58,2.61A8.14,8.14,0,0,0,684.23,50a7.72,7.72,0,0,0,2.68,6c1.79,1.6,4.69,2.91,8.73,3.91l9.89,2.61q9.06,2.34,13.18,6.46a14.31,14.31,0,0,1,4.12,10.58A16.55,16.55,0,0,1,716,93.48q-6.79,5.14-18.47,5.15-12.36,0-19.23-5.15t-7.15-14.35Z"/>
      <path d="M 807.19 83.484 C 805.19 88.517 802.464 92.157 799.01 94.404 C 795.557 96.651 791.004 97.771 785.35 97.764 C 778.57 97.764 773.28 96.231 769.48 93.164 C 765.68 90.097 763.78 85.861 763.78 80.454 C 763.78 73.121 767.49 67.901 774.91 64.794 C 776.534 64.092 778.218 63.537 779.94 63.134 C 782.113 62.621 784.314 62.23 786.53 61.964 C 789.05 61.644 791.914 61.391 795.12 61.204 C 798.327 61.017 802.037 60.834 806.25 60.654 L 806.25 54.754 C 806.25 49.161 805.357 45.244 803.57 43.004 C 801.784 40.764 798.647 39.641 794.16 39.634 C 789.94 39.634 786.88 40.714 784.95 42.864 C 783.02 45.014 782.02 48.434 781.95 53.104 L 781.95 53.374 L 767.25 53.374 C 767.153 48.045 769.835 43.048 774.33 40.184 C 778.95 37.077 785.474 35.521 793.9 35.514 C 804.34 35.514 811.76 37.897 816.16 42.664 C 817.772 44.427 818.946 46.544 819.59 48.844 C 820.334 51.947 820.67 55.134 820.59 58.324 L 820.59 96.254 L 807.19 96.254 L 807.19 83.484 Z M 806.19 64.664 C 801.779 64.609 797.371 64.883 793 65.484 C 789.978 65.886 787.043 66.782 784.31 68.134 C 782.241 69.154 780.557 70.817 779.51 72.874 C 778.489 75.137 777.996 77.602 778.07 80.084 C 778.07 84.024 779.054 87.047 781.02 89.154 C 782.987 91.261 785.757 92.314 789.33 92.314 C 792.545 92.366 795.694 91.404 798.33 89.564 C 801.03 87.613 803.065 84.88 804.16 81.734 C 804.968 79.611 805.499 77.393 805.74 75.134 C 806.116 71.657 806.279 68.161 806.23 64.664 L 806.19 64.664 Z"/>
      <path d="M 851.54 1.884 C 853.967 1.752 856.351 2.557 858.2 4.134 C 859.832 5.691 860.708 7.881 860.6 10.134 C 860.682 12.33 859.776 14.447 858.13 15.904 C 854.221 18.832 848.849 18.832 844.94 15.904 C 843.274 14.403 842.367 12.234 842.47 9.994 C 842.381 7.77 843.286 5.623 844.94 4.134 C 846.778 2.579 849.135 1.775 851.54 1.884 Z M 858.4 96.254 L 844.53 96.254 L 844.53 36.914 L 858.4 36.914 L 858.4 96.254 Z"/>
      <path d="M 743.86 82.617 C 746.286 82.485 748.671 83.291 750.52 84.867 C 752.152 86.425 753.027 88.614 752.92 90.867 C 753.002 93.063 752.095 95.181 750.45 96.637 C 746.543 99.561 741.177 99.561 737.27 96.637 C 735.593 95.139 734.682 92.964 734.79 90.717 C 734.703 88.495 735.612 86.35 737.27 84.867 C 739.103 83.311 741.458 82.507 743.86 82.617 Z"/>
    </g>
  </g>
</svg>