<?xml version="1.0" encoding="utf-8"?>
<svg xmlns="http://www.w3.org/2000/svg" viewBox="100.004 120.9613 1199.9923 1143.6854" width="1199.99px" height="1143.69px">
  <path d="M 688.309 137.422 C 655.22 175.831 630.154 204.952 610.886 227.606 C 591.617 250.261 578.147 266.447 568.25 278.982 C 558.355 291.516 552.031 300.398 547.059 308.446 C 542.086 316.495 538.463 323.71 533.966 332.908 C 532.569 335.765 531.219 338.508 529.977 341.019 C 528.734 343.531 527.597 345.812 526.625 347.745 C 525.654 349.679 524.848 351.264 524.266 352.387 C 523.683 353.507 523.324 354.164 523.248 354.242 C 523.172 354.318 522.618 354.249 521.684 354.06 C 520.749 353.87 519.433 353.561 517.834 353.154 C 516.236 352.747 514.351 352.245 512.28 351.67 C 510.209 351.096 507.951 350.45 505.599 349.757 C 494.81 346.575 486.631 344.181 478.739 342.379 C 470.847 340.579 463.245 339.37 453.606 338.557 C 443.97 337.745 432.297 337.33 416.269 337.115 C 400.238 336.9 379.851 336.887 352.783 336.878 L 327.935 336.87 L 303.087 336.862 L 278.236 336.855 L 253.388 336.847 L 253.388 388.106 L 253.388 439.366 L 253.388 490.625 L 253.388 541.885 L 248.132 542.471 L 242.876 543.059 L 237.62 543.646 L 232.362 544.234 C 226.454 544.895 220.311 545.799 213.955 546.94 C 207.599 548.082 201.028 549.463 194.261 551.077 C 187.495 552.694 180.533 554.543 173.395 556.62 C 166.257 558.699 158.941 561.008 151.468 563.54 C 146.767 565.135 141.2 567.138 135.493 569.262 C 129.788 571.388 123.943 573.637 118.684 575.718 C 113.426 577.8 108.757 579.714 105.401 581.178 C 102.045 582.64 100.004 583.649 100.004 583.914 C 100.004 584.312 100.713 586.252 101.909 589.229 C 103.107 592.205 104.795 596.216 106.752 600.753 C 108.708 605.292 110.934 610.355 113.209 615.436 C 115.485 620.516 117.81 625.614 119.965 630.218 C 132.034 655.997 146.275 680.725 162.301 703.997 C 178.327 727.27 196.137 749.087 215.344 769.046 C 234.552 789.006 255.158 807.107 276.773 822.947 C 298.388 838.788 321.012 852.367 344.258 863.285 C 355.792 868.701 367.151 873.542 378.412 877.832 C 389.674 882.121 400.837 885.859 411.981 889.066 C 423.124 892.275 434.246 894.952 445.422 897.121 C 456.6 899.289 467.832 900.949 479.196 902.124 C 487.59 902.993 497.009 903.511 506.954 903.702 C 516.9 903.89 527.374 903.752 537.881 903.305 C 548.388 902.859 558.926 902.104 569.004 901.064 C 579.083 900.023 588.7 898.695 597.362 897.103 C 601.229 896.392 604.938 895.731 608.332 895.144 C 611.727 894.558 614.804 894.047 617.41 893.634 C 620.018 893.223 622.15 892.912 623.653 892.723 C 625.156 892.536 626.031 892.471 626.116 892.558 C 626.546 892.987 625.931 894.501 624.6 896.679 C 623.268 898.858 621.221 901.702 618.787 904.794 C 616.353 907.886 613.532 911.227 610.652 914.397 C 607.773 917.569 604.835 920.568 602.168 922.983 C 596.442 928.164 590.468 932.641 584.06 936.474 C 577.654 940.309 570.814 943.502 563.355 946.119 C 555.898 948.736 547.819 950.776 538.939 952.305 C 530.057 953.834 520.373 954.852 509.698 955.425 C 496.096 956.155 483.854 957.515 472.669 959.626 C 461.484 961.739 451.353 964.604 441.973 968.344 C 432.592 972.082 423.963 976.695 415.778 982.303 C 407.593 987.913 399.854 994.521 392.251 1002.24 C 386.701 1007.88 381.768 1013.7 377.396 1019.83 C 373.022 1025.93 369.207 1032.38 365.889 1039.22 C 362.57 1046.08 359.749 1053.37 357.362 1061.2 C 354.976 1069.05 353.025 1077.44 351.445 1086.55 C 350.844 1090.03 350.381 1092.63 349.875 1094.71 C 349.369 1096.77 348.817 1098.3 348.032 1099.53 C 347.249 1100.8 346.232 1101.78 344.795 1102.84 C 343.359 1103.87 341.502 1104.95 339.037 1106.4 C 328.953 1112.26 320.411 1119.67 313.584 1128.15 C 306.754 1136.63 301.64 1146.14 298.413 1156.16 C 295.185 1166.19 293.845 1176.72 294.565 1187.21 C 295.284 1197.72 298.062 1208.19 303.073 1218.09 C 307.002 1225.87 312.416 1232.96 318.82 1239.18 C 325.226 1245.38 332.621 1250.69 340.517 1254.8 C 348.41 1258.94 356.805 1261.9 365.202 1263.42 C 373.601 1264.97 382.004 1265.1 389.918 1263.53 C 393.708 1262.77 397.725 1261.63 401.798 1260.17 C 405.871 1258.74 410.001 1256.98 414.011 1255.02 C 418.022 1253.05 421.914 1250.86 425.517 1248.54 C 429.121 1246.2 432.431 1243.76 435.278 1241.24 C 441.16 1236.07 446.097 1229.76 450.004 1222.7 C 453.913 1215.64 456.791 1207.85 458.557 1199.69 C 460.322 1191.52 460.976 1182.99 460.434 1174.51 C 459.89 1165.98 458.154 1157.52 455.136 1149.45 C 453.577 1145.29 451.244 1140.96 448.328 1136.67 C 445.413 1132.39 441.914 1128.15 438.029 1124.14 C 434.145 1120.16 429.872 1116.38 425.405 1113.06 C 420.939 1109.74 416.279 1106.88 411.619 1104.63 C 407.48 1102.63 404.374 1101.13 402.12 1099.74 C 399.864 1098.35 398.455 1097.05 397.711 1095.43 C 396.965 1093.85 396.883 1091.93 397.274 1089.31 C 397.668 1086.68 398.534 1083.38 399.689 1078.93 C 401.951 1070.24 405.343 1062.02 409.715 1054.37 C 414.087 1046.72 419.437 1039.68 425.613 1033.39 C 431.789 1027.11 438.792 1021.57 446.465 1016.96 C 454.139 1012.34 462.486 1008.63 471.352 1005.98 C 472.909 1005.51 475.238 1005.02 478.133 1004.53 C 481.027 1004.04 484.487 1003.55 488.298 1003.09 C 492.111 1002.62 496.277 1002.17 500.586 1001.79 C 504.896 1001.39 509.349 1001.06 513.733 1000.79 C 524.112 1000.17 533.249 999.371 541.498 998.31 C 549.746 997.25 557.103 995.922 563.92 994.244 C 570.737 992.566 577.013 990.537 583.097 988.074 C 589.181 985.615 595.072 982.719 601.122 979.299 C 607.641 975.615 613.462 971.987 618.852 968.174 C 624.241 964.36 629.197 960.361 633.987 955.928 C 638.775 951.496 643.395 946.633 648.112 941.094 C 652.829 935.555 657.641 929.339 662.814 922.204 L 665.908 917.936 L 669.001 913.669 L 672.097 909.399 L 675.19 905.13 L 675.19 954.042 L 675.19 1002.96 L 675.19 1051.87 L 675.19 1100.8 L 671.198 1103.43 L 667.205 1106.08 L 663.214 1108.71 L 659.222 1111.36 C 653.14 1115.38 647.966 1119.32 643.55 1123.42 C 639.134 1127.54 635.473 1131.78 632.422 1136.43 C 629.373 1141.08 626.929 1146.11 624.948 1151.73 C 622.964 1157.38 621.441 1163.61 620.225 1170.7 C 618.77 1179.18 618.926 1187.88 620.478 1196.36 C 622.032 1204.85 624.983 1213.13 629.119 1220.8 C 633.254 1228.48 638.576 1235.57 644.868 1241.64 C 651.159 1247.73 658.424 1252.83 666.446 1256.53 C 674.497 1260.21 682.774 1262.6 691.061 1263.66 C 699.349 1264.72 707.646 1264.48 715.741 1262.98 C 723.834 1261.48 731.722 1258.72 739.193 1254.72 C 746.664 1250.72 753.713 1245.52 760.13 1239.12 C 764.188 1235.08 767.516 1231.23 770.228 1227.34 C 772.939 1223.43 775.034 1219.42 776.627 1215.06 C 778.218 1210.66 779.308 1205.88 780.007 1200.38 C 780.706 1194.89 781.014 1188.69 781.046 1181.47 C 781.069 1176.26 781.063 1172.2 780.946 1168.88 C 780.831 1165.52 780.602 1162.91 780.182 1160.54 C 779.763 1158.17 779.152 1156.06 778.269 1153.74 C 777.384 1151.41 776.227 1148.88 774.717 1145.7 C 772.685 1141.39 770.341 1137.38 767.688 1133.63 C 765.034 1129.88 762.073 1126.39 758.802 1123.18 C 755.533 1119.99 751.958 1117.06 748.078 1114.39 C 744.198 1111.74 740.016 1109.35 735.53 1107.24 L 732.07 1105.62 L 728.61 1103.99 L 725.15 1102.38 L 721.689 1100.74 L 721.679 1076.06 L 721.669 1051.34 L 721.658 1026.63 L 721.648 1001.94 C 721.643 988.362 721.685 975.446 721.766 963.735 C 721.848 952.023 721.969 941.513 722.118 932.734 C 722.269 923.954 722.447 916.906 722.647 912.118 C 722.847 907.331 723.068 904.805 723.301 905.069 C 723.534 905.332 724.081 906.054 724.872 907.13 C 725.663 908.205 726.696 909.636 727.899 911.323 C 729.103 913.008 730.477 914.946 731.948 917.037 C 733.416 919.128 734.987 921.372 736.578 923.665 C 740.354 929.101 743.921 933.918 747.45 938.292 C 750.979 942.666 754.473 946.597 758.101 950.257 C 761.73 953.919 765.495 957.309 769.569 960.605 C 773.644 963.902 778.026 967.103 782.89 970.383 C 790.668 975.628 797.9 979.987 805.104 983.618 C 812.307 987.251 819.482 990.16 827.142 992.492 C 834.802 994.825 842.949 996.587 852.098 997.933 C 861.246 999.288 871.396 1000.22 883.064 1000.9 C 887.365 1001.15 891.726 1001.45 895.927 1001.78 C 900.127 1002.11 904.166 1002.47 907.824 1002.83 C 911.484 1003.2 914.759 1003.57 917.434 1003.92 C 920.107 1004.27 922.179 1004.62 923.428 1004.92 C 933.079 1007.27 942.419 1011.29 951.049 1016.58 C 959.68 1021.87 967.61 1028.39 974.452 1035.8 C 981.294 1043.17 987.038 1051.41 991.326 1060.08 C 995.605 1068.74 998.408 1077.84 999.359 1086.94 L 999.689 1090.06 L 1000.01 1093.16 L 1000.33 1096.28 L 1000.65 1099.39 L 997.956 1100.77 L 995.263 1102.13 L 992.561 1103.49 L 989.859 1104.88 C 981.542 1109.09 974.24 1114.07 968.016 1119.74 C 961.792 1125.42 956.637 1131.78 952.598 1138.76 C 948.569 1145.72 945.656 1153.33 943.895 1161.43 C 942.142 1169.56 941.561 1178.18 942.18 1187.29 C 942.834 1196.87 945.028 1205.92 948.578 1214.23 C 952.119 1222.55 957.016 1230.13 963.064 1236.74 C 969.104 1243.35 976.306 1249.03 984.457 1253.49 C 992.617 1257.99 1001.73 1261.31 1011.59 1263.26 C 1024.68 1265.82 1037.79 1264.51 1049.97 1260.3 C 1062.13 1256.08 1073.34 1248.92 1082.63 1239.83 C 1091.94 1230.72 1099.31 1219.64 1103.8 1207.57 C 1108.3 1195.48 1109.9 1182.38 1107.65 1169.21 C 1106.5 1162.61 1104.65 1156.21 1102.12 1150.13 C 1099.58 1144.03 1096.4 1138.26 1092.61 1132.89 C 1088.84 1127.55 1084.47 1122.6 1079.6 1118.18 C 1074.71 1113.77 1069.33 1109.88 1063.52 1106.63 C 1061.73 1105.63 1060.02 1104.64 1058.43 1103.69 C 1056.83 1102.73 1055.37 1101.85 1054.1 1101.04 C 1052.83 1100.23 1051.78 1099.52 1050.99 1098.96 C 1050.22 1098.39 1049.73 1097.97 1049.59 1097.74 C 1049.45 1097.53 1049.24 1096.88 1048.97 1095.92 C 1048.7 1094.96 1048.39 1093.68 1048.02 1092.19 C 1047.67 1090.68 1047.28 1088.94 1046.9 1087.08 C 1046.51 1085.2 1046.09 1083.18 1045.7 1081.14 C 1044.74 1076.18 1043.45 1070.95 1041.86 1065.65 C 1040.27 1060.36 1038.42 1054.97 1036.36 1049.76 C 1034.3 1044.53 1032.05 1039.43 1029.7 1034.7 C 1027.33 1029.96 1024.85 1025.59 1022.35 1021.76 C 1017.88 1014.94 1012.54 1008.41 1006.54 1002.29 C 1000.55 996.189 993.871 990.519 986.716 985.41 C 979.571 980.298 971.935 975.753 964.005 971.905 C 956.076 968.058 947.85 964.908 939.515 962.592 C 937.264 961.965 934.433 961.335 931.169 960.724 C 927.912 960.112 924.222 959.517 920.249 958.962 C 916.274 958.407 912.017 957.891 907.621 957.432 C 903.225 956.972 898.691 956.574 894.164 956.252 C 890.002 955.958 885.661 955.592 881.378 955.186 C 877.096 954.781 872.874 954.331 868.946 953.871 C 865.019 953.409 861.388 952.933 858.29 952.472 C 855.19 952.009 852.625 951.563 850.828 951.157 C 845.788 950.02 840.722 948.485 835.724 946.602 C 830.726 944.72 825.793 942.488 821.018 939.956 C 816.243 937.425 811.625 934.591 807.253 931.506 C 802.88 928.42 798.755 925.079 794.965 921.535 C 791.713 918.493 788.569 915.285 785.717 912.153 C 782.864 909.02 780.304 905.962 778.215 903.22 C 776.127 900.477 774.513 898.047 773.553 896.17 C 772.594 894.293 772.289 892.969 772.821 892.437 C 772.966 892.292 773.972 892.313 775.666 892.477 C 777.359 892.639 779.74 892.943 782.634 893.363 C 785.528 893.781 788.935 894.316 792.679 894.941 C 796.425 895.567 800.508 896.281 804.754 897.061 C 811.706 898.339 817.394 899.334 822.656 900.106 C 827.917 900.88 832.753 901.432 837.995 901.83 C 843.239 902.225 848.891 902.464 855.787 902.608 C 862.683 902.754 870.824 902.804 881.045 902.825 C 893.222 902.848 903.088 902.782 911.624 902.518 C 920.16 902.254 927.364 901.792 934.212 901.02 C 941.073 900.246 947.564 899.166 954.692 897.667 C 961.82 896.166 969.574 894.246 978.925 891.798 C 997.421 886.961 1015.23 881.113 1032.43 874.228 C 1049.62 867.342 1066.19 859.42 1082.21 850.428 C 1098.2 841.435 1113.64 831.376 1128.56 820.218 C 1143.48 809.059 1157.88 796.803 1171.83 783.417 C 1183.69 772.037 1194.69 760.572 1204.95 748.845 C 1215.23 737.119 1224.79 725.131 1233.73 712.708 C 1242.67 700.281 1251.01 687.42 1258.9 673.945 C 1266.76 660.47 1274.15 646.38 1281.21 631.502 C 1284.94 623.609 1288.11 616.767 1290.69 610.911 C 1293.29 605.053 1295.32 600.184 1296.82 596.236 C 1298.29 592.288 1299.26 589.261 1299.7 587.091 C 1300.16 584.922 1300.07 583.612 1299.53 583.092 C 1298.76 582.376 1295.41 580.778 1290.5 578.698 C 1285.61 576.619 1279.16 574.06 1272.23 571.421 C 1265.31 568.782 1257.9 566.061 1251.03 563.664 C 1244.18 561.264 1237.9 559.187 1233.22 557.831 C 1227.76 556.246 1221.91 554.686 1215.96 553.207 C 1209.96 551.727 1203.87 550.328 1197.93 549.066 C 1191.98 547.806 1186.19 546.682 1180.79 545.754 C 1175.4 544.824 1170.43 544.088 1166.12 543.604 L 1162.96 543.247 L 1159.81 542.891 L 1156.66 542.536 L 1153.51 542.181 L 1153.51 490.846 L 1153.51 439.513 L 1153.51 388.18 L 1153.51 336.847 L 1128.9 336.867 L 1104.31 336.89 L 1079.71 336.911 L 1055.12 336.933 C 1028.66 336.956 1008.49 337 992.451 337.229 C 976.407 337.458 964.493 337.875 954.572 338.645 C 944.642 339.414 936.693 340.536 928.575 342.177 C 920.459 343.819 912.174 345.98 901.572 348.829 C 899.261 349.448 897.038 350.023 894.997 350.527 C 892.957 351.033 891.097 351.47 889.518 351.817 C 887.94 352.165 886.638 352.422 885.711 352.571 C 884.783 352.719 884.23 352.757 884.144 352.662 C 884.059 352.569 883.681 351.883 883.069 350.727 C 882.457 349.569 881.613 347.938 880.597 345.957 C 879.581 343.974 878.394 341.64 877.096 339.074 C 875.799 336.506 874.393 333.704 872.935 330.792 C 868.455 321.827 865.072 315.074 861.262 308.521 C 857.452 301.969 853.216 295.615 847.028 287.449 C 840.84 279.282 832.702 269.307 821.089 255.504 C 809.475 241.703 794.386 224.078 774.297 200.617 C 760.293 184.263 748.992 171.1 739.889 160.558 C 730.785 150.014 723.878 142.09 718.658 136.216 C 713.439 130.34 709.909 126.512 707.559 124.16 C 705.209 121.809 704.039 120.932 703.539 120.962 C 703.389 120.97 702.846 121.439 701.996 122.279 C 701.147 123.118 699.99 124.33 698.61 125.821 C 697.229 127.314 695.625 129.087 693.88 131.048 C 692.136 133.013 690.251 135.168 688.309 137.422 M 758.909 252.082 C 772.809 268.335 784.685 282.636 794.737 295.281 C 804.788 307.926 813.016 318.912 819.62 328.535 C 826.224 338.157 831.205 346.415 834.765 353.602 C 838.323 360.787 840.459 366.903 841.375 372.239 C 841.612 373.621 841.74 374.731 841.667 375.7 C 841.597 376.671 841.323 377.501 840.762 378.321 C 840.203 379.145 839.353 379.958 838.124 380.893 C 836.894 381.83 835.287 382.888 833.211 384.201 C 829.873 386.314 825.483 389.733 820.546 393.97 C 815.607 398.207 810.122 403.262 804.592 408.645 C 799.061 414.029 793.486 419.741 788.367 425.29 C 783.249 430.841 778.587 436.231 774.887 440.97 C 770.89 446.089 766.754 451.841 762.651 457.939 C 758.547 464.038 754.477 470.484 750.607 476.989 C 746.737 483.495 743.071 490.06 739.778 496.398 C 736.485 502.737 733.564 508.85 731.187 514.447 C 727.77 522.498 724.459 531.643 721.415 541.221 C 718.369 550.8 715.592 560.812 713.237 570.602 C 710.881 580.393 708.952 589.96 707.605 598.647 C 706.255 607.335 705.488 615.142 705.463 621.412 C 705.438 627.49 705.25 631.906 704.903 634.662 C 704.557 637.419 704.051 638.517 703.391 637.959 C 702.728 637.401 701.911 635.188 700.942 631.323 C 699.973 627.456 698.853 621.936 697.583 614.766 C 695.975 605.684 694.141 596.404 692.172 587.287 C 690.204 578.17 688.101 569.218 685.956 560.795 C 683.81 552.372 681.624 544.475 679.489 537.471 C 677.354 530.466 675.268 524.352 673.327 519.493 C 671.388 514.641 668.832 508.988 665.887 502.958 C 662.942 496.927 659.61 490.519 656.123 484.156 C 652.635 477.79 648.99 471.47 645.422 465.613 C 641.853 459.758 638.358 454.367 635.171 449.864 C 632.316 445.833 628.301 440.852 623.618 435.439 C 618.938 430.024 613.588 424.177 608.066 418.411 C 602.545 412.646 596.85 406.962 591.474 401.876 C 586.1 396.789 581.044 392.3 576.803 388.924 C 575.067 387.542 573.413 386.154 571.905 384.829 C 570.397 383.504 569.038 382.242 567.894 381.109 C 566.75 379.977 565.826 378.975 565.185 378.172 C 564.544 377.368 564.19 376.762 564.19 376.424 C 564.19 375.379 565.168 372.66 566.79 368.936 C 568.413 365.212 570.678 360.481 573.25 355.408 C 575.821 350.336 578.697 344.919 581.543 339.827 C 584.388 334.734 587.202 329.965 589.648 326.183 C 592.232 322.191 594.694 318.53 597.332 314.832 C 599.969 311.134 602.778 307.399 606.05 303.26 C 609.324 299.121 613.058 294.578 617.549 289.263 C 622.039 283.948 627.283 277.86 633.571 270.632 C 635.911 267.943 638.896 264.505 642.286 260.595 C 645.674 256.683 649.469 252.3 653.431 247.72 C 657.39 243.139 661.517 238.363 665.571 233.667 C 669.627 228.971 673.608 224.356 677.278 220.096 L 683.948 212.35 L 690.618 204.606 L 697.289 196.86 L 703.96 189.116 L 705.111 190.302 L 706.262 191.487 L 707.413 192.672 L 708.563 193.857 C 709.195 194.51 711.086 196.636 713.96 199.918 C 716.833 203.202 720.688 207.64 725.251 212.917 C 729.813 218.193 735.084 224.308 740.785 230.941 C 746.486 237.575 752.62 244.728 758.909 252.082 M 462.271 385.148 C 466.513 386.047 470.944 387.124 475.298 388.297 C 479.652 389.47 483.931 390.737 487.866 392.015 C 491.801 393.291 495.396 394.578 498.383 395.786 C 501.371 396.996 503.751 398.128 505.259 399.097 C 505.79 399.439 506.165 400.015 506.372 401.002 C 506.58 401.991 506.618 403.391 506.477 405.382 C 506.335 407.372 506.012 409.954 505.497 413.303 C 504.981 416.652 504.271 420.767 503.356 425.828 C 502.411 431.061 501.654 435.688 501.053 440.252 C 500.452 444.817 500.005 449.318 499.678 454.298 C 499.351 459.279 499.141 464.739 499.016 471.219 C 498.891 477.699 498.849 485.201 498.854 494.265 C 498.86 504.067 498.897 511.833 499.025 518.324 C 499.153 524.815 499.371 530.028 499.739 534.731 C 500.108 539.431 500.628 543.619 501.358 548.058 C 502.087 552.496 503.026 557.183 504.238 562.883 C 504.974 566.352 505.788 570.059 506.629 573.791 C 507.47 577.523 508.337 581.278 509.18 584.841 C 510.024 588.405 510.843 591.778 511.587 594.745 C 512.33 597.711 513 600.271 513.543 602.209 C 514.086 604.147 514.59 606.012 515.038 607.722 C 515.486 609.43 515.875 610.985 516.19 612.308 C 516.504 613.629 516.742 614.718 516.885 615.49 C 517.027 616.265 517.075 616.724 517.008 616.792 C 516.942 616.857 516.285 616.577 515.157 616.014 C 514.03 615.451 512.43 614.604 510.478 613.54 C 508.524 612.474 506.215 611.191 503.672 609.753 C 501.129 608.317 498.35 606.723 495.453 605.042 C 487.933 600.677 481.291 596.912 475.162 593.566 C 469.032 590.222 463.415 587.297 457.946 584.615 C 452.475 581.934 447.152 579.493 441.614 577.117 C 436.077 574.741 430.322 572.428 423.987 570 C 414.471 566.352 404.893 563.011 395.413 560.015 C 385.932 557.019 376.548 554.369 367.412 552.103 C 358.276 549.835 349.391 547.953 340.91 546.492 C 332.43 545.032 324.355 543.992 316.84 543.415 L 312.581 543.088 L 308.321 542.761 L 304.063 542.434 L 299.805 542.106 L 299.805 501.891 L 299.805 461.677 L 299.805 421.46 L 299.805 381.245 L 317.843 381.254 L 335.88 381.262 L 353.918 381.269 L 371.956 381.277 C 387.738 381.284 400.28 381.32 410.463 381.422 C 420.648 381.524 428.475 381.692 434.826 381.964 C 441.178 382.236 446.051 382.613 450.331 383.131 C 454.612 383.649 458.297 384.308 462.271 385.148 M 1111.13 459.837 C 1111.13 472.075 1111.07 483.137 1110.98 492.854 C 1110.91 502.571 1110.76 510.947 1110.59 517.816 C 1110.42 524.683 1110.21 530.046 1109.97 533.741 C 1109.73 537.434 1109.45 539.455 1109.15 539.646 C 1108.87 539.813 1107.88 540.053 1106.34 540.345 C 1104.79 540.637 1102.66 540.978 1100.15 541.351 C 1097.62 541.72 1094.68 542.12 1091.49 542.528 C 1088.28 542.932 1084.83 543.342 1081.27 543.739 C 1073.64 544.585 1065.9 545.716 1058.03 547.141 C 1050.16 548.564 1042.16 550.28 1033.99 552.295 C 1025.81 554.312 1017.46 556.629 1008.94 559.254 C 1000.4 561.879 991.657 564.812 982.687 568.063 C 975.365 570.711 969.649 572.811 964.679 574.754 C 959.708 576.699 955.494 578.486 951.198 580.514 C 946.899 582.543 942.529 584.81 937.237 587.71 C 931.945 590.611 925.732 594.145 917.771 598.708 C 914.634 600.505 911.607 602.188 908.821 603.691 C 906.037 605.195 903.493 606.52 901.321 607.599 C 899.148 608.68 897.348 609.516 896.05 610.04 C 894.754 610.566 893.959 610.781 893.801 610.621 C 893.641 610.462 893.609 609.811 893.687 608.771 C 893.764 607.733 893.953 606.306 894.233 604.592 C 894.515 602.879 894.889 600.883 895.339 598.702 C 895.788 596.524 896.315 594.163 896.901 591.723 C 899.484 580.96 901.443 572.713 902.947 565.702 C 904.451 558.69 905.498 552.914 906.257 547.09 C 907.015 541.267 907.482 535.396 907.829 528.196 C 908.174 520.997 908.4 512.468 908.666 501.329 C 908.901 491.539 909.054 483.689 909.093 477.081 C 909.131 470.475 909.055 465.109 908.832 460.29 C 908.608 455.472 908.241 451.203 907.693 446.783 C 907.143 442.364 906.417 437.797 905.48 432.386 C 903.949 423.55 902.784 417.014 902.112 412.1 C 901.44 407.183 901.261 403.889 901.704 401.534 C 902.146 399.181 903.209 397.769 905.022 396.62 C 906.834 395.471 909.395 394.585 912.832 393.281 C 919.761 390.654 925.747 388.606 932.102 387.01 C 938.464 385.415 945.194 384.27 953.613 383.45 C 962.032 382.63 972.139 382.133 985.259 381.832 C 998.372 381.532 1014.49 381.426 1034.93 381.388 L 1053.97 381.352 L 1073.03 381.317 L 1092.07 381.281 L 1111.13 381.245 L 1111.13 400.893 L 1111.13 420.542 L 1111.13 440.189 L 1111.13 459.837 M 860.619 436.242 C 862.594 446.386 864.056 455.94 865.008 465.233 C 865.958 474.525 866.397 483.556 866.322 492.659 C 866.246 501.762 865.655 510.934 864.546 520.511 C 863.437 530.086 861.811 540.064 859.665 550.774 C 857.468 561.736 855.002 572.044 852.203 581.869 C 849.402 591.693 846.267 601.037 842.729 610.064 C 839.192 619.094 835.251 627.81 830.845 636.38 C 826.436 644.954 821.559 653.382 816.149 661.839 C 813.973 665.237 810.142 670.419 805.393 676.496 C 800.644 682.573 794.98 689.546 789.144 696.525 C 783.305 703.506 777.295 710.494 771.852 716.603 C 766.408 722.712 761.535 727.941 757.972 731.403 L 755.376 733.927 L 752.781 736.449 L 750.184 738.971 L 747.589 741.494 L 747.791 725.347 L 747.996 709.203 L 748.199 693.057 L 748.402 676.912 C 748.581 662.81 748.753 651.571 748.971 642.39 C 749.191 633.21 749.453 626.084 749.809 620.206 C 750.166 614.328 750.616 609.696 751.21 605.503 C 751.802 601.311 752.539 597.553 753.467 593.427 C 756.553 579.698 760.148 566.759 764.323 554.463 C 768.498 542.167 773.252 530.516 778.655 519.359 C 784.059 508.204 790.114 497.544 796.887 487.238 C 803.662 476.93 811.156 466.975 819.442 457.223 C 822.412 453.731 825.918 450.01 829.576 446.396 C 833.234 442.781 837.044 439.271 840.62 436.196 C 844.195 433.124 847.537 430.486 850.26 428.618 C 852.981 426.749 855.084 425.648 856.179 425.647 C 856.507 425.647 856.877 425.945 857.267 426.483 C 857.655 427.021 858.063 427.799 858.466 428.759 C 858.868 429.72 859.264 430.862 859.632 432.128 C 860 433.395 860.337 434.786 860.619 436.242 M 571.679 445.324 C 580.812 454.417 589.063 463.84 596.551 473.811 C 604.039 483.782 610.759 494.299 616.832 505.577 C 622.904 516.854 628.326 528.892 633.214 541.902 C 638.101 554.914 642.454 568.901 646.388 584.074 C 647.63 588.875 648.583 592.732 649.323 596.772 C 650.065 600.813 650.594 605.037 650.992 610.573 C 651.393 616.108 651.662 622.953 651.881 632.238 C 652.102 641.521 652.275 653.243 652.477 668.531 C 652.669 682.917 652.799 694.115 652.841 702.797 C 652.882 711.478 652.838 717.643 652.681 721.96 C 652.525 726.278 652.258 728.747 651.855 730.041 C 651.453 731.335 650.915 731.451 650.216 731.06 C 649.193 730.488 646.502 727.833 642.813 723.869 C 639.122 719.903 634.433 714.628 629.412 708.816 C 624.39 703.003 619.033 696.651 614.014 690.534 C 608.992 684.415 604.305 678.531 600.617 673.653 C 597.222 669.159 593.402 663.352 589.461 656.821 C 585.522 650.289 581.466 643.033 577.6 635.644 C 573.734 628.254 570.06 620.73 566.882 613.659 C 563.706 606.586 561.028 599.97 559.156 594.395 C 558.434 592.246 557.624 589.642 556.777 586.782 C 555.93 583.919 555.047 580.799 554.181 577.611 C 553.313 574.422 552.463 571.168 551.679 568.038 C 550.896 564.907 550.181 561.903 549.589 559.216 C 547.7 550.671 546.401 538.177 545.644 524.243 C 544.888 510.306 544.674 494.931 544.951 480.624 C 545.23 466.316 546.002 453.076 547.216 443.413 C 548.431 433.751 550.09 427.665 552.145 427.665 C 552.391 427.665 553.127 428.162 554.242 429.058 C 555.357 429.954 556.853 431.251 558.624 432.852 C 560.394 434.452 562.439 436.355 564.65 438.466 C 566.861 440.578 569.241 442.895 571.679 445.324 M 1103.98 598.708 C 1103.09 606.27 1101.85 613.743 1100.25 621.181 C 1098.64 628.618 1096.68 636.022 1094.33 643.455 C 1091.97 650.886 1089.25 658.345 1086.11 665.892 C 1082.98 673.438 1079.44 681.073 1075.5 688.854 C 1072.07 695.587 1068.9 701.457 1065.7 706.854 C 1062.5 712.253 1059.29 717.177 1055.75 722.023 C 1052.23 726.867 1048.39 731.631 1043.94 736.708 C 1039.48 741.784 1034.43 747.171 1028.51 753.262 C 1022.87 759.059 1017.71 764.088 1012.75 768.582 C 1007.76 773.076 1002.97 777.031 998.049 780.685 C 993.116 784.336 988.053 787.683 982.538 790.956 C 977.034 794.23 971.077 797.428 964.365 800.785 C 955.956 804.993 948.136 808.374 939.929 811.079 C 931.714 813.783 923.101 815.81 913.079 817.312 C 903.056 818.813 891.626 819.788 877.778 820.387 C 863.931 820.988 847.669 821.213 827.984 821.213 L 813.936 821.213 L 799.887 821.213 L 785.838 821.213 L 771.791 821.213 L 772.119 820.077 L 772.449 818.942 L 772.777 817.807 L 773.106 816.672 C 773.674 814.716 775.554 810.898 778.286 805.967 C 781.014 801.035 784.597 794.988 788.569 788.571 C 792.543 782.152 796.908 775.363 801.201 768.948 C 805.494 762.532 809.719 756.487 813.412 751.564 C 831.169 727.882 850.917 706.383 872.216 687.319 C 893.517 668.256 916.368 651.63 940.336 637.694 C 964.299 623.76 989.371 612.516 1015.12 604.22 C 1040.87 595.926 1067.3 590.577 1093.97 588.43 C 1095.08 588.341 1096.18 588.246 1097.22 588.15 C 1098.28 588.056 1099.27 587.961 1100.16 587.872 C 1101.04 587.782 1101.81 587.698 1102.41 587.624 C 1103.03 587.55 1103.47 587.488 1103.7 587.442 C 1103.93 587.395 1104.11 587.676 1104.23 588.225 C 1104.36 588.774 1104.44 589.591 1104.46 590.611 C 1104.49 591.631 1104.46 592.857 1104.39 594.227 C 1104.31 595.598 1104.19 597.111 1103.98 598.708 M 259.337 611.825 C 261.768 624.103 264.963 636.629 268.784 649.062 C 272.604 661.497 277.049 673.842 281.978 685.759 C 286.906 697.676 292.318 709.165 298.074 719.885 C 303.831 730.608 309.932 740.563 316.238 749.416 C 320.727 755.719 326.158 762.484 332.183 769.373 C 338.205 776.259 344.821 783.267 351.681 790.05 C 358.541 796.834 365.646 803.394 372.647 809.385 C 379.648 815.378 386.545 820.802 392.99 825.312 C 395.95 827.385 398.73 829.379 401.22 831.213 C 403.709 833.046 405.908 834.715 407.71 836.136 C 409.512 837.558 410.912 838.731 411.806 839.568 C 412.702 840.407 413.089 840.911 412.86 840.994 C 412.175 841.243 409.587 840.591 405.752 839.298 C 401.918 838.009 396.837 836.081 391.166 833.781 C 385.493 831.482 379.232 828.811 373.036 826.037 C 366.842 823.26 360.712 820.38 355.306 817.66 C 335.98 807.942 317.32 796.382 299.548 783.218 C 281.775 770.053 264.893 755.279 249.124 739.131 C 233.354 722.98 218.7 705.453 205.383 686.778 C 192.065 668.104 180.086 648.282 169.671 627.545 C 168.383 624.978 167.171 622.51 166.083 620.247 C 164.996 617.983 164.033 615.924 163.242 614.173 C 162.452 612.423 161.835 610.981 161.436 609.956 C 161.038 608.931 160.859 608.321 160.948 608.231 C 161.038 608.142 161.563 607.909 162.434 607.565 C 163.306 607.219 164.524 606.764 166.001 606.23 C 167.477 605.695 169.211 605.082 171.113 604.422 C 173.017 603.762 175.087 603.054 177.237 602.332 C 181.564 600.881 187.096 599.353 193.184 597.878 C 199.271 596.401 205.913 594.976 212.467 593.723 C 219.02 592.471 225.484 591.394 231.212 590.611 C 236.937 589.831 241.928 589.346 245.535 589.283 L 247.862 589.243 L 250.188 589.203 L 252.513 589.162 L 254.838 589.12 L 255.962 594.798 L 257.088 600.473 L 258.213 606.15 L 259.337 611.825 M 341.343 593.185 C 355.166 595.548 369.339 599.033 383.589 603.513 C 397.839 607.996 412.168 613.476 426.305 619.833 C 440.442 626.19 454.388 633.427 467.873 641.417 C 481.357 649.407 494.379 658.154 506.671 667.535 C 510.775 670.667 516.163 675.27 522.158 680.682 C 528.154 686.094 534.757 692.317 541.289 698.689 C 547.821 705.058 554.282 711.581 559.999 717.589 C 565.714 723.598 570.681 729.096 574.223 733.422 C 579.884 740.333 585.766 748.067 591.477 756.015 C 597.189 763.96 602.729 772.116 607.705 779.872 C 612.68 787.626 617.092 794.98 620.544 801.316 C 623.998 807.654 626.492 812.977 627.638 816.672 L 627.988 817.807 L 628.34 818.942 L 628.692 820.077 L 629.042 821.213 L 615.26 821.209 L 601.477 821.206 L 587.694 821.203 L 573.91 821.2 C 554.739 821.195 539.115 820.993 525.88 820.407 C 512.647 819.82 501.802 818.849 492.191 817.308 C 482.581 815.767 474.202 813.657 465.902 810.792 C 457.599 807.929 449.375 804.308 440.07 799.747 C 429.374 794.506 418.844 788.035 408.705 780.564 C 398.566 773.095 388.82 764.627 379.697 755.395 C 370.575 746.162 362.077 736.165 354.432 725.638 C 346.789 715.11 339.998 704.051 334.29 692.694 C 330.041 684.238 326.017 675.281 322.37 666.299 C 318.722 657.318 315.452 648.311 312.711 639.758 C 309.972 631.206 307.762 623.105 306.236 615.937 C 304.709 608.767 303.864 602.528 303.856 597.698 C 303.853 595.593 303.858 594.007 303.974 592.809 C 304.088 591.61 304.315 590.802 304.751 590.254 C 305.186 589.709 305.835 589.424 306.793 589.278 C 307.752 589.13 309.022 589.12 310.705 589.12 C 311.648 589.12 313.218 589.234 315.246 589.441 C 317.273 589.648 319.76 589.947 322.536 590.314 C 325.312 590.682 328.379 591.121 331.57 591.607 C 334.76 592.093 338.074 592.627 341.343 593.185 M 1190.84 594.012 C 1194.21 594.614 1198.96 595.683 1204.22 596.981 C 1209.46 598.279 1215.23 599.803 1220.63 601.316 C 1226.05 602.829 1231.11 604.33 1234.92 605.575 C 1238.77 606.822 1241.39 607.813 1241.92 608.309 C 1242.18 608.545 1241.63 610.164 1240.43 612.8 C 1239.23 615.436 1237.41 619.09 1235.16 623.397 C 1232.92 627.704 1230.22 632.666 1227.27 637.919 C 1224.35 643.171 1221.15 648.712 1217.9 654.183 C 1207.63 671.484 1195.93 688.287 1183.17 704.272 C 1170.41 720.257 1156.55 735.423 1141.96 749.452 C 1127.36 763.479 1112.02 776.369 1096.26 787.801 C 1080.5 799.232 1064.32 809.205 1048.06 817.402 C 1043.39 819.763 1038.19 822.215 1032.96 824.553 C 1027.78 826.892 1022.56 829.115 1017.86 831.018 C 1013.15 832.917 1008.95 834.498 1005.77 835.552 C 1002.59 836.603 1000.43 837.126 999.8 836.914 C 999.542 836.83 999.837 836.37 1000.58 835.613 C 1001.33 834.855 1002.53 833.795 1004.08 832.517 C 1005.64 831.237 1007.57 829.737 1009.74 828.091 C 1011.92 826.447 1014.36 824.656 1016.97 822.798 C 1027.86 815.067 1038.07 806.856 1047.63 798.137 C 1057.21 789.417 1066.13 780.192 1074.44 770.429 C 1082.75 760.665 1090.43 750.365 1097.54 739.498 C 1104.64 728.63 1111.16 717.197 1117.08 705.166 C 1121.07 697.122 1124.56 689.546 1127.66 682.177 C 1130.79 674.809 1133.51 667.652 1135.95 660.447 C 1138.38 653.239 1140.51 645.987 1142.44 638.429 C 1144.35 630.87 1146.08 623.005 1147.66 614.578 L 1148.76 608.719 L 1149.87 602.858 L 1150.97 596.999 L 1152.07 591.138 L 1154.91 591.139 L 1157.72 591.139 L 1160.56 591.14 L 1163.38 591.141 C 1164.94 591.141 1166.87 591.221 1169.04 591.368 C 1171.22 591.513 1173.63 591.725 1176.1 591.985 C 1178.6 592.247 1181.17 592.554 1183.67 592.898 C 1186.19 593.241 1188.61 593.619 1190.84 594.012 M 398.956 1149.28 C 402.597 1151.59 405.682 1154.82 408.131 1158.6 C 410.581 1162.38 412.394 1166.71 413.489 1171.28 C 414.587 1175.84 414.967 1180.62 414.549 1185.28 C 414.133 1189.92 412.918 1194.48 410.825 1198.6 C 409.278 1201.63 407.483 1204.31 405.443 1206.66 C 403.404 1209.01 401.12 1211.02 398.599 1212.66 C 396.079 1214.33 393.322 1215.63 390.333 1216.61 C 387.345 1217.56 384.126 1218.17 380.682 1218.41 C 377.04 1218.66 373.601 1218.55 370.357 1218.01 C 367.113 1217.46 364.064 1216.55 361.201 1215.19 C 358.338 1213.87 355.662 1212.13 353.165 1209.97 C 350.665 1207.83 348.346 1205.28 346.197 1202.3 C 343.475 1198.54 341.649 1194.15 340.666 1189.52 C 339.685 1184.88 339.545 1179.97 340.197 1175.2 C 340.85 1170.44 342.293 1165.81 344.477 1161.66 C 346.661 1157.53 349.585 1153.88 353.198 1151.13 C 356.361 1148.72 359.963 1146.86 363.797 1145.57 C 367.632 1144.27 371.698 1143.53 375.788 1143.36 C 379.878 1143.19 383.992 1143.6 387.923 1144.58 C 391.853 1145.57 395.601 1147.13 398.956 1149.28 M 1042.69 1147.33 C 1044.45 1148.2 1046.41 1149.63 1048.43 1151.38 C 1050.42 1153.13 1052.45 1155.18 1054.31 1157.35 C 1056.18 1159.49 1057.87 1161.72 1059.2 1163.84 C 1060.53 1165.94 1061.5 1167.9 1061.89 1169.49 C 1062.07 1170.19 1062.21 1171.15 1062.32 1172.33 C 1062.43 1173.48 1062.49 1174.84 1062.52 1176.29 C 1062.57 1177.73 1062.55 1179.29 1062.51 1180.84 C 1062.47 1182.38 1062.39 1183.96 1062.26 1185.45 C 1061.63 1193.06 1058.78 1199.65 1054.52 1204.93 C 1050.25 1210.21 1044.55 1214.2 1038.25 1216.58 C 1031.95 1218.93 1025.02 1219.7 1018.29 1218.56 C 1011.56 1217.41 1004.99 1214.36 999.432 1209.1 C 997.238 1207.03 995.429 1205.05 993.946 1203.02 C 992.47 1200.98 991.308 1198.91 990.433 1196.66 C 989.557 1194.41 988.947 1191.97 988.561 1189.22 C 988.172 1186.45 988.006 1183.38 988.006 1179.86 C 988.006 1176.34 988.265 1173.16 988.809 1170.26 C 989.343 1167.36 990.182 1164.74 991.335 1162.34 C 992.497 1159.9 993.982 1157.69 995.835 1155.59 C 997.68 1153.48 999.892 1151.52 1002.51 1149.58 C 1004.98 1147.73 1007.98 1146.31 1011.27 1145.26 C 1014.57 1144.23 1018.14 1143.61 1021.79 1143.4 C 1025.44 1143.19 1029.15 1143.42 1032.71 1144.07 C 1036.28 1144.71 1039.67 1145.81 1042.69 1147.33 M 723.401 1152.05 C 725.168 1153.31 727.07 1155.31 728.931 1157.73 C 730.794 1160.14 732.613 1163.01 734.213 1165.94 C 735.814 1168.88 737.194 1171.89 738.177 1174.69 C 739.159 1177.49 739.744 1180.05 739.753 1182.06 C 739.764 1184.65 739.006 1187.71 737.695 1190.97 C 736.384 1194.2 734.52 1197.63 732.313 1200.89 C 730.109 1204.16 727.564 1207.29 724.894 1209.94 C 722.222 1212.61 719.426 1214.81 716.717 1216.2 C 713.613 1217.82 710.121 1218.81 706.475 1219.2 C 702.829 1219.62 699.03 1219.43 695.316 1218.73 C 691.601 1218.02 687.971 1216.78 684.661 1215.05 C 681.351 1213.3 678.361 1211.07 675.931 1208.4 C 673.129 1205.34 670.853 1201.91 669.122 1198.32 C 667.393 1194.72 666.208 1190.94 665.593 1187.12 C 664.98 1183.29 664.935 1179.41 665.481 1175.63 C 666.026 1171.86 667.167 1168.17 668.92 1164.73 C 670.775 1161.11 672.673 1158.12 674.778 1155.68 C 676.881 1153.26 679.188 1151.38 681.858 1149.98 C 684.527 1148.59 687.559 1147.69 691.112 1147.17 C 694.664 1146.65 698.737 1146.53 703.488 1146.71 C 706.006 1146.82 708.187 1146.97 710.123 1147.2 C 712.057 1147.43 713.748 1147.73 715.285 1148.15 C 716.822 1148.57 718.205 1149.07 719.529 1149.71 C 720.851 1150.38 722.112 1151.13 723.401 1152.05" fill-rule="evenodd" style="stroke: rgba(255, 255, 255, 0); fill: rgb(255, 255, 255);" id="object-1" transform="matrix(1, 0, 0, 1, -8.881784197001252e-16, -2.5579538487363607e-13)"/>
</svg>