<svg xmlns="http://www.w3.org/2000/svg" xmlns:xlink="http://www.w3.org/1999/xlink" width="1080" zoomAndPan="magnify" viewBox="0 0 810 149.999998" height="200" preserveAspectRatio="xMidYMid meet" version="1.2"><defs><clipPath id="3ab01fede0"><path d="M 15 17.640625 L 135 17.640625 L 135 132.390625 L 15 132.390625 Z M 15 17.640625 "/></clipPath><clipPath id="e748e72068"><path d="M 152.246094 55 L 200 55 L 200 128.554688 L 152.246094 128.554688 Z M 152.246094 55 "/></clipPath><clipPath id="9e02eb200c"><path d="M 272 28.804688 L 284 28.804688 L 284 101 L 272 101 Z M 272 28.804688 "/></clipPath><clipPath id="a4a97921ec"><path d="M 300 28.804688 L 312 28.804688 L 312 101 L 300 101 Z M 300 28.804688 "/></clipPath><clipPath id="a712376ecc"><path d="M 777 30 L 790.496094 30 L 790.496094 100 L 777 100 Z M 777 30 "/></clipPath></defs><g id="c0f9187d45"><g clip-rule="nonzero" clip-path="url(#3ab01fede0)"><path style=" stroke:none;fill-rule:evenodd;fill:#000000;fill-opacity:1;" d="M 73.832031 19.292969 C 70.523438 23.144531 68.015625 26.066406 66.089844 28.339844 C 64.160156 30.613281 62.816406 32.238281 61.824219 33.496094 C 60.835938 34.753906 60.203125 35.644531 59.707031 36.453125 C 59.207031 37.257812 58.847656 37.984375 58.398438 38.90625 C 58.257812 39.191406 58.121094 39.46875 57.996094 39.71875 C 57.875 39.972656 57.757812 40.199219 57.664062 40.394531 C 57.566406 40.589844 57.484375 40.75 57.425781 40.859375 C 57.367188 40.972656 57.332031 41.039062 57.324219 41.046875 C 57.316406 41.054688 57.261719 41.046875 57.167969 41.027344 C 57.074219 41.007812 56.941406 40.980469 56.785156 40.9375 C 56.625 40.898438 56.433594 40.847656 56.226562 40.789062 C 56.019531 40.730469 55.796875 40.667969 55.558594 40.597656 C 54.480469 40.277344 53.664062 40.039062 52.875 39.855469 C 52.085938 39.675781 51.324219 39.554688 50.359375 39.472656 C 49.398438 39.390625 48.230469 39.351562 46.625 39.328125 C 45.023438 39.308594 42.984375 39.304688 40.277344 39.304688 L 35.308594 39.304688 L 32.824219 39.300781 L 30.339844 39.300781 L 30.339844 59.875 L 29.8125 59.933594 L 29.289062 59.992188 L 28.234375 60.109375 C 27.644531 60.175781 27.03125 60.265625 26.394531 60.382812 C 25.757812 60.496094 25.101562 60.632812 24.425781 60.796875 C 23.75 60.957031 23.054688 61.144531 22.339844 61.351562 C 21.625 61.5625 20.894531 61.792969 20.144531 62.046875 C 19.675781 62.207031 19.121094 62.40625 18.550781 62.621094 C 17.976562 62.832031 17.394531 63.058594 16.867188 63.269531 C 16.34375 63.476562 15.875 63.667969 15.539062 63.816406 C 15.203125 63.964844 15 64.0625 15 64.089844 C 15 64.128906 15.070312 64.324219 15.191406 64.625 C 15.308594 64.921875 15.480469 65.324219 15.675781 65.78125 C 15.871094 66.234375 16.09375 66.742188 16.320312 67.253906 C 16.546875 67.761719 16.78125 68.273438 16.996094 68.738281 C 18.203125 71.324219 19.628906 73.804688 21.230469 76.140625 C 22.832031 78.472656 24.613281 80.664062 26.535156 82.664062 C 28.453125 84.667969 30.515625 86.484375 32.675781 88.074219 C 34.839844 89.664062 37.101562 91.027344 39.425781 92.121094 C 40.578125 92.664062 41.714844 93.148438 42.839844 93.582031 C 43.96875 94.011719 45.082031 94.386719 46.199219 94.707031 C 47.3125 95.03125 48.425781 95.296875 49.542969 95.515625 C 50.660156 95.734375 51.78125 95.898438 52.917969 96.019531 C 53.757812 96.105469 54.699219 96.15625 55.695312 96.175781 C 56.691406 96.195312 57.738281 96.179688 58.789062 96.136719 C 59.839844 96.089844 60.890625 96.015625 61.898438 95.910156 C 62.910156 95.808594 63.871094 95.675781 64.734375 95.515625 C 65.121094 95.441406 65.492188 95.375 65.832031 95.316406 C 66.171875 95.257812 66.480469 95.207031 66.742188 95.167969 C 67 95.125 67.214844 95.09375 67.367188 95.074219 C 67.515625 95.054688 67.601562 95.050781 67.613281 95.058594 C 67.65625 95.101562 67.59375 95.253906 67.460938 95.472656 C 67.328125 95.691406 67.121094 95.976562 66.878906 96.285156 C 66.636719 96.597656 66.351562 96.929688 66.066406 97.25 C 65.777344 97.566406 65.484375 97.867188 65.214844 98.109375 C 64.644531 98.628906 64.046875 99.078125 63.40625 99.464844 C 62.765625 99.847656 62.082031 100.167969 61.335938 100.433594 C 60.589844 100.695312 59.78125 100.898438 58.894531 101.050781 C 58.003906 101.207031 57.039062 101.308594 55.96875 101.367188 C 54.609375 101.4375 53.386719 101.574219 52.265625 101.789062 C 51.148438 102 50.136719 102.285156 49.195312 102.660156 C 48.257812 103.035156 47.394531 103.5 46.578125 104.0625 C 45.757812 104.625 44.984375 105.289062 44.226562 106.0625 C 43.667969 106.628906 43.175781 107.210938 42.738281 107.828125 C 42.300781 108.441406 41.921875 109.085938 41.589844 109.773438 C 41.257812 110.460938 40.976562 111.191406 40.734375 111.980469 C 40.496094 112.765625 40.300781 113.609375 40.144531 114.523438 C 40.085938 114.871094 40.039062 115.132812 39.988281 115.339844 C 39.9375 115.546875 39.882812 115.699219 39.804688 115.824219 C 39.726562 115.953125 39.621094 116.050781 39.480469 116.15625 C 39.335938 116.261719 39.148438 116.367188 38.902344 116.511719 C 37.894531 117.101562 37.039062 117.84375 36.359375 118.695312 C 35.675781 119.546875 35.164062 120.5 34.839844 121.507812 C 34.519531 122.511719 34.382812 123.570312 34.457031 124.621094 C 34.527344 125.675781 34.804688 126.726562 35.308594 127.71875 C 35.699219 128.5 36.242188 129.210938 36.882812 129.835938 C 37.523438 130.457031 38.261719 130.992188 39.050781 131.402344 C 39.839844 131.820312 40.679688 132.117188 41.519531 132.269531 C 42.359375 132.421875 43.199219 132.4375 43.992188 132.277344 C 44.371094 132.203125 44.773438 132.089844 45.179688 131.941406 C 45.585938 131.796875 46 131.621094 46.402344 131.425781 C 46.800781 131.226562 47.191406 131.007812 47.550781 130.773438 C 47.910156 130.539062 48.242188 130.296875 48.527344 130.042969 C 49.117188 129.523438 49.609375 128.890625 50 128.183594 C 50.390625 127.472656 50.679688 126.691406 50.855469 125.875 C 51.03125 125.054688 51.097656 124.199219 51.042969 123.347656 C 50.988281 122.492188 50.816406 121.644531 50.511719 120.832031 C 50.359375 120.414062 50.125 119.980469 49.832031 119.550781 C 49.542969 119.121094 49.191406 118.695312 48.800781 118.292969 C 48.414062 117.894531 47.988281 117.515625 47.539062 117.183594 C 47.09375 116.847656 46.628906 116.5625 46.160156 116.335938 C 45.746094 116.136719 45.4375 115.984375 45.210938 115.84375 C 44.984375 115.707031 44.84375 115.574219 44.769531 115.414062 C 44.695312 115.253906 44.6875 115.0625 44.726562 114.800781 C 44.765625 114.535156 44.851562 114.203125 44.96875 113.757812 C 45.195312 112.886719 45.535156 112.0625 45.972656 111.292969 C 46.410156 110.527344 46.945312 109.820312 47.5625 109.1875 C 48.179688 108.558594 48.878906 108.003906 49.644531 107.539062 C 50.414062 107.078125 51.25 106.703125 52.136719 106.4375 C 52.289062 106.390625 52.523438 106.34375 52.8125 106.292969 C 53.101562 106.242188 53.449219 106.195312 53.828125 106.148438 C 54.210938 106.101562 54.628906 106.054688 55.058594 106.019531 C 55.488281 105.976562 55.933594 105.945312 56.375 105.917969 C 57.410156 105.855469 58.324219 105.773438 59.148438 105.667969 C 59.972656 105.5625 60.710938 105.429688 61.390625 105.261719 C 62.074219 105.09375 62.703125 104.890625 63.308594 104.640625 C 63.917969 104.394531 64.507812 104.105469 65.113281 103.761719 C 65.765625 103.390625 66.347656 103.027344 66.886719 102.644531 C 67.425781 102.261719 67.917969 101.859375 68.398438 101.417969 C 68.878906 100.972656 69.339844 100.484375 69.8125 99.929688 C 70.28125 99.371094 70.765625 98.75 71.28125 98.03125 L 71.589844 97.605469 L 71.898438 97.175781 L 72.210938 96.746094 L 72.519531 96.320312 L 72.519531 115.953125 L 72.121094 116.214844 L 71.71875 116.480469 L 70.921875 117.011719 C 70.3125 117.414062 69.796875 117.808594 69.355469 118.222656 C 68.914062 118.632812 68.546875 119.058594 68.242188 119.527344 C 67.9375 119.992188 67.691406 120.496094 67.496094 121.0625 C 67.296875 121.628906 67.144531 122.253906 67.023438 122.964844 C 66.878906 123.816406 66.890625 124.6875 67.046875 125.539062 C 67.203125 126.390625 67.5 127.222656 67.910156 127.992188 C 68.324219 128.761719 68.859375 129.472656 69.488281 130.082031 C 70.117188 130.695312 70.84375 131.207031 71.644531 131.578125 C 72.449219 131.945312 73.277344 132.1875 74.105469 132.292969 C 74.933594 132.398438 75.765625 132.375 76.574219 132.222656 C 77.382812 132.074219 78.171875 131.796875 78.917969 131.394531 C 79.667969 130.992188 80.371094 130.472656 81.011719 129.828125 C 81.417969 129.425781 81.75 129.039062 82.023438 128.648438 C 82.292969 128.253906 82.503906 127.851562 82.664062 127.414062 C 82.820312 126.972656 82.929688 126.496094 83 125.941406 C 83.070312 125.390625 83.101562 124.769531 83.105469 124.046875 C 83.105469 123.523438 83.105469 123.117188 83.09375 122.78125 C 83.082031 122.445312 83.058594 122.183594 83.019531 121.945312 C 82.976562 121.707031 82.914062 121.496094 82.828125 121.261719 C 82.738281 121.03125 82.621094 120.777344 82.472656 120.457031 C 82.269531 120.023438 82.035156 119.621094 81.769531 119.246094 C 81.503906 118.871094 81.207031 118.519531 80.878906 118.195312 C 80.554688 117.878906 80.195312 117.582031 79.808594 117.316406 C 79.417969 117.050781 79 116.808594 78.554688 116.597656 L 78.207031 116.433594 L 77.859375 116.273438 L 77.515625 116.109375 L 77.167969 115.945312 L 77.167969 110.988281 L 77.164062 108.511719 L 77.164062 106.03125 C 77.164062 104.671875 77.167969 103.375 77.175781 102.199219 C 77.183594 101.023438 77.195312 99.96875 77.210938 99.089844 C 77.226562 98.207031 77.246094 97.5 77.265625 97.019531 C 77.285156 96.539062 77.308594 96.285156 77.332031 96.3125 C 77.351562 96.339844 77.40625 96.414062 77.488281 96.519531 C 77.566406 96.628906 77.667969 96.773438 77.789062 96.941406 C 77.910156 97.109375 78.046875 97.304688 78.195312 97.515625 C 78.339844 97.722656 78.5 97.949219 78.65625 98.179688 C 79.035156 98.722656 79.390625 99.207031 79.746094 99.648438 C 80.097656 100.085938 80.449219 100.480469 80.808594 100.847656 C 81.171875 101.214844 81.550781 101.554688 81.957031 101.886719 C 82.363281 102.214844 82.800781 102.539062 83.289062 102.867188 C 84.066406 103.394531 84.789062 103.832031 85.511719 104.195312 C 86.230469 104.558594 86.949219 104.851562 87.714844 105.085938 C 88.480469 105.320312 89.296875 105.496094 90.210938 105.628906 C 91.125 105.765625 92.140625 105.859375 93.304688 105.929688 C 93.738281 105.953125 94.171875 105.984375 94.59375 106.015625 C 95.011719 106.050781 95.417969 106.085938 95.78125 106.121094 C 96.148438 106.160156 96.476562 106.195312 96.742188 106.230469 C 97.011719 106.265625 97.21875 106.300781 97.34375 106.332031 C 98.308594 106.566406 99.242188 106.972656 100.105469 107.5 C 100.96875 108.03125 101.761719 108.6875 102.445312 109.429688 C 103.128906 110.167969 103.703125 110.996094 104.132812 111.867188 C 104.5625 112.734375 104.839844 113.648438 104.9375 114.5625 L 104.96875 114.875 L 105 115.183594 L 105.035156 115.5 L 105.066406 115.808594 L 104.796875 115.949219 L 104.257812 116.222656 L 103.984375 116.359375 C 103.15625 116.785156 102.425781 117.28125 101.800781 117.851562 C 101.179688 118.421875 100.664062 119.058594 100.261719 119.761719 C 99.855469 120.457031 99.566406 121.222656 99.390625 122.035156 C 99.214844 122.851562 99.15625 123.714844 99.21875 124.628906 C 99.285156 125.589844 99.503906 126.5 99.859375 127.332031 C 100.210938 128.167969 100.703125 128.929688 101.304688 129.589844 C 101.910156 130.253906 102.628906 130.824219 103.445312 131.273438 C 104.261719 131.722656 105.171875 132.054688 106.160156 132.253906 C 107.46875 132.507812 108.777344 132.378906 109.996094 131.953125 C 111.214844 131.53125 112.335938 130.8125 113.261719 129.902344 C 114.195312 128.988281 114.929688 127.875 115.378906 126.664062 C 115.832031 125.453125 115.992188 124.136719 115.765625 122.816406 C 115.648438 122.152344 115.464844 121.511719 115.210938 120.902344 C 114.957031 120.289062 114.640625 119.710938 114.261719 119.171875 C 113.882812 118.636719 113.445312 118.140625 112.960938 117.695312 C 112.472656 117.253906 111.933594 116.863281 111.351562 116.535156 C 111.171875 116.4375 111.003906 116.335938 110.84375 116.242188 C 110.683594 116.144531 110.539062 116.058594 110.410156 115.976562 C 110.285156 115.894531 110.179688 115.824219 110.097656 115.765625 C 110.023438 115.710938 109.972656 115.667969 109.960938 115.644531 C 109.945312 115.625 109.925781 115.558594 109.898438 115.460938 C 109.871094 115.367188 109.839844 115.238281 109.800781 115.085938 C 109.765625 114.9375 109.726562 114.761719 109.691406 114.574219 C 109.652344 114.386719 109.609375 114.183594 109.570312 113.980469 C 109.472656 113.480469 109.34375 112.957031 109.1875 112.425781 C 109.027344 111.894531 108.84375 111.351562 108.636719 110.832031 C 108.429688 110.304688 108.207031 109.792969 107.96875 109.320312 C 107.734375 108.84375 107.484375 108.40625 107.234375 108.019531 C 106.789062 107.335938 106.253906 106.683594 105.652344 106.066406 C 105.054688 105.457031 104.386719 104.886719 103.671875 104.375 C 102.957031 103.863281 102.195312 103.40625 101.402344 103.019531 C 100.609375 102.632812 99.785156 102.316406 98.953125 102.085938 C 98.726562 102.023438 98.445312 101.957031 98.117188 101.898438 C 97.792969 101.835938 97.421875 101.777344 97.023438 101.71875 C 96.628906 101.664062 96.203125 101.613281 95.761719 101.566406 C 95.324219 101.519531 94.871094 101.480469 94.417969 101.449219 C 94 101.417969 93.566406 101.382812 93.136719 101.339844 C 92.710938 101.300781 92.289062 101.257812 91.894531 101.210938 C 91.503906 101.164062 91.140625 101.117188 90.828125 101.070312 C 90.519531 101.023438 90.261719 100.976562 90.082031 100.9375 C 89.578125 100.824219 89.074219 100.667969 88.574219 100.480469 C 88.074219 100.292969 87.578125 100.066406 87.101562 99.8125 C 86.625 99.558594 86.164062 99.277344 85.726562 98.964844 C 85.289062 98.65625 84.875 98.320312 84.496094 97.964844 C 84.171875 97.660156 83.855469 97.339844 83.570312 97.023438 C 83.285156 96.710938 83.03125 96.402344 82.820312 96.128906 C 82.613281 95.851562 82.453125 95.609375 82.355469 95.421875 C 82.257812 95.230469 82.230469 95.097656 82.28125 95.046875 C 82.296875 95.03125 82.398438 95.035156 82.566406 95.050781 C 82.734375 95.066406 82.972656 95.097656 83.261719 95.140625 C 83.554688 95.179688 83.894531 95.234375 84.269531 95.296875 C 84.640625 95.359375 85.050781 95.433594 85.476562 95.511719 C 86.171875 95.636719 86.738281 95.738281 87.265625 95.816406 C 87.792969 95.894531 88.277344 95.949219 88.800781 95.988281 C 89.324219 96.027344 89.890625 96.050781 90.578125 96.066406 C 91.269531 96.082031 92.082031 96.085938 93.105469 96.089844 C 94.324219 96.089844 95.308594 96.082031 96.164062 96.058594 C 97.015625 96.03125 97.738281 95.984375 98.421875 95.90625 C 99.109375 95.828125 99.757812 95.722656 100.46875 95.570312 C 101.183594 95.421875 101.957031 95.226562 102.894531 94.980469 C 104.742188 94.496094 106.523438 93.910156 108.242188 93.21875 C 109.960938 92.527344 111.621094 91.734375 113.222656 90.832031 C 114.820312 89.929688 116.363281 88.917969 117.855469 87.800781 C 119.347656 86.679688 120.789062 85.449219 122.183594 84.109375 C 123.371094 82.964844 124.46875 81.816406 125.496094 80.640625 C 126.523438 79.460938 127.480469 78.257812 128.375 77.011719 C 129.265625 75.765625 130.101562 74.476562 130.890625 73.125 C 131.675781 71.773438 132.414062 70.359375 133.121094 68.867188 C 133.496094 68.074219 133.8125 67.386719 134.070312 66.800781 C 134.328125 66.210938 134.53125 65.722656 134.683594 65.328125 C 134.828125 64.929688 134.925781 64.628906 134.96875 64.410156 C 135.015625 64.191406 135.007812 64.058594 134.953125 64.007812 C 134.875 63.9375 134.542969 63.777344 134.050781 63.566406 C 133.5625 63.359375 132.917969 63.101562 132.222656 62.835938 C 131.53125 62.574219 130.789062 62.300781 130.101562 62.058594 C 129.417969 61.816406 128.789062 61.609375 128.324219 61.472656 C 127.777344 61.316406 127.191406 61.15625 126.597656 61.011719 C 125.996094 60.859375 125.386719 60.722656 124.792969 60.59375 C 124.199219 60.46875 123.621094 60.355469 123.078125 60.261719 C 122.539062 60.167969 122.042969 60.09375 121.613281 60.046875 L 120.980469 59.976562 L 120.667969 59.9375 L 120.351562 59.902344 L 120.351562 39.300781 L 117.890625 39.304688 L 115.429688 39.304688 L 112.972656 39.308594 L 110.511719 39.308594 C 107.867188 39.3125 105.847656 39.316406 104.246094 39.339844 C 102.640625 39.363281 101.449219 39.40625 100.457031 39.480469 C 99.464844 39.558594 98.667969 39.671875 97.859375 39.835938 C 97.046875 40 96.21875 40.21875 95.15625 40.503906 C 94.925781 40.566406 94.703125 40.625 94.5 40.675781 C 94.296875 40.726562 94.109375 40.769531 93.953125 40.804688 C 93.792969 40.839844 93.664062 40.863281 93.570312 40.878906 C 93.476562 40.894531 93.421875 40.898438 93.414062 40.886719 C 93.40625 40.878906 93.367188 40.808594 93.308594 40.695312 C 93.246094 40.578125 93.160156 40.414062 93.058594 40.214844 C 92.957031 40.015625 92.839844 39.78125 92.710938 39.523438 C 92.578125 39.265625 92.4375 38.984375 92.292969 38.695312 C 91.84375 37.792969 91.507812 37.117188 91.125 36.460938 C 90.746094 35.800781 90.320312 35.164062 89.703125 34.34375 C 89.085938 33.527344 88.269531 32.523438 87.109375 31.140625 C 85.949219 29.753906 84.4375 27.988281 82.429688 25.632812 C 81.03125 23.992188 79.898438 22.671875 78.988281 21.613281 C 78.078125 20.554688 77.386719 19.761719 76.867188 19.171875 C 76.34375 18.582031 75.992188 18.199219 75.757812 17.960938 C 75.519531 17.726562 75.402344 17.636719 75.355469 17.640625 C 75.339844 17.640625 75.285156 17.6875 75.199219 17.773438 C 75.113281 17.859375 75 17.980469 74.859375 18.128906 C 74.722656 18.277344 74.5625 18.457031 74.386719 18.652344 C 74.214844 18.851562 74.023438 19.066406 73.832031 19.292969 M 80.890625 30.796875 C 82.28125 32.425781 83.46875 33.863281 84.472656 35.132812 C 85.480469 36.398438 86.300781 37.503906 86.960938 38.46875 C 87.621094 39.433594 88.121094 40.261719 88.476562 40.984375 C 88.832031 41.703125 89.046875 42.316406 89.136719 42.851562 C 89.160156 42.992188 89.175781 43.101562 89.167969 43.199219 C 89.160156 43.296875 89.132812 43.378906 89.078125 43.460938 C 89.019531 43.546875 88.933594 43.628906 88.8125 43.722656 C 88.691406 43.816406 88.527344 43.921875 88.320312 44.054688 C 87.988281 44.265625 87.546875 44.609375 87.054688 45.03125 C 86.5625 45.457031 86.011719 45.964844 85.460938 46.503906 C 84.90625 47.046875 84.347656 47.617188 83.835938 48.175781 C 83.324219 48.730469 82.859375 49.273438 82.488281 49.75 C 82.089844 50.261719 81.675781 50.839844 81.265625 51.453125 C 80.855469 52.0625 80.449219 52.710938 80.0625 53.363281 C 79.671875 54.015625 79.308594 54.675781 78.976562 55.308594 C 78.648438 55.945312 78.355469 56.558594 78.117188 57.121094 C 77.777344 57.929688 77.445312 58.847656 77.140625 59.808594 C 76.835938 60.769531 76.558594 61.773438 76.324219 62.753906 C 76.089844 63.738281 75.894531 64.699219 75.761719 65.570312 C 75.625 66.441406 75.546875 67.222656 75.546875 67.851562 C 75.542969 68.460938 75.523438 68.90625 75.492188 69.183594 C 75.457031 69.460938 75.40625 69.570312 75.339844 69.511719 C 75.273438 69.457031 75.191406 69.234375 75.09375 68.847656 C 74.996094 68.460938 74.886719 67.90625 74.757812 67.1875 C 74.597656 66.273438 74.414062 65.34375 74.21875 64.429688 C 74.019531 63.515625 73.808594 62.617188 73.59375 61.769531 C 73.382812 60.925781 73.164062 60.132812 72.949219 59.429688 C 72.734375 58.726562 72.527344 58.113281 72.332031 57.628906 C 72.140625 57.140625 71.882812 56.574219 71.589844 55.96875 C 71.292969 55.363281 70.960938 54.71875 70.613281 54.082031 C 70.261719 53.441406 69.898438 52.808594 69.542969 52.222656 C 69.183594 51.632812 68.835938 51.09375 68.515625 50.640625 C 68.230469 50.238281 67.828125 49.738281 67.363281 49.195312 C 66.894531 48.652344 66.359375 48.0625 65.804688 47.484375 C 65.253906 46.90625 64.683594 46.335938 64.148438 45.828125 C 63.609375 45.316406 63.105469 44.867188 62.679688 44.527344 C 62.507812 44.386719 62.339844 44.25 62.191406 44.117188 C 62.039062 43.984375 61.902344 43.855469 61.789062 43.742188 C 61.675781 43.628906 61.582031 43.527344 61.519531 43.449219 C 61.453125 43.367188 61.417969 43.304688 61.417969 43.273438 C 61.417969 43.167969 61.515625 42.894531 61.679688 42.519531 C 61.839844 42.148438 62.066406 41.671875 62.324219 41.164062 C 62.582031 40.65625 62.871094 40.113281 63.152344 39.601562 C 63.4375 39.089844 63.71875 38.609375 63.964844 38.230469 C 64.222656 37.832031 64.46875 37.464844 64.734375 37.09375 C 64.996094 36.722656 65.277344 36.347656 65.605469 35.933594 C 65.933594 35.515625 66.304688 35.0625 66.753906 34.527344 C 67.203125 33.992188 67.726562 33.382812 68.355469 32.65625 C 68.589844 32.386719 68.890625 32.042969 69.230469 31.652344 C 69.566406 31.257812 69.945312 30.820312 70.34375 30.359375 C 70.738281 29.898438 71.152344 29.421875 71.558594 28.949219 C 71.960938 28.476562 72.359375 28.015625 72.726562 27.585938 L 73.394531 26.808594 L 74.0625 26.035156 L 74.730469 25.257812 L 75.394531 24.480469 L 75.511719 24.597656 L 75.625 24.71875 L 75.742188 24.835938 L 75.855469 24.953125 C 75.917969 25.019531 76.109375 25.234375 76.394531 25.5625 C 76.683594 25.890625 77.070312 26.335938 77.523438 26.867188 C 77.980469 27.398438 78.507812 28.011719 79.078125 28.675781 C 79.648438 29.339844 80.261719 30.058594 80.890625 30.796875 M 51.226562 44.148438 C 51.652344 44.238281 52.09375 44.347656 52.53125 44.464844 C 52.964844 44.582031 53.394531 44.707031 53.785156 44.835938 C 54.179688 44.964844 54.539062 45.09375 54.839844 45.214844 C 55.136719 45.335938 55.375 45.449219 55.527344 45.546875 C 55.578125 45.582031 55.617188 45.640625 55.636719 45.738281 C 55.65625 45.835938 55.660156 45.976562 55.648438 46.179688 C 55.632812 46.378906 55.601562 46.636719 55.550781 46.972656 C 55.496094 47.308594 55.425781 47.722656 55.335938 48.230469 C 55.242188 48.753906 55.164062 49.21875 55.105469 49.675781 C 55.046875 50.132812 55 50.585938 54.96875 51.085938 C 54.933594 51.585938 54.914062 52.132812 54.902344 52.785156 C 54.890625 53.433594 54.886719 54.1875 54.886719 55.097656 C 54.886719 56.078125 54.890625 56.859375 54.902344 57.511719 C 54.914062 58.160156 54.9375 58.683594 54.972656 59.15625 C 55.011719 59.628906 55.0625 60.046875 55.136719 60.492188 C 55.207031 60.9375 55.300781 61.410156 55.421875 61.980469 C 55.496094 62.328125 55.578125 62.699219 55.664062 63.074219 C 55.746094 63.449219 55.832031 63.828125 55.917969 64.183594 C 56.003906 64.542969 56.085938 64.878906 56.160156 65.175781 C 56.234375 65.476562 56.300781 65.730469 56.355469 65.925781 C 56.410156 66.121094 56.457031 66.308594 56.503906 66.480469 C 56.546875 66.652344 56.585938 66.808594 56.617188 66.941406 C 56.648438 67.070312 56.675781 67.179688 56.6875 67.257812 C 56.703125 67.335938 56.707031 67.382812 56.699219 67.390625 C 56.695312 67.394531 56.628906 67.367188 56.515625 67.3125 C 56.402344 67.253906 56.242188 67.171875 56.046875 67.0625 C 55.851562 66.957031 55.621094 66.828125 55.367188 66.683594 C 55.113281 66.539062 54.835938 66.378906 54.546875 66.210938 C 53.792969 65.773438 53.128906 65.394531 52.515625 65.058594 C 51.902344 64.722656 51.339844 64.429688 50.792969 64.160156 C 50.246094 63.890625 49.714844 63.648438 49.160156 63.410156 C 48.609375 63.171875 48.03125 62.9375 47.398438 62.695312 C 46.445312 62.328125 45.488281 61.992188 44.542969 61.691406 C 43.59375 61.390625 42.65625 61.125 41.742188 60.898438 C 40.828125 60.671875 39.9375 60.484375 39.089844 60.335938 C 38.242188 60.191406 37.433594 60.085938 36.683594 60.027344 L 36.257812 59.996094 L 35.832031 59.960938 L 35.40625 59.929688 L 34.980469 59.894531 L 34.980469 43.757812 L 42.195312 43.757812 C 43.773438 43.761719 45.027344 43.765625 46.046875 43.773438 C 47.066406 43.785156 47.847656 43.800781 48.484375 43.828125 C 49.117188 43.855469 49.605469 43.894531 50.03125 43.945312 C 50.460938 43.996094 50.828125 44.0625 51.226562 44.148438 M 116.113281 51.640625 C 116.113281 52.871094 116.105469 53.980469 116.097656 54.953125 C 116.089844 55.929688 116.078125 56.769531 116.058594 57.457031 C 116.042969 58.148438 116.019531 58.6875 115.996094 59.058594 C 115.972656 59.425781 115.945312 59.628906 115.914062 59.648438 C 115.886719 59.664062 115.789062 59.691406 115.632812 59.71875 C 115.480469 59.75 115.265625 59.78125 115.015625 59.820312 C 114.761719 59.855469 114.46875 59.898438 114.148438 59.9375 C 113.828125 59.980469 113.484375 60.019531 113.128906 60.058594 C 112.363281 60.144531 111.589844 60.257812 110.804688 60.402344 C 110.015625 60.542969 109.214844 60.714844 108.398438 60.917969 C 107.582031 61.121094 106.746094 61.351562 105.894531 61.617188 C 105.039062 61.878906 104.164062 62.175781 103.269531 62.5 C 102.535156 62.765625 101.964844 62.976562 101.46875 63.171875 C 100.972656 63.367188 100.550781 63.546875 100.121094 63.75 C 99.691406 63.953125 99.253906 64.179688 98.722656 64.472656 C 98.195312 64.761719 97.574219 65.117188 96.777344 65.574219 C 96.464844 65.753906 96.160156 65.925781 95.882812 66.074219 C 95.605469 66.226562 95.347656 66.359375 95.132812 66.46875 C 94.914062 66.574219 94.734375 66.660156 94.605469 66.710938 C 94.476562 66.765625 94.394531 66.785156 94.378906 66.769531 C 94.363281 66.753906 94.359375 66.6875 94.367188 66.585938 C 94.375 66.480469 94.394531 66.335938 94.421875 66.164062 C 94.453125 65.992188 94.488281 65.792969 94.535156 65.574219 C 94.578125 65.355469 94.632812 65.117188 94.691406 64.875 C 94.949219 63.792969 95.144531 62.96875 95.292969 62.261719 C 95.445312 61.558594 95.550781 60.980469 95.625 60.394531 C 95.703125 59.8125 95.75 59.222656 95.78125 58.5 C 95.816406 57.777344 95.839844 56.921875 95.867188 55.804688 C 95.890625 54.824219 95.90625 54.035156 95.910156 53.371094 C 95.914062 52.710938 95.90625 52.171875 95.882812 51.6875 C 95.859375 51.203125 95.824219 50.773438 95.769531 50.332031 C 95.714844 49.886719 95.640625 49.429688 95.546875 48.886719 C 95.394531 48 95.277344 47.34375 95.210938 46.851562 C 95.144531 46.359375 95.125 46.027344 95.171875 45.792969 C 95.214844 45.554688 95.320312 45.414062 95.503906 45.300781 C 95.683594 45.183594 95.941406 45.09375 96.285156 44.964844 C 96.976562 44.699219 97.574219 44.496094 98.210938 44.335938 C 98.847656 44.175781 99.519531 44.058594 100.363281 43.976562 C 101.203125 43.894531 102.214844 43.84375 103.527344 43.816406 C 104.835938 43.785156 106.449219 43.773438 108.492188 43.769531 L 112.304688 43.761719 L 114.207031 43.761719 L 116.113281 43.757812 L 116.113281 51.640625 M 91.0625 49.273438 C 91.257812 50.292969 91.40625 51.25 91.5 52.183594 C 91.597656 53.117188 91.640625 54.019531 91.632812 54.933594 C 91.625 55.847656 91.566406 56.769531 91.453125 57.730469 C 91.34375 58.691406 91.179688 59.691406 90.964844 60.765625 C 90.746094 61.867188 90.5 62.898438 90.21875 63.886719 C 89.941406 64.871094 89.625 65.808594 89.273438 66.714844 C 88.917969 67.621094 88.523438 68.496094 88.085938 69.355469 C 87.644531 70.214844 87.15625 71.0625 86.613281 71.910156 C 86.398438 72.25 86.015625 72.769531 85.539062 73.378906 C 85.066406 73.988281 84.5 74.6875 83.914062 75.390625 C 83.332031 76.089844 82.730469 76.789062 82.183594 77.402344 C 81.640625 78.015625 81.152344 78.542969 80.796875 78.890625 L 80.539062 79.140625 L 80.277344 79.394531 L 80.019531 79.648438 L 79.757812 79.902344 L 79.777344 78.28125 L 79.800781 76.660156 L 79.820312 75.042969 L 79.839844 73.421875 C 79.859375 72.007812 79.875 70.878906 79.898438 69.957031 C 79.917969 69.035156 79.945312 68.320312 79.980469 67.730469 C 80.015625 67.140625 80.0625 66.675781 80.121094 66.257812 C 80.179688 65.835938 80.253906 65.460938 80.347656 65.046875 C 80.65625 63.667969 81.015625 62.371094 81.433594 61.136719 C 81.851562 59.902344 82.324219 58.734375 82.867188 57.613281 C 83.40625 56.496094 84.011719 55.425781 84.6875 54.390625 C 85.367188 53.355469 86.117188 52.359375 86.945312 51.378906 C 87.242188 51.027344 87.59375 50.65625 87.957031 50.292969 C 88.324219 49.929688 88.703125 49.578125 89.0625 49.269531 C 89.417969 48.960938 89.753906 48.695312 90.027344 48.507812 C 90.296875 48.320312 90.507812 48.210938 90.617188 48.210938 C 90.652344 48.210938 90.6875 48.242188 90.726562 48.296875 C 90.765625 48.347656 90.804688 48.425781 90.847656 48.523438 C 90.886719 48.621094 90.925781 48.734375 90.964844 48.863281 C 91 48.988281 91.035156 49.128906 91.0625 49.273438 M 62.167969 50.183594 C 63.082031 51.097656 63.90625 52.042969 64.65625 53.042969 C 65.402344 54.042969 66.074219 55.097656 66.683594 56.230469 C 67.289062 57.363281 67.832031 58.570312 68.320312 59.875 C 68.808594 61.179688 69.246094 62.585938 69.640625 64.105469 C 69.761719 64.589844 69.859375 64.976562 69.933594 65.378906 C 70.007812 65.785156 70.058594 66.210938 70.097656 66.765625 C 70.140625 67.320312 70.167969 68.007812 70.1875 68.9375 C 70.210938 69.871094 70.226562 71.046875 70.246094 72.582031 C 70.265625 74.023438 70.28125 75.148438 70.285156 76.019531 C 70.289062 76.890625 70.285156 77.507812 70.269531 77.941406 C 70.253906 78.375 70.226562 78.621094 70.183594 78.753906 C 70.144531 78.882812 70.089844 78.894531 70.023438 78.855469 C 69.917969 78.796875 69.648438 78.53125 69.28125 78.132812 C 68.914062 77.734375 68.441406 77.207031 67.941406 76.621094 C 67.4375 76.039062 66.902344 75.402344 66.402344 74.789062 C 65.898438 74.175781 65.429688 73.585938 65.0625 73.09375 C 64.722656 72.644531 64.339844 72.0625 63.945312 71.40625 C 63.550781 70.75 63.148438 70.023438 62.761719 69.28125 C 62.375 68.539062 62.007812 67.785156 61.6875 67.074219 C 61.371094 66.367188 61.101562 65.703125 60.914062 65.140625 C 60.84375 64.925781 60.761719 64.664062 60.675781 64.378906 C 60.59375 64.089844 60.503906 63.777344 60.417969 63.457031 C 60.332031 63.136719 60.246094 62.8125 60.167969 62.496094 C 60.089844 62.183594 60.019531 61.882812 59.957031 61.613281 C 59.769531 60.753906 59.640625 59.5 59.5625 58.105469 C 59.488281 56.707031 59.46875 55.164062 59.496094 53.726562 C 59.523438 52.292969 59.601562 50.964844 59.722656 49.992188 C 59.84375 49.023438 60.007812 48.414062 60.214844 48.414062 C 60.238281 48.414062 60.3125 48.464844 60.425781 48.554688 C 60.535156 48.644531 60.683594 48.773438 60.863281 48.933594 C 61.039062 49.09375 61.242188 49.285156 61.464844 49.496094 C 61.6875 49.710938 61.925781 49.941406 62.167969 50.183594 M 115.398438 65.574219 C 115.308594 66.332031 115.183594 67.082031 115.023438 67.828125 C 114.863281 68.574219 114.667969 69.320312 114.433594 70.066406 C 114.199219 70.808594 113.925781 71.558594 113.609375 72.316406 C 113.296875 73.074219 112.945312 73.839844 112.550781 74.621094 C 112.207031 75.296875 111.890625 75.882812 111.570312 76.425781 C 111.25 76.96875 110.929688 77.460938 110.574219 77.949219 C 110.222656 78.433594 109.839844 78.910156 109.394531 79.421875 C 108.949219 79.929688 108.441406 80.472656 107.851562 81.082031 C 107.289062 81.664062 106.769531 82.167969 106.273438 82.621094 C 105.777344 83.070312 105.296875 83.46875 104.804688 83.832031 C 104.3125 84.199219 103.804688 84.535156 103.253906 84.863281 C 102.703125 85.191406 102.109375 85.511719 101.4375 85.851562 C 100.597656 86.273438 99.8125 86.613281 98.992188 86.882812 C 98.171875 87.15625 97.308594 87.359375 96.308594 87.507812 C 95.304688 87.660156 94.164062 87.757812 92.777344 87.816406 C 91.394531 87.878906 89.765625 87.898438 87.796875 87.898438 L 82.179688 87.898438 L 82.210938 87.785156 L 82.246094 87.671875 L 82.277344 87.558594 L 82.3125 87.445312 C 82.367188 87.246094 82.554688 86.863281 82.828125 86.371094 C 83.101562 85.875 83.460938 85.269531 83.855469 84.625 C 84.253906 83.980469 84.691406 83.300781 85.121094 82.65625 C 85.550781 82.011719 85.972656 81.40625 86.339844 80.910156 C 88.117188 78.535156 90.09375 76.378906 92.222656 74.464844 C 94.351562 72.554688 96.636719 70.886719 99.035156 69.488281 C 101.429688 68.089844 103.9375 66.960938 106.511719 66.128906 C 109.085938 65.296875 111.730469 64.757812 114.398438 64.542969 C 114.507812 64.535156 114.617188 64.523438 114.722656 64.515625 C 114.828125 64.507812 114.925781 64.496094 115.015625 64.488281 C 115.105469 64.480469 115.179688 64.46875 115.242188 64.464844 C 115.304688 64.457031 115.347656 64.449219 115.371094 64.445312 C 115.394531 64.441406 115.410156 64.46875 115.421875 64.523438 C 115.4375 64.578125 115.445312 64.660156 115.445312 64.761719 C 115.449219 64.863281 115.445312 64.988281 115.4375 65.125 C 115.429688 65.261719 115.417969 65.414062 115.398438 65.574219 M 30.933594 66.890625 C 31.175781 68.125 31.496094 69.378906 31.878906 70.628906 C 32.261719 71.875 32.703125 73.113281 33.199219 74.308594 C 33.691406 75.503906 34.230469 76.65625 34.808594 77.734375 C 35.382812 78.808594 35.992188 79.808594 36.625 80.695312 C 37.074219 81.328125 37.617188 82.007812 38.21875 82.699219 C 38.820312 83.390625 39.480469 84.09375 40.167969 84.773438 C 40.855469 85.453125 41.5625 86.113281 42.265625 86.714844 C 42.964844 87.3125 43.65625 87.859375 44.296875 88.3125 C 44.59375 88.519531 44.871094 88.71875 45.121094 88.902344 C 45.371094 89.085938 45.589844 89.253906 45.769531 89.398438 C 45.949219 89.539062 46.089844 89.65625 46.179688 89.742188 C 46.269531 89.824219 46.308594 89.875 46.285156 89.882812 C 46.21875 89.910156 45.957031 89.84375 45.574219 89.714844 C 45.191406 89.585938 44.683594 89.390625 44.117188 89.160156 C 43.550781 88.929688 42.921875 88.664062 42.304688 88.382812 C 41.683594 88.105469 41.070312 87.816406 40.53125 87.542969 C 38.597656 86.566406 36.730469 85.410156 34.953125 84.085938 C 33.175781 82.765625 31.488281 81.285156 29.910156 79.664062 C 28.335938 78.042969 26.871094 76.285156 25.539062 74.410156 C 24.207031 72.539062 23.007812 70.550781 21.964844 68.46875 C 21.839844 68.210938 21.714844 67.964844 21.609375 67.734375 C 21.5 67.507812 21.402344 67.300781 21.324219 67.125 C 21.246094 66.949219 21.183594 66.804688 21.144531 66.703125 C 21.101562 66.601562 21.085938 66.539062 21.09375 66.53125 C 21.101562 66.523438 21.15625 66.5 21.242188 66.464844 C 21.332031 66.429688 21.453125 66.382812 21.601562 66.328125 C 21.746094 66.277344 21.921875 66.214844 22.109375 66.148438 C 22.300781 66.082031 22.507812 66.011719 22.722656 65.9375 C 23.15625 65.792969 23.710938 65.640625 24.316406 65.492188 C 24.925781 65.34375 25.589844 65.199219 26.246094 65.074219 C 26.902344 64.949219 27.546875 64.839844 28.121094 64.761719 C 28.695312 64.683594 29.191406 64.636719 29.554688 64.628906 L 29.785156 64.625 L 30.019531 64.621094 L 30.25 64.617188 L 30.484375 64.613281 L 30.597656 65.183594 L 30.707031 65.753906 L 30.820312 66.320312 L 30.933594 66.890625 M 39.132812 65.019531 C 40.515625 65.257812 41.933594 65.609375 43.359375 66.058594 C 44.785156 66.507812 46.214844 67.058594 47.628906 67.695312 C 49.042969 68.332031 50.4375 69.058594 51.789062 69.859375 C 53.136719 70.660156 54.4375 71.539062 55.667969 72.480469 C 56.078125 72.796875 56.617188 73.257812 57.214844 73.800781 C 57.816406 74.34375 58.476562 74.96875 59.128906 75.605469 C 59.78125 76.246094 60.429688 76.898438 61 77.503906 C 61.570312 78.105469 62.066406 78.65625 62.421875 79.089844 C 62.988281 79.785156 63.578125 80.5625 64.148438 81.359375 C 64.71875 82.15625 65.273438 82.972656 65.769531 83.75 C 66.269531 84.53125 66.710938 85.269531 67.054688 85.902344 C 67.398438 86.539062 67.648438 87.074219 67.765625 87.445312 L 67.796875 87.558594 L 67.832031 87.671875 L 67.871094 87.785156 L 67.902344 87.898438 L 62.390625 87.898438 C 60.472656 87.898438 58.910156 87.878906 57.589844 87.820312 C 56.265625 87.761719 55.179688 87.664062 54.21875 87.507812 C 53.257812 87.351562 52.421875 87.140625 51.589844 86.855469 C 50.757812 86.566406 49.9375 86.203125 49.007812 85.746094 C 47.9375 85.21875 46.882812 84.570312 45.871094 83.820312 C 44.855469 83.070312 43.882812 82.222656 42.96875 81.296875 C 42.058594 80.371094 41.207031 79.367188 40.441406 78.308594 C 39.679688 77.253906 39 76.144531 38.429688 75.003906 C 38.003906 74.15625 37.601562 73.257812 37.238281 72.355469 C 36.871094 71.457031 36.546875 70.550781 36.269531 69.695312 C 35.996094 68.835938 35.777344 68.023438 35.625 67.304688 C 35.46875 66.585938 35.386719 65.957031 35.386719 65.472656 C 35.386719 65.261719 35.386719 65.101562 35.398438 64.984375 C 35.410156 64.863281 35.429688 64.78125 35.476562 64.726562 C 35.519531 64.671875 35.582031 64.644531 35.679688 64.628906 C 35.773438 64.613281 35.902344 64.613281 36.070312 64.613281 C 36.164062 64.613281 36.320312 64.625 36.523438 64.644531 C 36.726562 64.667969 36.976562 64.695312 37.253906 64.734375 C 37.53125 64.769531 37.835938 64.8125 38.15625 64.863281 C 38.476562 64.910156 38.808594 64.964844 39.132812 65.019531 M 124.085938 65.105469 C 124.421875 65.164062 124.894531 65.273438 125.421875 65.402344 C 125.945312 65.53125 126.523438 65.683594 127.0625 65.835938 C 127.605469 65.988281 128.113281 66.140625 128.492188 66.265625 C 128.878906 66.390625 129.140625 66.488281 129.191406 66.539062 C 129.21875 66.5625 129.164062 66.722656 129.042969 66.988281 C 128.921875 67.253906 128.742188 67.621094 128.515625 68.050781 C 128.292969 68.484375 128.023438 68.980469 127.726562 69.507812 C 127.433594 70.035156 127.117188 70.59375 126.789062 71.140625 C 125.761719 72.878906 124.59375 74.5625 123.316406 76.167969 C 122.042969 77.769531 120.65625 79.292969 119.195312 80.699219 C 117.734375 82.105469 116.203125 83.402344 114.625 84.546875 C 113.050781 85.695312 111.433594 86.695312 109.804688 87.515625 C 109.339844 87.753906 108.820312 88 108.296875 88.234375 C 107.777344 88.46875 107.257812 88.691406 106.785156 88.882812 C 106.316406 89.074219 105.894531 89.234375 105.578125 89.339844 C 105.257812 89.445312 105.042969 89.496094 104.980469 89.476562 C 104.953125 89.464844 104.984375 89.421875 105.058594 89.34375 C 105.132812 89.269531 105.253906 89.164062 105.410156 89.035156 C 105.5625 88.90625 105.757812 88.753906 105.972656 88.589844 C 106.191406 88.425781 106.4375 88.246094 106.695312 88.058594 C 107.785156 87.28125 108.808594 86.460938 109.761719 85.585938 C 110.722656 84.710938 111.613281 83.785156 112.445312 82.804688 C 113.273438 81.824219 114.042969 80.792969 114.753906 79.699219 C 115.464844 78.609375 116.117188 77.464844 116.707031 76.257812 C 117.105469 75.449219 117.457031 74.6875 117.765625 73.949219 C 118.078125 73.210938 118.351562 72.492188 118.59375 71.769531 C 118.839844 71.046875 119.050781 70.320312 119.246094 69.558594 C 119.433594 68.800781 119.609375 68.011719 119.765625 67.167969 L 119.875 66.578125 L 119.988281 65.992188 L 120.097656 65.402344 L 120.207031 64.816406 L 121.339844 64.816406 C 121.496094 64.816406 121.6875 64.824219 121.90625 64.839844 C 122.121094 64.851562 122.363281 64.875 122.609375 64.902344 C 122.859375 64.925781 123.117188 64.957031 123.367188 64.992188 C 123.621094 65.027344 123.863281 65.066406 124.085938 65.105469 M 44.894531 120.816406 C 45.257812 121.046875 45.566406 121.371094 45.8125 121.75 C 46.058594 122.128906 46.238281 122.566406 46.347656 123.023438 C 46.457031 123.480469 46.496094 123.960938 46.453125 124.429688 C 46.414062 124.894531 46.292969 125.351562 46.082031 125.765625 C 45.925781 126.070312 45.75 126.335938 45.542969 126.574219 C 45.339844 126.808594 45.113281 127.011719 44.859375 127.175781 C 44.609375 127.34375 44.332031 127.472656 44.03125 127.570312 C 43.734375 127.667969 43.414062 127.726562 43.066406 127.753906 C 42.703125 127.777344 42.359375 127.765625 42.035156 127.710938 C 41.710938 127.65625 41.40625 127.566406 41.121094 127.429688 C 40.832031 127.296875 40.566406 127.121094 40.316406 126.90625 C 40.066406 126.691406 39.835938 126.433594 39.621094 126.136719 C 39.347656 125.757812 39.164062 125.316406 39.066406 124.851562 C 38.96875 124.386719 38.953125 123.894531 39.019531 123.417969 C 39.085938 122.9375 39.230469 122.472656 39.449219 122.058594 C 39.664062 121.644531 39.957031 121.277344 40.320312 121 C 40.636719 120.757812 40.996094 120.574219 41.378906 120.445312 C 41.761719 120.3125 42.167969 120.238281 42.578125 120.222656 C 42.988281 120.203125 43.398438 120.246094 43.792969 120.34375 C 44.183594 120.445312 44.558594 120.601562 44.894531 120.816406 M 109.269531 120.621094 C 109.445312 120.707031 109.640625 120.851562 109.84375 121.027344 C 110.042969 121.203125 110.246094 121.40625 110.429688 121.625 C 110.617188 121.839844 110.789062 122.0625 110.921875 122.277344 C 111.054688 122.488281 111.148438 122.683594 111.1875 122.84375 C 111.207031 122.914062 111.222656 123.011719 111.230469 123.128906 C 111.242188 123.242188 111.25 123.378906 111.253906 123.527344 C 111.257812 123.671875 111.253906 123.828125 111.25 123.984375 C 111.246094 124.136719 111.238281 124.296875 111.226562 124.445312 C 111.164062 125.207031 110.878906 125.871094 110.453125 126.398438 C 110.023438 126.929688 109.457031 127.328125 108.824219 127.570312 C 108.195312 127.804688 107.503906 127.882812 106.828125 127.765625 C 106.15625 127.652344 105.5 127.34375 104.945312 126.816406 C 104.722656 126.609375 104.542969 126.410156 104.394531 126.207031 C 104.246094 126.003906 104.132812 125.796875 104.042969 125.570312 C 103.957031 125.34375 103.894531 125.097656 103.855469 124.824219 C 103.816406 124.546875 103.800781 124.238281 103.800781 123.882812 C 103.800781 123.53125 103.828125 123.210938 103.882812 122.921875 C 103.933594 122.628906 104.019531 122.367188 104.132812 122.125 C 104.25 121.882812 104.398438 121.660156 104.582031 121.449219 C 104.769531 121.238281 104.988281 121.039062 105.25 120.847656 C 105.5 120.660156 105.796875 120.519531 106.128906 120.414062 C 106.457031 120.308594 106.8125 120.246094 107.179688 120.226562 C 107.542969 120.203125 107.914062 120.226562 108.269531 120.292969 C 108.628906 120.355469 108.96875 120.46875 109.269531 120.621094 M 77.339844 121.09375 C 77.515625 121.21875 77.707031 121.421875 77.894531 121.664062 C 78.078125 121.90625 78.261719 122.195312 78.421875 122.488281 C 78.582031 122.78125 78.71875 123.085938 78.816406 123.367188 C 78.914062 123.644531 78.972656 123.902344 78.976562 124.105469 C 78.976562 124.363281 78.902344 124.671875 78.769531 125 C 78.636719 125.324219 78.453125 125.667969 78.230469 125.996094 C 78.011719 126.320312 77.757812 126.636719 77.488281 126.902344 C 77.222656 127.171875 76.941406 127.390625 76.671875 127.53125 C 76.359375 127.691406 76.011719 127.792969 75.648438 127.832031 C 75.28125 127.875 74.902344 127.855469 74.53125 127.785156 C 74.160156 127.710938 73.796875 127.589844 73.464844 127.414062 C 73.136719 127.238281 72.835938 127.015625 72.59375 126.746094 C 72.3125 126.441406 72.085938 126.097656 71.914062 125.734375 C 71.738281 125.375 71.621094 124.996094 71.558594 124.613281 C 71.496094 124.226562 71.492188 123.839844 71.546875 123.460938 C 71.601562 123.082031 71.714844 122.710938 71.890625 122.367188 C 72.078125 122.003906 72.265625 121.703125 72.476562 121.457031 C 72.6875 121.214844 72.917969 121.027344 73.1875 120.886719 C 73.453125 120.746094 73.757812 120.65625 74.109375 120.605469 C 74.464844 120.550781 74.875 120.539062 75.347656 120.558594 C 75.601562 120.570312 75.820312 120.585938 76.011719 120.605469 C 76.207031 120.628906 76.375 120.660156 76.527344 120.703125 C 76.683594 120.746094 76.820312 120.792969 76.953125 120.859375 C 77.085938 120.925781 77.210938 121 77.339844 121.09375 "/></g><g clip-rule="nonzero" clip-path="url(#e748e72068)"><path style=" stroke:none;fill-rule:nonzero;fill:#000000;fill-opacity:1;" d="M 162.132812 56.746094 L 162.132812 67.097656 C 162.648438 65.613281 163.289062 64.191406 164.058594 62.824219 C 164.773438 61.6875 165.660156 60.699219 166.714844 59.867188 C 169.921875 57.105469 173.894531 55.726562 178.632812 55.726562 C 181.546875 55.722656 184.347656 56.28125 187.035156 57.402344 C 189.613281 58.4375 191.839844 59.976562 193.710938 62.023438 C 195.503906 64.136719 196.796875 66.523438 197.582031 69.179688 C 198.5625 72.308594 199.035156 75.511719 199.003906 78.789062 C 199.003906 85.894531 197.1875 91.492188 193.554688 95.59375 C 189.921875 99.695312 184.945312 101.738281 178.632812 101.730469 C 170.824219 101.730469 165.457031 98.242188 162.53125 91.269531 L 162.53125 128.542969 L 152.246094 128.542969 L 152.246094 56.746094 Z M 176.496094 59.488281 C 174.46875 59.460938 172.5625 59.933594 170.785156 60.90625 C 169.039062 61.894531 167.578125 63.195312 166.402344 64.820312 C 165.089844 66.664062 164.140625 68.675781 163.554688 70.859375 C 162.847656 73.417969 162.503906 76.023438 162.53125 78.679688 C 162.53125 84.503906 163.808594 89.1875 166.359375 92.726562 C 166.914062 93.554688 167.5625 94.296875 168.308594 94.960938 C 169.050781 95.625 169.867188 96.1875 170.753906 96.644531 C 171.636719 97.105469 172.566406 97.445312 173.539062 97.671875 C 174.511719 97.898438 175.5 97.996094 176.496094 97.976562 C 177.933594 97.976562 179.304688 97.6875 180.621094 97.109375 C 181.902344 96.5625 183.039062 95.800781 184.03125 94.824219 C 185.1875 93.601562 186.140625 91.589844 186.886719 88.785156 C 187.65625 85.769531 188.03125 82.707031 188.007812 79.597656 C 188.007812 72.617188 187.089844 67.523438 185.253906 64.308594 C 183.421875 61.09375 180.5 59.488281 176.496094 59.488281 Z M 176.496094 59.488281 "/></g><path style=" stroke:none;fill-rule:nonzero;fill:#000000;fill-opacity:1;" d="M 234.359375 55.429688 C 241.960938 55.429688 247.894531 57.511719 252.15625 61.675781 C 256.417969 65.839844 258.535156 71.644531 258.503906 79.085938 C 258.539062 82.683594 257.839844 86.132812 256.414062 89.4375 C 255.167969 92.445312 253.285156 94.980469 250.761719 97.050781 C 248.515625 98.730469 246.042969 99.964844 243.347656 100.746094 C 240.414062 101.609375 237.417969 102.027344 234.359375 102.003906 C 226.820312 102.003906 220.910156 99.941406 216.632812 95.816406 C 212.355469 91.691406 210.214844 85.980469 210.210938 78.679688 C 210.167969 75.371094 210.726562 72.167969 211.894531 69.070312 C 212.960938 66.246094 214.574219 63.785156 216.738281 61.675781 C 218.945312 59.570312 221.492188 58.015625 224.375 57.003906 C 227.609375 55.894531 230.9375 55.371094 234.359375 55.429688 Z M 234.460938 58.683594 C 229.972656 58.683594 226.644531 60.339844 224.472656 63.65625 C 222.300781 66.976562 221.214844 72.117188 221.214844 79.085938 C 221.214844 92.226562 225.496094 98.792969 234.054688 98.789062 C 238.667969 98.789062 242.0625 97.179688 244.238281 93.960938 C 246.414062 90.742188 247.5 85.714844 247.5 78.878906 C 247.5 71.910156 246.445312 66.800781 244.339844 63.546875 C 242.234375 60.292969 238.941406 58.671875 234.460938 58.675781 Z M 234.460938 58.683594 "/><g clip-rule="nonzero" clip-path="url(#9e02eb200c)"><path style=" stroke:none;fill-rule:nonzero;fill:#000000;fill-opacity:1;" d="M 283.15625 100.613281 L 272.871094 100.613281 L 272.871094 28.816406 L 283.15625 28.816406 Z M 283.15625 100.613281 "/></g><g clip-rule="nonzero" clip-path="url(#a4a97921ec)"><path style=" stroke:none;fill-rule:nonzero;fill:#000000;fill-opacity:1;" d="M 300.882812 28.816406 L 311.167969 28.816406 L 311.167969 100.613281 L 300.882812 100.613281 Z M 300.882812 28.816406 "/></g><path style=" stroke:none;fill-rule:nonzero;fill:#000000;fill-opacity:1;" d="M 333.996094 30.851562 C 334.894531 30.800781 335.773438 30.921875 336.625 31.207031 C 337.480469 31.496094 338.25 31.929688 338.933594 32.511719 C 339.539062 33.089844 340 33.765625 340.308594 34.539062 C 340.621094 35.3125 340.753906 36.117188 340.714844 36.949219 C 340.746094 37.761719 340.601562 38.539062 340.28125 39.285156 C 339.957031 40.035156 339.492188 40.675781 338.882812 41.214844 C 338.175781 41.742188 337.40625 42.140625 336.570312 42.417969 C 335.734375 42.695312 334.875 42.835938 333.996094 42.835938 C 333.113281 42.835938 332.257812 42.695312 331.421875 42.417969 C 330.585938 42.140625 329.8125 41.742188 329.109375 41.214844 C 328.488281 40.660156 328.015625 40 327.691406 39.234375 C 327.371094 38.464844 327.230469 37.667969 327.269531 36.835938 C 327.238281 36.015625 327.382812 35.226562 327.703125 34.46875 C 328.027344 33.714844 328.492188 33.0625 329.109375 32.511719 C 329.789062 31.9375 330.550781 31.507812 331.394531 31.21875 C 332.238281 30.933594 333.105469 30.808594 333.996094 30.851562 Z M 339.089844 100.613281 L 328.796875 100.613281 L 328.796875 56.746094 L 339.089844 56.746094 Z M 339.089844 100.613281 "/><path style=" stroke:none;fill-rule:nonzero;fill:#000000;fill-opacity:1;" d="M 366.285156 68.929688 C 368.757812 60.132812 374.53125 55.730469 383.601562 55.726562 C 390.199219 55.726562 394.785156 57.859375 397.359375 62.128906 C 398.164062 63.453125 398.726562 64.875 399.042969 66.394531 C 399.386719 68.351562 399.539062 70.320312 399.496094 72.308594 L 399.496094 100.613281 L 389.210938 100.613281 L 389.210938 72.683594 C 389.253906 70.746094 389.132812 68.816406 388.855469 66.894531 C 388.652344 65.71875 388.261719 64.609375 387.683594 63.5625 C 386.9375 62.40625 385.949219 61.527344 384.714844 60.921875 C 383.394531 60.289062 382 59.980469 380.53125 60.007812 C 378.449219 60.011719 376.496094 60.519531 374.675781 61.527344 C 372.855469 62.484375 371.414062 63.839844 370.351562 65.59375 C 369.113281 67.699219 368.261719 69.949219 367.800781 72.34375 C 367.207031 75.550781 366.941406 78.785156 367 82.042969 L 367 100.613281 L 356.710938 100.613281 L 356.710938 56.746094 L 366.285156 56.746094 Z M 366.285156 68.929688 "/><path style=" stroke:none;fill-rule:nonzero;fill:#000000;fill-opacity:1;" d="M 444.632812 91.171875 C 443.148438 94.894531 441.125 97.585938 438.566406 99.246094 C 436.003906 100.90625 432.628906 101.734375 428.433594 101.730469 C 423.40625 101.730469 419.484375 100.597656 416.664062 98.328125 C 413.847656 96.0625 412.4375 92.929688 412.4375 88.933594 C 412.4375 83.511719 415.1875 79.652344 420.691406 77.355469 C 421.898438 76.835938 423.140625 76.429688 424.421875 76.128906 C 426.035156 75.75 427.664062 75.460938 429.308594 75.265625 C 431.179688 75.027344 433.300781 74.839844 435.679688 74.703125 C 438.058594 74.566406 440.808594 74.429688 443.933594 74.296875 L 443.933594 69.933594 C 443.933594 65.800781 443.273438 62.902344 441.945312 61.25 C 440.621094 59.59375 438.296875 58.761719 434.96875 58.757812 C 431.839844 58.757812 429.570312 59.554688 428.136719 61.144531 C 426.707031 62.734375 425.964844 65.261719 425.914062 68.714844 L 425.914062 68.914062 L 415.011719 68.914062 C 414.992188 67.945312 415.097656 66.992188 415.328125 66.046875 C 415.554688 65.105469 415.898438 64.210938 416.359375 63.355469 C 416.820312 62.5 417.378906 61.71875 418.039062 61.011719 C 418.703125 60.300781 419.441406 59.683594 420.261719 59.164062 C 423.6875 56.867188 428.527344 55.714844 434.773438 55.710938 C 442.519531 55.710938 448.019531 57.472656 451.285156 60.996094 C 452.496094 62.320312 453.34375 63.839844 453.828125 65.566406 C 454.382812 67.871094 454.628906 70.207031 454.570312 72.574219 L 454.570312 100.613281 L 444.632812 100.613281 Z M 443.890625 77.261719 C 440.613281 77.21875 437.351562 77.421875 434.109375 77.867188 C 431.851562 78.167969 429.703125 78.820312 427.664062 79.824219 C 426.085938 80.601562 424.898438 81.769531 424.101562 83.328125 C 423.335938 85.023438 422.980469 86.800781 423.035156 88.660156 C 423.035156 91.574219 423.765625 93.808594 425.222656 95.363281 C 426.683594 96.921875 428.734375 97.699219 431.386719 97.699219 C 433.832031 97.742188 436.054688 97.0625 438.0625 95.667969 C 440.113281 94.191406 441.554688 92.261719 442.382812 89.878906 C 442.984375 88.304688 443.375 86.675781 443.554688 85 C 443.835938 82.429688 443.957031 79.847656 443.917969 77.261719 Z M 443.890625 77.261719 "/><path style=" stroke:none;fill-rule:nonzero;fill:#000000;fill-opacity:1;" d="M 472.035156 56.746094 L 472.035156 44.339844 L 482.328125 41.902344 L 482.328125 56.746094 L 496.183594 56.746094 L 496.183594 60.300781 L 482.328125 60.300781 L 482.328125 88.121094 C 482.328125 91.578125 482.765625 94.035156 483.648438 95.386719 C 484.53125 96.738281 486.058594 97.464844 488.230469 97.464844 C 489.242188 97.445312 490.246094 97.363281 491.242188 97.214844 C 492.492188 97.046875 493.832031 96.800781 495.261719 96.472656 L 496.003906 96.273438 L 496.003906 99.925781 C 493.863281 100.492188 491.699219 100.9375 489.507812 101.265625 C 487.769531 101.515625 486.019531 101.648438 484.265625 101.664062 C 482.082031 101.703125 480.011719 101.246094 478.050781 100.296875 C 476.210938 99.398438 474.78125 98.0625 473.769531 96.289062 C 473.140625 95.171875 472.699219 93.988281 472.441406 92.734375 C 472.132812 91.023438 471.996094 89.296875 472.035156 87.558594 L 472.035156 60.300781 L 463.988281 60.300781 L 463.988281 56.746094 Z M 472.035156 56.746094 "/><path style=" stroke:none;fill-rule:nonzero;fill:#000000;fill-opacity:1;" d="M 512.378906 30.851562 C 513.277344 30.800781 514.15625 30.921875 515.007812 31.207031 C 515.863281 31.496094 516.632812 31.929688 517.316406 32.511719 C 517.921875 33.089844 518.382812 33.765625 518.691406 34.539062 C 519.003906 35.3125 519.136719 36.117188 519.097656 36.949219 C 519.128906 37.761719 518.984375 38.539062 518.664062 39.285156 C 518.34375 40.035156 517.875 40.675781 517.265625 41.214844 C 516.5625 41.742188 515.789062 42.144531 514.953125 42.421875 C 514.117188 42.699219 513.257812 42.835938 512.375 42.835938 C 511.492188 42.835938 510.632812 42.699219 509.796875 42.421875 C 508.960938 42.144531 508.191406 41.742188 507.484375 41.214844 C 506.867188 40.660156 506.398438 40 506.078125 39.234375 C 505.753906 38.46875 505.613281 37.671875 505.652344 36.84375 C 505.621094 36.023438 505.761719 35.234375 506.082031 34.476562 C 506.402344 33.71875 506.871094 33.0625 507.484375 32.511719 C 508.164062 31.9375 508.929688 31.507812 509.773438 31.21875 C 510.617188 30.933594 511.488281 30.808594 512.378906 30.851562 Z M 517.464844 100.613281 L 507.179688 100.613281 L 507.179688 56.746094 L 517.464844 56.746094 Z M 517.464844 100.613281 "/><path style=" stroke:none;fill-rule:nonzero;fill:#000000;fill-opacity:1;" d="M 555.980469 55.429688 C 563.589844 55.429688 569.519531 57.511719 573.777344 61.675781 C 578.035156 65.839844 580.164062 71.644531 580.164062 79.085938 C 580.195312 82.683594 579.5 86.132812 578.074219 89.4375 C 576.824219 92.445312 574.941406 94.980469 572.421875 97.050781 C 570.175781 98.734375 567.703125 99.964844 565.003906 100.746094 C 562.058594 101.613281 559.050781 102.03125 555.980469 102.003906 C 548.445312 102.003906 542.535156 99.941406 538.253906 95.816406 C 533.972656 91.691406 531.832031 85.96875 531.832031 78.648438 C 531.789062 75.339844 532.347656 72.136719 533.515625 69.039062 C 534.582031 66.21875 536.195312 63.753906 538.359375 61.648438 C 540.566406 59.542969 543.113281 57.984375 545.996094 56.976562 C 549.234375 55.875 552.5625 55.363281 555.980469 55.429688 Z M 556.082031 58.683594 C 551.632812 58.683594 548.265625 60.339844 546.101562 63.65625 C 543.933594 66.976562 542.835938 72.121094 542.835938 79.09375 C 542.835938 92.234375 547.117188 98.800781 555.675781 98.796875 C 560.289062 98.796875 563.683594 97.1875 565.863281 93.96875 C 568.046875 90.75 569.128906 85.722656 569.121094 78.886719 C 569.121094 71.917969 568.070312 66.808594 565.96875 63.554688 C 563.867188 60.300781 560.574219 58.675781 556.082031 58.675781 Z M 556.082031 58.683594 "/><path style=" stroke:none;fill-rule:nonzero;fill:#000000;fill-opacity:1;" d="M 604.066406 68.929688 C 606.511719 60.132812 612.285156 55.730469 621.382812 55.726562 C 627.96875 55.726562 632.554688 57.859375 635.140625 62.128906 C 635.945312 63.453125 636.503906 64.875 636.816406 66.394531 C 637.167969 68.351562 637.320312 70.320312 637.277344 72.308594 L 637.277344 100.613281 L 626.988281 100.613281 L 626.988281 72.683594 C 627.03125 70.746094 626.910156 68.816406 626.632812 66.894531 C 626.425781 65.71875 626.035156 64.609375 625.460938 63.5625 C 624.71875 62.40625 623.730469 61.527344 622.496094 60.921875 C 621.175781 60.289062 619.785156 59.984375 618.320312 60.007812 C 616.234375 60.011719 614.28125 60.519531 612.460938 61.527344 C 610.644531 62.488281 609.199219 63.84375 608.128906 65.59375 C 606.894531 67.699219 606.046875 69.949219 605.585938 72.34375 C 604.988281 75.550781 604.71875 78.785156 604.777344 82.042969 L 604.777344 100.613281 L 594.492188 100.613281 L 594.492188 56.746094 L 604.066406 56.746094 Z M 604.066406 68.929688 "/><path style=" stroke:none;fill-rule:nonzero;fill:#000000;fill-opacity:1;" d="M 660 87.316406 C 660 91.171875 660.832031 94 662.492188 95.792969 C 664.152344 97.585938 666.820312 98.484375 670.492188 98.484375 C 671.738281 98.542969 672.953125 98.386719 674.144531 98.019531 C 675.335938 97.652344 676.425781 97.097656 677.421875 96.347656 C 678.265625 95.710938 678.921875 94.917969 679.386719 93.972656 C 679.851562 93.023438 680.082031 92.023438 680.066406 90.964844 C 680.082031 90.121094 679.914062 89.316406 679.554688 88.550781 C 679.195312 87.785156 678.6875 87.136719 678.027344 86.605469 C 676.667969 85.453125 674.359375 84.433594 671.101562 83.550781 L 665.398438 82.042969 C 660.304688 80.757812 656.691406 79.132812 654.546875 77.171875 C 652.40625 75.210938 651.34375 72.5625 651.359375 69.230469 C 651.332031 67.277344 651.773438 65.433594 652.6875 63.703125 C 653.589844 62.007812 654.808594 60.585938 656.351562 59.4375 C 658.082031 58.167969 659.980469 57.253906 662.054688 56.695312 C 664.453125 56.027344 666.898438 55.703125 669.390625 55.726562 C 674.757812 55.726562 678.9375 56.84375 681.921875 59.082031 C 684.910156 61.320312 686.605469 64.601562 687.015625 68.929688 L 677.316406 68.929688 C 677.277344 67.601562 677.160156 66.28125 676.960938 64.964844 C 676.808594 64.011719 676.519531 63.101562 676.09375 62.230469 C 675.414062 61.078125 674.445312 60.265625 673.191406 59.792969 C 671.710938 59.15625 670.164062 58.851562 668.550781 58.875 C 667.410156 58.828125 666.296875 58.96875 665.203125 59.300781 C 664.113281 59.632812 663.109375 60.132812 662.1875 60.804688 C 661.386719 61.378906 660.769531 62.109375 660.328125 62.988281 C 659.886719 63.867188 659.671875 64.796875 659.6875 65.78125 C 659.671875 66.628906 659.835938 67.441406 660.183594 68.21875 C 660.53125 68.996094 661.03125 69.660156 661.675781 70.214844 C 663.003906 71.398438 665.152344 72.367188 668.148438 73.105469 L 675.484375 75.035156 C 679.964844 76.1875 683.222656 77.78125 685.257812 79.8125 C 686.289062 80.847656 687.066406 82.046875 687.597656 83.40625 C 688.128906 84.765625 688.367188 86.175781 688.316406 87.632812 C 688.347656 88.632812 688.257812 89.617188 688.046875 90.59375 C 687.835938 91.570312 687.507812 92.507812 687.066406 93.40625 C 686.625 94.300781 686.082031 95.132812 685.433594 95.898438 C 684.789062 96.660156 684.0625 97.335938 683.25 97.921875 C 679.890625 100.457031 675.328125 101.726562 669.550781 101.730469 C 663.441406 101.730469 658.6875 100.460938 655.289062 97.921875 C 651.894531 95.386719 650.125 91.847656 649.988281 87.316406 Z M 660 87.316406 "/><path style=" stroke:none;fill-rule:nonzero;fill:#000000;fill-opacity:1;" d="M 750.878906 90.535156 C 749.394531 94.253906 747.375 96.945312 744.8125 98.605469 C 742.25 100.265625 738.875 101.09375 734.679688 101.089844 C 729.652344 101.089844 725.730469 99.957031 722.910156 97.6875 C 720.09375 95.421875 718.683594 92.289062 718.683594 88.292969 C 718.683594 82.871094 721.4375 79.011719 726.9375 76.714844 C 728.144531 76.199219 729.390625 75.789062 730.667969 75.488281 C 732.28125 75.109375 733.914062 74.820312 735.554688 74.625 C 737.425781 74.386719 739.550781 74.199219 741.925781 74.0625 C 744.304688 73.925781 747.058594 73.789062 750.179688 73.65625 L 750.179688 69.292969 C 750.179688 65.160156 749.519531 62.265625 748.195312 60.609375 C 746.871094 58.953125 744.542969 58.121094 741.214844 58.117188 C 738.085938 58.117188 735.816406 58.914062 734.386719 60.503906 C 732.953125 62.09375 732.210938 64.621094 732.160156 68.074219 L 732.160156 68.273438 L 721.257812 68.273438 C 721.1875 64.335938 723.175781 60.640625 726.507812 58.523438 C 729.933594 56.226562 734.773438 55.074219 741.023438 55.070312 C 748.765625 55.070312 754.269531 56.832031 757.53125 60.355469 C 758.726562 61.660156 759.597656 63.226562 760.074219 64.925781 C 760.625 67.21875 760.875 69.574219 760.816406 71.933594 L 760.816406 99.972656 L 750.878906 99.972656 Z M 750.136719 76.621094 C 746.867188 76.578125 743.597656 76.78125 740.355469 77.226562 C 738.113281 77.523438 735.9375 78.1875 733.910156 79.1875 C 732.375 79.941406 731.125 81.167969 730.351562 82.691406 C 729.59375 84.363281 729.226562 86.183594 729.28125 88.019531 C 729.28125 90.933594 730.011719 93.167969 731.46875 94.726562 C 732.929688 96.28125 734.984375 97.0625 737.632812 97.0625 C 740.015625 97.097656 742.351562 96.386719 744.308594 95.027344 C 746.308594 93.585938 747.820312 91.566406 748.632812 89.238281 C 749.230469 87.671875 749.625 86.03125 749.804688 84.359375 C 750.082031 81.789062 750.203125 79.207031 750.167969 76.621094 Z M 750.136719 76.621094 "/><g clip-rule="nonzero" clip-path="url(#a712376ecc)"><path style=" stroke:none;fill-rule:nonzero;fill:#000000;fill-opacity:1;" d="M 783.769531 30.210938 C 785.570312 30.113281 787.335938 30.707031 788.707031 31.871094 C 789.917969 33.023438 790.570312 34.644531 790.488281 36.308594 C 790.550781 37.933594 789.878906 39.496094 788.65625 40.574219 C 785.757812 42.738281 781.773438 42.738281 778.875 40.574219 C 777.640625 39.464844 776.964844 37.859375 777.042969 36.203125 C 776.976562 34.5625 777.648438 32.972656 778.875 31.871094 C 780.238281 30.722656 781.984375 30.128906 783.769531 30.210938 Z M 788.855469 99.972656 L 778.570312 99.972656 L 778.570312 56.105469 L 788.855469 56.105469 Z M 788.855469 99.972656 "/></g><path style=" stroke:none;fill-rule:nonzero;fill:#000000;fill-opacity:1;" d="M 703.910156 89.890625 C 705.710938 89.792969 707.480469 90.390625 708.851562 91.554688 C 710.0625 92.707031 710.710938 94.324219 710.628906 95.992188 C 710.691406 97.613281 710.019531 99.179688 708.796875 100.257812 C 705.902344 102.417969 701.921875 102.417969 699.023438 100.257812 C 697.78125 99.148438 697.105469 97.542969 697.183594 95.878906 C 697.121094 94.238281 697.792969 92.652344 699.023438 91.554688 C 700.382812 90.40625 702.128906 89.8125 703.910156 89.890625 Z M 703.910156 89.890625 "/></g></svg>