<svg version="1.1" id="Layer_1" xmlns="http://www.w3.org/2000/svg" xmlns:xlink="http://www.w3.org/1999/xlink" x="0px" y="0px"
	 width="100%" viewBox="0 0 1024 1024" enable-background="new 0 0 1024 1024" xml:space="preserve">
<path fill="currentColor" opacity="1.000000" stroke="none" 
	d="
M1.000000,443.000000 
	C1.000000,435.645752 1.000000,428.291504 1.428356,420.396332 
	C6.675797,420.194183 10.576921,419.510498 10.289874,413.207947 
	C10.161668,410.392975 12.149842,409.683899 14.651467,409.698303 
	C21.316393,409.736725 27.982012,409.643799 34.647099,409.669647 
	C38.392059,409.684174 40.787685,408.271057 40.813339,404.196350 
	C40.834820,400.785278 42.568420,399.423889 45.870033,399.658722 
	C47.361469,399.764801 48.869164,399.693970 50.367428,399.643036 
	C55.182816,399.479309 60.863297,401.006622 62.082413,393.692078 
	C62.143234,393.327148 62.726849,392.919708 63.151814,392.765198 
	C67.291359,391.260162 71.058647,388.648651 75.823502,389.042023 
	C79.500603,389.345551 82.031021,387.887695 81.812706,383.643616 
	C81.643692,380.357971 83.310875,379.397247 86.423317,379.398651 
	C97.751953,379.403778 109.080994,379.225891 120.409271,379.072357 
	C127.033806,378.982605 128.063507,378.194855 128.124588,371.586700 
	C128.270859,355.763367 128.144272,339.937622 128.151520,324.112854 
	C128.168839,286.292999 128.245483,248.473053 128.162109,210.653458 
	C128.152679,206.379395 129.547699,204.762711 133.931946,204.777802 
	C164.425293,204.882797 194.919296,204.795319 225.413086,204.779053 
	C254.740646,204.763397 284.068390,204.804932 313.395599,204.696640 
	C317.421692,204.681778 319.854065,205.554321 319.424622,210.217941 
	C319.072235,214.045044 321.557770,215.039398 324.818756,215.038422 
	C333.982697,215.035675 343.147461,214.984451 352.310150,215.096085 
	C356.212982,215.143631 358.214722,213.593765 358.298309,209.567078 
	C358.343597,207.385147 358.636017,205.379211 361.606171,204.841110 
	C368.659546,203.563248 368.638275,203.436081 368.678345,196.043549 
	C368.689209,194.043976 368.851440,192.027863 368.654266,190.048218 
	C368.258179,186.072037 369.574982,184.029739 373.901306,184.525940 
	C377.607574,184.951035 378.936371,182.928223 378.889923,179.427231 
	C378.841339,175.765549 379.066437,172.100754 379.144592,168.436752 
	C379.208191,165.455032 380.421356,163.656799 383.684204,163.935165 
	C387.499420,164.260696 389.348297,162.381454 389.262512,158.699310 
	C389.172546,154.835587 390.875000,153.267914 394.701202,153.659210 
	C398.015320,153.998123 399.871185,152.404495 399.584991,149.015045 
	C399.230713,144.818909 401.138672,143.342026 405.128082,143.590729 
	C408.568726,143.805237 409.805084,141.774979 409.748260,138.552460 
	C409.683624,134.888184 409.865540,131.218582 409.763733,127.556206 
	C409.681366,124.592178 411.019867,123.278969 413.902527,123.230705 
	C417.734100,123.166557 421.563904,122.982941 425.395508,122.938354 
	C428.495667,122.902283 429.983276,121.387489 430.006622,118.326187 
	C430.034546,114.661682 430.133057,110.996910 430.104431,107.333015 
	C430.078949,104.070511 431.319183,102.382141 434.864410,102.613426 
	C438.016846,102.819084 441.210297,102.444374 444.355743,102.697556 
	C449.264099,103.092636 450.981110,100.795479 450.709656,96.191689 
	C450.543274,93.369354 450.850800,90.518311 450.670288,87.697769 
	C450.431671,83.969688 451.601624,82.104698 455.723938,82.354439 
	C459.197754,82.564896 462.710602,82.015945 466.204895,82.035362 
	C469.806183,82.055367 471.398224,80.245285 471.475922,76.860886 
	C471.552368,73.529907 471.711426,70.183662 471.487854,66.867477 
	C471.232513,63.080166 472.453461,61.223068 476.518829,61.626102 
	C480.081543,61.979305 481.746338,60.152630 481.636200,56.570938 
	C481.554321,53.907417 481.600525,51.239063 481.627808,48.573250 
	C481.699158,41.598171 481.707703,41.617409 488.481140,41.546951 
	C491.311096,41.517506 494.142365,41.433666 496.968781,41.290478 
	C500.165466,41.128521 501.789215,39.528854 501.707672,36.177902 
	C501.614471,32.348461 501.755188,28.513872 501.748688,24.681595 
	C501.744171,22.008335 502.988159,20.701626 505.696533,20.716459 
	C510.528442,20.742928 515.361694,20.763611 520.192505,20.677694 
	C523.263611,20.623074 524.296814,22.215380 524.255188,25.030024 
	C524.203430,28.528271 524.392700,32.033749 524.241821,35.525909 
	C524.063660,39.647678 525.986938,41.254570 529.957214,41.126469 
	C533.284546,41.019115 536.620544,41.209938 539.952698,41.212582 
	C543.033081,41.215027 544.501221,42.555546 544.381470,45.779221 
	C544.239441,49.605820 544.346863,53.442936 544.394958,57.274887 
	C544.426331,59.772774 545.542114,61.823608 548.202698,61.486610 
	C554.498474,60.689152 554.601135,64.223610 554.546692,68.987923 
	C554.387573,82.913345 552.930969,81.924301 567.300293,82.088379 
	C575.302490,82.179749 575.271118,82.150269 575.320435,90.062920 
	C575.408081,104.117188 573.894653,102.562592 587.906860,102.645584 
	C595.438232,102.690193 595.444824,102.655113 595.491638,110.151451 
	C595.583923,124.910461 595.453918,122.679840 608.265869,122.946785 
	C616.073730,123.109459 616.076172,123.072365 616.173279,130.626541 
	C616.203247,132.959213 616.360718,135.300644 616.215942,137.622864 
	C615.955200,141.807785 617.580139,143.978821 621.979309,143.598206 
	C625.040466,143.333374 626.776062,144.406128 626.392456,147.839081 
	C625.915710,152.106201 627.866211,154.101715 632.191833,153.705856 
	C635.322998,153.419312 636.953430,154.833801 636.800293,158.016098 
	C636.595398,162.273285 638.578369,164.136490 642.804016,163.894928 
	C645.734253,163.727432 647.012695,165.299271 646.988831,168.183014 
	C646.962708,171.347748 647.241882,174.522278 647.080505,177.676819 
	C646.862244,181.943069 648.271484,184.416412 652.955811,184.223053 
	C656.128906,184.092072 657.369995,185.817459 657.283203,188.910828 
	C657.185181,192.406067 657.305237,195.908127 657.360840,199.406738 
	C657.414673,202.793549 658.977844,204.829391 662.545105,204.668777 
	C666.222900,204.503159 667.738037,206.141815 667.397644,209.763031 
	C667.067139,213.279297 668.632385,215.048141 672.285767,215.027084 
	C681.949463,214.971344 691.613647,214.991776 701.277588,215.017792 
	C704.243958,215.025772 706.286194,213.773514 706.228760,210.699936 
	C706.126404,205.218613 709.396240,204.770065 713.719055,204.779678 
	C772.540405,204.910568 831.362000,204.938995 890.183533,205.014359 
	C897.304504,205.023483 897.901550,205.575134 897.872620,212.702316 
	C897.811096,227.863724 897.381714,243.027374 897.547852,258.185211 
	C897.962585,296.007385 898.039917,333.827728 897.649414,371.649445 
	C897.585510,377.839447 898.551819,378.974060 904.778564,379.016266 
	C915.942322,379.091980 927.107056,379.075684 938.271179,379.039215 
	C941.639404,379.028229 944.279236,379.593262 944.044312,383.889160 
	C943.846436,387.507812 945.890869,388.951843 949.320618,388.934723 
	C952.652344,388.918121 955.991333,389.150543 959.314941,389.002228 
	C963.066162,388.834900 964.967773,390.051575 964.468933,394.154633 
	C964.005188,397.968414 965.995972,399.656677 969.769531,399.575775 
	C973.266785,399.500763 976.777222,399.752838 980.263855,399.550171 
	C983.594849,399.356506 985.408447,400.444336 985.196289,403.987457 
	C984.931091,408.417145 987.314209,409.791595 991.381165,409.701569 
	C997.710144,409.561401 1004.050903,409.836243 1010.374146,409.600433 
	C1014.156372,409.459381 1016.025818,410.698273 1015.875671,414.626343 
	C1015.728027,418.486511 1017.825317,419.998840 1021.515930,419.791412 
	C1022.669739,419.726562 1023.838257,419.923126 1025.000000,420.000000 
	C1025.000000,427.020966 1025.000000,434.041901 1024.565063,441.588928 
	C1016.836365,442.280243 1016.701233,442.255920 1015.404968,449.453308 
	C1014.898254,452.266876 1013.170532,452.427795 1011.093201,452.367371 
	C1006.767212,452.241547 1005.219666,454.442505 1005.303894,458.574280 
	C1005.439758,465.236969 1005.260010,471.905457 1005.313660,478.570709 
	C1005.337646,481.549591 1004.399658,483.515991 1001.061462,483.272858 
	C996.734863,482.957764 994.974121,485.001129 995.128662,489.199127 
	C995.207886,491.351807 994.582275,493.489136 991.893066,493.253845 
	C985.673889,492.709656 984.632324,496.375854 984.813660,501.337952 
	C984.898743,503.664337 984.581604,506.014526 984.778564,508.325653 
	C985.117920,512.307983 983.732056,514.358337 979.475891,514.057983 
	C975.790833,513.797913 974.472595,515.806030 974.598450,519.311401 
	C974.723694,522.800354 974.407532,526.307739 974.586914,529.791504 
	C974.766968,533.288513 973.339050,534.686096 969.904724,534.367554 
	C966.146912,534.018982 964.222351,535.772278 964.397949,539.595459 
	C964.546875,542.837769 963.400208,544.745605 959.812317,544.409607 
	C955.648010,544.019653 953.997375,546.105835 954.329163,550.075867 
	C954.611633,553.456177 953.055969,555.069580 949.682434,554.954590 
	C945.639343,554.816833 943.954773,556.954224 943.988098,560.800476 
	C944.012695,563.635864 942.630615,565.264648 939.741150,565.127930 
	C935.372009,564.921326 933.824463,567.199219 933.780396,571.221436 
	C933.757629,573.306519 933.225830,574.969299 930.498840,575.353088 
	C923.368408,576.356628 923.384216,576.483887 923.355896,583.675171 
	C923.346680,586.008240 923.238647,588.348022 923.377930,590.672729 
	C923.580872,594.059204 922.560730,596.173950 918.732849,596.108826 
	C915.008972,596.045410 913.258118,598.019775 913.302795,601.703064 
	C913.341370,604.886780 911.529968,606.287354 908.564819,606.137878 
	C904.465759,605.931213 902.809814,607.854248 902.908936,611.811646 
	C902.993103,615.171875 901.205811,616.531067 897.865601,616.361511 
	C894.708496,616.201416 891.530518,616.475220 888.370056,616.349854 
	C884.417542,616.193237 882.267395,617.912964 882.460510,621.896790 
	C882.636902,625.534485 880.820251,626.568604 877.585083,626.405945 
	C875.005920,626.276367 872.427185,627.125000 872.598389,630.019958 
	C872.990112,636.644287 869.238220,637.351929 864.107056,636.890930 
	C861.962158,636.698303 859.776062,637.021362 857.613159,636.958618 
	C853.721497,636.845764 851.468384,638.634705 851.595520,642.542114 
	C851.712219,646.128235 850.101013,647.288513 846.798279,647.115479 
	C843.960205,646.966797 841.448364,648.085693 841.642090,651.182434 
	C842.009460,657.056702 838.750488,657.760193 834.165955,657.374512 
	C832.014526,657.193604 829.825684,657.472656 827.671387,657.310181 
	C823.437256,656.990845 820.843079,658.274414 821.173279,663.086792 
	C821.392761,666.285950 819.709534,667.539246 816.576416,667.422424 
	C813.082092,667.292114 809.578369,667.428955 806.078918,667.411926 
	C802.458923,667.394287 800.165955,668.971252 800.511841,672.774658 
	C800.907471,677.125854 798.646362,677.677368 795.083435,677.604187 
	C785.588379,677.408936 776.086121,677.569092 766.590698,677.384460 
	C762.290161,677.300842 759.890259,678.909851 759.857666,683.365784 
	C759.831177,686.983887 758.019165,688.203979 754.483582,688.155273 
	C744.653748,688.019897 734.819580,688.226990 724.988525,688.137634 
	C721.202820,688.103271 718.820740,689.265808 718.861511,693.441040 
	C718.897705,697.144836 716.857300,698.201660 713.429077,698.194641 
	C682.266541,698.130981 651.103516,698.102905 619.941406,698.229919 
	C615.835693,698.246582 614.180237,696.643066 614.132385,692.742249 
	C614.091370,689.398621 612.179077,688.061646 608.954407,688.118530 
	C603.123230,688.221558 597.289612,688.188721 591.458374,688.292542 
	C588.781921,688.340210 586.291138,688.950684 586.289612,692.340210 
	C586.288086,695.592712 588.851929,695.931580 591.219299,696.012878 
	C594.185608,696.114868 595.924988,696.936951 595.661621,700.403320 
	C595.337585,704.668457 597.293945,707.073914 601.866150,706.710388 
	C604.743774,706.481567 606.279785,707.683167 606.259888,710.692505 
	C606.235413,714.386292 608.373413,716.361206 611.808105,716.441895 
	C615.552246,716.529907 616.708313,718.271423 616.630981,721.723328 
	C616.548096,725.420227 618.538879,727.107788 622.284485,727.010315 
	C625.779175,726.919556 629.281006,727.138733 632.780090,727.166809 
	C635.054810,727.185059 636.831726,727.859436 636.815369,730.474670 
	C636.778015,736.461426 640.624756,737.555908 645.450745,737.556274 
	C653.449768,737.557007 661.448853,737.594727 669.447876,737.593140 
	C687.779114,737.589478 706.110474,737.548706 724.441589,737.592102 
	C726.418823,737.596802 728.868347,736.769470 729.467896,740.128357 
	C730.792480,747.549377 730.888245,747.536133 738.633423,747.583191 
	C740.633118,747.595337 742.649658,747.737122 744.629089,747.533752 
	C748.226868,747.164001 750.007751,748.622009 749.933716,752.255249 
	C749.859192,755.915283 751.385559,757.980103 755.297913,757.675354 
	C758.443909,757.430359 760.031250,758.831360 759.853027,762.022644 
	C759.637207,765.886902 761.151306,768.046448 765.293884,767.946045 
	C768.308594,767.872986 769.994629,769.311768 769.858459,772.487854 
	C769.685669,776.519104 771.706787,778.296265 775.634644,778.141663 
	C778.665100,778.022461 780.434143,779.207642 780.155701,782.524353 
	C779.810486,786.636780 782.060852,788.304321 785.835083,788.342407 
	C789.197632,788.376343 790.658936,789.894104 790.367004,793.302856 
	C790.154175,795.787537 790.713440,798.692139 793.696594,798.401489 
	C801.170898,797.673035 800.697510,802.338074 800.413391,807.209656 
	C800.306824,809.036499 800.497986,810.881287 800.379395,812.706665 
	C800.099243,817.017639 801.765381,819.392944 806.367126,819.204590 
	C809.773071,819.065125 810.824646,820.608215 810.716492,824.126892 
	C810.404236,834.281189 810.680481,844.452209 810.470642,854.611450 
	C810.383850,858.812378 812.193237,860.300171 816.145569,860.149963 
	C819.639282,860.017090 823.143616,860.193726 826.641724,860.137024 
	C829.941467,860.083618 831.547058,861.398438 831.338013,864.911133 
	C831.140381,868.231689 831.455688,871.581421 831.287598,874.905334 
	C831.092529,878.761169 832.302856,881.023071 836.589844,880.790283 
	C839.713623,880.620667 841.681885,881.732666 841.517761,885.367493 
	C841.357666,888.914429 842.979797,891.083435 846.827393,891.045532 
	C850.081848,891.013428 851.711731,892.414917 851.515320,895.898743 
	C851.305725,899.616577 853.359985,901.567993 857.022400,901.333008 
	C860.714905,901.095947 862.069214,902.604919 862.056946,906.239014 
	C861.997253,923.902893 862.059265,941.567383 862.128845,959.231445 
	C862.141846,962.536438 861.342407,964.730713 857.357483,964.431824 
	C853.486572,964.141418 851.245789,966.100098 851.465210,970.056580 
	C851.668579,973.723145 849.958069,974.674988 846.661438,974.460144 
	C843.126404,974.229797 841.303406,976.251953 841.473083,979.654053 
	C841.671204,983.625854 839.839844,985.051575 836.119080,984.899475 
	C832.447876,984.749390 831.050842,986.804565 831.281616,990.256775 
	C831.501465,993.546448 830.149475,995.362976 826.664368,995.142822 
	C822.916809,994.906128 821.014893,996.553467 821.183777,1000.405762 
	C821.341797,1004.010742 819.587036,1005.379639 816.001892,1005.360046 
	C798.337830,1005.263306 780.672607,1005.267944 763.008423,1005.354797 
	C759.498901,1005.372070 757.561035,1004.207275 757.827026,1000.477783 
	C758.101379,996.631226 756.247803,994.900024 752.489563,995.097290 
	C749.180420,995.271118 747.415344,993.915344 747.676270,990.433411 
	C747.961975,986.620911 746.134399,984.868408 742.372925,984.955933 
	C739.193359,985.029907 737.301758,983.864746 737.576965,980.265137 
	C737.882812,976.264832 735.738525,974.226501 731.873230,974.520142 
	C728.281433,974.793030 727.036133,973.176086 727.076782,969.920349 
	C727.123352,966.194946 725.229980,964.303040 721.543884,964.479675 
	C717.933777,964.652649 716.968445,962.749939 716.979126,959.553528 
	C717.038879,941.723022 717.085571,923.892029 716.987427,906.061951 
	C716.967346,902.404175 718.422058,900.818420 721.988892,900.980164 
	C726.055725,901.164673 727.838196,899.078064 727.532654,895.160706 
	C727.293518,892.094910 728.699036,890.874573 731.631226,891.037415 
	C735.779053,891.267822 737.929993,889.442017 737.637512,885.135254 
	C737.439758,882.223633 738.768555,880.629028 741.724182,880.874939 
	C746.786377,881.295959 747.805176,878.612549 747.805176,874.166626 
	C747.805054,860.080994 747.931030,860.014526 762.235168,860.394104 
	C766.311951,860.502197 768.069824,858.741150 768.058899,854.802612 
	C768.042297,848.807373 768.039246,842.811523 768.111877,836.816895 
	C768.160461,832.812805 766.377136,830.888000 762.305969,831.374756 
	C758.838867,831.789246 757.332642,830.294617 757.626160,826.819092 
	C757.971741,822.725647 755.862671,821.053833 751.939331,821.148865 
	C749.125305,821.217102 747.435486,819.918335 747.691528,816.934021 
	C748.059509,812.643982 746.065369,810.739258 741.894775,810.828857 
	C738.919495,810.892761 737.129700,809.887268 737.437378,806.456604 
	C737.814575,802.250854 735.699524,800.194885 731.509888,800.432861 
	C728.258423,800.617554 726.924133,799.072632 727.081787,795.964722 
	C727.305481,791.556702 724.984863,790.198853 720.872864,790.308350 
	C714.378845,790.481201 707.875793,790.326172 701.376648,790.291687 
	C699.153503,790.279846 696.537598,790.289185 696.727234,787.203186 
	C697.138367,780.509888 693.062378,780.228149 688.041260,780.257690 
	C668.877563,780.370483 649.712585,780.270935 630.548096,780.243835 
	C627.642883,780.239746 624.506958,780.421143 624.731201,776.112427 
	C624.974792,771.432251 622.408630,769.996277 618.234680,770.006714 
	C612.069519,770.022095 605.900146,769.741882 599.740234,769.895813 
	C595.825928,769.993591 593.709045,768.702148 593.794617,764.555786 
	C593.868347,760.984985 591.827087,759.315308 588.463135,759.454529 
	C585.068481,759.595093 583.662842,758.202515 583.533936,754.823669 
	C583.407288,751.507141 581.322571,749.611023 578.029297,749.528687 
	C574.834656,749.448730 573.562927,747.978210 573.610046,744.887573 
	C573.665833,741.230957 571.727539,739.261902 568.080811,739.293579 
	C564.652466,739.323364 563.282532,737.528687 563.200439,734.375977 
	C563.103943,730.671875 561.253540,728.950928 557.528137,729.059143 
	C554.486816,729.147400 552.827393,727.602783 552.927734,724.490662 
	C553.066467,720.189636 550.859680,718.395813 546.767517,718.633728 
	C543.659424,718.814331 542.679443,717.210205 542.735718,714.361328 
	C542.804749,710.864258 542.777100,707.359375 542.617615,703.865784 
	C542.492981,701.135620 541.314819,698.720398 538.323242,698.631592 
	C535.055664,698.534546 534.375916,701.122986 534.360168,703.856567 
	C534.336121,708.022644 534.329468,712.188904 534.329529,716.355042 
	C534.330322,762.016602 534.327332,807.678101 534.344360,853.339661 
	C534.346680,859.535278 535.423218,860.513123 541.660522,860.433044 
	C544.490784,860.396729 547.345154,860.676941 550.147400,860.398621 
	C554.095825,860.006409 555.079407,861.844055 554.874756,865.373718 
	C554.682373,868.693054 554.918457,872.035645 554.913269,875.367920 
	C554.907837,878.843567 556.500793,880.777466 560.071411,880.527588 
	C563.664368,880.276062 565.446838,881.705261 565.232117,885.386597 
	C565.013672,889.130188 566.692261,890.989563 570.534851,890.860718 
	C573.724365,890.753723 575.658875,892.038147 575.353821,895.586548 
	C575.024902,899.412292 576.948486,901.135803 580.648560,901.125732 
	C583.875183,901.117004 585.402832,902.412354 585.378845,905.938538 
	C585.257568,923.769043 585.294067,941.600891 585.359070,959.431946 
	C585.370728,962.630981 584.478699,964.635437 580.856445,964.366150 
	C576.764893,964.062012 575.004272,966.064819 575.308655,970.058594 
	C575.546692,973.181702 574.332520,974.811890 570.982666,974.423340 
	C566.731567,973.930176 564.769409,975.866394 564.938110,980.145508 
	C565.066711,983.406372 563.533936,985.159424 560.120728,984.935791 
	C556.111084,984.673157 554.093323,986.464417 554.535889,990.550049 
	C554.917358,994.072021 553.347961,995.507996 549.946716,995.224487 
	C546.344849,994.924316 544.557068,996.772644 544.616699,1000.189392 
	C544.684204,1004.048462 543.052063,1005.403870 539.212952,1005.374756 
	C521.549255,1005.240906 503.883820,1005.270447 486.219635,1005.359314 
	C482.938171,1005.375793 481.133026,1004.510193 481.498749,1000.841003 
	C481.892242,996.893066 480.052856,994.828369 475.976654,995.094604 
	C472.586731,995.315918 471.021576,993.700500 471.075378,990.389526 
	C471.135803,986.670471 469.328064,984.845703 465.606537,984.888672 
	C462.317352,984.926697 460.680420,983.397766 460.882660,979.997681 
	C461.103302,976.288452 459.349976,974.180481 455.570618,974.491943 
	C451.778076,974.804504 450.449982,973.173462 450.657135,969.580811 
	C450.863922,965.994995 448.829407,964.307800 445.426941,964.460693 
	C441.598022,964.632751 440.608368,962.716003 440.625916,959.259155 
	C440.715546,941.594910 440.729645,923.929688 440.626190,906.265686 
	C440.605927,902.802307 441.560638,900.796204 445.352203,900.976501 
	C449.100098,901.154602 450.960144,899.406921 450.718750,895.575989 
	C450.518982,892.405762 452.147034,890.857849 455.202454,891.007812 
	C459.594025,891.223267 461.129944,888.936890 461.106781,884.914185 
	C461.094147,882.723633 461.831696,880.665405 464.449921,880.897644 
	C471.071960,881.485107 471.070801,877.216492 471.085052,872.559387 
	C471.121765,860.586487 471.185364,860.586670 482.861420,860.525635 
	C491.365906,860.481201 491.694458,860.187927 491.694702,851.893921 
	C491.695709,818.897644 491.674103,785.901428 491.667847,752.905151 
	C491.664795,736.740356 491.678772,720.575500 491.680756,704.410706 
	C491.681152,701.391541 491.352203,698.444397 487.385345,698.448364 
	C483.669342,698.452087 483.364471,701.312439 483.297455,704.099365 
	C483.217407,707.430664 483.149231,710.767273 483.249573,714.096436 
	C483.342773,717.190369 482.325165,718.856445 478.913788,718.457825 
	C474.966034,717.996521 472.916595,719.747192 473.036530,723.846863 
	C473.134613,727.200012 471.893585,729.277710 468.095093,729.072021 
	C464.067383,728.853943 462.327820,731.009644 462.436584,734.903503 
	C462.489258,736.788818 462.499786,739.100281 460.006714,739.018677 
	C455.520233,738.871887 453.068878,741.017029 451.046814,744.754028 
	C450.097595,746.508118 448.006317,747.921936 446.114746,748.821350 
	C443.484802,750.071655 442.181152,751.840393 442.346893,754.640076 
	C442.569855,758.406128 440.735992,759.686890 437.192413,759.414734 
	C433.660889,759.143433 431.798096,760.942078 431.999420,764.471191 
	C432.263062,769.092957 429.904022,769.946838 425.810211,769.776062 
	C419.330048,769.505737 412.825012,769.780640 406.331909,769.901062 
	C404.078766,769.942871 401.317474,770.440674 401.521271,773.126892 
	C402.095428,780.695618 397.304382,780.325500 392.179077,780.299866 
	C373.515076,780.206665 354.850250,780.281555 336.185760,780.263000 
	C332.584442,780.259460 329.188812,780.571411 329.408936,785.371826 
	C329.598877,789.513733 327.437836,790.427185 323.838135,790.352112 
	C317.342133,790.216614 310.838623,790.449951 304.342194,790.324402 
	C300.371429,790.247681 298.371277,791.892334 298.460327,795.897583 
	C298.519348,798.554382 297.900635,800.551575 294.623352,800.347778 
	C290.108673,800.067017 288.192963,802.379944 288.455780,806.722229 
	C288.648773,809.911072 286.957947,810.750427 284.110901,810.505554 
	C280.207977,810.169800 278.016418,811.825378 278.339081,815.981689 
	C278.624542,819.658813 276.869080,821.134888 273.310577,821.013123 
	C269.784180,820.892456 268.054657,822.755615 268.194122,826.244751 
	C268.350555,830.158569 266.459961,831.634827 262.684662,831.332520 
	C259.074951,831.043396 257.512695,833.078308 257.471893,836.476196 
	C257.421814,840.641724 257.430420,844.808044 257.425690,848.974060 
	C257.413208,860.030457 257.416046,860.004150 268.496277,860.103210 
	C280.318665,860.208984 278.061401,860.067810 278.334625,869.719299 
	C278.377045,871.217896 278.425659,872.724670 278.322998,874.217407 
	C278.041809,878.305603 279.738586,880.671082 283.985229,880.622864 
	C287.319366,880.584961 288.959808,882.054626 288.889435,885.389832 
	C288.803619,889.457520 290.964508,891.045288 294.826813,890.936340 
	C297.419983,890.863098 299.021149,892.041565 298.771179,894.840576 
	C298.388336,899.128235 300.376343,900.989258 304.570343,900.960938 
	C307.199860,900.943115 309.093658,901.903992 309.090179,905.012268 
	C309.069702,923.343140 309.089386,941.673950 309.073944,960.004822 
	C309.071686,962.700500 308.061554,964.605408 304.954742,964.340942 
	C300.697357,963.978516 298.795624,965.995728 298.765625,970.139282 
	C298.744080,973.112488 297.536285,974.832642 294.193054,974.504761 
	C290.175934,974.110779 288.225372,976.209229 288.371307,980.109131 
	C288.498779,983.514465 287.106262,985.187927 283.676270,984.801025 
	C279.335114,984.311340 277.993622,986.521790 278.303894,990.428650 
	C278.574677,993.838135 276.922577,995.371277 273.551117,995.160706 
	C269.805267,994.926697 267.891571,996.649475 268.029266,1000.447449 
	C268.161713,1004.100403 266.371796,1005.379883 262.822113,1005.360962 
	C245.157974,1005.267090 227.492905,1005.277710 209.828598,1005.352295 
	C206.576981,1005.366028 204.616241,1004.356445 204.890549,1000.822205 
	C205.234100,996.395691 203.009323,994.838684 198.880936,995.061768 
	C195.996780,995.217529 194.535278,993.753113 194.687637,990.814514 
	C194.892456,986.863525 192.980530,984.881104 189.069168,984.875427 
	C185.679337,984.870483 184.398056,983.241577 184.515518,979.891907 
	C184.643661,976.237000 182.575638,974.285034 178.926086,974.413818 
	C175.734436,974.526367 174.305038,973.038940 174.255508,970.004456 
	C174.194641,966.273438 172.178391,964.472717 168.605957,964.529297 
	C165.061722,964.585327 164.016953,962.770203 164.025604,959.549500 
	C164.073929,941.552002 164.077393,923.554138 164.002777,905.556763 
	C163.989639,902.384338 165.329010,900.790161 168.428848,900.955811 
	C172.457901,901.171082 174.280807,899.335999 174.276260,895.380798 
	C174.273193,892.715271 175.221481,890.800903 178.347305,890.968140 
	C182.854019,891.209229 184.726410,888.870605 184.620758,884.582581 
	C184.560410,882.132874 185.752411,880.639160 188.204269,880.861938 
	C194.303070,881.416138 194.726593,877.782654 194.797668,873.037537 
	C195.015640,858.485229 192.183090,860.988220 208.209930,860.314819 
	C214.163528,860.064636 214.747040,859.852356 215.197571,853.965210 
	C215.937073,844.302063 215.370941,834.645325 215.167023,824.987183 
	C215.093491,821.504150 215.906570,819.257019 220.154953,819.442261 
	C224.005310,819.610107 225.864258,817.414490 225.660767,813.429993 
	C225.499481,810.272156 225.764008,807.092407 225.601501,803.934692 
	C225.424423,800.493347 226.439224,798.381531 230.312546,798.723633 
	C234.509323,799.094360 236.060181,796.972534 235.738358,793.021484 
	C235.478104,789.826477 237.005035,788.370850 240.182358,788.606201 
	C244.300095,788.911255 245.990707,786.874390 245.728317,782.902832 
	C245.520370,779.755249 246.902298,778.198181 250.166504,778.534851 
	C254.181244,778.948914 256.114380,777.027649 256.105682,773.078735 
	C256.098145,769.644836 257.556946,767.749207 261.192383,767.912842 
	C265.061188,768.087097 266.719604,765.977356 266.482697,762.354370 
	C266.254028,758.857361 267.755371,757.476440 271.165192,757.710815 
	C274.042419,757.908508 276.461548,756.697815 276.356079,753.656555 
	C276.167145,748.208069 279.022308,747.208923 283.550140,747.608337 
	C285.862091,747.812256 288.212128,747.584412 290.544952,747.551758 
	C294.185699,747.500793 296.789185,746.206726 296.716858,742.063049 
	C296.654907,738.513977 298.519745,737.518982 301.754944,737.591797 
	C307.417847,737.719055 313.086090,737.599609 318.752106,737.598511 
	C339.583099,737.594360 360.414093,737.593872 381.245087,737.598694 
	C384.300171,737.599426 388.159515,737.787048 388.504730,734.020752 
	C389.088501,727.651367 392.982910,727.160706 397.812988,727.266663 
	C399.808868,727.310425 401.808807,727.116333 403.807678,727.088074 
	C407.423370,727.037048 409.538574,725.223633 409.589630,721.632935 
	C409.638000,718.230408 411.192719,716.863586 414.449921,716.759033 
	C418.058716,716.643188 419.928650,714.667236 419.882996,711.007874 
	C419.847229,708.138184 421.148712,706.624695 424.110229,706.767822 
	C428.015717,706.956604 430.048553,705.214111 430.027710,701.195862 
	C430.011475,698.068054 431.177429,696.241150 434.774658,696.329834 
	C437.375854,696.393982 439.979523,695.571655 439.723114,692.117188 
	C439.473419,688.753540 436.748383,688.400269 434.209564,688.330566 
	C428.547272,688.174988 422.878845,688.258362 417.214569,688.154907 
	C413.367523,688.084595 411.094971,689.566223 411.362610,693.710754 
	C411.571289,696.941406 410.032837,698.188599 406.909912,698.185303 
	C375.080658,698.151855 343.251373,698.154358 311.422119,698.181396 
	C308.855255,698.183533 307.193787,697.512268 307.438049,694.517517 
	C307.856598,689.385559 305.147644,687.993713 300.410126,688.084167 
	C290.583038,688.271729 280.748047,688.002563 270.916412,688.013672 
	C267.692749,688.017334 265.721100,686.927368 266.003845,683.387695 
	C266.378845,678.693298 263.932129,677.319397 259.629669,677.387939 
	C250.133148,677.539490 240.629074,677.288513 231.135406,677.512024 
	C227.253723,677.603394 225.078201,676.810608 225.532135,672.373230 
	C225.898590,668.791138 223.972305,667.231934 220.407349,667.342041 
	C216.911453,667.450012 213.399124,667.178162 209.912170,667.382751 
	C206.267242,667.596558 204.593323,666.134277 204.812302,662.494141 
	C205.049820,658.545837 202.948761,657.177063 199.273514,657.296692 
	C195.944565,657.405029 192.603058,657.173767 189.277328,657.321899 
	C185.887009,657.473083 184.255157,656.159729 184.591812,652.668945 
	C184.984390,648.598511 183.042297,646.834045 179.030457,646.975159 
	C176.791290,647.053833 174.224030,646.867920 174.368851,643.849243 
	C174.664368,637.689331 171.009537,636.660278 166.094513,636.796387 
	C163.769470,636.860779 161.428802,636.564697 159.112976,636.711914 
	C155.414902,636.946777 153.311661,635.757080 153.686234,631.668579 
	C154.036362,627.846802 152.229980,626.072144 148.392593,626.316162 
	C145.503464,626.499817 143.400238,625.722961 143.677002,622.225525 
	C144.043732,617.591492 141.699142,615.923828 137.323807,616.266479 
	C135.369324,616.419495 133.868866,615.865540 133.273727,613.526001 
	C131.381546,606.087891 131.304245,606.103516 123.705742,606.013428 
	C121.872948,605.991699 120.036156,605.931824 118.207443,606.019714 
	C114.583252,606.193787 112.445282,604.967102 112.721413,600.899597 
	C112.881866,598.536011 112.109901,596.122009 109.361824,596.301208 
	C102.186928,596.769226 102.251953,592.252930 102.578133,587.276611 
	C102.697754,585.451538 102.500130,583.606506 102.604897,581.779602 
	C102.847038,577.556641 100.985588,575.030701 96.739227,574.677612 
	C93.877991,574.439697 92.525749,573.194214 92.604332,570.286255 
	C92.699707,566.757141 90.872215,565.133423 87.362823,565.170532 
	C84.857529,565.197021 82.552162,564.625549 82.357124,561.542358 
	C82.116013,557.730896 80.704315,555.106384 76.905045,553.484253 
	C74.727013,552.554382 73.144051,550.206604 72.055939,547.923096 
	C71.295135,546.326416 70.261490,545.261597 68.654175,544.492676 
	C65.315216,542.895508 62.312737,540.904724 61.201302,536.995972 
	C60.753437,535.420837 59.439655,534.312988 57.844902,534.454102 
	C52.049591,534.966736 51.228455,531.562378 51.524693,526.975708 
	C51.663860,524.820984 51.444832,522.645569 51.471203,520.480530 
	C51.520561,516.428040 50.352287,513.570068 45.528824,513.884033 
	C42.016930,514.112671 40.878422,512.195007 41.005791,508.915955 
	C41.134975,505.590118 40.906750,502.251984 40.953777,498.920929 
	C41.005447,495.261322 39.513115,493.172882 35.638233,493.390564 
	C32.384350,493.573395 30.487782,492.390656 30.739542,488.843506 
	C31.030252,484.747467 29.045458,482.990417 25.046358,483.312561 
	C21.796190,483.574341 20.619761,481.995605 20.667809,478.847260 
	C20.772053,472.016510 20.537016,465.178741 20.725069,458.351685 
	C20.841726,454.116547 19.269573,452.057343 14.918035,452.368225 
	C12.365108,452.550629 10.476534,452.089966 10.045392,448.853455 
	C9.103250,441.780853 8.190541,441.306458 1.000000,443.000000 
M522.572937,445.447815 
	C522.582458,428.620514 522.622375,411.793152 522.573975,394.966034 
	C522.565063,391.869171 522.742249,389.230743 526.827759,389.232544 
	C531.383911,389.234589 532.771301,386.575012 532.689575,382.393219 
	C532.562622,375.898499 532.706726,369.398773 532.699219,362.901215 
	C532.696411,360.468719 533.240662,358.565186 536.205872,358.570526 
	C541.607971,358.580292 542.915466,355.285919 542.685547,350.645660 
	C542.578552,348.485565 542.820923,346.304901 542.663147,344.151276 
	C542.388794,340.407532 543.418945,338.062408 547.723206,337.944519 
	C551.437378,337.842773 552.856750,335.424988 552.862976,331.904938 
	C552.868530,328.740936 553.049316,325.577576 553.082703,322.413208 
	C553.115906,319.265106 554.196960,317.360992 557.794189,317.584320 
	C561.848206,317.835968 563.691284,315.470337 563.401428,311.701538 
	C563.134277,308.228485 564.714233,307.395355 567.770996,307.414062 
	C571.854309,307.439087 573.814636,305.280121 573.653381,301.113220 
	C573.537476,298.119873 573.726562,295.115967 573.672424,292.118713 
	C573.616638,289.030548 574.431152,286.998413 578.112183,287.033264 
	C581.985596,287.070007 583.961853,284.932709 583.648254,281.004456 
	C583.373230,277.559387 585.008972,276.124268 588.303467,276.126709 
	C591.821716,276.129303 594.089600,274.805359 593.839050,270.808319 
	C593.637756,267.597107 595.239563,266.279266 598.407776,266.508728 
	C602.456726,266.801910 604.249390,264.673615 604.095825,260.774902 
	C603.963684,257.422699 605.515320,255.860535 608.851196,255.881165 
	C611.375549,255.896774 614.042236,255.152374 614.022583,252.329559 
	C613.973755,245.308731 618.474976,245.445282 623.348572,245.689163 
	C625.175476,245.780594 627.013916,245.703705 628.844849,245.638794 
	C631.742737,245.536072 634.408020,244.781036 634.347168,241.273285 
	C634.289551,237.955566 631.619934,237.364899 628.975342,237.436508 
	C625.652893,237.526489 624.603821,235.910355 624.700867,232.832687 
	C624.816345,229.171860 624.691467,225.503296 624.661682,221.838150 
	C624.644043,219.673096 624.038147,217.252579 621.635010,217.450195 
	C613.783081,218.095795 614.229919,213.079880 614.492737,207.874130 
	C614.592896,205.888214 614.229431,203.883133 614.235291,201.887253 
	C614.246033,198.222092 612.682312,196.152786 608.836975,196.412781 
	C605.712585,196.624054 604.003723,195.532333 604.470825,192.156830 
	C605.071411,187.815857 603.176453,185.899170 598.843689,186.256500 
	C595.791382,186.508224 593.974487,185.197906 594.096924,182.008011 
	C594.270996,177.476028 592.107483,175.675751 587.713562,175.912857 
	C584.733093,176.073685 583.640747,174.341858 583.722839,171.486755 
	C583.823303,167.991257 583.591309,164.483887 583.751160,160.993027 
	C583.937378,156.924088 582.197876,154.977463 578.133545,155.441711 
	C574.671143,155.837234 573.138733,154.570847 573.533081,150.987946 
	C573.974731,146.975616 572.129517,144.996170 568.025696,145.346497 
	C564.665649,145.633331 562.966614,144.107803 563.092224,140.747437 
	C563.238220,136.841888 561.645508,134.751358 557.531921,134.961273 
	C554.255554,135.128464 552.483398,133.739502 552.786133,130.235794 
	C553.124695,126.316826 550.990173,124.778435 547.368835,124.851570 
	C543.717468,124.925301 542.279053,123.194450 542.646118,119.597076 
	C543.007629,116.053558 541.295410,114.165009 537.692444,114.443764 
	C533.705200,114.752251 532.301331,112.922653 532.591492,109.123459 
	C532.815918,106.185562 531.568054,104.029579 528.302734,104.429230 
	C522.513000,105.137871 522.450378,101.814507 522.440552,97.452431 
	C522.407593,82.788803 525.025085,84.014572 508.201996,83.975189 
	C504.848450,83.967339 503.340271,85.580650 503.378265,88.883270 
	C503.420410,92.547951 503.278595,96.216339 503.385376,99.878197 
	C503.477570,103.040085 502.175079,104.619888 498.956451,104.292885 
	C494.487366,103.838837 492.956879,106.067635 493.249603,110.223213 
	C493.456543,113.161278 491.928772,114.589798 489.014954,114.353729 
	C484.665253,114.001335 482.851501,115.998497 483.258545,120.256737 
	C483.571960,123.535614 481.960144,124.705963 478.793060,124.530563 
	C474.933502,124.316811 472.835419,126.140671 473.004150,130.195862 
	C473.142609,133.523849 471.612213,135.114304 468.185272,134.895172 
	C464.720764,134.673645 462.777740,136.316315 462.867767,139.883942 
	C462.968140,143.859970 461.314514,145.727737 457.174835,145.310760 
	C453.816833,144.972504 452.121582,146.732559 452.391632,150.070374 
	C452.732269,154.280304 450.767731,155.729919 446.775085,155.435867 
	C443.626862,155.204010 442.268494,157.019394 442.289215,160.063812 
	C442.313049,163.562119 442.165192,167.065384 442.304474,170.558029 
	C442.440369,173.965515 441.394348,176.037582 437.586761,175.928696 
	C433.961029,175.825012 431.930084,177.434753 432.095337,181.309113 
	C432.236023,184.606827 430.644012,186.323547 427.283325,186.146301 
	C423.482544,185.945847 421.696075,187.749298 421.827515,191.496445 
	C421.951263,195.024643 420.491364,196.696564 416.767426,196.418549 
	C413.014984,196.138382 411.296661,198.164566 411.340973,201.889893 
	C411.384552,205.554153 411.279541,209.219925 411.273743,212.885101 
	C411.270477,214.965652 410.585144,216.771942 408.280365,216.653992 
	C401.374786,216.300522 400.850647,220.566742 401.261780,225.764374 
	C401.418945,227.751480 401.173584,229.769943 401.322571,231.758301 
	C401.615631,235.670090 400.275482,237.756790 395.980652,237.478851 
	C393.437042,237.314255 391.275116,238.214722 391.296844,241.352570 
	C391.317627,244.355270 393.340271,245.394485 395.904388,245.514465 
	C399.563385,245.685684 403.234039,245.745636 406.896088,245.672073 
	C409.995880,245.609802 411.694153,246.754837 411.370789,250.045334 
	C410.941895,254.410233 413.069702,256.119781 417.247009,255.954147 
	C420.192627,255.837341 422.092438,257.096100 421.981171,260.333893 
	C421.845520,264.282013 423.710449,266.233612 427.650543,266.195587 
	C430.750488,266.165649 432.266510,267.630096 432.122711,270.780945 
	C431.962463,274.293457 433.706787,276.112366 437.193909,276.084808 
	C440.994019,276.054749 442.661469,277.776001 442.347412,281.608215 
	C442.137878,284.165009 442.884583,286.757690 445.908630,286.511292 
	C451.997314,286.015198 452.858643,289.271790 452.360229,294.145294 
	C452.141296,296.285736 452.405579,298.472534 452.395569,300.638031 
	C452.376465,304.769196 453.910950,307.388428 458.524750,307.222504 
	C461.658997,307.109772 463.100800,308.491455 462.713287,311.795929 
	C462.206787,316.115417 464.393280,317.977844 468.613342,317.619751 
	C471.621521,317.364502 472.839142,318.801849 472.825928,321.721100 
	C472.808624,325.551483 472.912781,329.383545 473.027405,333.212982 
	C473.097229,335.545380 473.757904,337.981232 476.527161,337.744446 
	C483.365204,337.159882 483.626129,341.293365 483.271698,346.243988 
	C483.105560,348.564484 483.330322,350.910767 483.222076,353.238129 
	C483.042633,357.095886 484.882080,358.919556 488.633698,358.508118 
	C492.561157,358.077423 493.480286,359.947510 493.388489,363.463959 
	C493.223297,369.789856 493.300323,376.126282 493.449005,382.454254 
	C493.517029,385.349030 493.979248,388.657623 497.683563,388.762909 
	C503.084595,388.916443 503.548462,391.898193 503.507111,396.284821 
	C503.334290,414.609863 503.367798,432.938019 503.480652,451.264069 
	C503.528503,459.033875 505.073914,460.595520 511.760742,460.735687 
	C521.455139,460.938934 522.545349,459.849274 522.573853,449.923401 
	C522.577209,448.757141 522.573853,447.590881 522.572937,445.447815 
M238.044785,441.897095 
	C236.309280,441.392151 235.681702,440.061584 235.784851,438.448944 
	C236.129059,433.066650 232.930710,432.078491 228.484268,432.155548 
	C222.154068,432.265198 215.818893,432.062012 209.487274,432.128021 
	C206.182266,432.162476 204.375107,430.922028 204.716370,427.430511 
	C205.160690,422.884521 202.478500,421.577332 198.632355,421.538025 
	C192.967209,421.480164 187.301376,421.488037 181.635803,421.475769 
	C177.767929,421.467377 175.579132,423.527618 175.561462,427.265839 
	C175.517365,436.588989 175.727905,445.913513 175.857147,455.237183 
	C175.907135,458.841858 177.603424,460.946442 181.378281,460.749634 
	C185.555984,460.531830 186.335434,462.854828 186.257217,466.411163 
	C186.114365,472.906982 186.391174,479.412506 186.224777,485.907135 
	C186.122345,489.905670 187.616211,491.939301 191.719925,491.657898 
	C195.164474,491.421661 196.529327,492.986694 196.386398,496.406281 
	C196.240448,499.897522 196.371704,503.405182 196.498688,506.901367 
	C196.580612,509.157074 197.106812,511.848755 199.797379,511.689087 
	C207.021439,511.260437 206.750473,515.796692 206.419601,520.684875 
	C206.296097,522.509277 206.481537,524.352905 206.400986,526.182251 
	C206.219284,530.309021 208.128403,532.542297 212.267868,532.481628 
	C215.671616,532.431824 217.171341,533.997070 217.103134,537.289673 
	C217.026703,540.978516 218.733093,542.916443 222.522858,542.792969 
	C225.770676,542.687134 227.513290,543.991272 227.379074,547.501404 
	C227.258331,550.658691 228.940826,552.478516 232.113785,552.828979 
	C235.159256,553.165344 237.054382,554.702576 237.301392,557.871887 
	C237.605286,561.771179 239.862366,563.552856 243.569351,563.420959 
	C246.912506,563.302063 248.007858,564.954163 247.898178,567.979553 
	C247.754944,571.931458 249.618622,573.909363 253.647018,573.622009 
	C257.048584,573.379272 257.991699,575.352051 257.918304,578.279175 
	C257.826538,581.937866 259.368317,583.999329 263.272644,583.715454 
	C267.072113,583.439209 268.273499,585.559021 268.149658,588.943848 
	C268.016968,592.570068 269.872070,594.031677 273.388214,593.931091 
	C276.717407,593.835938 280.054993,594.035339 283.384216,593.940308 
	C286.556763,593.849792 288.545197,594.781799 288.421692,598.408936 
	C288.283966,602.452942 290.552765,604.032532 294.385864,603.995361 
	C298.049927,603.959839 301.715637,604.063232 305.380280,604.125793 
	C307.973541,604.170105 309.527100,605.346619 309.311737,608.105774 
	C308.904480,613.323425 311.770172,614.703735 316.380371,614.638672 
	C325.877777,614.504639 335.379089,614.655090 344.877014,614.540649 
	C348.096466,614.501892 350.111206,615.485657 349.981232,618.991943 
	C349.799347,623.896973 352.798309,624.667053 356.793091,624.659302 
	C384.790588,624.604919 412.788300,624.625305 440.785919,624.623840 
	C442.796143,624.623779 444.800049,624.565552 446.641357,623.625183 
	C448.034027,622.914001 449.229889,621.923889 449.236542,620.239868 
	C449.244415,618.244690 447.771484,616.943909 446.107544,616.905273 
	C440.542511,616.775757 440.315125,613.260925 440.544617,609.096008 
	C440.681549,606.610352 440.529724,604.096741 440.339233,601.608582 
	C440.161896,599.292603 439.113892,596.814453 436.742584,596.811523 
	C429.660248,596.802795 429.949738,592.283875 430.263977,587.406311 
	C430.391968,585.419678 430.151978,583.411072 430.114136,581.411804 
	C430.043213,577.664368 428.431824,575.293213 424.419769,575.404541 
	C421.224640,575.493286 419.756042,574.026245 419.852173,570.939636 
	C419.963562,567.365173 417.992096,565.604614 414.725800,565.520325 
	C410.952728,565.422974 409.294678,563.680603 409.179718,560.031921 
	C409.064026,556.360718 406.942841,554.451111 403.397797,554.635864 
	C400.206665,554.802124 399.304108,553.406372 399.381989,550.521118 
	C399.486725,546.640442 397.463715,544.688660 393.562378,544.710022 
	C390.543457,544.726624 388.988037,543.341553 388.890503,540.198364 
	C388.772888,536.408813 386.676666,534.360168 382.865295,534.338440 
	C380.131714,534.322876 378.851074,533.014832 378.912964,530.372375 
	C379.012329,526.129272 376.790314,524.328735 372.755096,524.329346 
	C370.143433,524.329773 368.557526,523.135437 368.760651,520.403198 
	C369.090271,515.970581 367.161255,513.846375 362.709747,513.950989 
	C359.841980,514.018433 358.475952,512.664917 358.520813,509.690735 
	C358.585724,505.386322 356.374359,503.250763 352.011627,503.375061 
	C350.486237,503.418488 348.416290,503.302765 348.686218,501.343994 
	C349.442993,495.852692 346.324005,493.637939 341.924713,491.922729 
	C340.673096,491.434723 339.168091,489.989777 338.937256,488.765411 
	C337.871521,483.111755 333.939423,482.963867 329.527985,483.247833 
	C327.370728,483.386719 325.189270,483.146698 323.031738,483.283203 
	C319.352081,483.516113 317.324188,482.284485 317.577271,478.213654 
	C317.819580,474.316711 315.478394,472.958710 311.906189,472.978088 
	C308.573944,472.996155 305.240662,472.838501 301.908539,472.861145 
	C298.653564,472.883270 296.874084,471.527710 297.017151,468.104034 
	C297.182312,464.151459 295.355133,462.128204 291.320099,462.430298 
	C288.184814,462.665039 286.598694,461.388458 286.722656,458.151184 
	C286.890503,453.769928 284.416199,452.342865 280.418732,452.387817 
	C274.086823,452.459015 267.749268,452.241974 261.422028,452.423279 
	C257.875305,452.524933 256.105713,451.288971 256.121460,447.637024 
	C256.139191,443.515900 253.650299,442.218536 249.924332,442.248413 
	C246.260544,442.277832 242.595367,442.134583 238.044785,441.897095 
M850.058167,434.524780 
	C850.007568,432.525452 849.777527,430.511230 849.941772,428.529694 
	C850.350403,423.600555 848.139526,421.477722 843.273560,421.579895 
	C837.778809,421.695221 832.278564,421.526978 826.782654,421.612457 
	C823.312317,421.666412 820.989990,423.133179 821.238403,427.064453 
	C821.489014,431.030670 819.410950,432.301514 815.729309,432.247681 
	C809.065308,432.150269 802.398071,432.298859 795.732178,432.291443 
	C792.961243,432.288361 790.292175,432.893188 790.523010,436.178192 
	C790.942444,442.144653 787.518433,442.659637 783.007446,442.326508 
	C780.853149,442.167419 778.669128,442.428284 776.511780,442.291351 
	C772.284180,442.022919 769.663208,443.390808 769.967773,448.138153 
	C770.177063,451.398865 768.513184,452.467529 765.396240,452.447021 
	C758.733093,452.403137 752.068176,452.600983 745.404236,452.716797 
	C741.824585,452.778992 739.045593,453.852203 739.327454,458.154968 
	C739.567932,461.826965 737.711609,462.734863 734.427429,462.482452 
	C731.866333,462.285614 729.297241,463.347168 729.383118,466.138763 
	C729.597046,473.091125 725.377563,473.476776 720.247009,473.098755 
	C718.424683,472.964478 716.578247,473.186005 714.750244,473.094757 
	C710.664673,472.890747 708.329102,474.594574 708.426453,478.854553 
	C708.508789,482.461090 706.523132,483.413757 703.351379,483.312317 
	C700.188660,483.211090 697.018738,483.361755 693.853516,483.308868 
	C690.204651,483.247955 688.080933,484.896515 688.084961,488.608887 
	C688.088867,492.204895 686.502014,493.661865 682.921875,493.618683 
	C679.485413,493.577271 677.665955,495.723206 677.735229,499.036987 
	C677.813171,502.763184 676.007690,503.981598 672.584290,504.007629 
	C668.921997,504.035492 667.103210,506.019409 667.306274,509.741669 
	C667.466431,512.678040 665.973633,514.107300 663.128174,514.073975 
	C659.279541,514.028931 657.108582,515.579407 657.287170,519.695068 
	C657.421021,522.780151 655.937378,524.359253 652.797424,524.306091 
	C648.826965,524.238831 647.098145,526.353638 646.958862,530.171265 
	C646.872131,532.546631 646.073914,534.355103 643.163330,534.399353 
	C639.340088,534.457458 637.486938,536.793884 636.960693,540.342651 
	C636.572754,542.958862 635.585876,544.686340 632.504944,544.460876 
	C628.249329,544.149475 626.374329,546.470520 626.462341,550.518982 
	C626.524658,553.392334 625.340088,554.935852 622.380920,554.903625 
	C618.714233,554.863708 616.678223,556.840515 616.514404,560.322144 
	C616.358643,563.634155 614.968201,565.137146 611.683228,565.297546 
	C608.402588,565.457764 606.378357,567.223206 606.280579,570.642029 
	C606.188721,573.853149 604.982727,575.520203 601.456421,575.436279 
	C597.336121,575.338257 595.475891,577.809875 595.457275,581.796997 
	C595.443298,584.796570 595.319580,587.802429 595.470276,590.794128 
	C595.641602,594.194336 594.632080,596.265747 590.803284,596.186340 
	C586.673096,596.100647 585.300903,598.584290 585.391418,602.325623 
	C585.439819,604.324036 585.235718,606.339539 585.421631,608.321472 
	C585.888123,613.295776 585.522339,617.422119 578.866272,617.241150 
	C577.043762,617.191589 575.811523,618.630859 575.746887,620.545532 
	C575.680054,622.526184 576.963135,623.602905 578.781311,623.928406 
	C580.574646,624.249451 582.402527,624.529602 584.218140,624.548035 
	C593.216370,624.639648 602.215454,624.662415 611.214294,624.665527 
	C630.212463,624.672119 649.210754,624.680054 668.208679,624.613342 
	C671.343018,624.602356 675.354492,624.825256 675.724670,620.642700 
	C676.229614,614.937744 679.739502,614.640503 683.997253,614.601868 
	C692.824768,614.521790 701.651550,614.346008 710.478027,614.178223 
	C714.356018,614.104553 716.898132,612.573608 716.759705,608.211548 
	C716.662964,605.163940 718.340576,604.224426 721.188354,604.240784 
	C725.013672,604.262756 728.839600,603.939392 732.667297,603.841553 
	C735.152710,603.777954 737.271851,602.797852 737.175415,600.219543 
	C736.931091,593.685730 740.971802,593.557129 745.670959,593.910950 
	C747.658325,594.060669 749.669617,593.857361 751.667847,593.905701 
	C755.473511,593.997620 757.761169,592.463562 757.719604,588.390259 
	C757.685303,585.031494 759.393677,583.716919 762.657471,583.544617 
	C765.880249,583.374573 767.987122,581.562683 767.999146,578.129883 
	C768.010925,574.732300 769.556824,573.379272 772.915833,573.486206 
	C776.637024,573.604614 778.468201,571.474792 778.312134,567.855713 
	C778.158752,564.298706 779.988831,563.155701 783.181824,563.209534 
	C786.834045,563.271118 788.835815,561.582397 788.655945,557.764954 
	C788.517578,554.827332 790.160339,553.449219 792.836670,553.248535 
	C796.871643,552.945862 798.907227,551.022888 798.712036,546.854553 
	C798.577942,543.991882 799.951599,542.549561 802.936584,542.636902 
	C806.792480,542.749817 808.891418,540.848938 808.890991,536.921387 
	C808.890564,533.322632 810.943726,532.392883 814.101501,532.629456 
	C817.927307,532.916077 819.585388,531.012207 819.507324,527.246887 
	C819.438232,523.916382 819.719910,520.573669 819.549500,517.251587 
	C819.372803,513.807129 820.408447,511.776306 824.206482,511.885590 
	C827.585388,511.982788 828.944214,510.018738 829.093750,506.887604 
	C829.268555,503.228149 829.597473,499.571503 829.633789,495.911407 
	C829.662170,493.045349 830.682373,491.538452 833.737183,491.636017 
	C838.372925,491.784119 839.733459,489.011780 839.684204,484.883392 
	C839.608643,478.551636 839.768555,472.216187 839.636475,465.886353 
	C839.569946,462.697571 840.415039,460.682434 844.015137,460.765503 
	C848.639160,460.872192 850.024292,458.121033 850.000122,454.013794 
	C849.963867,447.848663 850.035767,441.682922 850.058167,434.524780 
M327.664307,293.623077 
	C327.357330,289.606903 327.567078,286.203979 333.182800,286.613190 
	C336.135071,286.828308 337.749695,284.810669 337.824341,281.865173 
	C337.925598,277.870544 337.959473,273.871155 337.894562,269.875885 
	C337.701782,258.017639 339.756531,257.786835 325.433167,257.837921 
	C319.844879,257.857849 314.218689,258.208282 308.889191,256.041260 
	C310.031464,250.429886 307.528564,247.404846 301.813660,247.401154 
	C261.995605,247.375381 222.177521,247.382584 182.359497,247.416428 
	C177.026978,247.420975 175.503174,248.941559 175.519669,254.285660 
	C175.539215,260.612976 175.886230,266.939880 175.875153,273.266602 
	C175.818054,305.913177 175.648270,338.559631 175.624359,371.206207 
	C175.619278,378.151367 176.586960,378.970642 183.457260,379.026306 
	C192.952896,379.103271 202.449387,379.108948 211.945389,379.086273 
	C215.043503,379.078857 217.160324,379.946381 217.046753,383.569977 
	C216.915298,387.763916 219.410583,389.002441 223.144653,388.944000 
	C226.641190,388.889282 230.140457,389.007446 233.638504,389.051880 
	C235.929596,389.080963 237.623032,389.845184 237.468201,392.510895 
	C237.094116,398.952057 240.138870,399.625549 245.636642,399.616211 
	C254.966370,399.600403 264.296234,399.593506 273.625854,399.632385 
	C275.727356,399.641113 277.953918,399.234985 278.427948,402.510864 
	C279.461029,409.650543 279.588165,409.635834 286.665619,409.666412 
	C288.831390,409.675751 291.009094,409.801331 293.160553,409.622864 
	C297.099884,409.296112 299.293701,410.566681 298.730591,414.923737 
	C298.231781,418.783630 300.343719,419.882751 303.803711,419.779877 
	C307.464661,419.671021 311.132996,419.836548 314.797913,419.824036 
	C317.811951,419.813721 319.619476,420.968628 319.313202,424.268341 
	C318.906067,428.654938 321.117279,430.302460 325.250061,430.161713 
	C327.732819,430.077179 329.537140,430.978485 329.328796,433.897430 
	C328.976990,438.826721 331.651337,440.067596 336.087219,440.167358 
	C348.231079,440.440399 348.380249,440.242310 348.413177,427.723328 
	C348.424561,423.405273 346.815399,421.290161 342.694061,421.584686 
	C338.561005,421.880066 337.976227,419.587372 337.995575,416.367615 
	C338.016632,412.870453 337.936249,409.371948 337.853088,405.875153 
	C337.793823,403.384338 336.600616,401.362122 334.040985,401.527924 
	C327.819733,401.930878 327.633240,398.218170 327.646240,393.559662 
	C327.738312,360.572418 327.677002,327.584808 327.664307,293.623077 
M849.968811,355.499939 
	C849.962524,321.839447 849.967468,288.178925 849.939880,254.518448 
	C849.934814,248.291046 849.198364,247.405792 843.723755,247.402771 
	C804.230591,247.381073 764.737427,247.444153 725.244446,247.367599 
	C720.899048,247.359177 718.438904,248.937180 718.641235,253.373245 
	C718.826843,257.441406 716.602600,257.965820 713.312622,257.900299 
	C707.150391,257.777557 700.976624,258.088562 694.820007,257.870544 
	C689.800476,257.692749 687.894348,259.946686 688.040039,264.744781 
	C688.206909,270.239227 688.219299,275.742523 688.128296,281.239166 
	C688.066101,284.990601 689.600037,286.969330 693.452393,286.665405 
	C697.215881,286.368530 698.349487,288.167908 698.342407,291.721802 
	C698.272400,326.715698 698.286743,361.709839 698.334412,396.703827 
	C698.338806,399.902435 697.595154,401.838562 693.819946,401.431885 
	C689.682495,400.986145 688.167175,403.424835 688.157471,407.212646 
	C688.149414,410.378326 687.954346,413.550415 688.099731,416.707794 
	C688.266724,420.333801 686.752747,422.077576 683.119202,421.730042 
	C679.011475,421.337158 678.082275,423.631683 677.868896,427.174652 
	C677.052063,440.733765 677.720703,440.454254 691.324036,439.977814 
	C694.555298,439.864655 696.461243,438.121063 696.403198,435.021912 
	C696.326172,430.906006 698.568848,429.884155 702.018005,429.849976 
	C704.479065,429.825592 706.605835,428.784485 706.426514,426.157562 
	C706.004517,419.977356 709.627380,419.378174 714.341492,419.728241 
	C716.328674,419.875824 718.347412,419.590027 720.336304,419.726593 
	C724.529419,420.014496 727.101624,418.623993 727.153259,413.978271 
	C727.187195,410.931366 728.807434,409.548737 731.947510,409.669464 
	C735.440308,409.803802 738.944397,409.644745 742.443542,409.618195 
	C745.544556,409.594635 747.791016,408.403137 747.600891,404.971252 
	C747.339417,400.251190 749.970703,399.513275 753.870422,399.570312 
	C762.866699,399.701813 771.868103,399.484711 780.864441,399.613739 
	C785.690308,399.682953 788.619263,397.956573 788.609253,392.796295 
	C788.603821,389.976624 790.070862,388.991364 792.674500,388.992584 
	C796.339905,388.994293 800.005127,388.859009 803.670654,388.848846 
	C806.804138,388.840149 808.958130,387.601105 808.928101,384.241180 
	C808.889160,379.882507 811.343872,379.060974 815.037659,379.107635 
	C823.700806,379.217072 832.366699,379.115662 841.031433,379.094269 
	C849.433411,379.073547 849.856812,378.679810 849.939270,370.496460 
	C849.986328,365.831268 849.963257,361.165375 849.968811,355.499939 
M635.251770,405.268311 
	C635.500000,402.806030 636.970520,401.442139 639.225952,400.680634 
	C643.404968,399.269623 645.103149,396.342194 645.088806,391.914734 
	C644.983826,359.421265 644.990845,326.927399 644.976868,294.433655 
	C644.975647,291.542816 644.527405,288.888977 640.970764,288.656006 
	C637.004761,288.396240 636.960266,291.433960 636.948059,294.138458 
	C636.934021,297.228058 635.835449,298.849976 632.488770,298.450348 
	C627.962830,297.909912 625.916504,299.948090 626.451599,304.520233 
	C626.843933,307.871735 625.572510,309.566010 621.963745,309.189392 
	C617.521667,308.725830 616.044128,311.106812 616.264893,315.231018 
	C616.425049,318.221344 616.134949,321.236267 616.305115,324.225464 
	C616.529724,328.172394 614.721802,329.610291 610.935852,329.416290 
	C607.612183,329.245972 604.266296,329.518555 600.941101,329.363190 
	C597.048828,329.181366 595.468384,331.090454 595.457397,334.748322 
	C595.445923,338.580688 595.374756,342.413177 595.395508,346.245270 
	C595.407288,348.414124 594.513306,350.057098 592.291077,349.899139 
	C585.746094,349.433899 584.923706,353.278931 585.329346,358.425934 
	C585.525085,360.908905 585.250671,363.425415 585.345764,365.920746 
	C585.465454,369.061218 584.164062,370.597046 580.929321,370.398773 
	C576.439880,370.123627 575.225159,372.712830 575.285217,376.688080 
	C575.383362,383.185150 575.190552,389.686707 575.296997,396.183502 
	C575.353943,399.658142 574.230591,401.634308 570.428284,401.331177 
	C566.476501,401.016022 565.089661,403.153656 565.175293,406.816772 
	C565.253235,410.147064 565.053467,413.484924 565.165100,416.813080 
	C565.276367,420.131256 564.123047,421.835022 560.524048,421.499420 
	C556.808472,421.152863 554.957642,422.995239 554.890869,426.758087 
	C554.834778,429.920837 554.518372,433.079681 554.486755,436.241943 
	C554.213623,463.561768 555.263306,490.878723 554.527527,518.204224 
	C554.276733,527.518127 554.827026,536.856384 555.115112,546.180298 
	C555.195801,548.791443 555.889221,551.368408 559.127869,551.574585 
	C562.288330,551.775696 562.851562,549.351746 563.107971,546.898926 
	C563.334778,544.729492 563.963318,542.722351 566.564209,542.892151 
	C572.888794,543.305054 573.518555,539.192932 573.556824,534.493530 
	C573.575806,532.160767 573.653442,529.825500 573.577332,527.495544 
	C573.473389,524.316956 574.456360,522.394470 578.105957,522.560242 
	C581.786560,522.727478 583.712830,520.704712 583.681885,517.061829 
	C583.653137,513.676819 585.383301,512.250305 588.550964,512.101257 
	C592.601929,511.910614 593.933289,509.393036 593.978455,505.752045 
	C594.019714,502.420715 594.069763,499.088776 594.182312,495.759338 
	C594.266479,493.268158 595.294617,491.562592 598.110535,491.710632 
	C602.614136,491.947388 604.474792,489.516785 604.543640,485.340149 
	C604.584900,482.841797 605.870239,481.827118 608.250977,481.625061 
	C612.825867,481.236755 614.418152,478.193481 614.555908,474.077698 
	C614.656128,471.081177 614.623291,468.079834 614.625061,465.080627 
	C614.626221,463.075073 615.093384,461.177124 617.416382,461.068115 
	C623.939575,460.762054 624.619263,456.308624 624.676880,451.301483 
	C624.703674,448.968811 624.759827,446.636261 624.763794,444.303589 
	C624.767822,441.959869 625.601929,440.493744 628.238953,440.484070 
	C633.490295,440.464813 634.936340,437.356201 634.891602,432.614899 
	C634.808411,423.787109 635.015564,414.956635 635.251770,405.268311 
M451.857025,395.096893 
	C450.484131,393.382050 450.713898,391.329071 450.690308,389.349762 
	C450.636749,384.853729 450.662933,380.356720 450.609375,375.860657 
	C450.576202,373.076111 449.510956,370.466522 446.498718,370.605652 
	C440.929565,370.862854 440.208374,367.857788 440.561462,363.454224 
	C440.747101,361.139465 440.494537,358.793060 440.546570,356.463348 
	C440.634888,352.507599 439.229309,349.963348 434.816284,350.150330 
	C431.290161,350.299744 430.203705,348.527039 430.367981,345.190002 
	C430.547485,341.543945 430.404877,337.871277 430.207794,334.220734 
	C430.037659,331.069061 428.275116,329.402496 425.015808,329.435486 
	C421.519043,329.470856 418.011993,329.285980 414.527374,329.495697 
	C411.131653,329.700134 409.544312,328.467438 409.676361,324.966431 
	C409.795532,321.807281 409.580872,318.635925 409.686035,315.475739 
	C409.813354,311.648743 408.327148,309.274567 404.276764,309.363770 
	C400.481293,309.447327 399.339020,307.543549 399.517731,304.084534 
	C399.663940,301.254852 398.539490,298.969330 395.367889,298.991821 
	C390.878082,299.023590 388.574036,297.428894 388.825806,292.577972 
	C388.959320,290.005402 387.011230,288.714661 384.534973,288.706573 
	C382.049713,288.698456 381.122223,290.420929 380.858582,292.628296 
	C380.740112,293.620148 380.560669,294.614990 380.558167,295.608856 
	C380.476166,328.414337 380.102142,361.220703 380.896973,394.023743 
	C380.985504,397.678986 382.489899,399.761780 386.293701,399.548553 
	C389.885651,399.347198 390.779907,401.089783 390.747681,404.409607 
	C390.653900,414.064026 390.987457,423.723267 390.851746,433.376343 
	C390.788635,437.865540 392.124725,440.435242 397.008392,440.235077 
	C400.156219,440.106018 401.461884,441.710968 401.360229,444.856537 
	C401.242065,448.514832 401.328918,452.184052 401.452118,455.844299 
	C401.531097,458.190399 402.495605,460.614410 405.033630,460.476959 
	C411.620178,460.120422 411.694824,464.155945 411.382629,468.817505 
	C411.249451,470.806549 411.396362,472.813019 411.374298,474.811096 
	C411.331024,478.726440 412.742920,481.309570 417.143311,481.145721 
	C420.496063,481.020935 422.011200,482.595734 421.934601,485.948792 
	C421.872162,488.681305 422.742615,491.377106 425.852448,491.321320 
	C431.625763,491.217712 432.341522,494.451721 431.936981,499.009979 
	C431.761383,500.988647 432.078125,503.006165 432.000092,504.999329 
	C431.829834,509.347839 433.333435,512.071411 438.174713,512.069580 
	C440.968079,512.068542 442.443146,513.462524 442.321442,516.437988 
	C442.149780,520.635437 444.302002,522.666443 448.454498,522.321228 
	C451.591736,522.060364 452.526581,523.494263 452.540283,526.417969 
	C452.557373,530.074402 452.901550,533.732666 453.190521,537.383423 
	C453.430847,540.419861 454.936157,542.452332 458.163208,542.565918 
	C461.023743,542.666626 462.985870,543.550659 463.246216,546.760803 
	C463.362030,548.188721 464.133575,549.327576 465.666962,549.552795 
	C467.414276,549.809448 468.431641,548.710938 469.222931,547.335327 
	C470.880737,544.453308 470.841461,541.261780 470.848419,538.099182 
	C470.922546,504.459198 470.985016,470.819183 471.027100,437.179199 
	C471.031464,433.683197 470.911957,430.186096 470.797577,426.691223 
	C470.710236,424.020966 469.497253,421.932037 466.662872,422.060181 
	C461.047485,422.314026 460.203094,419.055267 460.920776,414.712708 
	C462.289917,406.428345 459.055511,400.311768 451.857025,395.096893 
M801.008484,624.065918 
	C805.646973,624.397949 809.380676,623.767151 809.073242,617.662659 
	C808.963318,615.478333 810.660706,614.588440 812.816345,614.608948 
	C816.314392,614.642212 819.816467,614.487732 823.310913,614.599182 
	C827.407166,614.729797 829.794312,613.063354 829.537964,608.792175 
	C829.305359,604.915588 831.350708,603.851013 834.708801,603.896606 
	C837.333862,603.932251 839.711731,602.930359 839.495789,600.036194 
	C839.045898,594.006409 842.624878,593.674561 847.048218,593.930969 
	C849.203918,594.055908 851.383789,593.755127 853.540527,593.872620 
	C857.740417,594.101562 860.349792,592.797913 860.078552,588.019897 
	C859.922913,585.277893 861.095398,583.401855 864.143982,583.666260 
	C868.502502,584.044250 870.198303,581.936646 870.188660,577.820862 
	C870.181335,574.705566 871.871338,573.435852 874.973572,573.551697 
	C878.905579,573.698608 880.879089,571.615051 880.650513,567.695923 
	C880.457581,564.389832 882.184692,563.129333 885.157532,563.226440 
	C889.437866,563.366211 891.209534,561.317383 891.007263,557.143555 
	C890.867432,554.259216 892.445679,552.753113 895.291382,552.886414 
	C899.384827,553.078064 901.030945,551.114563 900.937073,547.175110 
	C900.871643,544.430298 902.162109,542.538757 905.119934,542.817322 
	C910.128357,543.288940 911.656677,540.680115 911.493408,536.253418 
	C911.417236,534.187256 912.047302,532.914917 914.483582,532.553894 
	C921.617615,531.496704 921.603149,531.387817 921.648010,524.193298 
	C921.661499,522.027588 921.785217,519.853638 921.642578,517.697754 
	C921.404297,514.094604 922.481750,511.872101 926.577026,512.069214 
	C930.303467,512.248657 932.156189,510.373749 932.030701,506.628662 
	C931.922729,503.406342 933.165710,501.534485 936.676941,501.695740 
	C940.176453,501.856476 941.963928,500.215881 941.865784,496.620239 
	C941.771362,493.163757 943.230042,491.388214 946.962097,491.590332 
	C950.698181,491.792633 952.410889,489.583160 952.483643,486.012970 
	C952.558228,482.349365 952.609497,478.682831 952.545959,475.019775 
	C952.508850,472.879303 953.047180,471.684052 955.501831,471.383148 
	C962.669434,470.504486 962.657349,470.402527 962.689941,462.950348 
	C962.698730,460.951172 962.844360,458.940521 962.682312,456.955139 
	C962.335388,452.703461 963.571838,450.223480 968.453613,450.635468 
	C971.328674,450.878052 972.610535,449.041138 972.657837,446.239594 
	C972.710754,443.106384 970.841614,442.253845 968.145874,442.267242 
	C964.647522,442.284637 961.144592,442.164642 957.651855,442.306061 
	C954.130310,442.448669 952.311401,441.183777 952.567566,437.409912 
	C952.829834,433.546814 950.728882,432.057922 947.027710,432.167603 
	C943.699829,432.266235 940.360107,432.012390 937.034851,432.144775 
	C933.570923,432.282654 931.519592,431.183685 931.873962,427.344818 
	C932.285950,422.882538 929.794128,421.459534 925.815979,421.469818 
	C917.486084,421.491302 909.156006,421.421631 900.826233,421.457001 
	C893.972046,421.486115 893.000427,422.398285 892.959229,429.256775 
	C892.884155,441.751129 892.913025,454.246246 892.941345,466.740967 
	C892.949768,470.459747 892.340271,473.381195 887.512268,472.996979 
	C883.517700,472.679047 882.395813,475.178894 882.425964,478.710907 
	C882.485718,485.707428 882.417114,492.704926 882.438416,499.701904 
	C882.444946,501.866333 882.177734,503.497375 879.445435,503.976318 
	C872.305359,505.227997 872.322266,505.339142 872.295654,512.441711 
	C872.287598,514.607422 872.199646,516.778870 872.321533,518.937866 
	C872.529175,522.613831 871.250671,524.681885 867.205322,524.392700 
	C863.618164,524.136230 862.045654,526.022949 862.083374,529.532349 
	C862.120972,533.029785 861.941284,536.531372 862.042725,540.025818 
	C862.132080,543.100098 861.162231,544.787292 857.746094,544.439453 
	C853.807861,544.038513 851.718323,545.858398 851.882080,549.908875 
	C852.025574,553.457642 850.693237,555.184570 846.859192,554.722229 
	C843.013306,554.258484 841.402466,556.428833 841.399597,560.084167 
	C841.396912,563.582520 841.234985,567.086182 841.378296,570.577759 
	C841.517456,573.965698 840.186279,575.606750 836.720337,575.323975 
	C833.002502,575.020630 830.884338,576.510803 831.316101,580.474487 
	C831.758667,584.536438 829.861511,585.808899 826.066467,585.496033 
	C822.773804,585.224609 821.020447,586.912109 821.267090,590.290039 
	C821.545105,594.097595 819.922302,595.773865 816.054077,595.670959 
	C813.052063,595.591003 810.743896,596.877747 810.837463,600.319458 
	C810.950745,604.482788 809.314880,606.475830 804.947449,606.126404 
	C802.805786,605.955017 800.553528,606.837891 800.831848,609.376709 
	C801.430786,614.840027 799.163696,616.840515 793.851074,616.846191 
	C791.296692,616.848877 790.431274,619.261169 790.686523,621.667480 
	C790.937500,624.033813 792.693237,624.486511 794.707642,624.399231 
	C796.535278,624.320129 798.361877,624.218750 801.008484,624.065918 
M196.580856,585.163757 
	C195.050354,584.618225 194.652328,583.316772 194.756088,581.950867 
	C195.122543,577.126282 193.299866,574.654297 188.149536,575.283997 
	C185.629074,575.592102 184.532532,574.342712 184.592743,571.766968 
	C184.678345,568.104187 184.552216,564.436462 184.515259,560.770813 
	C184.477402,557.016541 182.934601,554.690918 178.832138,554.882385 
	C175.685898,555.029114 174.186218,553.664917 174.425125,550.430237 
	C174.735184,546.231995 172.809830,544.059875 168.521774,544.518066 
	C164.821625,544.913574 163.888351,543.055420 163.988953,539.794250 
	C164.101883,536.133789 163.953079,532.464844 163.900299,528.799805 
	C163.864487,526.313721 162.808014,524.228577 160.164047,524.478760 
	C154.030945,525.059265 153.252121,521.633179 153.687393,516.814575 
	C153.881439,514.666321 153.615082,512.480347 153.722275,510.319641 
	C153.934586,506.040344 152.072342,503.480804 147.708801,503.546417 
	C144.229935,503.598755 143.551086,501.931152 143.603638,498.924805 
	C143.717209,492.428406 143.591690,485.927765 143.557480,479.428894 
	C143.537094,475.554474 142.143707,472.941315 137.729630,473.092682 
	C134.220169,473.213043 133.054382,471.226715 133.171753,468.037079 
	C133.226852,466.539978 133.142807,465.038208 133.144196,463.538574 
	C133.155487,451.377136 133.159210,439.215637 133.194962,427.054260 
	C133.205582,423.437469 131.712265,421.415894 127.856949,421.434509 
	C118.192154,421.481262 108.526962,421.438385 98.862030,421.466217 
	C96.225716,421.473816 93.983139,422.511810 94.137321,425.428986 
	C94.468422,431.693726 90.695442,432.416473 85.872566,432.181946 
	C83.712257,432.076904 81.539001,432.262970 79.375374,432.195801 
	C75.571724,432.077759 73.209709,433.499756 73.380325,437.652893 
	C73.524582,441.164307 71.705727,442.335876 68.444359,442.263428 
	C64.782227,442.182007 61.111156,442.236298 57.451527,442.400177 
	C54.904129,442.514282 53.523300,444.037659 53.438217,446.603729 
	C53.357952,449.024567 54.708492,450.698486 56.980385,450.543579 
	C63.490044,450.099823 63.803989,454.071716 63.443089,458.835480 
	C63.292419,460.824188 63.512280,462.840027 63.379646,464.831268 
	C63.110046,468.879059 64.564171,471.317352 68.966759,471.159973 
	C72.510132,471.033356 73.579407,472.896057 73.413818,476.167572 
	C73.245560,479.491608 73.432861,482.832001 73.375793,486.163696 
	C73.318382,489.515686 74.562119,491.697510 78.211372,491.718903 
	C81.757378,491.739685 83.176170,493.745209 83.623512,496.977173 
	C84.040863,499.992462 85.659393,501.936310 88.963387,501.662354 
	C92.937744,501.332794 94.368759,503.258881 94.205406,506.994751 
	C94.103889,509.316345 94.705734,511.814819 97.468681,511.703430 
	C104.058769,511.437836 104.676300,515.327271 104.256271,520.370300 
	C104.091049,522.353943 104.361115,524.370178 104.281456,526.365540 
	C104.125931,530.261108 105.935974,532.467773 109.812317,532.485901 
	C113.077843,532.501160 114.845024,533.426331 114.448868,537.093018 
	C114.044708,540.833862 116.036926,542.838623 119.717735,542.703247 
	C123.614304,542.559875 125.149162,544.294373 125.050583,548.050110 
	C124.973068,551.003357 126.417961,552.915527 129.542526,552.793884 
	C133.717834,552.631348 135.147263,554.746643 135.013702,558.592224 
	C134.899246,561.888306 136.687378,563.714844 139.905365,563.481079 
	C143.949158,563.187195 145.741486,564.579590 145.456833,568.803223 
	C145.241180,572.002625 146.983994,573.887390 150.345810,573.622498 
	C154.330490,573.308533 155.746613,575.123413 155.414642,578.942688 
	C155.121155,582.319275 156.925323,583.953979 160.245529,583.668640 
	C164.363297,583.314880 166.039963,585.192200 165.902084,589.188782 
	C165.776596,592.826172 167.922363,594.194336 171.283600,594.177734 
	C174.947968,594.159607 178.612778,594.128540 182.276764,594.165161 
	C184.205856,594.184448 186.372726,594.523438 186.105698,596.999756 
	C185.346313,604.041504 189.700699,604.464355 194.849976,604.257935 
	C197.338913,604.158142 199.858231,604.572083 202.330521,604.361938 
	C205.549637,604.088318 206.977356,605.020569 206.631271,608.504028 
	C206.186340,612.982178 208.532990,615.007874 212.952362,614.572327 
	C215.803543,614.291443 217.007553,615.656860 216.865082,618.331299 
	C216.588074,623.531921 219.434464,625.028992 224.063095,624.692383 
	C226.051788,624.547791 228.060486,624.691101 230.059937,624.678345 
	C232.683273,624.661621 235.331741,624.488586 235.434219,620.985291 
	C235.533752,617.583008 233.422256,616.230896 230.293091,616.323730 
	C226.966095,616.422485 225.309067,615.090332 225.545609,611.603394 
	C225.800537,607.845154 223.917694,606.049377 220.169586,606.105286 
	C217.130829,606.150635 214.872696,605.249634 215.072556,601.603882 
	C215.292679,597.588989 213.415359,595.763550 209.388062,595.959167 
	C206.627350,596.093323 204.779343,594.904785 205.010849,591.878479 
	C205.445770,586.193298 201.983658,585.170227 196.580856,585.163757 
M784.048401,903.147034 
	C780.708618,903.415100 780.089478,905.745972 780.165649,908.450989 
	C780.259460,911.780823 778.831482,913.520752 775.421143,913.218628 
	C770.945129,912.822083 769.460815,915.338806 769.505493,919.243530 
	C769.538635,922.147339 768.387329,923.554932 765.362610,923.385498 
	C760.749084,923.127014 759.185486,925.715820 759.404907,929.950500 
	C759.525208,932.273010 759.396423,934.609070 759.531982,936.930115 
	C759.731323,940.342651 761.033020,942.694092 765.052429,942.316162 
	C767.776367,942.059937 769.668213,942.943115 769.426697,946.150879 
	C769.067932,950.917419 771.445740,952.901367 776.012939,952.550171 
	C778.995789,952.320618 780.466187,953.591187 780.134094,956.592041 
	C779.589050,961.516602 781.968872,963.228455 786.586487,962.829407 
	C788.567566,962.658203 790.586426,962.649902 792.567810,962.813477 
	C797.016541,963.180725 799.172119,961.379456 798.766968,956.791443 
	C798.516724,953.957458 799.613953,952.295349 802.734131,952.542236 
	C807.155334,952.892151 809.219604,950.889038 809.032104,946.407349 
	C808.923401,943.809204 810.184448,942.241638 812.980530,942.595886 
	C818.503174,943.295654 820.084412,940.494751 819.596558,935.530212 
	C819.386108,933.388855 819.508423,931.209229 819.560913,929.048889 
	C819.655884,925.137634 817.964905,923.046875 813.881348,923.379883 
	C810.624817,923.645386 808.702393,922.459839 808.932922,918.926636 
	C809.194153,914.922485 807.432129,913.060059 803.361389,913.260071 
	C800.713013,913.390198 798.564514,912.401184 798.830627,909.335022 
	C799.331604,903.561218 796.079529,902.654785 791.418518,903.067566 
	C789.274475,903.257507 787.098938,903.092224 784.048401,903.147034 
M504.203796,904.609497 
	C503.273407,905.928223 503.303253,907.460693 503.371582,908.945984 
	C503.506561,911.878662 502.221985,913.441162 499.261658,913.175354 
	C494.559113,912.753113 492.959717,915.056580 493.278046,919.426636 
	C493.471375,922.080811 492.146149,923.545593 489.403748,923.369629 
	C484.501190,923.054993 482.885895,925.634094 483.163635,930.126709 
	C483.296967,932.283752 483.277191,934.463745 483.139160,936.621277 
	C482.873138,940.779907 484.402649,943.003723 488.889465,942.516785 
	C491.278687,942.257568 493.494019,942.700745 493.245178,945.770996 
	C492.827484,950.925110 495.523560,952.668335 500.130554,952.514160 
	C502.874969,952.422363 503.638794,953.979004 503.387024,956.317322 
	C502.838226,961.414612 505.221924,963.310425 510.114532,962.839355 
	C512.261841,962.632568 514.459961,962.600220 516.605469,962.802551 
	C520.924194,963.209900 522.860168,961.367249 522.522095,957.078979 
	C522.278931,953.995117 523.461548,952.419434 526.782227,952.529236 
	C530.846985,952.663635 533.019531,950.741882 532.703735,946.441711 
	C532.511536,943.826111 533.746338,942.136719 536.440247,942.291260 
	C542.079468,942.614868 543.223511,939.455017 542.797180,934.737122 
	C542.617920,932.752563 542.694641,930.740479 542.728394,928.742188 
	C542.787720,925.233032 541.057983,923.342407 537.594604,923.467285 
	C533.974243,923.597839 532.328369,922.179260 532.650024,918.487732 
	C532.957947,914.954102 531.291931,913.016357 527.687439,913.327148 
	C523.512268,913.687195 521.959412,911.697388 522.014282,907.792236 
	C522.047546,905.425720 521.282593,903.257690 518.534241,903.185730 
	C513.932556,903.065186 509.243896,902.056030 504.203796,904.609497 
M226.452118,953.300964 
	C228.791519,962.986694 228.790695,962.858398 239.249252,962.791260 
	C243.524658,962.763855 246.024063,961.487366 245.719254,956.813965 
	C245.534882,953.986877 246.585739,952.344543 249.711472,952.540283 
	C254.338760,952.830200 256.579803,950.464172 256.448242,945.967163 
	C256.360748,942.975952 258.063477,942.176514 260.495758,942.194763 
	C264.813599,942.227112 266.374420,939.745667 266.467651,935.880371 
	C266.523834,933.551575 266.543701,931.216309 266.437073,928.890442 
	C266.277313,925.406006 264.738068,923.112854 260.884979,923.389465 
	C257.759155,923.613831 256.140839,922.373047 256.213501,919.170715 
	C256.307861,915.009949 254.382095,913.000793 250.131744,913.276367 
	C247.318420,913.458679 245.526688,912.208923 245.784561,909.214905 
	C246.217010,904.193848 243.662720,902.718201 239.151993,903.079468 
	C237.000473,903.251831 234.821487,903.196716 232.660477,903.108826 
	C228.926941,902.957092 227.023071,904.552856 227.185669,908.410645 
	C227.306458,911.276672 226.430954,913.418701 223.028381,913.235596 
	C218.738419,913.004761 217.003036,915.149597 217.017441,919.257446 
	C217.025909,921.670349 216.144196,923.650940 213.225723,923.329346 
	C207.907516,922.743469 206.555740,925.743103 206.630753,930.250793 
	C206.663940,932.246033 206.540634,934.244263 206.476395,936.240662 
	C206.338654,940.522156 208.094498,942.896362 212.690063,942.571289 
	C214.547302,942.439880 217.039719,942.424316 216.849716,944.879883 
	C216.319031,951.738831 221.042862,952.151123 226.452118,953.300964 
M254.827591,633.463867 
	C256.391296,628.619507 255.654602,627.059448 251.143875,626.641296 
	C248.006531,626.350525 244.817505,626.446655 241.661179,626.586426 
	C239.276855,626.692078 238.164627,628.237305 238.099777,630.583679 
	C238.035675,632.902832 238.928741,634.646057 241.389618,634.734253 
	C245.674713,634.887878 250.027466,635.697083 254.827591,633.463867 
M778.611328,626.422424 
	C776.958435,626.535339 775.262085,626.453186 773.663147,626.808655 
	C771.471741,627.295898 770.276367,628.850098 770.329529,631.154724 
	C770.388245,633.701721 772.095093,634.622742 774.298401,634.687378 
	C777.618042,634.784790 780.946106,634.778809 784.265015,634.660950 
	C786.905396,634.567261 788.053406,632.870728 788.157959,630.384277 
	C788.264404,627.852661 786.711853,626.802063 784.468811,626.586060 
	C782.819031,626.427185 781.149902,626.468445 778.611328,626.422424 
z"/>
</svg>