<svg width="60" height="60" viewBox="0 0 60 60" fill="none" xmlns="http://www.w3.org/2000/svg">
  <!-- Flower petals -->
  <path d="M30 10C25 10 20 15 20 20C20 25 25 30 30 30C35 30 40 25 40 20C40 15 35 10 30 10Z" fill="#00c853"/>
  <path d="M30 30C25 30 20 35 20 40C20 45 25 50 30 50C35 50 40 45 40 40C40 35 35 30 30 30Z" fill="#00c853"/>
  <path d="M10 30C10 25 15 20 20 20C25 20 30 25 30 30C30 35 25 40 20 40C15 40 10 35 10 30Z" fill="#00c853"/>
  <path d="M30 30C35 30 40 35 40 40C40 45 35 50 30 50C25 50 20 45 20 40C20 35 25 30 30 30Z" fill="#00c853"/>
  <path d="M30 30C35 30 40 25 40 20C40 15 35 10 30 10C25 10 20 15 20 20C20 25 25 30 30 30Z" fill="#00c853"/>
  <path d="M50 30C50 25 45 20 40 20C35 20 30 25 30 30C30 35 35 40 40 40C45 40 50 35 50 30Z" fill="#00c853"/>
  
  <!-- Center -->
  <circle cx="30" cy="30" r="8" fill="#ffffff"/>
  <circle cx="30" cy="30" r="5" fill="#039be5"/>
  
  <!-- Flow elements -->
  <path d="M30 5C30 5 35 15 40 15M30 55C30 55 35 45 40 45M5 30C5 30 15 35 15 40M55 30C55 30 45 35 45 40" stroke="#039be5" stroke-width="2" stroke-linecap="round"/>
</svg>
