<svg width="41" height="32" viewBox="0 0 41 32" fill="none" xmlns="http://www.w3.org/2000/svg">
<path d="M25.2693 13.2742C25.0189 13.4778 24.6546 13.3194 24.6546 12.9801V11.1931V0.380245C24.6546 0.0635515 24.2676 -0.117416 24.04 0.0861724L8.8784 12.867C8.62798 13.0706 8.26374 12.9122 8.26374 12.5729V3.84125C8.26374 3.59242 8.05886 3.38883 7.80844 3.38883H0.455303C0.204886 3.38883 0 3.59242 0 3.84125V31.19C0 31.5066 0.387007 31.6876 0.614659 31.484L15.7535 18.7032C16.0039 18.4996 16.3681 18.658 16.3681 18.9973V31.6198C16.3681 31.9364 16.7551 32.1174 16.9828 31.9138L32.1216 19.133C32.372 18.9294 32.7363 19.0878 32.7363 19.4271V28.1588C32.7363 28.4076 32.9411 28.6112 33.1916 28.6112H40.5447C40.7951 28.6112 41 28.4076 41 28.1588V0.787421C41 0.470728 40.613 0.289761 40.3853 0.493349L25.2693 13.2742Z" fill="white"/>
</svg>
