<svg fill="currentColor" fill-rule="evenodd" height="1em" style="flex:none;line-height:1" viewBox="0 0 24 24" width="1em" xmlns="http://www.w3.org/2000/svg"><title>Lightricks</title><path d="M19.667 13.243c.003 0 .003 0 0 0 .542-1.219.934-2.374 1.084-3.342.192-1.237.008-2.213-.552-2.903-.67-.827-1.714-1.057-2.756-1.065-.766 0-1.663.133-2.621.358C14.147 3.695 12.762 0 10.162 0 7.157 0 4.773 5.317 3.378 9.996 2.867 11.716 2 15.134 2 16.813 2 20.775 5.133 24 8.984 24c4.36 0 12.7-2.8 12.7-7.187 0-1.355-.793-2.553-2.017-3.57zm-2.23-5.72c.543.004 1.277.076 1.61.52.302.404.273 1.097.194 1.605-.138.894-.495 1.876-.845 2.7a16.88 16.88 0 00-2.71-1.325 39.005 39.005 0 00-.51-3.19c.838-.196 1.612-.31 2.262-.31zm-1.576 5.265c.65.284 1.267.596 1.872.974a32.689 32.689 0 01-1.753 3.028c.039-1.03.01-2.435-.119-4.002zm-1.783-2.317c-1.402-.42-2.801-.693-4.018-.797A30.579 30.579 0 0113.7 8.24c.149.733.274 1.485.378 2.23zM5.897 7.292c1.402-3.572 3-5.703 4.274-5.703 1.633 0 2.747 3.473 3.175 5.108A31.777 31.777 0 008.582 8.64c-1.48.744-2.966 1.738-3.97 2.573.314-1.272.98-3.137 1.285-3.922zm3.05 15.119c-2.99-.02-5.415-2.525-5.415-5.598 0-3.09 2.446-5.601 5.454-5.601 1.547 0 3.478.365 5.296.97.2 2.05.24 3.928.138 5.121-.256 3.002-2.813 5.1-5.473 5.108zm7.244-1.722c-.586.27-1.207.516-1.845.73 1.542-1.637 3.321-4.213 4.624-6.727.766.703 1.183 1.428 1.183 2.12.002 1.301-1.444 2.714-3.962 3.877z"></path></svg>