<svg width="226" height="263" viewBox="0 0 226 263" fill="none" xmlns="http://www.w3.org/2000/svg">
<path d="M13.0574 165.561C12.0426 165.19 10.7755 164.979 9.91522 164.443C2.99721 160.121 5.04737 150.576 12.8102 148.82C12.8849 148.803 12.9523 148.765 13.0023 148.709C13.0528 148.653 13.0827 148.584 13.0883 148.511C15.4718 118.4 28.0643 93.6782 50.8669 74.3444C50.8891 74.3253 50.9061 74.3021 50.9174 74.2754C50.9282 74.2486 50.9329 74.2197 50.9303 74.1909C50.9277 74.162 50.9184 74.1342 50.903 74.11C50.887 74.0853 50.8659 74.0652 50.8412 74.0508C48.5747 72.6754 46.0815 71.434 44.0365 69.9504C40.4034 67.3233 36.9521 64.4727 33.6827 61.3995C32.0652 59.8748 31.6428 58.1543 34.002 57.1189C34.0649 57.0921 34.1159 57.0432 34.1442 56.9814C34.1731 56.9196 34.1772 56.849 34.1566 56.7841C29.196 41.8406 26.6719 26.7733 25.0751 10.8253C24.9308 9.41042 24.8809 8.24971 24.9257 7.3431C24.9288 7.26352 24.9545 7.18692 24.9994 7.12279C25.0442 7.05871 25.1065 7.00993 25.1781 6.98252C25.9508 6.67345 27.0238 6.41074 28.3976 6.19439C60.412 1.16171 98.3658 10.8356 107.895 46.2139C107.933 46.3478 107.966 46.3478 107.993 46.2139C109.865 37.3642 110.717 28.5145 110.548 19.6647C110.531 18.6413 110.876 17.7622 111.584 17.0273C115.406 13.0609 119.959 11.4657 125.244 12.2419C129.36 12.8445 129.51 14.7968 129.216 18.3563C128.206 30.4514 126.024 42.333 122.669 54.0025C122.661 54.0328 122.659 54.0653 122.664 54.0962C122.669 54.1276 122.682 54.1575 122.7 54.1838C122.718 54.2095 122.742 54.2312 122.769 54.2471C122.797 54.2631 122.828 54.2729 122.86 54.2755C173.774 58.9321 210.383 98.0655 213.803 148.629C213.809 148.713 213.834 148.794 213.874 148.863C213.915 148.932 213.97 148.988 214.035 149.026C216.101 150.221 217.45 150.247 218.913 152.657C221.705 157.247 219.712 163.913 214.179 165.036C213.985 165.074 213.807 165.173 213.672 165.318C213.537 165.463 213.451 165.648 213.427 165.844C210.058 193.53 198.166 216.185 177.75 233.809C161.983 247.418 141.532 255.706 120.753 257.128C65.4653 260.909 19.1203 220.977 13.3253 165.917C13.3176 165.837 13.2882 165.762 13.2408 165.699C13.1939 165.636 13.1301 165.588 13.0574 165.561ZM83.3707 53.7913L93.8739 64.4645C93.8971 64.4882 93.9255 64.5067 93.9564 64.5196C93.9873 64.5319 94.0208 64.5376 94.0537 64.5371C94.0872 64.5361 94.1202 64.5278 94.1506 64.5139C94.1805 64.4995 94.2072 64.4794 94.2294 64.4542C98.2128 59.8763 99.5799 54.7061 98.3297 48.944C95.8314 37.4518 88.084 28.1951 77.7972 22.2866C66.1916 15.2965 51.4284 13.5245 37.9787 14.1117C37.7521 14.122 37.7263 14.1993 37.9015 14.3435L72.8675 43.7207C72.8907 43.7398 72.9185 43.7532 72.9474 43.7604C72.9767 43.7676 73.0071 43.7681 73.0355 43.7614C73.0643 43.7547 73.0906 43.7419 73.1127 43.7228C73.1344 43.7043 73.1508 43.6806 73.1611 43.6538C74.1054 41.3595 74.708 38.9575 74.9692 36.4473C74.9774 36.3623 75.0006 36.2814 75.0377 36.2088C75.0748 36.1362 75.1253 36.0738 75.1855 36.0249C76.8133 34.6599 77.4521 36.2773 77.7714 37.596C78.6229 41.0988 78.6574 44.6325 77.8745 48.1971C77.8446 48.3367 77.8513 48.4809 77.8935 48.6164C77.9363 48.7519 78.013 48.8734 78.1166 48.9698L83.3707 53.7913ZM79.7752 58.9115L74.8044 53.2504C74.7559 53.1958 74.6905 53.1561 74.6153 53.1365C74.5396 53.1165 74.4572 53.1165 74.3768 53.1371C70.0874 54.2461 65.8429 54.0952 61.6432 52.6838C58.4391 50.5615 61.2259 49.6446 63.07 49.4797C65.2438 49.284 67.3985 48.8235 69.5347 48.0992C69.5615 48.0905 69.5852 48.075 69.6048 48.0549C69.6238 48.0343 69.6378 48.0091 69.645 47.9818C69.6517 47.954 69.6522 47.9251 69.6455 47.8968C69.6388 47.869 69.6254 47.8427 69.6068 47.8211C58.8873 36.1691 47.1529 25.6503 35.3001 15.1729C35.1698 15.0561 35.1111 15.0836 35.125 15.2553C35.8528 24.8983 37.393 34.4105 39.7456 43.7929C42.2748 53.8788 47.3229 62.61 57.2904 66.8597C66.9298 70.9668 76.7963 71.487 86.889 68.4205C86.9369 68.4051 86.9807 68.3788 87.0167 68.3438C87.0528 68.3088 87.0801 68.2655 87.0961 68.2176C87.112 68.1702 87.1167 68.1192 87.1095 68.0692C87.1017 68.0193 87.0832 67.9719 87.0538 67.9312C84.76 64.8127 82.3338 61.8065 79.7752 58.9115ZM104.635 86.3157C100.009 86.7999 95.7042 85.7748 91.7208 83.2404C90.026 80.5412 92.8592 78.5065 94.7187 77.0796C94.777 77.0353 94.8192 76.9735 94.8377 76.903C94.8563 76.8329 94.8506 76.7592 94.8218 76.6933C94.403 75.7795 93.7622 75.0707 92.9004 74.5659C92.8314 74.5262 92.7536 74.5061 92.6737 74.5071C92.5939 74.5082 92.5161 74.5298 92.4471 74.571C83.2523 80.0673 73.4496 80.5103 63.1473 78.4086C62.5704 78.2917 62.0465 78.4102 61.5762 78.7641C39.0074 95.7938 26.2135 118.548 23.1949 147.027C22.944 149.39 22.6128 151.011 22.2007 151.89C20.5781 155.362 17.9201 156.212 14.3658 157.108C14.201 157.149 14.201 157.192 14.3658 157.237C19.4758 158.509 22.4531 160.621 23.2207 166.272C27.8825 200.697 50.1818 231.202 84.0301 242.483C86.0117 243.239 88.0325 243.882 90.093 244.415C141.131 257.587 189.933 225.871 201.816 175.523C202.407 173.03 203.041 169.525 203.717 165.01C204.325 160.935 206.854 158.334 210.96 157.536C211.186 157.489 212.011 157.118 211.114 156.99C206.679 156.361 204.371 153.471 203.959 149.206C203.564 145.075 203.103 141.579 202.574 138.718C196.088 103.521 171.512 75.6013 136.86 66.2983C131.307 64.8729 125.617 63.9097 119.789 63.4085C119.742 63.4038 119.694 63.4152 119.654 63.4404C119.614 63.4657 119.583 63.5033 119.568 63.5476C117.858 68.2727 115.773 72.8366 113.314 77.2393C111.038 81.319 108.817 85.7748 104.635 86.3157Z" fill="#120B1B"/>
<circle cx="77.1622" cy="150.41" r="27.8851" stroke="#120B1B" stroke-width="5.07001"/>
<path d="M80.9688 133.365C89.6021 133.365 96.6013 141.058 96.6016 150.547C96.6016 160.036 89.6023 167.729 80.9688 167.729C72.3351 167.729 65.3359 160.036 65.3359 150.547C65.336 149.101 65.4985 147.696 65.8047 146.354C66.6893 148.409 68.7318 149.847 71.1104 149.847C74.2993 149.847 76.8848 147.261 76.8848 144.072C76.8846 140.884 74.2991 138.299 71.1104 138.299C70.6905 138.299 70.2811 138.344 69.8867 138.429C72.7178 135.301 76.6377 133.365 80.9688 133.365Z" fill="#120B1B"/>
<circle cx="148.705" cy="150.41" r="27.8851" stroke="#120B1B" stroke-width="5.07001"/>
<path d="M152.508 133.369C161.141 133.369 168.141 141.062 168.141 150.551C168.14 160.04 161.141 167.732 152.508 167.732C143.874 167.732 136.875 160.04 136.875 150.551C136.875 149.104 137.038 147.699 137.345 146.356C138.23 148.41 140.271 149.848 142.649 149.848C145.838 149.848 148.424 147.262 148.424 144.073C148.424 140.884 145.838 138.3 142.649 138.3C142.23 138.3 141.822 138.345 141.428 138.43C144.259 135.304 148.178 133.369 152.508 133.369Z" fill="#120B1B"/>
<path d="M97.584 190.236C98.08 190.105 99.1272 190.129 101.055 190.492C104.531 191.148 110.191 192.818 115.445 192.818C120.652 192.818 124.876 191.756 127.226 191.383C127.649 191.316 127.988 191.274 128.26 191.253C128.073 198.879 121.157 206.519 112.907 206.519C104.549 206.518 97.5509 198.897 97.5508 190.646C97.5508 190.449 97.5684 190.318 97.584 190.236Z" stroke="#120B1B" stroke-width="5.07001"/>
</svg>
