<svg width="218" height="254" viewBox="0 0 218 254" fill="none" xmlns="http://www.w3.org/2000/svg">
<g clip-path="url(#clip0_7595_135713)">
<mask id="path-1-outside-1_7595_135713" maskUnits="userSpaceOnUse" x="-0.519531" y="-0.427734" width="218" height="254" fill="black">
<rect fill="white" x="-0.519531" y="-0.427734" width="218" height="254"/>
<path d="M12.5477 159.91C11.5725 159.554 10.3548 159.351 9.52812 158.836C2.8802 154.683 4.85032 145.51 12.31 143.822C12.3818 143.806 12.4467 143.769 12.4947 143.716C12.5432 143.662 12.5719 143.596 12.5774 143.525C14.8677 114.59 26.9686 90.8335 48.881 72.2544C48.9023 72.2361 48.9187 72.2138 48.9296 72.1881C48.9399 72.1624 48.9444 72.1346 48.9419 72.1069C48.9395 72.0792 48.9305 72.0525 48.9157 72.0292C48.9003 72.0054 48.8801 71.9861 48.8563 71.9723C46.6783 70.6506 44.2824 69.4577 42.3173 68.032C38.826 65.5075 35.5095 62.7682 32.3677 59.815C30.8134 58.3497 30.4074 56.6964 32.6746 55.7015C32.735 55.6757 32.784 55.6287 32.8112 55.5693C32.8389 55.5099 32.8429 55.4421 32.8231 55.3797C28.0562 41.0196 25.6306 26.5405 24.0961 11.2152C23.9575 9.85554 23.9095 8.74015 23.9526 7.86894C23.9555 7.79246 23.9803 7.71885 24.0234 7.65722C24.0664 7.59565 24.1263 7.54877 24.1951 7.52243C24.9376 7.22543 25.9687 6.97298 27.2889 6.76507C58.0535 1.92887 94.5255 11.2251 103.683 45.2222C103.719 45.3509 103.751 45.3509 103.777 45.2222C105.575 36.718 106.394 28.2138 106.232 19.7095C106.216 18.726 106.548 17.8813 107.227 17.175C110.9 13.3635 115.276 11.8306 120.355 12.5764C124.31 13.1556 124.454 15.0317 124.171 18.4522C123.201 30.075 121.104 41.4928 117.88 52.7067C117.872 52.7359 117.87 52.7671 117.875 52.7968C117.88 52.827 117.892 52.8557 117.91 52.8809C117.927 52.9057 117.95 52.9265 117.976 52.9418C118.003 52.9571 118.032 52.9666 118.063 52.969C166.989 57.4439 202.169 95.0494 205.456 143.639C205.462 143.72 205.486 143.797 205.525 143.863C205.564 143.93 205.617 143.984 205.679 144.02C207.664 145.169 208.961 145.193 210.367 147.51C213.05 151.921 211.134 158.326 205.818 159.405C205.63 159.442 205.46 159.537 205.33 159.677C205.201 159.816 205.118 159.993 205.095 160.182C201.857 186.787 190.429 208.557 170.811 225.493C155.659 238.571 136.007 246.536 116.038 247.902C62.9095 251.535 18.3739 213.163 12.8051 160.252C12.7976 160.175 12.7694 160.103 12.7239 160.043C12.6788 159.982 12.6174 159.936 12.5477 159.91ZM80.1159 52.5037L90.209 62.7602C90.2313 62.783 90.2585 62.8008 90.2882 62.8132C90.3179 62.8251 90.3501 62.8305 90.3818 62.83C90.414 62.829 90.4457 62.8211 90.4749 62.8078C90.5036 62.7939 90.5293 62.7746 90.5506 62.7503C94.3785 58.3512 95.6922 53.3828 94.4908 47.8457C92.0901 36.8021 84.6452 27.9069 74.7599 22.229C63.6075 15.5118 49.4206 13.809 36.496 14.3733C36.2782 14.3832 36.2535 14.4575 36.4218 14.5961L70.0227 42.8264C70.045 42.8447 70.0717 42.8576 70.0995 42.8645C70.1277 42.8714 70.1569 42.8719 70.1841 42.8655C70.2118 42.859 70.2371 42.8467 70.2583 42.8283C70.2791 42.8105 70.295 42.7878 70.3049 42.762C71.2122 40.5573 71.7914 38.249 72.0423 35.8369C72.0503 35.7552 72.0725 35.6775 72.1082 35.6077C72.1438 35.5379 72.1923 35.478 72.2502 35.431C73.8145 34.1192 74.4283 35.6735 74.7352 36.9408C75.5534 40.3068 75.5866 43.7025 74.8342 47.128C74.8055 47.2621 74.8119 47.4007 74.8525 47.5309C74.8936 47.6611 74.9673 47.7779 75.0668 47.8705L80.1159 52.5037ZM76.6607 57.4241L71.8839 51.984C71.8374 51.9315 71.7745 51.8934 71.7023 51.8746C71.6295 51.8553 71.5503 51.8553 71.4731 51.8751C67.3512 52.9408 63.2723 52.7958 59.2366 51.4395C56.1576 49.4 58.8356 48.5189 60.6077 48.3605C62.6966 48.1724 64.7673 47.7299 66.82 47.0339C66.8458 47.0255 66.8685 47.0106 66.8874 46.9913C66.9057 46.9715 66.919 46.9473 66.926 46.921C66.9324 46.8943 66.9329 46.8666 66.9265 46.8394C66.92 46.8126 66.9072 46.7874 66.8893 46.7666C56.5883 35.5696 45.3121 25.4614 33.922 15.393C33.7967 15.2808 33.7403 15.3072 33.7537 15.4722C34.4531 24.7387 35.9332 33.8796 38.1939 42.8957C40.6244 52.5879 45.4754 60.9782 55.0538 65.062C64.3168 69.0087 73.7981 69.5086 83.4968 66.5619C83.5428 66.547 83.5849 66.5218 83.6195 66.4881C83.6542 66.4545 83.6804 66.4129 83.6958 66.3668C83.7111 66.3213 83.7156 66.2723 83.7086 66.2243C83.7012 66.1763 83.6834 66.1307 83.6552 66.0916C81.4509 63.0949 79.1194 60.206 76.6607 57.4241ZM100.55 83.7584C96.1046 84.2237 91.9678 83.2386 88.1399 80.8032C86.5114 78.2093 89.2339 76.2541 91.0209 74.8829C91.0768 74.8403 91.1174 74.7809 91.1352 74.7131C91.153 74.6458 91.1476 74.575 91.1198 74.5117C90.7174 73.6335 90.1016 72.9524 89.2735 72.4673C89.2072 72.4292 89.1324 72.4099 89.0557 72.4109C88.979 72.4118 88.9042 72.4326 88.8379 72.4722C80.002 77.7539 70.5821 78.1796 60.682 76.16C60.1276 76.0477 59.6241 76.1615 59.1722 76.5016C37.4845 92.8665 25.1901 114.732 22.2894 142.1C22.0483 144.37 21.73 145.928 21.334 146.773C19.7747 150.109 17.2205 150.926 13.805 151.787C13.6466 151.827 13.6466 151.868 13.805 151.911C18.7154 153.133 21.5766 155.163 22.3141 160.593C26.7939 193.674 48.2227 222.989 80.7495 233.829C82.6538 234.555 84.5957 235.174 86.5757 235.685C135.621 248.343 182.518 217.865 193.937 169.483C194.505 167.088 195.114 163.72 195.764 159.38C196.348 155.465 198.779 152.965 202.724 152.198C202.942 152.153 203.734 151.797 202.872 151.673C198.61 151.069 196.393 148.292 195.997 144.194C195.617 140.224 195.173 136.864 194.665 134.115C188.433 100.292 164.816 73.4622 131.517 64.5224C126.181 63.1528 120.713 62.2271 115.113 61.7455C115.067 61.741 115.021 61.7519 114.983 61.7762C114.944 61.8004 114.915 61.8366 114.9 61.8791C113.256 66.4198 111.253 70.8056 108.891 75.0364C106.703 78.9568 104.569 83.2386 100.55 83.7584ZM94.4958 67.9924C94.5849 68.3751 94.8076 68.6869 95.164 68.928C95.2205 68.9651 95.2893 68.9795 95.3586 68.9686C95.4274 68.9577 95.4917 68.9221 95.5403 68.8686C96.2199 68.0895 96.6674 67.1905 96.8817 66.1708C96.9178 66.0025 96.8584 65.9545 96.7035 66.0273C95.8952 66.4 95.1987 66.9099 94.6146 67.5568C94.5611 67.6182 94.522 67.6895 94.5012 67.7652C94.4809 67.841 94.479 67.9192 94.4958 67.9924Z"/>
</mask>
<path d="M12.5477 159.91C11.5725 159.554 10.3548 159.351 9.52812 158.836C2.8802 154.683 4.85032 145.51 12.31 143.822C12.3818 143.806 12.4467 143.769 12.4947 143.716C12.5432 143.662 12.5719 143.596 12.5774 143.525C14.8677 114.59 26.9686 90.8335 48.881 72.2544C48.9023 72.2361 48.9187 72.2138 48.9296 72.1881C48.9399 72.1624 48.9444 72.1346 48.9419 72.1069C48.9395 72.0792 48.9305 72.0525 48.9157 72.0292C48.9003 72.0054 48.8801 71.9861 48.8563 71.9723C46.6783 70.6506 44.2824 69.4577 42.3173 68.032C38.826 65.5075 35.5095 62.7682 32.3677 59.815C30.8134 58.3497 30.4074 56.6964 32.6746 55.7015C32.735 55.6757 32.784 55.6287 32.8112 55.5693C32.8389 55.5099 32.8429 55.4421 32.8231 55.3797C28.0562 41.0196 25.6306 26.5405 24.0961 11.2152C23.9575 9.85554 23.9095 8.74015 23.9526 7.86894C23.9555 7.79246 23.9803 7.71885 24.0234 7.65722C24.0664 7.59565 24.1263 7.54877 24.1951 7.52243C24.9376 7.22543 25.9687 6.97298 27.2889 6.76507C58.0535 1.92887 94.5255 11.2251 103.683 45.2222C103.719 45.3509 103.751 45.3509 103.777 45.2222C105.575 36.718 106.394 28.2138 106.232 19.7095C106.216 18.726 106.548 17.8813 107.227 17.175C110.9 13.3635 115.276 11.8306 120.355 12.5764C124.31 13.1556 124.454 15.0317 124.171 18.4522C123.201 30.075 121.104 41.4928 117.88 52.7067C117.872 52.7359 117.87 52.7671 117.875 52.7968C117.88 52.827 117.892 52.8557 117.91 52.8809C117.927 52.9057 117.95 52.9265 117.976 52.9418C118.003 52.9571 118.032 52.9666 118.063 52.969C166.989 57.4439 202.169 95.0494 205.456 143.639C205.462 143.72 205.486 143.797 205.525 143.863C205.564 143.93 205.617 143.984 205.679 144.02C207.664 145.169 208.961 145.193 210.367 147.51C213.05 151.921 211.134 158.326 205.818 159.405C205.63 159.442 205.46 159.537 205.33 159.677C205.201 159.816 205.118 159.993 205.095 160.182C201.857 186.787 190.429 208.557 170.811 225.493C155.659 238.571 136.007 246.536 116.038 247.902C62.9095 251.535 18.3739 213.163 12.8051 160.252C12.7976 160.175 12.7694 160.103 12.7239 160.043C12.6788 159.982 12.6174 159.936 12.5477 159.91ZM80.1159 52.5037L90.209 62.7602C90.2313 62.783 90.2585 62.8008 90.2882 62.8132C90.3179 62.8251 90.3501 62.8305 90.3818 62.83C90.414 62.829 90.4457 62.8211 90.4749 62.8078C90.5036 62.7939 90.5293 62.7746 90.5506 62.7503C94.3785 58.3512 95.6922 53.3828 94.4908 47.8457C92.0901 36.8021 84.6452 27.9069 74.7599 22.229C63.6075 15.5118 49.4206 13.809 36.496 14.3733C36.2782 14.3832 36.2535 14.4575 36.4218 14.5961L70.0227 42.8264C70.045 42.8447 70.0717 42.8576 70.0995 42.8645C70.1277 42.8714 70.1569 42.8719 70.1841 42.8655C70.2118 42.859 70.2371 42.8467 70.2583 42.8283C70.2791 42.8105 70.295 42.7878 70.3049 42.762C71.2122 40.5573 71.7914 38.249 72.0423 35.8369C72.0503 35.7552 72.0725 35.6775 72.1082 35.6077C72.1438 35.5379 72.1923 35.478 72.2502 35.431C73.8145 34.1192 74.4283 35.6735 74.7352 36.9408C75.5534 40.3068 75.5866 43.7025 74.8342 47.128C74.8055 47.2621 74.8119 47.4007 74.8525 47.5309C74.8936 47.6611 74.9673 47.7779 75.0668 47.8705L80.1159 52.5037ZM76.6607 57.4241L71.8839 51.984C71.8374 51.9315 71.7745 51.8934 71.7023 51.8746C71.6295 51.8553 71.5503 51.8553 71.4731 51.8751C67.3512 52.9408 63.2723 52.7958 59.2366 51.4395C56.1576 49.4 58.8356 48.5189 60.6077 48.3605C62.6966 48.1724 64.7673 47.7299 66.82 47.0339C66.8458 47.0255 66.8685 47.0106 66.8874 46.9913C66.9057 46.9715 66.919 46.9473 66.926 46.921C66.9324 46.8943 66.9329 46.8666 66.9265 46.8394C66.92 46.8126 66.9072 46.7874 66.8893 46.7666C56.5883 35.5696 45.3121 25.4614 33.922 15.393C33.7967 15.2808 33.7403 15.3072 33.7537 15.4722C34.4531 24.7387 35.9332 33.8796 38.1939 42.8957C40.6244 52.5879 45.4754 60.9782 55.0538 65.062C64.3168 69.0087 73.7981 69.5086 83.4968 66.5619C83.5428 66.547 83.5849 66.5218 83.6195 66.4881C83.6542 66.4545 83.6804 66.4129 83.6958 66.3668C83.7111 66.3213 83.7156 66.2723 83.7086 66.2243C83.7012 66.1763 83.6834 66.1307 83.6552 66.0916C81.4509 63.0949 79.1194 60.206 76.6607 57.4241ZM100.55 83.7584C96.1046 84.2237 91.9678 83.2386 88.1399 80.8032C86.5114 78.2093 89.2339 76.2541 91.0209 74.8829C91.0768 74.8403 91.1174 74.7809 91.1352 74.7131C91.153 74.6458 91.1476 74.575 91.1198 74.5117C90.7174 73.6335 90.1016 72.9524 89.2735 72.4673C89.2072 72.4292 89.1324 72.4099 89.0557 72.4109C88.979 72.4118 88.9042 72.4326 88.8379 72.4722C80.002 77.7539 70.5821 78.1796 60.682 76.16C60.1276 76.0477 59.6241 76.1615 59.1722 76.5016C37.4845 92.8665 25.1901 114.732 22.2894 142.1C22.0483 144.37 21.73 145.928 21.334 146.773C19.7747 150.109 17.2205 150.926 13.805 151.787C13.6466 151.827 13.6466 151.868 13.805 151.911C18.7154 153.133 21.5766 155.163 22.3141 160.593C26.7939 193.674 48.2227 222.989 80.7495 233.829C82.6538 234.555 84.5957 235.174 86.5757 235.685C135.621 248.343 182.518 217.865 193.937 169.483C194.505 167.088 195.114 163.72 195.764 159.38C196.348 155.465 198.779 152.965 202.724 152.198C202.942 152.153 203.734 151.797 202.872 151.673C198.61 151.069 196.393 148.292 195.997 144.194C195.617 140.224 195.173 136.864 194.665 134.115C188.433 100.292 164.816 73.4622 131.517 64.5224C126.181 63.1528 120.713 62.2271 115.113 61.7455C115.067 61.741 115.021 61.7519 114.983 61.7762C114.944 61.8004 114.915 61.8366 114.9 61.8791C113.256 66.4198 111.253 70.8056 108.891 75.0364C106.703 78.9568 104.569 83.2386 100.55 83.7584ZM94.4958 67.9924C94.5849 68.3751 94.8076 68.6869 95.164 68.928C95.2205 68.9651 95.2893 68.9795 95.3586 68.9686C95.4274 68.9577 95.4917 68.9221 95.5403 68.8686C96.2199 68.0895 96.6674 67.1905 96.8817 66.1708C96.9178 66.0025 96.8584 65.9545 96.7035 66.0273C95.8952 66.4 95.1987 66.9099 94.6146 67.5568C94.5611 67.6182 94.522 67.6895 94.5012 67.7652C94.4809 67.841 94.479 67.9192 94.4958 67.9924Z" fill="#3A1451"/>
<path d="M12.5477 159.91C11.5725 159.554 10.3548 159.351 9.52812 158.836C2.8802 154.683 4.85032 145.51 12.31 143.822C12.3818 143.806 12.4467 143.769 12.4947 143.716C12.5432 143.662 12.5719 143.596 12.5774 143.525C14.8677 114.59 26.9686 90.8335 48.881 72.2544C48.9023 72.2361 48.9187 72.2138 48.9296 72.1881C48.9399 72.1624 48.9444 72.1346 48.9419 72.1069C48.9395 72.0792 48.9305 72.0525 48.9157 72.0292C48.9003 72.0054 48.8801 71.9861 48.8563 71.9723C46.6783 70.6506 44.2824 69.4577 42.3173 68.032C38.826 65.5075 35.5095 62.7682 32.3677 59.815C30.8134 58.3497 30.4074 56.6964 32.6746 55.7015C32.735 55.6757 32.784 55.6287 32.8112 55.5693C32.8389 55.5099 32.8429 55.4421 32.8231 55.3797C28.0562 41.0196 25.6306 26.5405 24.0961 11.2152C23.9575 9.85554 23.9095 8.74015 23.9526 7.86894C23.9555 7.79246 23.9803 7.71885 24.0234 7.65722C24.0664 7.59565 24.1263 7.54877 24.1951 7.52243C24.9376 7.22543 25.9687 6.97298 27.2889 6.76507C58.0535 1.92887 94.5255 11.2251 103.683 45.2222C103.719 45.3509 103.751 45.3509 103.777 45.2222C105.575 36.718 106.394 28.2138 106.232 19.7095C106.216 18.726 106.548 17.8813 107.227 17.175C110.9 13.3635 115.276 11.8306 120.355 12.5764C124.31 13.1556 124.454 15.0317 124.171 18.4522C123.201 30.075 121.104 41.4928 117.88 52.7067C117.872 52.7359 117.87 52.7671 117.875 52.7968C117.88 52.827 117.892 52.8557 117.91 52.8809C117.927 52.9057 117.95 52.9265 117.976 52.9418C118.003 52.9571 118.032 52.9666 118.063 52.969C166.989 57.4439 202.169 95.0494 205.456 143.639C205.462 143.72 205.486 143.797 205.525 143.863C205.564 143.93 205.617 143.984 205.679 144.02C207.664 145.169 208.961 145.193 210.367 147.51C213.05 151.921 211.134 158.326 205.818 159.405C205.63 159.442 205.46 159.537 205.33 159.677C205.201 159.816 205.118 159.993 205.095 160.182C201.857 186.787 190.429 208.557 170.811 225.493C155.659 238.571 136.007 246.536 116.038 247.902C62.9095 251.535 18.3739 213.163 12.8051 160.252C12.7976 160.175 12.7694 160.103 12.7239 160.043C12.6788 159.982 12.6174 159.936 12.5477 159.91ZM80.1159 52.5037L90.209 62.7602C90.2313 62.783 90.2585 62.8008 90.2882 62.8132C90.3179 62.8251 90.3501 62.8305 90.3818 62.83C90.414 62.829 90.4457 62.8211 90.4749 62.8078C90.5036 62.7939 90.5293 62.7746 90.5506 62.7503C94.3785 58.3512 95.6922 53.3828 94.4908 47.8457C92.0901 36.8021 84.6452 27.9069 74.7599 22.229C63.6075 15.5118 49.4206 13.809 36.496 14.3733C36.2782 14.3832 36.2535 14.4575 36.4218 14.5961L70.0227 42.8264C70.045 42.8447 70.0717 42.8576 70.0995 42.8645C70.1277 42.8714 70.1569 42.8719 70.1841 42.8655C70.2118 42.859 70.2371 42.8467 70.2583 42.8283C70.2791 42.8105 70.295 42.7878 70.3049 42.762C71.2122 40.5573 71.7914 38.249 72.0423 35.8369C72.0503 35.7552 72.0725 35.6775 72.1082 35.6077C72.1438 35.5379 72.1923 35.478 72.2502 35.431C73.8145 34.1192 74.4283 35.6735 74.7352 36.9408C75.5534 40.3068 75.5866 43.7025 74.8342 47.128C74.8055 47.2621 74.8119 47.4007 74.8525 47.5309C74.8936 47.6611 74.9673 47.7779 75.0668 47.8705L80.1159 52.5037ZM76.6607 57.4241L71.8839 51.984C71.8374 51.9315 71.7745 51.8934 71.7023 51.8746C71.6295 51.8553 71.5503 51.8553 71.4731 51.8751C67.3512 52.9408 63.2723 52.7958 59.2366 51.4395C56.1576 49.4 58.8356 48.5189 60.6077 48.3605C62.6966 48.1724 64.7673 47.7299 66.82 47.0339C66.8458 47.0255 66.8685 47.0106 66.8874 46.9913C66.9057 46.9715 66.919 46.9473 66.926 46.921C66.9324 46.8943 66.9329 46.8666 66.9265 46.8394C66.92 46.8126 66.9072 46.7874 66.8893 46.7666C56.5883 35.5696 45.3121 25.4614 33.922 15.393C33.7967 15.2808 33.7403 15.3072 33.7537 15.4722C34.4531 24.7387 35.9332 33.8796 38.1939 42.8957C40.6244 52.5879 45.4754 60.9782 55.0538 65.062C64.3168 69.0087 73.7981 69.5086 83.4968 66.5619C83.5428 66.547 83.5849 66.5218 83.6195 66.4881C83.6542 66.4545 83.6804 66.4129 83.6958 66.3668C83.7111 66.3213 83.7156 66.2723 83.7086 66.2243C83.7012 66.1763 83.6834 66.1307 83.6552 66.0916C81.4509 63.0949 79.1194 60.206 76.6607 57.4241ZM100.55 83.7584C96.1046 84.2237 91.9678 83.2386 88.1399 80.8032C86.5114 78.2093 89.2339 76.2541 91.0209 74.8829C91.0768 74.8403 91.1174 74.7809 91.1352 74.7131C91.153 74.6458 91.1476 74.575 91.1198 74.5117C90.7174 73.6335 90.1016 72.9524 89.2735 72.4673C89.2072 72.4292 89.1324 72.4099 89.0557 72.4109C88.979 72.4118 88.9042 72.4326 88.8379 72.4722C80.002 77.7539 70.5821 78.1796 60.682 76.16C60.1276 76.0477 59.6241 76.1615 59.1722 76.5016C37.4845 92.8665 25.1901 114.732 22.2894 142.1C22.0483 144.37 21.73 145.928 21.334 146.773C19.7747 150.109 17.2205 150.926 13.805 151.787C13.6466 151.827 13.6466 151.868 13.805 151.911C18.7154 153.133 21.5766 155.163 22.3141 160.593C26.7939 193.674 48.2227 222.989 80.7495 233.829C82.6538 234.555 84.5957 235.174 86.5757 235.685C135.621 248.343 182.518 217.865 193.937 169.483C194.505 167.088 195.114 163.72 195.764 159.38C196.348 155.465 198.779 152.965 202.724 152.198C202.942 152.153 203.734 151.797 202.872 151.673C198.61 151.069 196.393 148.292 195.997 144.194C195.617 140.224 195.173 136.864 194.665 134.115C188.433 100.292 164.816 73.4622 131.517 64.5224C126.181 63.1528 120.713 62.2271 115.113 61.7455C115.067 61.741 115.021 61.7519 114.983 61.7762C114.944 61.8004 114.915 61.8366 114.9 61.8791C113.256 66.4198 111.253 70.8056 108.891 75.0364C106.703 78.9568 104.569 83.2386 100.55 83.7584ZM94.4958 67.9924C94.5849 68.3751 94.8076 68.6869 95.164 68.928C95.2205 68.9651 95.2893 68.9795 95.3586 68.9686C95.4274 68.9577 95.4917 68.9221 95.5403 68.8686C96.2199 68.0895 96.6674 67.1905 96.8817 66.1708C96.9178 66.0025 96.8584 65.9545 96.7035 66.0273C95.8952 66.4 95.1987 66.9099 94.6146 67.5568C94.5611 67.6182 94.522 67.6895 94.5012 67.7652C94.4809 67.841 94.479 67.9192 94.4958 67.9924Z" stroke="white" stroke-width="10.8268" mask="url(#path-1-outside-1_7595_135713)"/>
<ellipse cx="108.674" cy="150.223" rx="94.5994" ry="90.9454" fill="url(#paint0_radial_7595_135713)"/>
<path d="M132.94 62.2969C173.429 72.5974 203.273 108.059 203.273 150.222C203.273 200.449 160.919 241.167 108.674 241.167C90.8675 241.167 74.2114 236.435 59.9883 228.211C67.5278 231.174 75.5652 232.775 83.9082 232.775C127.11 232.775 162.132 189.876 162.132 136.958C162.132 106.78 150.742 79.86 132.94 62.2969Z" fill="url(#paint1_linear_7595_135713)"/>
<path d="M12.5477 159.91C11.5725 159.554 10.3548 159.351 9.52812 158.836C2.8802 154.683 4.85032 145.51 12.31 143.822C12.3818 143.806 12.4467 143.769 12.4947 143.716C12.5432 143.662 12.5719 143.596 12.5774 143.525C14.8677 114.59 26.9686 90.8335 48.881 72.2544C48.9023 72.2361 48.9187 72.2138 48.9296 72.1881C48.9399 72.1624 48.9444 72.1346 48.9419 72.1069C48.9395 72.0792 48.9305 72.0525 48.9157 72.0292C48.9003 72.0054 48.8801 71.9861 48.8563 71.9723C46.6783 70.6506 44.2824 69.4577 42.3173 68.032C38.826 65.5075 35.5095 62.7682 32.3677 59.815C30.8134 58.3497 30.4074 56.6964 32.6746 55.7015C32.735 55.6757 32.784 55.6287 32.8112 55.5693C32.8389 55.5099 32.8429 55.4421 32.8231 55.3797C28.0562 41.0196 25.6306 26.5405 24.0961 11.2152C23.9575 9.85554 23.9095 8.74015 23.9526 7.86894C23.9555 7.79246 23.9803 7.71885 24.0234 7.65722C24.0664 7.59565 24.1263 7.54877 24.1951 7.52243C24.9376 7.22543 25.9687 6.97298 27.2889 6.76507C58.0535 1.92887 94.5255 11.2251 103.683 45.2222C103.719 45.3509 103.751 45.3509 103.777 45.2222C105.575 36.718 106.394 28.2138 106.232 19.7095C106.216 18.726 106.548 17.8813 107.227 17.175C110.9 13.3635 115.276 11.8306 120.355 12.5764C124.31 13.1556 124.454 15.0317 124.171 18.4522C123.201 30.075 121.104 41.4928 117.88 52.7067C117.872 52.7359 117.87 52.7671 117.875 52.7968C117.88 52.827 117.892 52.8557 117.91 52.8809C117.927 52.9057 117.95 52.9265 117.976 52.9418C118.003 52.9571 118.032 52.9666 118.063 52.969C166.989 57.4439 202.169 95.0494 205.456 143.639C205.462 143.72 205.486 143.797 205.525 143.863C205.564 143.93 205.617 143.984 205.679 144.02C207.664 145.169 208.961 145.193 210.367 147.51C213.05 151.921 211.134 158.326 205.818 159.405C205.63 159.442 205.46 159.537 205.33 159.677C205.201 159.816 205.118 159.993 205.095 160.182C201.857 186.787 190.429 208.557 170.811 225.493C155.659 238.571 136.007 246.536 116.038 247.902C62.9095 251.535 18.3739 213.163 12.8051 160.252C12.7976 160.175 12.7694 160.103 12.7239 160.043C12.6788 159.982 12.6174 159.936 12.5477 159.91ZM80.1159 52.5037L90.209 62.7602C90.2313 62.783 90.2585 62.8008 90.2882 62.8132C90.3179 62.8251 90.3501 62.8305 90.3818 62.83C90.414 62.829 90.4457 62.8211 90.4749 62.8078C90.5036 62.7939 90.5293 62.7746 90.5506 62.7503C94.3785 58.3512 95.6922 53.3828 94.4908 47.8457C92.0901 36.8021 84.6452 27.9069 74.7599 22.229C63.6075 15.5118 49.4206 13.809 36.496 14.3733C36.2782 14.3832 36.2535 14.4575 36.4218 14.5961L70.0227 42.8264C70.045 42.8447 70.0717 42.8576 70.0995 42.8645C70.1277 42.8714 70.1569 42.8719 70.1841 42.8655C70.2118 42.859 70.2371 42.8467 70.2583 42.8283C70.2791 42.8105 70.295 42.7878 70.3049 42.762C71.2122 40.5573 71.7914 38.249 72.0423 35.8369C72.0503 35.7552 72.0725 35.6775 72.1082 35.6077C72.1438 35.5379 72.1923 35.478 72.2502 35.431C73.8145 34.1192 74.4283 35.6735 74.7352 36.9408C75.5534 40.3068 75.5866 43.7025 74.8342 47.128C74.8055 47.2621 74.8119 47.4007 74.8525 47.5309C74.8936 47.6611 74.9673 47.7779 75.0668 47.8705L80.1159 52.5037ZM76.6607 57.4241L71.8839 51.984C71.8374 51.9315 71.7745 51.8934 71.7023 51.8746C71.6295 51.8553 71.5503 51.8553 71.4731 51.8751C67.3512 52.9408 63.2723 52.7958 59.2366 51.4395C56.1576 49.4 58.8356 48.5189 60.6077 48.3605C62.6966 48.1724 64.7673 47.7299 66.82 47.0339C66.8458 47.0255 66.8685 47.0106 66.8874 46.9913C66.9057 46.9715 66.919 46.9473 66.926 46.921C66.9324 46.8943 66.9329 46.8666 66.9265 46.8394C66.92 46.8126 66.9072 46.7874 66.8893 46.7666C56.5883 35.5696 45.3121 25.4614 33.922 15.393C33.7967 15.2808 33.7403 15.3072 33.7537 15.4722C34.4531 24.7387 35.9332 33.8796 38.1939 42.8957C40.6244 52.5879 45.4754 60.9782 55.0538 65.062C64.3168 69.0087 73.7981 69.5086 83.4968 66.5619C83.5428 66.547 83.5849 66.5218 83.6195 66.4881C83.6542 66.4545 83.6804 66.4129 83.6958 66.3668C83.7111 66.3213 83.7156 66.2723 83.7086 66.2243C83.7012 66.1763 83.6834 66.1307 83.6552 66.0916C81.4509 63.0949 79.1194 60.206 76.6607 57.4241ZM100.55 83.7584C96.1046 84.2237 91.9678 83.2386 88.1399 80.8032C86.5114 78.2093 89.2339 76.2541 91.0209 74.8829C91.0768 74.8403 91.1174 74.7809 91.1352 74.7131C91.153 74.6458 91.1476 74.575 91.1198 74.5117C90.7174 73.6335 90.1016 72.9524 89.2735 72.4673C89.2072 72.4292 89.1324 72.4099 89.0557 72.4109C88.979 72.4118 88.9042 72.4326 88.8379 72.4722C80.002 77.7539 70.5821 78.1796 60.682 76.16C60.1276 76.0477 59.6241 76.1615 59.1722 76.5016C37.4845 92.8665 25.1901 114.732 22.2894 142.1C22.0483 144.37 21.73 145.928 21.334 146.773C19.7747 150.109 17.2205 150.926 13.805 151.787C13.6466 151.827 13.6466 151.868 13.805 151.911C18.7154 153.133 21.5766 155.163 22.3141 160.593C26.7939 193.674 48.2227 222.989 80.7495 233.829C82.6538 234.555 84.5957 235.174 86.5757 235.685C135.621 248.343 182.518 217.865 193.937 169.483C194.505 167.088 195.114 163.72 195.764 159.38C196.348 155.465 198.779 152.965 202.724 152.198C202.942 152.153 203.734 151.797 202.872 151.673C198.61 151.069 196.393 148.292 195.997 144.194C195.617 140.224 195.173 136.864 194.665 134.115C188.433 100.292 164.816 73.4622 131.517 64.5224C126.181 63.1528 120.713 62.2271 115.113 61.7455C115.067 61.741 115.021 61.7519 114.983 61.7762C114.944 61.8004 114.915 61.8366 114.9 61.8791C113.256 66.4198 111.253 70.8056 108.891 75.0364C106.703 78.9568 104.569 83.2386 100.55 83.7584ZM94.4958 67.9924C94.5849 68.3751 94.8076 68.6869 95.164 68.928C95.2205 68.9651 95.2893 68.9795 95.3586 68.9686C95.4274 68.9577 95.4917 68.9221 95.5403 68.8686C96.2199 68.0895 96.6674 67.1905 96.8817 66.1708C96.9178 66.0025 96.8584 65.9545 96.7035 66.0273C95.8952 66.4 95.1987 66.9099 94.6146 67.5568C94.5611 67.6182 94.522 67.6895 94.5012 67.7652C94.4809 67.841 94.479 67.9192 94.4958 67.9924Z" fill="#3A1451"/>
<path d="M74.7607 22.2278C77.404 26.0327 79.4746 30.5342 80.973 35.7317C82.6694 41.6223 82.3838 47.2124 80.1167 52.5025L75.0676 47.8693C74.9681 47.7767 74.8944 47.6599 74.8533 47.5297C74.8127 47.3995 74.8062 47.2609 74.835 47.1268C75.5874 43.7013 75.5542 40.3056 74.736 36.9396C74.4291 35.6723 73.8152 34.118 72.251 35.4298C72.1931 35.4768 72.1446 35.5367 72.109 35.6065C72.0733 35.6763 72.051 35.754 72.0431 35.8357C71.7922 38.2478 71.213 40.5561 70.3057 42.7608C70.2958 42.7866 70.2799 42.8093 70.2591 42.8271C70.2378 42.8455 70.2126 42.8578 70.1849 42.8643C70.1577 42.8702 70.1285 42.8702 70.1002 42.8633C70.0725 42.8564 70.0458 42.8435 70.0235 42.8252L36.4225 14.5949C36.2542 14.4563 36.279 14.382 36.4968 14.3721C49.4214 13.8077 63.6082 15.5106 74.7607 22.2278Z" fill="url(#paint2_linear_7595_135713)"/>
<path d="M59.2348 51.4388C55.2599 53.7356 67.2984 56.2404 68.3726 56.473C71.0986 57.067 73.8607 57.3838 76.659 57.4234C79.1177 60.2054 81.4491 63.0942 83.6534 66.091C83.6816 66.1301 83.6994 66.1756 83.7069 66.2236C83.7138 66.2717 83.7093 66.3202 83.694 66.3662C83.6787 66.4122 83.6524 66.4538 83.6178 66.4875C83.5831 66.5211 83.541 66.5464 83.495 66.5612C73.7964 69.508 64.315 69.008 55.052 65.0614C45.4736 60.9776 40.6226 52.5872 38.1921 42.895C35.9314 33.879 34.4514 24.738 33.7519 15.4715C33.7386 15.3065 33.795 15.2802 33.9202 15.3923C45.3103 25.4607 56.5865 35.5689 66.8876 46.766C66.9059 46.7868 66.9183 46.812 66.9247 46.8387C66.9311 46.866 66.9311 46.8937 66.9242 46.9204C66.9173 46.9466 66.9039 46.9709 66.8856 46.9907C66.8673 47.01 66.844 47.0248 66.8183 47.0333C64.7655 47.7292 62.6949 48.1718 60.606 48.3599C58.8338 48.5183 56.1559 49.3994 59.2348 51.4388Z" fill="url(#paint3_linear_7595_135713)"/>
<path d="M74.7617 22.2285C84.647 27.9064 92.0918 36.8016 94.4926 47.8452C95.694 53.3823 94.3803 58.3507 90.5524 62.7498C90.5311 62.7741 90.5054 62.7934 90.4767 62.8072C90.4475 62.8206 90.4158 62.8285 90.3836 62.8295C90.3519 62.83 90.3197 62.8246 90.29 62.8127C90.2603 62.8003 90.2331 62.7825 90.2108 62.7597L80.1177 52.5032C82.3848 47.2131 82.6704 41.623 80.974 35.7324C79.4757 30.5349 77.405 26.0334 74.7617 22.2285Z" fill="#69A45C"/>
<path d="M59.2355 51.4395C63.2713 52.7958 67.3501 52.9408 71.472 51.8751C71.5493 51.8553 71.6285 51.8553 71.7012 51.8746C71.7735 51.8934 71.8364 51.9315 71.8829 51.984L76.6597 57.4241C73.8614 57.3845 71.0993 57.0677 68.3733 56.4737C67.2992 56.241 55.2606 53.7363 59.2355 51.4395Z" fill="#69A45C"/>
<path d="M94.6145 67.5566C95.1986 66.9096 95.895 66.3998 96.7034 66.027C96.8588 65.9543 96.9182 66.0023 96.8816 66.1706C96.6673 67.1903 96.2203 68.0892 95.5401 68.8684C95.4921 68.9218 95.4273 68.9575 95.3585 68.9684C95.2892 68.9792 95.2204 68.9649 95.1639 68.9278C94.8075 68.6867 94.5848 68.3748 94.4957 67.9922C94.4788 67.9185 94.4808 67.8407 94.5016 67.765C94.5219 67.6893 94.561 67.618 94.6145 67.5566Z" fill="#7A2293"/>
<circle cx="74.0843" cy="145.35" r="26.5257" fill="white"/>
<circle cx="74.6231" cy="145.35" r="26.7964" stroke="#3A1451" stroke-width="4.87207"/>
<ellipse cx="78.28" cy="145.484" rx="15.0222" ry="16.5109" fill="#3A1451"/>
<circle cx="68.8066" cy="139.26" r="5.54875" fill="white"/>
<circle cx="142.83" cy="145.35" r="26.5257" fill="white"/>
<circle cx="143.373" cy="145.35" r="26.7964" stroke="#3A1451" stroke-width="4.87207"/>
<ellipse cx="147.026" cy="145.484" rx="15.0222" ry="16.5109" fill="#3A1451"/>
<circle cx="137.553" cy="139.26" r="5.54875" fill="white"/>
<path d="M94.2539 183.624C94.7307 183.498 95.737 183.519 97.5889 183.868C100.93 184.498 106.368 186.104 111.417 186.104C116.421 186.104 120.479 185.083 122.737 184.725C123.145 184.66 123.47 184.62 123.731 184.6C123.552 191.928 116.906 199.27 108.979 199.27C100.947 199.27 94.2217 191.945 94.2217 184.017C94.2217 183.828 94.239 183.703 94.2539 183.624Z" fill="#FF94FB" stroke="#36124C" stroke-width="4.87207"/>
</g>
<defs>
<radialGradient id="paint0_radial_7595_135713" cx="0" cy="0" r="1" gradientUnits="userSpaceOnUse" gradientTransform="translate(40.0586 98.9306) rotate(61.0159) scale(96.0764 99.9366)">
<stop stop-color="#AC51FF"/>
<stop offset="1" stop-color="#9B36F6"/>
</radialGradient>
<linearGradient id="paint1_linear_7595_135713" x1="194.767" y1="200.392" x2="139.265" y2="73.9394" gradientUnits="userSpaceOnUse">
<stop stop-color="#6B21A8"/>
<stop offset="1" stop-color="#8636C9"/>
</linearGradient>
<linearGradient id="paint2_linear_7595_135713" x1="36.3871" y1="14.3464" x2="67.9167" y2="54.2178" gradientUnits="userSpaceOnUse">
<stop stop-color="#8FD376"/>
<stop offset="1" stop-color="#80C567"/>
</linearGradient>
<linearGradient id="paint3_linear_7595_135713" x1="33.8314" y1="15.4284" x2="58.73" y2="68.4507" gradientUnits="userSpaceOnUse">
<stop stop-color="#8FD376"/>
<stop offset="1" stop-color="#80C567"/>
</linearGradient>
<clipPath id="clip0_7595_135713">
<rect width="217.078" height="253.618" fill="white"/>
</clipPath>
</defs>
</svg>
