<svg xmlns="http://www.w3.org/2000/svg" viewBox="620 220 1267 993" fill="currentColor">
  <title>NVIDIA</title>
  <path d="M1150.59285,960.68859l.02298,228.63094h64.56792v-228.62701l-64.5909-.00393ZM642.64727,960.3779v228.94162h65.14412v-173.83838l50.466.01728c16.71779,0,28.62371,4.15985,36.67948,12.75549,10.21347,10.88373,14.38197,28.42809,14.38197,60.53646v100.52915l63.10729-.0115.0115-126.47737c0-90.27838-57.54652-102.45276-113.84284-102.45276h-115.94752M1254.55884,960.69624v228.62328h104.72914c55.79947,0,74.01116-9.28043,93.70734-30.08697,13.9236-14.60623,22.91809-46.67061,22.91809-81.71142,0-32.13508-7.6137-60.80492-20.89865-78.65801-23.92104-31.92612-58.3847-38.16689-109.8344-38.16689h-90.62153ZM1318.60869,1010.47761h27.76256c40.2765,0,66.3246,18.08698,66.3246,65.01643,0,46.94103-26.0481,65.02801-66.3246,65.02801h-27.76256v-130.04444ZM1057.49529,960.69624l-53.88823,181.19717-51.63686-181.18559-69.70166-.01159,73.74447,228.62328h93.063l74.32381-228.62328h-65.90453ZM1505.96014,1189.31952h64.57931v-228.61169l-64.59463-.01159.01532,228.62328ZM1686.96948,960.77873l-90.16335,228.46205h63.66847l14.26473-40.37996h106.70459l13.50353,40.37996h69.12643l-90.85169-228.4811-86.25271.01905ZM1728.88364,1002.45916l39.11428,107.03052h-79.46363l40.34935-107.03052Z"/>
  <path d="M1065.22873,425.14577v-54.92689c5.32957-.37764,10.71688-.6626,16.20671-.83601,150.22334-4.72073,248.78057,129.07979,248.78057,129.07979,0,0-106.44633,147.84488-220.57771,147.84488-16.43786,0-31.14868-2.64945-44.40957-7.10172v-166.55441c58.48096,7.06441,70.23929,32.89765,105.40881,91.50382l78.19751-65.93138s-57.08111-74.86559-153.30623-74.86559c-10.47061,0-20.47697.73841-30.30009,1.78751M1065.22873,243.70607v82.0431c5.39104-.42772,10.78876-.76806,16.20671-.96562,208.90854-7.0375,345.01061,171.32778,345.01061,171.32778,0,0-156.33251,190.0968-319.19248,190.0968-14.92371,0-28.89631-1.37804-42.02484-3.70247v50.71342c11.22808,1.42675,22.85778,2.26787,34.99494,2.26787,151.56388,0,261.16891-77.39426,367.30475-169.00355,17.58279,14.09032,89.62866,48.36503,104.44416,63.3874-100.92116,84.47674-336.09264,152.56464-469.4168,152.56464-12.84867,0-25.2054-.77474-37.32704-1.94089v71.27251h576.05304V243.70607h-576.05304ZM1065.22873,639.20582v43.29984c-140.18046-24.99212-179.08606-170.70641-179.08606-170.70641,0,0,67.30211-74.57022,179.08606-86.65348v47.50564c-.08739,0-.14395-.022-.21976-.022-58.65535-7.04516-104.48913,47.76369-104.48913,47.76369,0,0,25.6781,92.2603,104.70889,118.81271M816.2553,505.48484s83.0803-122.59099,248.97342-135.26596v-44.46971c-183.74262,14.74528-342.85899,170.36216-342.85899,170.36216,0,0,90.11413,260.53312,342.85899,284.38323v-47.27548c-185.46867-23.33521-248.97342-227.73423-248.97342-227.73423Z"/>
</svg>
