<svg xmlns="http://www.w3.org/2000/svg" fill="none" viewBox="11 11 170 170"><title>Sesame</title><path fill="currentColor" d="M132.046 110.448c1.658.52 3.329.963 5.023 1.239.85.137 1.7.233 2.562.269.431.018.862.024 1.299.006s.88-.042 1.311-.096a15.4 15.4 0 0 0 2.562-.509q.629-.179 1.239-.413.612-.234 1.215-.514 1.186-.567 2.257-1.311a16.21 16.21 0 0 0 2.023-1.671 16 16 0 0 0 1.712-1.975q.772-1.052 1.365-2.239a16 16 0 0 0 1.544-4.98q.358-2.62-.155-5.214a15.81 15.81 0 0 0-3.335-7.034 16.3 16.3 0 0 0-1.825-1.874 15.844 15.844 0 0 0-6.95-3.508 16.116 16.116 0 0 0-3.903-.371q-.657.019-1.305.072c-.868.078-1.724.21-2.58.377-1.706.336-3.394.82-5.052 1.365a94 94 0 0 0-4.909 1.79c-3.245 1.275-6.435 2.676-9.644 4.04-.455.192-.916.378-1.382.534q-.7.234-1.419.389-.72.153-1.467.21a10 10 0 0 1-1.49 0 8.8 8.8 0 0 1-2.88-.713 7.6 7.6 0 0 1-1.293-.718 8.4 8.4 0 0 1-1.149-.952 8 8 0 0 1-.946-1.144 8 8 0 0 1-.724-1.305 9 9 0 0 1-.479-1.412 9.586 9.586 0 0 1-.233-2.97c.035-.502.113-.987.215-1.472s.239-.958.395-1.43c.156-.474.347-.935.545-1.395 1.544-3.586 3.137-7.154 4.549-10.794.707-1.82 1.371-3.651 1.928-5.525.281-.94.533-1.885.742-2.85.21-.963.371-1.933.467-2.902s.126-1.952.06-2.934c-.03-.49-.084-.987-.162-1.472a15 15 0 0 0-.299-1.443 15.78 15.78 0 0 0-2.472-5.304 17 17 0 0 0-.91-1.155 15.96 15.96 0 0 0-4.592-3.646 15 15 0 0 0-1.34-.628 15.5 15.5 0 0 0-2.802-.862 16.6 16.6 0 0 0-2.933-.335 16 16 0 0 0-2.927.21c-.485.077-.97.185-1.449.31a16 16 0 0 0-1.407.444q-1.375.501-2.652 1.263a15.7 15.7 0 0 0-2.376 1.736 15.9 15.9 0 0 0-3.604 4.615c-.221.437-.43.88-.61 1.335s-.347.928-.491 1.395a15.8 15.8 0 0 0-.659 4.352q-.01.743.042 1.478c.066.982.204 1.946.383 2.903s.413 1.91.677 2.85c.263.94.556 1.88.868 2.813s.646 1.85.993 2.772c.689 1.838 1.431 3.651 2.191 5.46.288.682.581 1.364.85 2.058q.209.52.371 1.048c.108.353.198.724.252 1.09.054.365.06.742.012 1.113a3 3 0 0 1-.335 1.065c-.18.33-.407.629-.683.88a3.4 3.4 0 0 1-.94.599l-.053.024a3.7 3.7 0 0 1-1.12.27c-.191.011-.389.011-.58 0a3 3 0 0 1-.57-.096 3.8 3.8 0 0 1-1.059-.455 4.8 4.8 0 0 1-.892-.73c-.526-.545-.94-1.162-1.329-1.803-.389-.64-.748-1.293-1.119-1.945-1.658-2.951-3.28-5.92-4.8-8.937s-2.94-6.076-4.101-9.255a49.828 49.828 0 0 1-1.52-4.86 39.5 39.5 0 0 1-.947-4.981 32.4 32.4 0 0 1-.221-5.082q.09-2.559.593-5.029a29.8 29.8 0 0 1 2.46-7.183c.371-.754.784-1.503 1.221-2.22a29.6 29.6 0 0 1 2.987-4.095 30 30 0 0 1 3.658-3.532 29.5 29.5 0 0 1 8.83-4.933 30 30 0 0 1 4.914-1.263 30 30 0 0 1 2.544-.311q.637-.054 1.275-.072a29.167 29.167 0 0 1 6.297.455c.826.15 1.64.335 2.455.55q1.22.326 2.412.767a29.6 29.6 0 0 1 6.693 3.466 29.445 29.445 0 0 1 7.153 7.046c.491.688.958 1.394 1.389 2.119a29 29 0 0 1 2.197 4.525c.299.784.568 1.575.802 2.383a30.006 30.006 0 0 1 1.161 7.47 32 32 0 0 1-.245 5.047c-.419 3.352-1.311 6.572-2.473 9.721a70 70 0 0 1-1.927 4.663 110 110 0 0 1-2.191 4.538c-1.521 2.993-3.149 5.932-4.801 8.853-.395.695-.79 1.383-1.179 2.078s-.778 1.388-1.179 2.077q-.299.519-.605 1.03-.307.51-.605 1.029c-.095.173-.191.347-.275.527s-.162.365-.216.556a1.8 1.8 0 0 0-.065.593c.012.198.071.395.155.575.186.4.503.718.898.904.186.083.377.143.575.155s.401-.012.592-.06a3 3 0 0 0 .557-.21c.18-.083.353-.179.527-.275.347-.191.688-.395 1.036-.598.347-.204.688-.401 1.035-.599.695-.395 1.389-.778 2.083-1.167l2.083-1.167c2.772-1.55 5.556-3.077 8.381-4.508 2.826-1.437 5.699-2.783 8.668-3.927a55 55 0 0 1 4.519-1.526 41 41 0 0 1 4.616-1.054 34.6 34.6 0 0 1 4.735-.46c1.598-.043 3.19.035 4.759.233q2.351.294 4.657.975c.766.228 1.526.485 2.269.767.742.281 1.466.598 2.179.94a29 29 0 0 1 4.1 2.394 29.6 29.6 0 0 1 3.682 3.035 29.57 29.57 0 0 1 7.5 11.996 29.226 29.226 0 0 1 1.114 4.645c.245 1.569.359 3.143.353 4.73 0 .796-.042 1.592-.114 2.388a31 31 0 0 1-.305 2.37 29 29 0 0 1-1.167 4.598q-.387 1.122-.862 2.227a29.96 29.96 0 0 1-3.604 6.147 31 31 0 0 1-1.521 1.838 28 28 0 0 1-1.67 1.712 29 29 0 0 1-3.699 2.969 30 30 0 0 1-2.023 1.257 29.882 29.882 0 0 1-6.579 2.742c-1.521.431-3.071.73-4.663.916-3.185.365-6.346.221-9.482-.335a39 39 0 0 1-2.341-.491 44 44 0 0 1-2.299-.623 56 56 0 0 1-4.477-1.556c-2.939-1.156-5.795-2.52-8.614-3.975s-5.663-3.035-8.465-4.603a2471 2471 0 0 1-8.398-4.729 4255 4255 0 0 1-16.75-9.536l-8.368-4.783c-2.79-1.593-5.58-3.19-8.375-4.771q-2.093-1.186-4.196-2.365-2.099-1.177-4.226-2.31c-1.419-.754-2.843-1.485-4.31-2.15-.73-.328-1.479-.64-2.233-.927a42 42 0 0 0-2.305-.79c-1.658-.521-3.328-.964-5.022-1.24-.85-.137-1.7-.233-2.562-.269a16 16 0 0 0-1.299-.006 15.9 15.9 0 0 0-5.112 1.018q-.612.236-1.215.515a16 16 0 0 0-4.28 2.98 16 16 0 0 0-1.712 1.976 15.903 15.903 0 0 0-2.34 4.663 16 16 0 0 0-.57 2.556 15.7 15.7 0 0 0 .156 5.214q.51 2.596 1.838 4.885.663 1.142 1.496 2.149c.557.67 1.162 1.293 1.826 1.874q.997.869 2.113 1.55a15.8 15.8 0 0 0 7.423 2.311c.437.024.88.03 1.317.018q.657-.018 1.305-.072c.868-.078 1.724-.21 2.58-.377 1.706-.335 3.394-.82 5.052-1.365a94 94 0 0 0 4.909-1.79c3.244-1.275 6.435-2.676 9.643-4.041a19 19 0 0 1 1.383-.532q.7-.236 1.419-.389.72-.155 1.467-.21c.496-.036 1-.036 1.49 0s.982.114 1.467.234a9 9 0 0 1 1.412.478q.682.297 1.293.719a7.919 7.919 0 0 1 2.095 2.095c.282.413.527.85.725 1.305q.297.684.479 1.413a9.616 9.616 0 0 1 .234 2.969c-.037.503-.115.987-.216 1.472-.102.485-.24.958-.395 1.431s-.348.934-.545 1.395c-1.545 3.585-3.137 7.153-4.55 10.793-.706 1.819-1.37 3.651-1.927 5.525-.282.94-.533 1.886-.742 2.849-.21.964-.372 1.934-.467 2.904a18 18 0 0 0-.06 2.933c.03.491.084.987.161 1.472.078.485.174.964.3 1.443q.36 1.419.987 2.766c.42.898.916 1.748 1.485 2.538.287.395.587.784.91 1.155q.484.558 1.023 1.072a16 16 0 0 0 3.568 2.574q.657.35 1.341.628 1.365.566 2.802.862c.957.198 1.951.311 2.933.335s1.957-.054 2.927-.209a15.5 15.5 0 0 0 2.855-.754 15.7 15.7 0 0 0 3.885-2.078 15.959 15.959 0 0 0 4.747-5.537c.222-.437.431-.88.611-1.335s.347-.927.491-1.394q.422-1.417.575-2.88a17.4 17.4 0 0 0 .041-2.951 24 24 0 0 0-.383-2.903 33 33 0 0 0-.676-2.85 61 61 0 0 0-.868-2.813 76 76 0 0 0-.994-2.772 147 147 0 0 0-2.191-5.459c-.287-.682-.58-1.365-.85-2.059a14 14 0 0 1-.371-1.048 7.5 7.5 0 0 1-.251-1.089 4 4 0 0 1-.012-1.114c.048-.371.155-.736.335-1.065s.407-.629.682-.88c.276-.252.593-.449.94-.599l.054-.024a3.7 3.7 0 0 1 1.12-.269c.191-.012.389-.012.58 0 .192.012.383.048.569.096a3.7 3.7 0 0 1 1.059.455c.324.203.629.455.892.73.527.545.94 1.161 1.329 1.802.389.64.749 1.293 1.12 1.945 1.658 2.951 3.28 5.921 4.801 8.938 1.52 3.017 2.939 6.075 4.1 9.254.293.796.569 1.592.82 2.407.252.814.491 1.628.7 2.454a39 39 0 0 1 .946 4.98 32.3 32.3 0 0 1 .222 5.083 30.6 30.6 0 0 1-.593 5.028 29.7 29.7 0 0 1-2.46 7.183 29 29 0 0 1-1.221 2.221 29.6 29.6 0 0 1-2.987 4.095c-.563.64-1.15 1.263-1.76 1.849a29.511 29.511 0 0 1-10.727 6.615 29.7 29.7 0 0 1-4.915 1.263 30 30 0 0 1-3.82.383 29.213 29.213 0 0 1-6.297-.455 31 31 0 0 1-2.454-.551 27 27 0 0 1-2.412-.766 29.6 29.6 0 0 1-8.71-4.998 29.4 29.4 0 0 1-6.525-7.633 29 29 0 0 1-2.197-4.525c-.3-.784-.569-1.574-.802-2.382a30.073 30.073 0 0 1-1.161-7.471 32 32 0 0 1 .245-5.046c.42-3.353 1.311-6.573 2.472-9.722a70 70 0 0 1 1.928-4.663c.694-1.533 1.43-3.041 2.19-4.538 1.521-2.993 3.15-5.932 4.802-8.853.395-.694.79-1.383 1.179-2.077q.582-1.044 1.173-2.077.298-.52.605-1.03.306-.51.604-1.03c.096-.173.192-.347.276-.526s.161-.36.215-.557q.082-.296.066-.593a1.6 1.6 0 0 0-.156-.574 1.85 1.85 0 0 0-.898-.904 1.6 1.6 0 0 0-.574-.156 2 2 0 0 0-.593.06 3 3 0 0 0-.556.209c-.18.084-.36.18-.533.276-.347.191-.689.395-1.036.598-.347.204-.688.401-1.035.599-.695.395-1.39.778-2.084 1.167l-2.083 1.168c-2.771 1.55-5.555 3.076-8.38 4.507-2.826 1.437-5.7 2.784-8.668 3.927a55 55 0 0 1-4.52 1.526c-1.52.437-3.059.797-4.615 1.054a35 35 0 0 1-4.735.461 31.4 31.4 0 0 1-4.76-.234 29 29 0 0 1-4.656-.975 33 33 0 0 1-2.269-.766 29 29 0 0 1-2.179-.94 29 29 0 0 1-4.1-2.395 30 30 0 0 1-1.91-1.448 29.8 29.8 0 0 1-4.903-5.154 32 32 0 0 1-1.352-1.982 28 28 0 0 1-1.18-2.071 29.3 29.3 0 0 1-2.49-6.681 29 29 0 0 1-.461-2.34 30 30 0 0 1-.341-4.723c0-.796.042-1.593.114-2.389q.107-1.194.305-2.37a29 29 0 0 1 1.167-4.598q.387-1.122.862-2.226.476-1.105 1.042-2.155a30 30 0 0 1 2.562-3.993q.72-.942 1.52-1.838a29.326 29.326 0 0 1 5.37-4.681 30 30 0 0 1 2.023-1.257 29.85 29.85 0 0 1 6.579-2.742c1.52-.43 3.07-.73 4.663-.916 3.185-.365 6.345-.221 9.482.336.784.137 1.569.305 2.34.49q1.16.28 2.3.623c1.52.455 3.004.976 4.477 1.556 2.94 1.156 5.794 2.52 8.614 3.975 1.43.736 2.843 1.503 4.244 2.287s2.79 1.592 4.185 2.4c2.777 1.61 5.555 3.233 8.332 4.855 5.555 3.239 11.11 6.465 16.69 9.662 2.789 1.598 5.579 3.196 8.374 4.777a900 900 0 0 0 8.417 4.705c1.406.772 2.819 1.544 4.238 2.298 1.418.755 2.837 1.503 4.268 2.227a81 81 0 0 0 4.346 2.065c.736.318 1.478.623 2.239.898.76.276 1.52.539 2.292.779z"/></svg>