<?xml version="1.0" standalone="no"?>
<!DOCTYPE svg PUBLIC "-//W3C//DTD SVG 20010904//EN"
 "http://www.w3.org/TR/2001/REC-SVG-20010904/DTD/svg10.dtd">
<svg version="1.0" xmlns="http://www.w3.org/2000/svg"
 width="850.000000pt" height="850.000000pt" viewBox="0 0 850.000000 850.000000"
 preserveAspectRatio="xMidYMid meet">

<g transform="translate(0.000000,850.000000) scale(0.100000,-0.100000)"
fill="#000000" stroke="none">
<path d="M4055 6850 c-543 -55 -1010 -306 -1344 -721 -239 -296 -396 -689
-418 -1046 -6 -98 -5 -103 22 -148 31 -54 86 -84 150 -85 22 0 135 20 250 44
474 100 760 139 1215 167 206 13 581 8 795 -11 66 -5 149 -12 185 -16 178 -15
542 -75 903 -149 93 -19 190 -35 216 -35 63 0 124 39 153 98 18 38 20 54 14
125 -11 124 -60 359 -101 477 -240 690 -821 1174 -1540 1285 -125 19 -382 27
-500 15z"/>
<path d="M3869 4863 l-47 -4 -5 -337 c-6 -384 -15 -453 -73 -572 -87 -176
-285 -303 -631 -404 -145 -43 -259 -86 -328 -126 -137 -80 -249 -200 -319
-345 -55 -113 -76 -193 -83 -320 -4 -88 -8 -102 -27 -115 -45 -31 -109 -105
-132 -154 -32 -68 -33 -181 -4 -260 28 -73 99 -147 173 -182 54 -24 67 -26
156 -22 76 3 106 8 141 27 159 81 231 279 158 431 -30 61 -52 87 -120 143 -45
37 -46 39 -42 85 11 131 17 156 55 232 80 160 243 269 524 350 185 53 283 91
380 147 193 112 300 216 389 384 l46 84 0 -325 c0 -368 -5 -401 -71 -538 -46
-96 -130 -190 -254 -287 -232 -181 -358 -391 -381 -635 -7 -73 -8 -75 -55
-117 -185 -167 -143 -457 81 -562 46 -22 69 -26 145 -26 83 0 94 2 148 33 68
39 108 79 145 147 23 44 26 61 26 141 0 82 -3 97 -33 158 -24 49 -46 77 -82
104 l-49 37 2 81 c3 70 8 90 41 158 41 83 79 124 297 326 62 58 132 131 156
162 l42 57 27 -41 c41 -62 180 -203 281 -284 147 -118 216 -226 236 -366 l10
-72 -55 -51 c-66 -61 -92 -102 -113 -185 -39 -152 36 -304 186 -378 73 -35
200 -38 272 -5 103 47 175 131 198 231 28 122 -28 272 -130 347 l-47 35 -6 72
c-17 227 -122 412 -332 588 -219 183 -283 269 -344 465 -31 98 -31 101 -31
320 0 121 3 264 7 317 l6 97 28 -59 c123 -261 395 -457 764 -551 210 -54 380
-142 475 -246 84 -92 120 -181 135 -330 l6 -62 -38 -24 c-143 -92 -199 -274
-132 -427 26 -58 91 -125 154 -158 41 -21 67 -27 147 -30 87 -4 102 -2 151 21
75 34 131 87 167 159 26 54 30 71 30 148 0 77 -4 94 -30 148 -28 55 -71 103
-127 142 -18 13 -22 28 -28 108 -15 224 -89 387 -244 543 -113 113 -265 194
-466 248 -158 43 -359 132 -476 212 -73 49 -147 132 -182 202 -53 110 -59 161
-64 548 l-5 356 -45 7 c-47 6 -671 5 -754 -1z"/>
</g>
</svg> 