<svg width="69" height="156" viewBox="0 0 69 156" fill="none" xmlns="http://www.w3.org/2000/svg">
<path d="M12.329 0.249999C13.0652 0.249999 13.8317 0.722259 14.6159 1.7375C15.3964 2.74795 16.1601 4.2538 16.8939 6.21715C18.3602 10.141 19.6855 15.8334 20.8 22.8847C23.0285 36.9835 24.4081 56.4698 24.4081 78C24.4081 99.5302 23.0286 119.017 20.8 133.115C19.6855 140.167 18.3603 145.859 16.8939 149.783C16.1602 151.746 15.3964 153.252 14.6159 154.262C13.8317 155.278 13.0652 155.75 12.329 155.75C11.5928 155.75 10.8264 155.278 10.0422 154.262C9.26164 153.252 8.49791 151.746 7.7642 149.783C6.29781 145.859 4.97259 140.167 3.85802 133.115C1.62951 119.017 0.249998 99.5302 0.249997 78C0.249996 56.4698 1.62951 36.9835 3.85802 22.8847C4.97259 15.8334 6.2978 10.141 7.76419 6.21715C8.49791 4.2538 9.26164 2.74795 10.0421 1.7375C10.8264 0.722259 11.5928 0.249999 12.329 0.249999Z" stroke="#E9FA29" stroke-width="0.5"/>
<path d="M27.0068 0.249999C27.743 0.249999 28.5094 0.722259 29.2936 1.7375C30.0741 2.74795 30.8379 4.2538 31.5716 6.21715C33.038 10.141 34.3632 15.8334 35.4778 22.8847C37.7063 36.9835 39.0858 56.4698 39.0858 78C39.0858 99.5302 37.7063 119.017 35.4778 133.115C34.3632 140.167 33.038 145.859 31.5716 149.783C30.8379 151.746 30.0742 153.252 29.2936 154.262C28.5094 155.278 27.743 155.75 27.0068 155.75C26.2706 155.75 25.5041 155.278 24.7199 154.262C23.9394 153.252 23.1756 151.746 22.4419 149.783C20.9755 145.859 19.6503 140.167 18.5358 133.115C16.3072 119.017 14.9277 99.5302 14.9277 78C14.9277 56.4698 16.3072 36.9835 18.5358 22.8847C19.6503 15.8334 20.9755 10.141 22.4419 6.21715C23.1756 4.2538 23.9394 2.74795 24.7199 1.7375C25.5041 0.722259 26.2705 0.249999 27.0068 0.249999Z" stroke="#E9FA29" stroke-width="0.5"/>
<path d="M41.6837 0.249999C42.4199 0.249999 43.1864 0.722259 43.9706 1.7375C44.7511 2.74795 45.5148 4.2538 46.2485 6.21715C47.7149 10.141 49.0401 15.8334 50.1547 22.8847C52.3832 36.9835 53.7627 56.4698 53.7627 78C53.7627 99.5302 52.3832 119.017 50.1547 133.115C49.0401 140.167 47.7149 145.859 46.2485 149.783C45.5148 151.746 44.7511 153.252 43.9706 154.262C43.1864 155.278 42.4199 155.75 41.6837 155.75C40.9475 155.75 40.1811 155.278 39.3968 154.262C38.6163 153.252 37.8526 151.746 37.1189 149.783C35.6525 145.859 34.3273 140.167 33.2127 133.115C30.9842 119.017 29.6047 99.5302 29.6047 78C29.6047 56.4698 30.9842 36.9835 33.2127 22.8847C34.3273 15.8334 35.6525 10.141 37.1189 6.21715C37.8526 4.2538 38.6163 2.74795 39.3968 1.7375C40.181 0.722259 40.9475 0.249999 41.6837 0.249999Z" stroke="#E9FA29" stroke-width="0.5"/>
<path d="M56.3614 0.249999C57.0976 0.249999 57.8641 0.722259 58.6483 1.7375C59.4288 2.74795 60.1926 4.2538 60.9263 6.21715C62.3927 10.141 63.7179 15.8334 64.8324 22.8847C67.061 36.9835 68.4405 56.4698 68.4405 78C68.4405 99.5302 67.061 119.017 64.8324 133.115C63.7179 140.167 62.3927 145.859 60.9263 149.783C60.1926 151.746 59.4288 153.252 58.6483 154.262C57.8641 155.278 57.0977 155.75 56.3614 155.75C55.6252 155.75 54.8588 155.278 54.0746 154.262C53.2941 153.252 52.5303 151.746 51.7966 149.783C50.3302 145.859 49.005 140.167 47.8904 133.115C45.6619 119.017 44.2824 99.5302 44.2824 78C44.2824 56.4698 45.6619 36.9835 47.8904 22.8847C49.005 15.8334 50.3302 10.141 51.7966 6.21715C52.5303 4.2538 53.294 2.74795 54.0746 1.7375C54.8588 0.722259 55.6252 0.249999 56.3614 0.249999Z" stroke="#E9FA29" stroke-width="0.5"/>
</svg>
