<svg width="69" height="75" viewBox="0 0 69 75" fill="none" xmlns="http://www.w3.org/2000/svg">
<path d="M12.329 0.374999C13.8649 0.374999 15.3897 1.32161 16.832 3.17708C18.2705 5.02772 19.5822 7.72906 20.6907 11.1006C22.9064 17.8397 24.2831 27.1733 24.2831 37.5C24.2831 47.8267 22.9064 57.1603 20.6907 63.8994C19.5823 67.2709 18.2705 69.9723 16.832 71.8229C15.3897 73.6784 13.8649 74.625 12.329 74.625C10.7931 74.625 9.26836 73.6784 7.82609 71.8229C6.38757 69.9723 5.07581 67.2709 3.96733 63.8994C1.7517 57.1603 0.374999 47.8267 0.374998 37.5C0.374998 27.1733 1.75169 17.8397 3.96733 11.1006C5.07581 7.72906 6.38756 5.02772 7.82609 3.17708C9.26836 1.32161 10.7931 0.375 12.329 0.374999Z" stroke="#E9FA29" stroke-width="0.75"/>
<path d="M27.0068 0.374999C28.5427 0.374999 30.0674 1.32161 31.5097 3.17708C32.9482 5.02772 34.26 7.72906 35.3685 11.1006C37.5841 17.8397 38.9608 27.1733 38.9608 37.5C38.9608 47.8267 37.5841 57.1603 35.3685 63.8994C34.26 67.2709 32.9482 69.9723 31.5097 71.8229C30.0674 73.6784 28.5427 74.625 27.0068 74.625C25.4709 74.625 23.9461 73.6784 22.5038 71.8229C21.0653 69.9723 19.7535 67.2709 18.6451 63.8994C16.4294 57.1603 15.0527 47.8267 15.0527 37.5C15.0527 27.1733 16.4294 17.8397 18.6451 11.1006C19.7535 7.72906 21.0653 5.02772 22.5038 3.17708C23.9461 1.32161 25.4709 0.375 27.0068 0.374999Z" stroke="#E9FA29" stroke-width="0.75"/>
<path d="M41.6838 0.374999C43.2197 0.374999 44.7444 1.32161 46.1867 3.17708C47.6252 5.02772 48.937 7.72906 50.0455 11.1006C52.2611 17.8397 53.6378 27.1733 53.6378 37.5C53.6378 47.8267 52.2611 57.1603 50.0455 63.8994C48.937 67.2709 47.6252 69.9723 46.1867 71.8229C44.7444 73.6784 43.2197 74.625 41.6838 74.625C40.1479 74.625 38.6231 73.6784 37.1808 71.8229C35.7423 69.9723 34.4305 67.2709 33.3221 63.8994C31.1064 57.1603 29.7297 47.8267 29.7297 37.5C29.7297 27.1733 31.1064 17.8397 33.3221 11.1006C34.4305 7.72906 35.7423 5.02772 37.1808 3.17708C38.6231 1.32161 40.1479 0.375 41.6838 0.374999Z" stroke="#E9FA29" stroke-width="0.75"/>
<path d="M56.3615 0.374999C57.8974 0.374999 59.4222 1.32161 60.8644 3.17708C62.303 5.02772 63.6147 7.72906 64.7232 11.1006C66.9388 17.8397 68.3155 27.1733 68.3155 37.5C68.3155 47.8267 66.9388 57.1603 64.7232 63.8994C63.6147 67.2709 62.303 69.9723 60.8644 71.8229C59.4222 73.6784 57.8974 74.625 56.3615 74.625C54.8256 74.625 53.3008 73.6784 51.8586 71.8229C50.42 69.9723 49.1083 67.2709 47.9998 63.8994C45.7842 57.1603 44.4075 47.8267 44.4075 37.5C44.4075 27.1733 45.7842 17.8397 47.9998 11.1006C49.1083 7.72906 50.42 5.02772 51.8586 3.17708C53.3008 1.32161 54.8256 0.375 56.3615 0.374999Z" stroke="#E9FA29" stroke-width="0.75"/>
</svg>
