<svg xmlns="http://www.w3.org/2000/svg" viewBox="0 0 37.3333 20" fill="currentColor">
  <path d="M34.4049 0.483334C34.0795 0.166667 33.6514 0 33.189 0H11.8338C11.3714 0 10.9433 0.183334 10.6179 0.483334L8.20321 2.83333C7.87783 3.15 7.70657 3.56667 7.70657 4.01667V5H32.1957V12.5H37.3333V4.01667C37.3333 3.56667 37.145 3.15 36.8367 2.83333L34.422 0.483334H34.4049Z" />
  <path d="M12.844 15V7.5H7.70642V15.9833C7.70642 16.4333 7.8948 16.85 8.20306 17.1667L10.6177 19.5167C10.9431 19.8333 11.3713 20 11.8336 20H33.2061C33.6685 20 34.0966 19.8167 34.422 19.5167L36.8367 17.1667C37.1621 16.85 37.3333 16.4333 37.3333 15.9833V15H12.844Z" />
  <path d="M0 15.9833C0 16.4333 0.188379 16.85 0.496636 17.1667L2.91131 19.5167C3.2367 19.8333 3.66483 20 4.12722 20H5.13761V7.5H0V15.9833Z" />
  <path d="M2.91131 0.483334L0.496636 2.83333C0.171254 3.15 0 3.56667 0 4.01667V5H5.13761V0H4.12722C3.66483 0 3.2367 0.183334 2.91131 0.483334Z" />
</svg>
