<svg xmlns="http://www.w3.org/2000/svg" viewBox="0 0 30.28 32" fill="currentColor">
  <path fill-rule="evenodd" clip-rule="evenodd" d="M26.415 25.4391C27.9958 24.5286 28.9696 22.846 28.9696 21.0249V10.9763C28.9696 9.15531 27.9958 7.47266 26.415 6.56217L17.6922 1.53785C16.1113 0.627356 14.1639 0.627358 12.5831 1.53785L3.86019 6.56217C2.27944 7.47266 1.30566 9.15531 1.30566 10.9763V21.0249C1.30566 22.846 2.27945 24.5286 3.86019 25.4391L12.5831 30.4634C14.1639 31.3738 16.1115 31.3738 17.6922 30.4634L26.415 25.4391ZM26.415 21.0249C26.415 21.9354 25.9282 22.7767 25.1378 23.232L20.5724 25.8616C20.1701 26.0933 19.9689 26.2092 19.8038 26.192C19.6598 26.1769 19.529 26.1016 19.4438 25.9846C19.3463 25.8507 19.3463 25.6189 19.3463 25.1554V19.8962C19.3463 18.9858 19.8331 18.1445 20.6235 17.6892L23.0679 16.2812C23.4036 16.0879 23.5714 15.9911 23.6935 15.8558C23.8013 15.7362 23.8828 15.5952 23.9324 15.442C23.9886 15.2689 23.9883 15.0755 23.9875 14.6889L23.9874 14.5727C23.9863 13.9943 23.9858 13.7051 23.8637 13.5379C23.7573 13.3921 23.5939 13.2982 23.414 13.2794C23.2077 13.2579 22.9567 13.4025 22.4546 13.6917L19.3463 15.4821C17.7656 16.3925 16.7917 18.0752 16.7917 19.8962V27.6051C16.7917 27.8739 16.648 28.1219 16.4149 28.2563C15.6245 28.7116 14.6507 28.7116 13.8604 28.2563L5.13746 23.232C4.34709 22.7767 3.86019 21.9354 3.86019 21.0249V15.8454C3.86019 15.3818 3.86019 15.1501 3.95776 15.0161C4.04287 14.8992 4.17368 14.8239 4.31768 14.8088C4.48278 14.7915 4.68396 14.9073 5.08635 15.1391L9.55724 17.7142C10.3476 18.1693 10.8345 19.0108 10.8345 19.9212V22.603C10.8345 22.9897 10.8345 23.1831 10.8909 23.356C10.9409 23.5091 11.0226 23.65 11.1307 23.7695C11.2529 23.9045 11.4209 24.0009 11.7569 24.1937L11.8579 24.2515C12.3605 24.5398 12.6118 24.6841 12.8179 24.6622C12.9978 24.6431 13.161 24.5488 13.2673 24.4028C13.389 24.2355 13.389 23.9462 13.389 23.3678V19.9212C13.389 18.1002 12.4152 16.4175 10.8345 15.5071L4.30628 11.7471C4.03024 11.5881 3.86019 11.2943 3.86019 10.9763C3.86019 10.0658 4.34707 9.22447 5.13746 8.76923L13.8604 3.74492C14.6507 3.28967 15.6245 3.28967 16.4149 3.74492L20.9306 6.34595C21.3331 6.57773 21.5343 6.69361 21.6018 6.8449C21.6607 6.97686 21.6607 7.12757 21.6018 7.25953C21.5343 7.41082 21.3331 7.5267 20.9306 7.75848L16.3444 10.4002C15.5538 10.8554 14.5801 10.8554 13.7897 10.4002L11.2201 8.9201C10.9643 8.77277 10.8364 8.6991 10.7003 8.66952C10.5799 8.64335 10.4553 8.6423 10.3344 8.66646C10.1979 8.69374 10.0687 8.76526 9.8105 8.90826L9.49191 9.08471C8.97543 9.37074 8.71721 9.51376 8.62983 9.70349C8.55366 9.86893 8.55206 10.059 8.62544 10.2257C8.7096 10.4168 8.96538 10.5642 9.47695 10.8588L12.5125 12.6073C14.0932 13.5178 16.0408 13.5178 17.6216 12.6073L24.2849 8.76923C24.5488 8.61723 24.8739 8.61723 25.1378 8.76923C25.9282 9.22447 26.415 10.0658 26.415 10.9763V21.0249Z" />
</svg>
