<svg xmlns="http://www.w3.org/2000/svg" xmlns:xlink="http://www.w3.org/1999/xlink" width="219.50" zoomAndPan="magnify" viewBox="9.75 32.50 219.50 34.25" height="34.25" preserveAspectRatio="xMidYMid meet" version="1.0"><defs><clipPath id="ca7a142ac3"><path d="M 9.898438 32 L 45.148438 32 L 45.148438 67 L 9.898438 67 Z M 9.898438 32 " clip-rule="nonzero"/></clipPath></defs><g clip-path="url(#ca7a142ac3)"><path fill="#ffffff" d="M 9.933594 47.128906 C 9.933594 46.878906 9.933594 46.625 9.949219 46.351562 C 10.128906 46.347656 10.261719 46.324219 10.253906 46.105469 C 10.25 46.007812 10.316406 45.984375 10.402344 45.984375 C 10.632812 45.988281 10.859375 45.984375 11.089844 45.984375 C 11.21875 45.984375 11.300781 45.9375 11.300781 45.796875 C 11.300781 45.679688 11.363281 45.632812 11.476562 45.640625 C 11.527344 45.644531 11.578125 45.640625 11.628906 45.640625 C 11.796875 45.636719 11.992188 45.6875 12.03125 45.4375 C 12.035156 45.421875 12.054688 45.410156 12.070312 45.40625 C 12.210938 45.351562 12.339844 45.261719 12.503906 45.277344 C 12.628906 45.285156 12.71875 45.238281 12.710938 45.089844 C 12.703125 44.976562 12.761719 44.945312 12.867188 44.945312 C 13.257812 44.945312 13.644531 44.9375 14.035156 44.933594 C 14.261719 44.929688 14.296875 44.902344 14.300781 44.675781 C 14.304688 44.132812 14.300781 43.589844 14.300781 43.046875 C 14.300781 41.746094 14.304688 40.449219 14.300781 39.148438 C 14.300781 39.003906 14.347656 38.949219 14.5 38.949219 C 15.546875 38.953125 16.59375 38.949219 17.640625 38.949219 C 18.648438 38.949219 19.65625 38.949219 20.664062 38.945312 C 20.800781 38.945312 20.886719 38.976562 20.871094 39.136719 C 20.859375 39.265625 20.945312 39.300781 21.054688 39.300781 C 21.371094 39.300781 21.683594 39.296875 22 39.300781 C 22.132812 39.304688 22.203125 39.25 22.207031 39.113281 C 22.207031 39.039062 22.21875 38.96875 22.320312 38.949219 C 22.5625 38.90625 22.558594 38.902344 22.5625 38.648438 C 22.5625 38.578125 22.566406 38.511719 22.5625 38.441406 C 22.546875 38.304688 22.59375 38.234375 22.742188 38.253906 C 22.867188 38.265625 22.914062 38.199219 22.914062 38.078125 C 22.910156 37.953125 22.917969 37.824219 22.921875 37.699219 C 22.921875 37.597656 22.964844 37.535156 23.078125 37.546875 C 23.207031 37.558594 23.273438 37.492188 23.269531 37.367188 C 23.265625 37.234375 23.324219 37.179688 23.457031 37.191406 C 23.570312 37.203125 23.632812 37.148438 23.625 37.03125 C 23.609375 36.890625 23.675781 36.839844 23.8125 36.847656 C 23.933594 36.855469 23.972656 36.785156 23.972656 36.671875 C 23.96875 36.546875 23.976562 36.421875 23.972656 36.296875 C 23.96875 36.195312 24.015625 36.148438 24.113281 36.148438 C 24.246094 36.144531 24.378906 36.140625 24.507812 36.136719 C 24.617188 36.136719 24.667969 36.085938 24.667969 35.980469 C 24.667969 35.851562 24.671875 35.726562 24.671875 35.601562 C 24.671875 35.488281 24.714844 35.429688 24.835938 35.4375 C 24.941406 35.445312 25.054688 35.433594 25.160156 35.441406 C 25.328125 35.457031 25.386719 35.378906 25.378906 35.21875 C 25.375 35.121094 25.382812 35.023438 25.378906 34.925781 C 25.371094 34.800781 25.410156 34.734375 25.550781 34.742188 C 25.671875 34.75 25.792969 34.730469 25.910156 34.734375 C 26.035156 34.734375 26.089844 34.671875 26.09375 34.554688 C 26.09375 34.441406 26.101562 34.324219 26.09375 34.210938 C 26.082031 34.082031 26.125 34.019531 26.265625 34.03125 C 26.386719 34.042969 26.445312 33.980469 26.441406 33.859375 C 26.4375 33.765625 26.441406 33.675781 26.441406 33.582031 C 26.441406 33.34375 26.445312 33.34375 26.675781 33.34375 C 26.773438 33.339844 26.871094 33.339844 26.96875 33.332031 C 27.078125 33.328125 27.132812 33.273438 27.128906 33.15625 C 27.128906 33.027344 27.132812 32.894531 27.132812 32.761719 C 27.132812 32.671875 27.175781 32.625 27.265625 32.625 C 27.433594 32.628906 27.597656 32.628906 27.765625 32.625 C 27.871094 32.625 27.90625 32.679688 27.90625 32.773438 C 27.902344 32.894531 27.910156 33.015625 27.90625 33.136719 C 27.898438 33.277344 27.964844 33.332031 28.101562 33.328125 C 28.214844 33.324219 28.328125 33.332031 28.445312 33.332031 C 28.550781 33.332031 28.601562 33.375 28.597656 33.488281 C 28.589844 33.617188 28.59375 33.75 28.597656 33.882812 C 28.597656 33.96875 28.636719 34.039062 28.726562 34.027344 C 28.945312 34 28.945312 34.121094 28.945312 34.285156 C 28.941406 34.761719 28.890625 34.730469 29.382812 34.734375 C 29.65625 34.738281 29.65625 34.738281 29.660156 35.007812 C 29.660156 35.492188 29.609375 35.4375 30.089844 35.441406 C 30.347656 35.441406 30.351562 35.441406 30.351562 35.699219 C 30.355469 36.207031 30.351562 36.128906 30.789062 36.136719 C 31.058594 36.144531 31.058594 36.140625 31.0625 36.402344 C 31.0625 36.480469 31.066406 36.5625 31.0625 36.640625 C 31.054688 36.785156 31.109375 36.859375 31.261719 36.847656 C 31.367188 36.839844 31.425781 36.875 31.414062 36.992188 C 31.394531 37.140625 31.464844 37.207031 31.613281 37.195312 C 31.71875 37.183594 31.773438 37.234375 31.769531 37.34375 C 31.761719 37.488281 31.832031 37.550781 31.976562 37.542969 C 32.078125 37.539062 32.121094 37.59375 32.121094 37.691406 C 32.117188 37.800781 32.128906 37.910156 32.125 38.015625 C 32.117188 38.164062 32.164062 38.25 32.324219 38.242188 C 32.433594 38.238281 32.476562 38.296875 32.472656 38.402344 C 32.46875 38.523438 32.472656 38.644531 32.476562 38.765625 C 32.476562 38.878906 32.53125 38.949219 32.652344 38.945312 C 32.78125 38.9375 32.832031 38.996094 32.820312 39.121094 C 32.808594 39.238281 32.863281 39.300781 32.988281 39.300781 C 33.320312 39.296875 33.652344 39.300781 33.984375 39.300781 C 34.085938 39.300781 34.15625 39.257812 34.15625 39.152344 C 34.152344 38.964844 34.261719 38.949219 34.410156 38.949219 C 36.433594 38.953125 38.453125 38.953125 40.472656 38.957031 C 40.714844 38.957031 40.738281 38.976562 40.734375 39.21875 C 40.734375 39.742188 40.71875 40.261719 40.726562 40.78125 C 40.738281 42.082031 40.742188 43.378906 40.730469 44.679688 C 40.726562 44.890625 40.757812 44.929688 40.972656 44.933594 C 41.355469 44.933594 41.742188 44.933594 42.125 44.933594 C 42.238281 44.933594 42.328125 44.953125 42.320312 45.097656 C 42.316406 45.222656 42.386719 45.273438 42.503906 45.273438 C 42.617188 45.273438 42.730469 45.28125 42.847656 45.273438 C 42.976562 45.269531 43.039062 45.3125 43.023438 45.453125 C 43.007812 45.582031 43.074219 45.640625 43.207031 45.636719 C 43.324219 45.636719 43.445312 45.644531 43.566406 45.636719 C 43.679688 45.628906 43.742188 45.667969 43.734375 45.789062 C 43.726562 45.941406 43.808594 45.988281 43.949219 45.984375 C 44.164062 45.980469 44.382812 45.992188 44.601562 45.984375 C 44.730469 45.976562 44.792969 46.019531 44.789062 46.15625 C 44.785156 46.289062 44.855469 46.339844 44.984375 46.332031 C 45.023438 46.332031 45.0625 46.335938 45.101562 46.339844 C 45.101562 46.582031 45.101562 46.820312 45.085938 47.082031 C 44.820312 47.105469 44.816406 47.105469 44.773438 47.351562 C 44.753906 47.449219 44.695312 47.453125 44.625 47.453125 C 44.476562 47.445312 44.421875 47.523438 44.425781 47.664062 C 44.429688 47.894531 44.425781 48.121094 44.425781 48.351562 C 44.425781 48.453125 44.394531 48.519531 44.28125 48.511719 C 44.132812 48.5 44.070312 48.570312 44.078125 48.714844 C 44.078125 48.789062 44.058594 48.863281 43.964844 48.855469 C 43.75 48.835938 43.714844 48.960938 43.722656 49.132812 C 43.726562 49.214844 43.714844 49.292969 43.722656 49.375 C 43.734375 49.511719 43.683594 49.582031 43.539062 49.570312 C 43.414062 49.5625 43.367188 49.628906 43.371094 49.75 C 43.375 49.871094 43.363281 49.992188 43.371094 50.109375 C 43.378906 50.230469 43.328125 50.277344 43.210938 50.265625 C 43.082031 50.253906 43.015625 50.316406 43.019531 50.445312 C 43.027344 50.558594 42.988281 50.625 42.863281 50.613281 C 42.71875 50.597656 42.664062 50.671875 42.675781 50.808594 C 42.683594 50.921875 42.632812 50.976562 42.515625 50.972656 C 42.375 50.96875 42.320312 51.042969 42.320312 51.175781 C 42.320312 51.273438 42.273438 51.328125 42.175781 51.324219 C 42.023438 51.316406 41.972656 51.394531 41.96875 51.53125 C 41.96875 51.605469 41.949219 51.660156 41.855469 51.675781 C 41.613281 51.710938 41.613281 51.714844 41.613281 51.960938 C 41.609375 52.042969 41.609375 52.121094 41.613281 52.203125 C 41.621094 52.316406 41.585938 52.390625 41.453125 52.386719 C 41.324219 52.386719 41.265625 52.453125 41.265625 52.578125 C 41.265625 52.6875 41.207031 52.738281 41.101562 52.730469 C 40.960938 52.726562 40.90625 52.792969 40.910156 52.925781 C 40.914062 53.042969 40.851562 53.089844 40.734375 53.082031 C 40.628906 53.078125 40.519531 53.085938 40.410156 53.082031 C 40.273438 53.078125 40.199219 53.136719 40.207031 53.273438 C 40.214844 53.398438 40.152344 53.433594 40.039062 53.429688 C 39.949219 53.425781 39.863281 53.453125 39.867188 53.550781 C 39.882812 53.78125 39.753906 53.804688 39.578125 53.789062 C 39.503906 53.78125 39.429688 53.792969 39.355469 53.789062 C 39.21875 53.785156 39.144531 53.847656 39.148438 53.984375 C 39.152344 54.105469 39.09375 54.144531 38.980469 54.140625 C 38.882812 54.132812 38.796875 54.171875 38.804688 54.28125 C 38.816406 54.480469 38.707031 54.503906 38.546875 54.492188 C 38.472656 54.484375 38.398438 54.496094 38.324219 54.488281 C 38.179688 54.480469 38.089844 54.523438 38.101562 54.6875 C 38.109375 54.796875 38.050781 54.839844 37.945312 54.835938 C 37.824219 54.832031 37.703125 54.835938 37.582031 54.835938 C 37.460938 54.835938 37.378906 54.890625 37.390625 55.019531 C 37.40625 55.171875 37.328125 55.1875 37.207031 55.1875 C 36.878906 55.179688 36.554688 55.1875 36.226562 55.179688 C 36.078125 55.175781 35.996094 55.230469 35.996094 55.382812 C 35.996094 55.507812 35.933594 55.550781 35.8125 55.550781 C 35.472656 55.542969 35.136719 55.550781 34.796875 55.546875 C 34.667969 55.546875 34.585938 55.585938 34.589844 55.730469 C 34.589844 55.859375 34.519531 55.894531 34.402344 55.894531 C 33.332031 55.890625 32.261719 55.890625 31.191406 55.894531 C 31.050781 55.894531 30.992188 55.839844 30.992188 55.707031 C 30.988281 55.59375 30.925781 55.546875 30.8125 55.546875 C 30.613281 55.550781 30.414062 55.550781 30.210938 55.554688 C 30.121094 55.554688 30.035156 55.578125 30.035156 55.691406 C 30.035156 55.804688 30.125 55.816406 30.203125 55.820312 C 30.304688 55.824219 30.367188 55.851562 30.355469 55.96875 C 30.347656 56.117188 30.414062 56.199219 30.570312 56.1875 C 30.667969 56.179688 30.722656 56.21875 30.722656 56.324219 C 30.71875 56.449219 30.792969 56.519531 30.910156 56.519531 C 31.039062 56.523438 31.078125 56.582031 31.078125 56.703125 C 31.074219 56.828125 31.144531 56.886719 31.273438 56.882812 C 31.390625 56.878906 31.511719 56.886719 31.632812 56.890625 C 31.710938 56.890625 31.769531 56.914062 31.769531 57.003906 C 31.769531 57.207031 31.902344 57.246094 32.066406 57.246094 C 32.34375 57.246094 32.617188 57.246094 32.890625 57.246094 C 33.519531 57.246094 34.152344 57.246094 34.78125 57.246094 C 34.847656 57.246094 34.933594 57.21875 34.953125 57.335938 C 35 57.589844 35 57.589844 35.265625 57.589844 C 35.335938 57.589844 35.40625 57.59375 35.472656 57.589844 C 35.597656 57.574219 35.65625 57.625 35.65625 57.75 C 35.652344 57.875 35.707031 57.945312 35.839844 57.9375 C 35.949219 57.929688 36.003906 57.976562 35.996094 58.085938 C 35.988281 58.21875 36.039062 58.292969 36.183594 58.289062 C 36.285156 58.285156 36.34375 58.335938 36.339844 58.445312 C 36.332031 58.582031 36.402344 58.644531 36.539062 58.640625 C 36.640625 58.636719 36.703125 58.675781 36.695312 58.789062 C 36.679688 58.929688 36.757812 58.988281 36.886719 58.988281 C 37.003906 58.992188 37.054688 59.042969 37.042969 59.160156 C 37.035156 59.246094 37.054688 59.34375 37.160156 59.335938 C 37.414062 59.308594 37.398438 59.46875 37.390625 59.636719 C 37.386719 59.699219 37.390625 59.765625 37.386719 59.828125 C 37.378906 59.976562 37.4375 60.054688 37.59375 60.050781 C 37.710938 60.046875 37.746094 60.097656 37.742188 60.21875 C 37.730469 60.566406 37.742188 60.917969 37.734375 61.265625 C 37.730469 61.410156 37.792969 61.460938 37.929688 61.457031 C 38.050781 61.453125 38.167969 61.457031 38.289062 61.457031 C 38.402344 61.453125 38.457031 61.5 38.453125 61.621094 C 38.445312 61.734375 38.457031 61.847656 38.449219 61.960938 C 38.441406 62.09375 38.484375 62.171875 38.632812 62.164062 C 38.738281 62.160156 38.804688 62.199219 38.800781 62.320312 C 38.796875 62.445312 38.851562 62.519531 38.984375 62.515625 C 39.09375 62.515625 39.152344 62.5625 39.144531 62.683594 C 39.136719 62.8125 39.207031 62.878906 39.332031 62.871094 C 39.460938 62.863281 39.507812 62.914062 39.507812 63.039062 C 39.503906 63.644531 39.507812 64.253906 39.507812 64.859375 C 39.507812 64.972656 39.480469 65.046875 39.34375 65.039062 C 39.210938 65.027344 39.136719 65.09375 39.140625 65.230469 C 39.148438 65.355469 39.089844 65.390625 38.976562 65.382812 C 38.855469 65.375 38.792969 65.445312 38.800781 65.558594 C 38.804688 65.695312 38.742188 65.746094 38.617188 65.742188 C 38.488281 65.734375 38.441406 65.804688 38.449219 65.925781 C 38.457031 66.039062 38.410156 66.101562 38.289062 66.09375 C 38.160156 66.085938 38.097656 66.140625 38.101562 66.273438 C 38.109375 66.398438 38.046875 66.445312 37.925781 66.441406 C 37.316406 66.441406 36.710938 66.441406 36.105469 66.441406 C 35.984375 66.445312 35.917969 66.402344 35.925781 66.277344 C 35.9375 66.144531 35.871094 66.082031 35.742188 66.089844 C 35.628906 66.097656 35.570312 66.050781 35.578125 65.929688 C 35.585938 65.800781 35.523438 65.738281 35.394531 65.742188 C 35.285156 65.746094 35.222656 65.703125 35.230469 65.582031 C 35.242188 65.445312 35.167969 65.375 35.035156 65.382812 C 34.910156 65.394531 34.867188 65.335938 34.871094 65.226562 C 34.871094 65.097656 34.808594 65.03125 34.679688 65.039062 C 34.554688 65.046875 34.523438 64.980469 34.523438 64.871094 C 34.527344 64.257812 34.527344 63.644531 34.523438 63.03125 C 34.523438 62.90625 34.574219 62.851562 34.695312 62.859375 C 34.835938 62.863281 34.898438 62.792969 34.886719 62.660156 C 34.878906 62.554688 34.925781 62.511719 35.027344 62.515625 C 35.167969 62.523438 35.242188 62.460938 35.234375 62.3125 C 35.226562 62.214844 35.273438 62.160156 35.375 62.167969 C 35.546875 62.183594 35.582031 62.089844 35.582031 61.9375 C 35.582031 61.453125 35.585938 61.453125 36.078125 61.464844 C 36.21875 61.46875 36.277344 61.40625 36.277344 61.273438 C 36.277344 61.066406 36.277344 60.859375 36.28125 60.65625 C 36.28125 60.515625 36.21875 60.449219 36.082031 60.46875 C 35.960938 60.480469 35.910156 60.429688 35.917969 60.3125 C 35.929688 60.171875 35.859375 60.113281 35.722656 60.117188 C 35.628906 60.117188 35.570312 60.074219 35.578125 59.972656 C 35.589844 59.824219 35.523438 59.757812 35.378906 59.761719 C 35.277344 59.765625 35.214844 59.730469 35.226562 59.613281 C 35.238281 59.46875 35.167969 59.398438 35.023438 59.40625 C 34.910156 59.410156 34.867188 59.359375 34.871094 59.25 C 34.878906 59.101562 34.796875 59.054688 34.65625 59.058594 C 34.433594 59.0625 34.210938 59.058594 33.988281 59.058594 C 33.910156 59.054688 33.820312 59.058594 33.828125 58.949219 C 33.84375 58.722656 33.703125 58.710938 33.53125 58.710938 C 32.871094 58.714844 32.214844 58.710938 31.554688 58.710938 C 31.457031 58.710938 31.347656 58.71875 31.355469 58.570312 C 31.363281 58.410156 31.277344 58.359375 31.132812 58.359375 C 30.921875 58.359375 30.707031 58.351562 30.496094 58.355469 C 30.363281 58.359375 30.289062 58.316406 30.292969 58.171875 C 30.296875 58.050781 30.226562 57.992188 30.109375 57.996094 C 29.992188 58.003906 29.945312 57.953125 29.941406 57.839844 C 29.9375 57.726562 29.863281 57.660156 29.75 57.65625 C 29.640625 57.652344 29.597656 57.605469 29.601562 57.496094 C 29.601562 57.371094 29.535156 57.304688 29.410156 57.304688 C 29.292969 57.304688 29.246094 57.246094 29.242188 57.136719 C 29.238281 57.007812 29.175781 56.949219 29.046875 56.953125 C 28.941406 56.957031 28.886719 56.902344 28.890625 56.796875 C 28.894531 56.648438 28.820312 56.585938 28.679688 56.597656 C 28.570312 56.601562 28.539062 56.546875 28.539062 56.449219 C 28.542969 56.328125 28.539062 56.207031 28.535156 56.089844 C 28.53125 55.996094 28.492188 55.910156 28.386719 55.910156 C 28.277344 55.90625 28.253906 55.996094 28.25 56.089844 C 28.25 56.230469 28.25 56.375 28.25 56.519531 C 28.25 58.085938 28.25 59.652344 28.25 61.222656 C 28.25 61.433594 28.289062 61.46875 28.503906 61.464844 C 28.601562 61.464844 28.699219 61.472656 28.792969 61.464844 C 28.929688 61.449219 28.964844 61.515625 28.957031 61.636719 C 28.949219 61.75 28.957031 61.863281 28.957031 61.980469 C 28.957031 62.097656 29.011719 62.164062 29.136719 62.15625 C 29.257812 62.148438 29.320312 62.195312 29.3125 62.324219 C 29.304688 62.453125 29.363281 62.515625 29.496094 62.511719 C 29.605469 62.507812 29.671875 62.550781 29.660156 62.671875 C 29.648438 62.804688 29.714844 62.863281 29.839844 62.863281 C 29.953125 62.863281 30.003906 62.90625 30.003906 63.027344 C 30 63.640625 30 64.253906 30.003906 64.867188 C 30.003906 64.976562 29.972656 65.042969 29.847656 65.035156 C 29.707031 65.023438 29.648438 65.09375 29.660156 65.230469 C 29.667969 65.339844 29.625 65.394531 29.507812 65.378906 C 29.363281 65.363281 29.296875 65.429688 29.300781 65.578125 C 29.304688 65.6875 29.253906 65.75 29.136719 65.742188 C 29 65.734375 28.929688 65.792969 28.945312 65.933594 C 28.957031 66.054688 28.902344 66.105469 28.789062 66.09375 C 28.664062 66.085938 28.601562 66.148438 28.605469 66.265625 C 28.605469 66.398438 28.550781 66.445312 28.417969 66.445312 C 27.8125 66.4375 27.207031 66.441406 26.597656 66.441406 C 26.484375 66.445312 26.425781 66.414062 26.4375 66.289062 C 26.449219 66.152344 26.386719 66.082031 26.246094 66.089844 C 26.128906 66.097656 26.078125 66.042969 26.078125 65.929688 C 26.082031 65.800781 26.019531 65.738281 25.890625 65.738281 C 25.777344 65.742188 25.722656 65.6875 25.726562 65.570312 C 25.734375 65.445312 25.675781 65.371094 25.546875 65.382812 C 25.414062 65.394531 25.371094 65.335938 25.378906 65.214844 C 25.382812 65.089844 25.316406 65.035156 25.199219 65.039062 C 25.066406 65.042969 25.03125 64.980469 25.03125 64.859375 C 25.035156 64.253906 25.035156 63.648438 25.03125 63.039062 C 25.03125 62.921875 25.066406 62.851562 25.195312 62.859375 C 25.324219 62.863281 25.386719 62.804688 25.378906 62.671875 C 25.371094 62.5625 25.429688 62.511719 25.535156 62.515625 C 25.683594 62.523438 25.738281 62.445312 25.734375 62.304688 C 25.734375 62.230469 25.761719 62.160156 25.851562 62.167969 C 26.078125 62.1875 26.078125 62.042969 26.078125 61.882812 C 26.078125 61.472656 26.082031 61.472656 26.484375 61.46875 C 26.773438 61.46875 26.785156 61.457031 26.785156 61.171875 C 26.785156 60.039062 26.785156 58.90625 26.785156 57.773438 C 26.785156 57.21875 26.785156 56.664062 26.785156 56.105469 C 26.785156 56.003906 26.773438 55.902344 26.636719 55.902344 C 26.511719 55.902344 26.5 56 26.5 56.097656 C 26.496094 56.210938 26.492188 56.324219 26.496094 56.441406 C 26.5 56.546875 26.464844 56.605469 26.347656 56.589844 C 26.210938 56.574219 26.140625 56.632812 26.144531 56.773438 C 26.148438 56.890625 26.105469 56.960938 25.976562 56.953125 C 25.835938 56.945312 25.777344 57.019531 25.78125 57.15625 C 25.785156 57.21875 25.785156 57.296875 25.699219 57.296875 C 25.542969 57.289062 25.460938 57.363281 25.390625 57.492188 C 25.359375 57.554688 25.285156 57.601562 25.222656 57.632812 C 25.132812 57.675781 25.085938 57.734375 25.09375 57.832031 C 25.097656 57.960938 25.035156 58.003906 24.914062 57.996094 C 24.792969 57.988281 24.730469 58.050781 24.738281 58.171875 C 24.746094 58.328125 24.664062 58.359375 24.523438 58.351562 C 24.300781 58.34375 24.078125 58.351562 23.855469 58.355469 C 23.777344 58.359375 23.683594 58.375 23.691406 58.46875 C 23.710938 58.726562 23.542969 58.714844 23.367188 58.714844 C 22.726562 58.710938 22.085938 58.714844 21.445312 58.710938 C 21.320312 58.710938 21.207031 58.722656 21.214844 58.886719 C 21.21875 59.03125 21.144531 59.0625 21.023438 59.058594 C 20.796875 59.054688 20.574219 59.0625 20.351562 59.058594 C 20.214844 59.054688 20.148438 59.113281 20.148438 59.25 C 20.152344 59.339844 20.132812 59.410156 20.019531 59.402344 C 19.863281 59.394531 19.796875 59.472656 19.808594 59.621094 C 19.8125 59.730469 19.753906 59.757812 19.65625 59.75 C 19.523438 59.738281 19.449219 59.796875 19.460938 59.9375 C 19.46875 60.066406 19.410156 60.117188 19.285156 60.113281 C 19.164062 60.109375 19.105469 60.171875 19.109375 60.292969 C 19.117188 60.425781 19.050781 60.476562 18.921875 60.464844 C 18.796875 60.457031 18.742188 60.527344 18.742188 60.644531 C 18.742188 60.785156 18.742188 60.929688 18.742188 61.070312 C 18.742188 61.453125 18.742188 61.449219 19.121094 61.453125 C 19.527344 61.457031 19.449219 61.453125 19.460938 61.785156 C 19.460938 61.835938 19.460938 61.886719 19.457031 61.9375 C 19.449219 62.078125 19.507812 62.160156 19.652344 62.160156 C 19.769531 62.15625 19.824219 62.207031 19.820312 62.324219 C 19.820312 62.460938 19.894531 62.515625 20.027344 62.511719 C 20.113281 62.511719 20.167969 62.550781 20.160156 62.648438 C 20.148438 62.792969 20.214844 62.859375 20.359375 62.859375 C 20.449219 62.855469 20.515625 62.890625 20.515625 62.996094 C 20.515625 63.625 20.515625 64.257812 20.515625 64.886719 C 20.515625 64.976562 20.480469 65.042969 20.375 65.035156 C 20.226562 65.023438 20.160156 65.089844 20.160156 65.234375 C 20.160156 65.335938 20.117188 65.394531 20.003906 65.382812 C 19.867188 65.371094 19.796875 65.441406 19.804688 65.574219 C 19.808594 65.691406 19.761719 65.75 19.640625 65.738281 C 19.492188 65.71875 19.449219 65.796875 19.457031 65.929688 C 19.46875 66.046875 19.410156 66.101562 19.292969 66.09375 C 19.167969 66.085938 19.101562 66.144531 19.105469 66.273438 C 19.109375 66.398438 19.046875 66.445312 18.925781 66.441406 C 18.320312 66.441406 17.714844 66.441406 17.105469 66.441406 C 16.996094 66.441406 16.925781 66.410156 16.9375 66.289062 C 16.949219 66.136719 16.871094 66.082031 16.730469 66.089844 C 16.632812 66.09375 16.582031 66.042969 16.585938 65.945312 C 16.59375 65.808594 16.527344 65.738281 16.394531 65.738281 C 16.277344 65.738281 16.234375 65.683594 16.238281 65.570312 C 16.242188 65.441406 16.171875 65.375 16.046875 65.378906 C 15.933594 65.382812 15.886719 65.332031 15.882812 65.230469 C 15.882812 65.101562 15.8125 65.039062 15.691406 65.039062 C 15.570312 65.042969 15.53125 64.980469 15.535156 64.871094 C 15.535156 64.25 15.535156 63.632812 15.53125 63.015625 C 15.53125 62.90625 15.578125 62.851562 15.683594 62.859375 C 15.824219 62.863281 15.886719 62.800781 15.886719 62.667969 C 15.886719 62.574219 15.917969 62.507812 16.023438 62.515625 C 16.179688 62.523438 16.246094 62.441406 16.242188 62.296875 C 16.238281 62.210938 16.28125 62.160156 16.363281 62.167969 C 16.574219 62.1875 16.585938 62.0625 16.589844 61.898438 C 16.597656 61.398438 16.5 61.484375 17.050781 61.460938 C 17.253906 61.453125 17.273438 61.445312 17.289062 61.242188 C 17.316406 60.910156 17.296875 60.582031 17.289062 60.25 C 17.289062 60.128906 17.316406 60.050781 17.460938 60.058594 C 17.59375 60.0625 17.65625 59.988281 17.648438 59.851562 C 17.644531 59.742188 17.652344 59.632812 17.648438 59.527344 C 17.640625 59.40625 17.675781 59.335938 17.808594 59.347656 C 17.953125 59.359375 18.007812 59.285156 17.996094 59.152344 C 17.988281 59.039062 18.039062 58.992188 18.148438 59 C 18.289062 59.007812 18.347656 58.941406 18.339844 58.804688 C 18.332031 58.695312 18.378906 58.640625 18.492188 58.652344 C 18.628906 58.667969 18.695312 58.601562 18.695312 58.464844 C 18.695312 58.347656 18.746094 58.28125 18.871094 58.289062 C 19.003906 58.292969 19.058594 58.222656 19.050781 58.097656 C 19.042969 57.976562 19.097656 57.929688 19.210938 57.9375 C 19.3125 57.945312 19.394531 57.902344 19.390625 57.796875 C 19.382812 57.613281 19.484375 57.578125 19.636719 57.589844 C 19.71875 57.597656 19.796875 57.589844 19.878906 57.589844 C 20.003906 57.585938 20.09375 57.542969 20.089844 57.402344 C 20.089844 57.277344 20.152344 57.246094 20.261719 57.246094 C 20.457031 57.25 20.652344 57.246094 20.847656 57.246094 C 21.5625 57.246094 22.277344 57.246094 22.992188 57.246094 C 23.097656 57.246094 23.230469 57.253906 23.242188 57.125 C 23.261719 56.90625 23.398438 56.890625 23.5625 56.890625 C 23.632812 56.894531 23.699219 56.886719 23.769531 56.886719 C 23.890625 56.882812 23.964844 56.820312 23.96875 56.699219 C 23.96875 56.582031 24.023438 56.535156 24.132812 56.53125 C 24.257812 56.527344 24.320312 56.460938 24.320312 56.332031 C 24.320312 56.234375 24.363281 56.183594 24.464844 56.1875 C 24.601562 56.195312 24.667969 56.136719 24.667969 55.996094 C 24.667969 55.890625 24.707031 55.828125 24.832031 55.828125 C 24.921875 55.832031 25.011719 55.804688 25 55.683594 C 24.992188 55.570312 24.898438 55.558594 24.8125 55.554688 C 24.617188 55.550781 24.421875 55.550781 24.230469 55.550781 C 24.097656 55.546875 24.019531 55.597656 24.027344 55.738281 C 24.035156 55.851562 23.980469 55.894531 23.875 55.894531 C 22.78125 55.890625 21.6875 55.890625 20.59375 55.894531 C 20.507812 55.894531 20.449219 55.871094 20.457031 55.769531 C 20.472656 55.589844 20.378906 55.542969 20.21875 55.546875 C 19.878906 55.554688 19.542969 55.542969 19.203125 55.542969 C 19.09375 55.542969 19.027344 55.507812 19.035156 55.386719 C 19.046875 55.222656 18.964844 55.175781 18.816406 55.179688 C 18.492188 55.183594 18.164062 55.175781 17.839844 55.183594 C 17.703125 55.1875 17.628906 55.160156 17.644531 55.007812 C 17.65625 54.882812 17.59375 54.832031 17.46875 54.835938 C 17.347656 54.839844 17.230469 54.828125 17.109375 54.835938 C 16.984375 54.84375 16.925781 54.792969 16.933594 54.667969 C 16.941406 54.53125 16.871094 54.484375 16.742188 54.488281 C 16.628906 54.492188 16.515625 54.484375 16.402344 54.488281 C 16.285156 54.496094 16.226562 54.449219 16.238281 54.332031 C 16.253906 54.191406 16.1875 54.128906 16.046875 54.136719 C 15.972656 54.136719 15.882812 54.132812 15.886719 54.027344 C 15.898438 53.816406 15.773438 53.78125 15.605469 53.785156 C 15.523438 53.789062 15.445312 53.777344 15.363281 53.78125 C 15.238281 53.789062 15.164062 53.75 15.179688 53.609375 C 15.191406 53.476562 15.128906 53.417969 14.996094 53.425781 C 14.898438 53.433594 14.824219 53.40625 14.835938 53.285156 C 14.847656 53.125 14.765625 53.070312 14.617188 53.082031 C 14.550781 53.085938 14.496094 53.066406 14.476562 52.984375 C 14.414062 52.730469 14.410156 52.730469 14.148438 52.726562 C 14.085938 52.726562 14.023438 52.726562 13.960938 52.726562 C 13.835938 52.734375 13.761719 52.691406 13.769531 52.550781 C 13.777344 52.472656 13.75 52.386719 13.65625 52.394531 C 13.410156 52.410156 13.410156 52.253906 13.421875 52.085938 C 13.425781 52.023438 13.421875 51.957031 13.425781 51.894531 C 13.433594 51.75 13.367188 51.664062 13.222656 51.652344 C 13.125 51.644531 13.078125 51.601562 13.082031 51.5 C 13.082031 51.378906 13.019531 51.324219 12.898438 51.324219 C 12.8125 51.328125 12.734375 51.308594 12.726562 51.199219 C 12.71875 51.070312 12.671875 50.980469 12.542969 50.925781 C 12.464844 50.890625 12.410156 50.8125 12.375 50.734375 C 12.347656 50.679688 12.3125 50.640625 12.257812 50.613281 C 12.144531 50.558594 12.039062 50.492188 12 50.359375 C 11.988281 50.304688 11.941406 50.265625 11.886719 50.269531 C 11.6875 50.289062 11.660156 50.171875 11.667969 50.011719 C 11.675781 49.941406 11.667969 49.863281 11.667969 49.789062 C 11.667969 49.652344 11.628906 49.554688 11.464844 49.5625 C 11.34375 49.570312 11.304688 49.507812 11.308594 49.394531 C 11.3125 49.277344 11.304688 49.164062 11.304688 49.050781 C 11.308594 48.925781 11.257812 48.851562 11.125 48.859375 C 11.011719 48.867188 10.945312 48.824219 10.957031 48.703125 C 10.964844 48.5625 10.898438 48.503906 10.761719 48.515625 C 10.648438 48.523438 10.609375 48.46875 10.609375 48.359375 C 10.613281 48.125 10.605469 47.890625 10.613281 47.65625 C 10.617188 47.511719 10.5625 47.441406 10.414062 47.453125 C 10.324219 47.457031 10.261719 47.441406 10.246094 47.332031 C 10.210938 47.085938 10.179688 47.070312 9.933594 47.128906 M 27.847656 47.214844 C 27.847656 46.636719 27.847656 46.058594 27.847656 45.480469 C 27.847656 45.375 27.851562 45.28125 27.992188 45.28125 C 28.148438 45.28125 28.199219 45.191406 28.195312 45.046875 C 28.191406 44.824219 28.195312 44.601562 28.195312 44.378906 C 28.195312 44.296875 28.214844 44.230469 28.316406 44.230469 C 28.5 44.230469 28.546875 44.117188 28.539062 43.957031 C 28.535156 43.882812 28.542969 43.808594 28.535156 43.734375 C 28.527344 43.605469 28.5625 43.527344 28.710938 43.523438 C 28.839844 43.519531 28.886719 43.433594 28.886719 43.3125 C 28.886719 43.207031 28.894531 43.097656 28.894531 42.988281 C 28.894531 42.878906 28.933594 42.816406 29.058594 42.824219 C 29.195312 42.832031 29.257812 42.75 29.25 42.621094 C 29.238281 42.5 29.292969 42.472656 29.398438 42.472656 C 29.539062 42.472656 29.605469 42.398438 29.601562 42.257812 C 29.597656 42.152344 29.605469 42.050781 29.601562 41.949219 C 29.601562 41.839844 29.628906 41.773438 29.753906 41.773438 C 29.886719 41.773438 29.957031 41.699219 29.945312 41.566406 C 29.933594 41.449219 29.992188 41.398438 30.105469 41.398438 C 30.226562 41.398438 30.304688 41.351562 30.292969 41.214844 C 30.289062 41.105469 30.34375 41.058594 30.453125 41.066406 C 30.589844 41.078125 30.652344 41.003906 30.648438 40.871094 C 30.640625 40.757812 30.695312 40.703125 30.808594 40.703125 C 30.898438 40.703125 30.988281 40.679688 30.988281 40.582031 C 30.984375 40.339844 31.140625 40.34375 31.308594 40.351562 C 31.371094 40.355469 31.433594 40.355469 31.496094 40.351562 C 31.597656 40.347656 31.6875 40.320312 31.6875 40.203125 C 31.683594 40.085938 31.59375 40.066406 31.5 40.070312 C 31.386719 40.074219 31.351562 40.015625 31.355469 39.910156 C 31.359375 39.785156 31.355469 39.660156 31.351562 39.535156 C 31.351562 39.460938 31.332031 39.375 31.25 39.382812 C 30.980469 39.40625 30.996094 39.234375 31.003906 39.054688 C 31.007812 38.984375 30.996094 38.917969 30.996094 38.847656 C 30.996094 38.722656 30.941406 38.652344 30.808594 38.660156 C 30.703125 38.667969 30.644531 38.628906 30.660156 38.515625 C 30.679688 38.367188 30.617188 38.300781 30.464844 38.3125 C 30.363281 38.320312 30.300781 38.277344 30.304688 38.167969 C 30.308594 38.011719 30.234375 37.949219 30.085938 37.957031 C 29.980469 37.960938 29.945312 37.902344 29.945312 37.804688 C 29.949219 37.683594 29.941406 37.5625 29.949219 37.445312 C 29.953125 37.304688 29.894531 37.238281 29.753906 37.253906 C 29.636719 37.265625 29.582031 37.222656 29.597656 37.101562 C 29.613281 36.964844 29.550781 36.894531 29.40625 36.90625 C 29.292969 36.917969 29.234375 36.863281 29.238281 36.75 C 29.242188 36.613281 29.1875 36.542969 29.046875 36.550781 C 28.933594 36.554688 28.875 36.507812 28.882812 36.386719 C 28.894531 36.253906 28.824219 36.199219 28.699219 36.203125 C 28.574219 36.207031 28.523438 36.144531 28.535156 36.023438 C 28.550781 35.902344 28.488281 35.835938 28.367188 35.847656 C 28.230469 35.855469 28.179688 35.792969 28.191406 35.664062 C 28.199219 35.5625 28.15625 35.488281 28.042969 35.5 C 27.84375 35.527344 27.84375 35.410156 27.84375 35.261719 C 27.839844 34.757812 27.929688 34.800781 27.355469 34.800781 C 27.238281 34.800781 27.1875 34.855469 27.1875 34.96875 C 27.1875 35.09375 27.183594 35.21875 27.1875 35.34375 C 27.191406 35.453125 27.148438 35.507812 27.035156 35.496094 C 26.882812 35.480469 26.828125 35.558594 26.839844 35.699219 C 26.847656 35.800781 26.792969 35.851562 26.695312 35.84375 C 26.546875 35.832031 26.484375 35.898438 26.496094 36.046875 C 26.507812 36.15625 26.453125 36.199219 26.34375 36.191406 C 26.210938 36.183594 26.140625 36.246094 26.144531 36.386719 C 26.148438 36.5 26.097656 36.554688 25.980469 36.546875 C 25.859375 36.539062 25.792969 36.597656 25.796875 36.71875 C 25.800781 36.855469 25.742188 36.921875 25.601562 36.90625 C 25.484375 36.894531 25.425781 36.953125 25.4375 37.070312 C 25.449219 37.214844 25.382812 37.261719 25.242188 37.253906 C 25.136719 37.246094 25.089844 37.308594 25.089844 37.414062 C 25.089844 37.53125 25.085938 37.652344 25.089844 37.773438 C 25.09375 37.890625 25.058594 37.960938 24.929688 37.957031 C 24.804688 37.953125 24.734375 38.007812 24.738281 38.140625 C 24.746094 38.253906 24.691406 38.3125 24.574219 38.308594 C 24.445312 38.300781 24.382812 38.363281 24.386719 38.492188 C 24.390625 38.613281 24.339844 38.671875 24.214844 38.660156 C 24.085938 38.652344 24.027344 38.722656 24.027344 38.847656 C 24.027344 38.976562 24.023438 39.101562 24.023438 39.226562 C 24.023438 39.296875 24 39.359375 23.921875 39.355469 C 23.683594 39.34375 23.667969 39.492188 23.679688 39.667969 C 23.6875 39.738281 23.679688 39.804688 23.683594 39.875 C 23.691406 40.007812 23.648438 40.082031 23.5 40.070312 C 23.410156 40.066406 23.335938 40.097656 23.339844 40.203125 C 23.339844 40.308594 23.410156 40.34375 23.496094 40.347656 C 23.621094 40.351562 23.75 40.355469 23.875 40.351562 C 23.980469 40.351562 24.039062 40.390625 24.027344 40.503906 C 24.011719 40.652344 24.085938 40.710938 24.230469 40.707031 C 24.332031 40.703125 24.394531 40.746094 24.390625 40.855469 C 24.386719 40.992188 24.453125 41.058594 24.585938 41.058594 C 24.695312 41.054688 24.746094 41.105469 24.742188 41.214844 C 24.734375 41.335938 24.796875 41.398438 24.914062 41.398438 C 25.046875 41.394531 25.101562 41.457031 25.09375 41.585938 C 25.085938 41.675781 25.109375 41.761719 25.214844 41.753906 C 25.421875 41.738281 25.453125 41.851562 25.4375 42.015625 C 25.429688 42.089844 25.4375 42.164062 25.4375 42.242188 C 25.4375 42.382812 25.488281 42.472656 25.648438 42.464844 C 25.753906 42.460938 25.804688 42.511719 25.792969 42.625 C 25.773438 42.773438 25.847656 42.835938 25.992188 42.824219 C 26.097656 42.816406 26.140625 42.863281 26.136719 42.964844 C 26.136719 43.097656 26.140625 43.226562 26.144531 43.359375 C 26.148438 43.4375 26.171875 43.523438 26.265625 43.515625 C 26.5 43.496094 26.507812 43.636719 26.496094 43.804688 C 26.492188 43.886719 26.5 43.96875 26.496094 44.046875 C 26.488281 44.179688 26.550781 44.242188 26.679688 44.226562 C 26.816406 44.214844 26.847656 44.277344 26.84375 44.398438 C 26.839844 44.617188 26.839844 44.832031 26.847656 45.050781 C 26.847656 45.148438 26.863281 45.261719 26.992188 45.265625 C 27.179688 45.273438 27.195312 45.375 27.191406 45.523438 C 27.1875 46.15625 27.1875 46.785156 27.191406 47.414062 C 27.191406 47.679688 27.246094 47.734375 27.476562 47.738281 C 27.808594 47.746094 27.847656 47.707031 27.847656 47.367188 C 27.847656 47.328125 27.847656 47.289062 27.847656 47.214844 M 18.074219 47.089844 C 18.015625 47.074219 17.996094 47.027344 17.996094 46.972656 C 18.007812 46.789062 17.898438 46.753906 17.746094 46.757812 C 17.53125 46.761719 17.3125 46.753906 17.09375 46.757812 C 16.980469 46.757812 16.917969 46.714844 16.929688 46.59375 C 16.945312 46.4375 16.855469 46.394531 16.722656 46.390625 C 16.527344 46.390625 16.332031 46.390625 16.136719 46.390625 C 16.003906 46.390625 15.929688 46.460938 15.929688 46.589844 C 15.929688 46.910156 15.933594 47.230469 15.941406 47.550781 C 15.941406 47.671875 16 47.746094 16.128906 47.738281 C 16.273438 47.730469 16.300781 47.8125 16.296875 47.933594 C 16.292969 48.15625 16.300781 48.378906 16.296875 48.601562 C 16.292969 48.742188 16.34375 48.808594 16.484375 48.800781 C 16.601562 48.792969 16.648438 48.847656 16.644531 48.964844 C 16.640625 49.082031 16.644531 49.203125 16.648438 49.324219 C 16.652344 49.402344 16.667969 49.492188 16.761719 49.488281 C 17.011719 49.472656 17 49.628906 16.988281 49.796875 C 16.984375 49.859375 16.992188 49.921875 16.988281 49.988281 C 16.980469 50.128906 17.046875 50.203125 17.191406 50.203125 C 17.308594 50.199219 17.359375 50.253906 17.355469 50.367188 C 17.351562 50.496094 17.414062 50.5625 17.542969 50.558594 C 17.652344 50.554688 17.714844 50.597656 17.710938 50.71875 C 17.703125 50.828125 17.761719 50.890625 17.871094 50.902344 C 17.976562 50.914062 18.042969 50.964844 18.050781 51.074219 C 18.058594 51.207031 18.136719 51.269531 18.265625 51.265625 C 18.378906 51.261719 18.417969 51.316406 18.414062 51.421875 C 18.410156 51.558594 18.472656 51.625 18.609375 51.617188 C 18.726562 51.605469 18.761719 51.675781 18.757812 51.777344 C 18.753906 51.902344 18.808594 51.972656 18.941406 51.960938 C 19.070312 51.953125 19.113281 52.027344 19.109375 52.140625 C 19.105469 52.265625 19.167969 52.316406 19.289062 52.3125 C 19.402344 52.308594 19.519531 52.316406 19.632812 52.3125 C 19.742188 52.308594 19.808594 52.34375 19.804688 52.46875 C 19.800781 52.605469 19.878906 52.660156 20.011719 52.660156 C 20.136719 52.65625 20.261719 52.660156 20.386719 52.664062 C 20.476562 52.664062 20.53125 52.707031 20.523438 52.800781 C 20.507812 52.980469 20.605469 53.027344 20.765625 53.023438 C 21.09375 53.019531 21.417969 53.023438 21.746094 53.019531 C 21.855469 53.019531 21.925781 53.054688 21.917969 53.171875 C 21.914062 53.34375 22.015625 53.367188 22.152344 53.367188 C 23.113281 53.367188 24.078125 53.367188 25.039062 53.367188 C 25.105469 53.367188 25.175781 53.363281 25.238281 53.332031 C 25.289062 53.308594 25.328125 53.273438 25.328125 53.214844 C 25.328125 53.148438 25.277344 53.101562 25.222656 53.101562 C 25.03125 53.097656 25.023438 52.976562 25.03125 52.832031 C 25.035156 52.75 25.03125 52.664062 25.023438 52.578125 C 25.015625 52.496094 24.980469 52.414062 24.898438 52.410156 C 24.65625 52.410156 24.667969 52.257812 24.675781 52.089844 C 24.679688 52.019531 24.671875 51.953125 24.671875 51.882812 C 24.667969 51.753906 24.613281 51.671875 24.476562 51.675781 C 24.367188 51.679688 24.316406 51.628906 24.320312 51.523438 C 24.324219 51.402344 24.253906 51.339844 24.144531 51.335938 C 24.011719 51.335938 23.957031 51.273438 23.953125 51.148438 C 23.949219 51.023438 23.875 50.957031 23.753906 50.964844 C 23.644531 50.96875 23.613281 50.921875 23.617188 50.820312 C 23.621094 50.6875 23.550781 50.621094 23.417969 50.621094 C 23.3125 50.625 23.257812 50.574219 23.257812 50.46875 C 23.25 50.335938 23.179688 50.265625 23.050781 50.265625 C 22.957031 50.265625 22.910156 50.222656 22.914062 50.128906 C 22.917969 49.984375 22.839844 49.921875 22.703125 49.921875 C 22.613281 49.921875 22.558594 49.882812 22.566406 49.789062 C 22.574219 49.636719 22.507812 49.5625 22.355469 49.566406 C 22.257812 49.570312 22.210938 49.523438 22.214844 49.421875 C 22.214844 49.273438 22.140625 49.199219 21.988281 49.203125 C 21.9375 49.203125 21.867188 49.199219 21.875 49.132812 C 21.902344 48.945312 21.792969 48.867188 21.644531 48.808594 C 21.601562 48.792969 21.546875 48.742188 21.539062 48.703125 C 21.503906 48.507812 21.367188 48.503906 21.21875 48.511719 C 21.144531 48.515625 21.066406 48.507812 20.992188 48.511719 C 20.867188 48.519531 20.796875 48.480469 20.808594 48.339844 C 20.816406 48.207031 20.734375 48.160156 20.613281 48.160156 C 20.496094 48.160156 20.382812 48.15625 20.269531 48.15625 C 20.15625 48.15625 20.097656 48.109375 20.101562 47.992188 C 20.105469 47.855469 20.042969 47.785156 19.90625 47.796875 C 19.796875 47.804688 19.742188 47.761719 19.746094 47.648438 C 19.753906 47.5 19.667969 47.449219 19.53125 47.453125 C 19.3125 47.453125 19.09375 47.445312 18.878906 47.453125 C 18.757812 47.457031 18.695312 47.414062 18.695312 47.289062 C 18.695312 47.148438 18.609375 47.101562 18.484375 47.105469 C 18.359375 47.105469 18.230469 47.101562 18.074219 47.089844 M 39.09375 46.839844 C 39.09375 46.769531 39.085938 46.699219 39.089844 46.632812 C 39.105469 46.464844 39.027344 46.390625 38.859375 46.394531 C 38.671875 46.398438 38.484375 46.390625 38.292969 46.394531 C 38.175781 46.398438 38.097656 46.449219 38.105469 46.582031 C 38.113281 46.71875 38.042969 46.761719 37.914062 46.761719 C 37.6875 46.757812 37.457031 46.761719 37.226562 46.761719 C 37.132812 46.761719 37.042969 46.78125 37.050781 46.894531 C 37.0625 47.101562 36.945312 47.117188 36.792969 47.105469 C 36.71875 47.101562 36.640625 47.109375 36.566406 47.105469 C 36.421875 47.097656 36.332031 47.144531 36.34375 47.304688 C 36.351562 47.417969 36.292969 47.453125 36.1875 47.453125 C 35.957031 47.453125 35.730469 47.460938 35.5 47.464844 C 35.378906 47.464844 35.28125 47.503906 35.292969 47.648438 C 35.300781 47.777344 35.234375 47.808594 35.121094 47.796875 C 35.035156 47.792969 34.945312 47.828125 34.949219 47.925781 C 34.957031 48.164062 34.8125 48.175781 34.636719 48.164062 C 34.574219 48.160156 34.511719 48.167969 34.445312 48.164062 C 34.308594 48.15625 34.226562 48.214844 34.230469 48.359375 C 34.234375 48.484375 34.164062 48.515625 34.054688 48.515625 C 33.945312 48.511719 33.839844 48.515625 33.730469 48.515625 C 33.605469 48.511719 33.53125 48.570312 33.53125 48.695312 C 33.53125 48.820312 33.476562 48.871094 33.355469 48.867188 C 33.234375 48.867188 33.171875 48.941406 33.175781 49.054688 C 33.179688 49.183594 33.117188 49.222656 33 49.226562 C 32.875 49.226562 32.8125 49.292969 32.816406 49.421875 C 32.824219 49.523438 32.773438 49.570312 32.675781 49.570312 C 32.542969 49.570312 32.46875 49.621094 32.472656 49.761719 C 32.476562 49.871094 32.425781 49.921875 32.320312 49.921875 C 32.183594 49.917969 32.125 49.992188 32.117188 50.125 C 32.117188 50.203125 32.089844 50.265625 31.988281 50.269531 C 31.855469 50.269531 31.792969 50.351562 31.777344 50.472656 C 31.761719 50.5625 31.726562 50.621094 31.621094 50.613281 C 31.476562 50.601562 31.410156 50.683594 31.414062 50.820312 C 31.417969 50.921875 31.375 50.972656 31.273438 50.972656 C 31.148438 50.972656 31.078125 51.039062 31.074219 51.160156 C 31.066406 51.273438 31.019531 51.324219 30.90625 51.328125 C 30.792969 51.335938 30.726562 51.394531 30.722656 51.511719 C 30.71875 51.625 30.675781 51.679688 30.554688 51.679688 C 30.414062 51.675781 30.351562 51.757812 30.351562 51.894531 C 30.351562 52 30.34375 52.101562 30.351562 52.207031 C 30.355469 52.320312 30.320312 52.394531 30.191406 52.390625 C 30.046875 52.386719 30 52.472656 30.003906 52.601562 C 30.007812 52.671875 30 52.738281 30.003906 52.808594 C 30.023438 52.976562 30.007812 53.121094 29.78125 53.113281 C 29.71875 53.113281 29.675781 53.160156 29.671875 53.226562 C 29.671875 53.296875 29.714844 53.332031 29.777344 53.34375 C 29.839844 53.355469 29.902344 53.363281 29.964844 53.363281 C 30.273438 53.367188 30.582031 53.367188 30.890625 53.367188 C 31.542969 53.367188 32.195312 53.371094 32.847656 53.367188 C 32.957031 53.367188 33.09375 53.375 33.105469 53.230469 C 33.125 53.035156 33.246094 53.023438 33.390625 53.023438 C 33.695312 53.019531 33.996094 53.015625 34.300781 53.007812 C 34.433594 53.007812 34.519531 52.953125 34.515625 52.804688 C 34.511719 52.699219 34.570312 52.667969 34.667969 52.667969 C 34.800781 52.667969 34.929688 52.65625 35.0625 52.652344 C 35.148438 52.652344 35.21875 52.617188 35.21875 52.527344 C 35.207031 52.304688 35.347656 52.300781 35.507812 52.3125 C 35.578125 52.316406 35.644531 52.3125 35.714844 52.3125 C 35.847656 52.316406 35.925781 52.261719 35.921875 52.121094 C 35.921875 52.007812 35.980469 51.960938 36.09375 51.957031 C 36.203125 51.949219 36.277344 51.886719 36.277344 51.769531 C 36.277344 51.652344 36.328125 51.605469 36.445312 51.609375 C 36.574219 51.613281 36.636719 51.542969 36.628906 51.417969 C 36.625 51.296875 36.6875 51.257812 36.796875 51.257812 C 36.921875 51.261719 36.992188 51.203125 36.984375 51.070312 C 36.980469 50.96875 37.035156 50.921875 37.128906 50.914062 C 37.265625 50.90625 37.335938 50.839844 37.332031 50.695312 C 37.324219 50.597656 37.375 50.546875 37.476562 50.550781 C 37.609375 50.554688 37.679688 50.488281 37.679688 50.355469 C 37.679688 50.230469 37.75 50.199219 37.859375 50.207031 C 37.992188 50.21875 38.046875 50.152344 38.046875 50.023438 C 38.042969 49.910156 38.050781 49.792969 38.046875 49.679688 C 38.039062 49.5625 38.074219 49.492188 38.207031 49.496094 C 38.324219 49.5 38.367188 49.429688 38.375 49.324219 C 38.378906 49.199219 38.390625 49.074219 38.394531 48.945312 C 38.394531 48.847656 38.429688 48.796875 38.535156 48.800781 C 38.691406 48.804688 38.738281 48.710938 38.738281 48.566406 C 38.734375 48.351562 38.742188 48.132812 38.734375 47.914062 C 38.734375 47.804688 38.761719 47.738281 38.886719 47.738281 C 39.046875 47.742188 39.09375 47.648438 39.09375 47.507812 C 39.089844 47.296875 39.09375 47.085938 39.09375 46.839844 M 21.152344 42 C 21.144531 41.863281 21.148438 41.746094 21.34375 41.757812 C 21.445312 41.765625 21.5 41.695312 21.503906 41.59375 C 21.503906 41.457031 21.507812 41.320312 21.503906 41.183594 C 21.496094 40.777344 21.570312 40.769531 21.078125 40.769531 C 20.882812 40.769531 20.691406 40.78125 20.507812 40.707031 C 20.546875 40.515625 20.460938 40.414062 20.265625 40.410156 C 18.898438 40.410156 17.53125 40.410156 16.164062 40.414062 C 15.980469 40.414062 15.925781 40.464844 15.929688 40.648438 C 15.929688 40.867188 15.941406 41.082031 15.941406 41.300781 C 15.9375 42.421875 15.933594 43.542969 15.929688 44.664062 C 15.929688 44.902344 15.964844 44.929688 16.199219 44.933594 C 16.527344 44.933594 16.851562 44.933594 17.179688 44.933594 C 17.285156 44.933594 17.359375 44.964844 17.355469 45.089844 C 17.351562 45.234375 17.433594 45.273438 17.5625 45.273438 C 17.683594 45.269531 17.804688 45.273438 17.925781 45.277344 C 18.003906 45.277344 18.0625 45.304688 18.054688 45.394531 C 18.042969 45.617188 18.148438 45.640625 18.335938 45.640625 C 18.65625 45.640625 18.976562 45.640625 19.296875 45.640625 C 19.371094 45.640625 19.445312 45.625 19.460938 45.738281 C 19.496094 45.984375 19.503906 45.984375 19.746094 45.984375 C 19.820312 45.984375 19.894531 45.988281 19.96875 45.984375 C 20.105469 45.972656 20.179688 46.015625 20.160156 46.164062 C 20.140625 46.296875 20.214844 46.335938 20.332031 46.332031 C 20.460938 46.328125 20.585938 46.335938 20.710938 46.332031 C 20.816406 46.332031 20.875 46.371094 20.867188 46.484375 C 20.851562 46.636719 20.929688 46.695312 21.070312 46.6875 C 21.15625 46.6875 21.21875 46.714844 21.210938 46.816406 C 21.199219 46.984375 21.289062 47.027344 21.441406 47.03125 C 21.859375 47.042969 21.863281 47.035156 21.867188 46.605469 C 21.867188 46.457031 21.8125 46.382812 21.667969 46.394531 C 21.527344 46.402344 21.507812 46.324219 21.507812 46.214844 C 21.507812 46.09375 21.507812 45.976562 21.503906 45.855469 C 21.5 45.769531 21.460938 45.699219 21.371094 45.707031 C 21.160156 45.71875 21.152344 45.589844 21.152344 45.429688 C 21.15625 44.296875 21.152344 43.164062 21.152344 42 M 39.089844 44.125 C 39.089844 42.96875 39.089844 41.8125 39.089844 40.65625 C 39.089844 40.441406 39.066406 40.414062 38.875 40.410156 C 37.519531 40.410156 36.164062 40.414062 34.808594 40.410156 C 34.660156 40.410156 34.574219 40.464844 34.582031 40.617188 C 34.585938 40.757812 34.511719 40.773438 34.398438 40.773438 C 34.1875 40.769531 33.972656 40.777344 33.761719 40.773438 C 33.589844 40.765625 33.523438 40.84375 33.53125 41.007812 C 33.535156 41.195312 33.535156 41.386719 33.53125 41.574219 C 33.53125 41.703125 33.582031 41.769531 33.714844 41.761719 C 33.84375 41.75 33.882812 41.8125 33.882812 41.933594 C 33.882812 43.136719 33.882812 44.335938 33.882812 45.539062 C 33.882812 45.648438 33.859375 45.714844 33.726562 45.703125 C 33.585938 45.6875 33.535156 45.769531 33.535156 45.902344 C 33.535156 46.007812 33.527344 46.117188 33.53125 46.226562 C 33.539062 46.351562 33.484375 46.410156 33.359375 46.398438 C 33.21875 46.386719 33.1875 46.464844 33.179688 46.585938 C 33.152344 47.050781 33.175781 47.042969 33.644531 47.027344 C 33.753906 47.023438 33.820312 46.960938 33.816406 46.855469 C 33.8125 46.714844 33.890625 46.679688 34.011719 46.679688 C 34.09375 46.675781 34.167969 46.640625 34.160156 46.550781 C 34.148438 46.339844 34.269531 46.316406 34.433594 46.332031 C 34.5 46.335938 34.570312 46.324219 34.640625 46.332031 C 34.78125 46.339844 34.871094 46.292969 34.875 46.132812 C 34.875 46.027344 34.929688 45.980469 35.039062 45.984375 C 35.15625 45.988281 35.277344 45.984375 35.398438 45.984375 C 35.503906 45.980469 35.582031 45.941406 35.574219 45.824219 C 35.566406 45.660156 35.65625 45.636719 35.789062 45.636719 C 36.101562 45.640625 36.410156 45.636719 36.71875 45.640625 C 36.882812 45.640625 36.984375 45.582031 36.984375 45.40625 C 36.984375 45.308594 37.035156 45.273438 37.125 45.273438 C 37.25 45.273438 37.375 45.269531 37.5 45.269531 C 37.609375 45.269531 37.683594 45.226562 37.679688 45.113281 C 37.679688 44.960938 37.765625 44.933594 37.890625 44.933594 C 38.1875 44.9375 38.488281 44.9375 38.785156 44.933594 C 39.074219 44.933594 39.085938 44.921875 39.089844 44.640625 C 39.089844 44.480469 39.089844 44.320312 39.089844 44.125 M 31.71875 45.832031 C 31.726562 45.75 31.777344 45.703125 31.851562 45.675781 C 31.996094 45.628906 32.054688 45.527344 32.054688 45.375 C 32.050781 44.257812 32.050781 43.144531 32.050781 42.027344 C 32.050781 41.929688 32.035156 41.835938 31.914062 41.828125 C 31.777344 41.820312 31.777344 41.925781 31.773438 42.015625 C 31.773438 42.125 31.738281 42.179688 31.621094 42.164062 C 31.464844 42.148438 31.394531 42.214844 31.414062 42.375 C 31.429688 42.488281 31.382812 42.546875 31.261719 42.535156 C 31.109375 42.519531 31.058594 42.601562 31.066406 42.742188 C 31.070312 42.84375 31.058594 42.949219 31.066406 43.050781 C 31.074219 43.1875 31.011719 43.234375 30.882812 43.230469 C 30.769531 43.222656 30.652344 43.230469 30.539062 43.226562 C 30.40625 43.21875 30.351562 43.285156 30.351562 43.410156 C 30.351562 43.542969 30.347656 43.675781 30.347656 43.808594 C 30.347656 43.882812 30.316406 43.9375 30.242188 43.933594 C 30.015625 43.917969 29.988281 44.046875 30.003906 44.226562 C 30.007812 44.308594 30 44.398438 30.003906 44.480469 C 30.007812 44.589844 29.960938 44.644531 29.851562 44.636719 C 29.695312 44.625 29.65625 44.714844 29.65625 44.851562 C 29.660156 45.074219 29.652344 45.296875 29.65625 45.523438 C 29.660156 45.640625 29.621094 45.707031 29.492188 45.699219 C 29.355469 45.6875 29.308594 45.761719 29.308594 45.886719 C 29.3125 46 29.304688 46.117188 29.308594 46.230469 C 29.3125 46.34375 29.273438 46.402344 29.152344 46.390625 C 29.023438 46.378906 28.960938 46.441406 28.957031 46.570312 C 28.957031 46.679688 28.945312 46.789062 28.941406 46.898438 C 28.933594 47.835938 28.96875 48.773438 28.945312 49.710938 C 28.9375 50.03125 28.953125 50.351562 28.964844 50.671875 C 28.96875 50.761719 28.992188 50.851562 29.101562 50.859375 C 29.210938 50.867188 29.230469 50.78125 29.238281 50.699219 C 29.246094 50.625 29.269531 50.554688 29.359375 50.558594 C 29.574219 50.574219 29.597656 50.433594 29.597656 50.273438 C 29.597656 50.191406 29.601562 50.113281 29.597656 50.03125 C 29.59375 49.921875 29.628906 49.855469 29.753906 49.863281 C 29.878906 49.867188 29.945312 49.796875 29.945312 49.671875 C 29.945312 49.558594 30.003906 49.507812 30.113281 49.503906 C 30.253906 49.496094 30.296875 49.410156 30.300781 49.285156 C 30.300781 49.171875 30.300781 49.054688 30.304688 48.941406 C 30.308594 48.855469 30.34375 48.796875 30.441406 48.800781 C 30.597656 48.8125 30.660156 48.726562 30.664062 48.582031 C 30.664062 48.496094 30.707031 48.464844 30.789062 48.457031 C 30.945312 48.441406 31 48.339844 31.007812 48.195312 C 31.007812 48.09375 31.007812 47.992188 31.007812 47.886719 C 31.007812 47.820312 31.023438 47.753906 31.105469 47.75 C 31.328125 47.738281 31.351562 47.585938 31.355469 47.414062 C 31.355469 47.335938 31.355469 47.253906 31.355469 47.175781 C 31.355469 47.09375 31.386719 47.042969 31.476562 47.042969 C 31.65625 47.042969 31.707031 46.9375 31.703125 46.773438 C 31.703125 46.46875 31.707031 46.167969 31.71875 45.832031 M 25.417969 45.484375 C 25.371094 45.425781 25.378906 45.355469 25.378906 45.285156 C 25.375 45.132812 25.378906 44.976562 25.375 44.824219 C 25.375 44.726562 25.335938 44.636719 25.234375 44.644531 C 25.042969 44.652344 25.019531 44.550781 25.03125 44.398438 C 25.035156 44.316406 25.027344 44.238281 25.03125 44.15625 C 25.03125 44.023438 24.984375 43.933594 24.832031 43.941406 C 24.710938 43.945312 24.675781 43.886719 24.679688 43.769531 C 24.6875 43.644531 24.683594 43.519531 24.675781 43.394531 C 24.667969 43.285156 24.609375 43.226562 24.496094 43.230469 C 24.375 43.230469 24.257812 43.222656 24.136719 43.230469 C 24.019531 43.238281 23.964844 43.195312 23.96875 43.074219 C 23.972656 42.96875 23.964844 42.859375 23.96875 42.75 C 23.972656 42.617188 23.921875 42.535156 23.785156 42.539062 C 23.652344 42.542969 23.613281 42.476562 23.621094 42.359375 C 23.625 42.261719 23.585938 42.183594 23.476562 42.183594 C 23.324219 42.183594 23.246094 42.128906 23.253906 41.964844 C 23.257812 41.875 23.191406 41.832031 23.105469 41.832031 C 23.019531 41.832031 22.988281 41.890625 22.980469 41.964844 C 22.976562 42 22.96875 42.035156 22.96875 42.066406 C 22.96875 43.195312 22.953125 44.320312 22.980469 45.449219 C 22.984375 45.574219 23.035156 45.644531 23.167969 45.636719 C 23.289062 45.628906 23.320312 45.691406 23.320312 45.804688 C 23.316406 46.136719 23.328125 46.46875 23.324219 46.800781 C 23.320312 46.953125 23.367188 47.042969 23.535156 47.035156 C 23.644531 47.03125 23.6875 47.085938 23.683594 47.191406 C 23.679688 47.320312 23.683594 47.445312 23.6875 47.570312 C 23.691406 47.652344 23.722656 47.734375 23.808594 47.730469 C 24.035156 47.71875 24.039062 47.855469 24.027344 48.015625 C 24.023438 48.085938 24.027344 48.152344 24.027344 48.222656 C 24.027344 48.355469 24.074219 48.445312 24.226562 48.441406 C 24.339844 48.433594 24.394531 48.488281 24.390625 48.605469 C 24.386719 48.699219 24.417969 48.792969 24.523438 48.789062 C 24.722656 48.785156 24.75 48.898438 24.734375 49.054688 C 24.726562 49.121094 24.738281 49.191406 24.738281 49.257812 C 24.730469 49.410156 24.78125 49.5 24.949219 49.5 C 25.042969 49.5 25.09375 49.550781 25.089844 49.652344 C 25.085938 49.796875 25.160156 49.867188 25.300781 49.855469 C 25.410156 49.84375 25.441406 49.894531 25.441406 49.996094 C 25.441406 50.121094 25.453125 50.246094 25.464844 50.371094 C 25.472656 50.476562 25.523438 50.546875 25.636719 50.550781 C 25.734375 50.550781 25.800781 50.582031 25.808594 50.691406 C 25.8125 50.742188 25.839844 50.78125 25.894531 50.789062 C 25.953125 50.796875 25.988281 50.761719 26.015625 50.710938 C 26.070312 50.613281 26.070312 50.503906 26.070312 50.394531 C 26.074219 49.242188 26.074219 48.085938 26.078125 46.929688 C 26.078125 46.808594 26.074219 46.691406 26.070312 46.570312 C 26.066406 46.476562 26.023438 46.40625 25.925781 46.410156 C 25.734375 46.417969 25.707031 46.308594 25.730469 46.15625 C 25.777344 45.875 25.664062 45.664062 25.417969 45.484375 M 37.410156 53.347656 C 37.570312 53.359375 37.695312 53.335938 37.6875 53.128906 C 37.683594 53.054688 37.742188 53.023438 37.816406 53.023438 C 37.933594 53.023438 38.054688 53.019531 38.175781 53.023438 C 38.316406 53.027344 38.398438 52.96875 38.390625 52.824219 C 38.382812 52.691406 38.453125 52.652344 38.566406 52.65625 C 38.65625 52.65625 38.738281 52.621094 38.730469 52.523438 C 38.714844 52.316406 38.839844 52.304688 38.992188 52.3125 C 39.066406 52.316406 39.140625 52.308594 39.214844 52.3125 C 39.359375 52.320312 39.449219 52.273438 39.4375 52.109375 C 39.433594 52.015625 39.472656 51.953125 39.578125 51.960938 C 39.726562 51.972656 39.785156 51.902344 39.785156 51.761719 C 39.785156 51.652344 39.84375 51.609375 39.949219 51.613281 C 40.085938 51.617188 40.152344 51.546875 40.144531 51.414062 C 40.136719 51.296875 40.199219 51.253906 40.300781 51.257812 C 40.445312 51.261719 40.507812 51.191406 40.5 51.050781 C 40.496094 50.949219 40.550781 50.898438 40.648438 50.902344 C 40.789062 50.910156 40.84375 50.84375 40.839844 50.707031 C 40.839844 50.613281 40.882812 50.546875 40.984375 50.558594 C 41.15625 50.574219 41.210938 50.484375 41.203125 50.332031 C 41.203125 50.261719 41.222656 50.21875 41.308594 50.207031 C 41.550781 50.167969 41.550781 50.164062 41.554688 49.917969 C 41.554688 49.84375 41.558594 49.769531 41.550781 49.695312 C 41.542969 49.570312 41.582031 49.496094 41.722656 49.5 C 41.851562 49.507812 41.914062 49.445312 41.910156 49.316406 C 41.90625 49.203125 41.949219 49.140625 42.070312 49.144531 C 42.1875 49.152344 42.25 49.09375 42.246094 48.972656 C 42.242188 48.851562 42.292969 48.792969 42.421875 48.796875 C 42.550781 48.804688 42.609375 48.730469 42.613281 48.605469 C 42.613281 48.480469 42.617188 48.355469 42.613281 48.230469 C 42.613281 48.15625 42.632812 48.113281 42.714844 48.105469 C 42.960938 48.074219 42.960938 48.070312 42.960938 47.816406 C 42.960938 47.746094 42.96875 47.675781 42.960938 47.609375 C 42.949219 47.460938 42.992188 47.378906 43.160156 47.390625 C 43.257812 47.398438 43.304688 47.335938 43.304688 47.242188 C 43.304688 47.132812 43.242188 47.105469 43.148438 47.105469 C 43.03125 47.105469 42.910156 47.101562 42.789062 47.105469 C 42.667969 47.109375 42.605469 47.066406 42.613281 46.9375 C 42.625 46.804688 42.550781 46.753906 42.425781 46.757812 C 42.308594 46.761719 42.195312 46.753906 42.082031 46.757812 C 41.960938 46.761719 41.890625 46.722656 41.902344 46.59375 C 41.917969 46.4375 41.832031 46.390625 41.695312 46.390625 C 41.410156 46.390625 41.125 46.386719 40.835938 46.390625 C 40.601562 46.390625 40.570312 46.421875 40.566406 46.65625 C 40.566406 47.085938 40.566406 47.515625 40.566406 47.945312 C 40.566406 48.074219 40.546875 48.171875 40.378906 48.160156 C 40.242188 48.148438 40.203125 48.234375 40.207031 48.355469 C 40.207031 48.597656 40.207031 48.835938 40.207031 49.078125 C 40.207031 49.152344 40.199219 49.207031 40.101562 49.222656 C 39.859375 49.265625 39.859375 49.269531 39.859375 49.515625 C 39.859375 49.589844 39.855469 49.664062 39.859375 49.738281 C 39.867188 49.863281 39.820312 49.933594 39.683594 49.925781 C 39.558594 49.917969 39.503906 49.980469 39.507812 50.101562 C 39.507812 50.222656 39.503906 50.34375 39.503906 50.460938 C 39.507812 50.566406 39.476562 50.625 39.359375 50.613281 C 39.222656 50.601562 39.152344 50.664062 39.15625 50.800781 C 39.160156 50.921875 39.117188 50.984375 38.984375 50.964844 C 38.851562 50.949219 38.796875 51.023438 38.796875 51.152344 C 38.796875 51.269531 38.792969 51.390625 38.796875 51.511719 C 38.800781 51.628906 38.753906 51.683594 38.636719 51.675781 C 38.507812 51.664062 38.4375 51.714844 38.449219 51.851562 C 38.464844 51.992188 38.402344 52.035156 38.269531 52.023438 C 38.15625 52.015625 38.097656 52.070312 38.105469 52.1875 C 38.113281 52.320312 38.058594 52.375 37.925781 52.371094 C 37.824219 52.371094 37.742188 52.414062 37.746094 52.53125 C 37.75 52.675781 37.695312 52.742188 37.542969 52.730469 C 37.472656 52.726562 37.394531 52.757812 37.402344 52.84375 C 37.425781 53.03125 37.347656 53.101562 37.164062 53.101562 C 37.074219 53.101562 37.046875 53.183594 37.054688 53.265625 C 37.0625 53.347656 37.125 53.363281 37.191406 53.359375 C 37.257812 53.355469 37.320312 53.351562 37.410156 53.347656 M 16.652344 52.011719 C 16.597656 51.992188 16.585938 51.949219 16.589844 51.902344 C 16.601562 51.734375 16.539062 51.652344 16.363281 51.671875 C 16.273438 51.683594 16.238281 51.640625 16.238281 51.550781 C 16.242188 51.425781 16.238281 51.300781 16.238281 51.175781 C 16.234375 51.046875 16.183594 50.964844 16.042969 50.972656 C 15.933594 50.976562 15.882812 50.929688 15.890625 50.820312 C 15.902344 50.675781 15.835938 50.601562 15.6875 50.617188 C 15.5625 50.628906 15.527344 50.566406 15.53125 50.453125 C 15.535156 50.328125 15.53125 50.203125 15.527344 50.078125 C 15.527344 49.992188 15.492188 49.917969 15.402344 49.929688 C 15.191406 49.949219 15.164062 49.832031 15.179688 49.664062 C 15.183594 49.589844 15.175781 49.515625 15.179688 49.441406 C 15.1875 49.292969 15.121094 49.207031 14.972656 49.207031 C 14.851562 49.210938 14.832031 49.152344 14.832031 49.050781 C 14.835938 48.828125 14.832031 48.605469 14.832031 48.378906 C 14.828125 48.246094 14.78125 48.15625 14.628906 48.164062 C 14.507812 48.167969 14.46875 48.097656 14.472656 47.988281 C 14.476562 47.9375 14.472656 47.886719 14.472656 47.835938 C 14.472656 47.417969 14.472656 47 14.472656 46.582031 C 14.476562 46.457031 14.421875 46.386719 14.292969 46.390625 C 13.960938 46.390625 13.628906 46.390625 13.296875 46.390625 C 13.203125 46.390625 13.128906 46.425781 13.132812 46.527344 C 13.144531 46.742188 13.015625 46.765625 12.847656 46.757812 C 12.773438 46.753906 12.699219 46.761719 12.625 46.757812 C 12.496094 46.753906 12.414062 46.804688 12.421875 46.945312 C 12.425781 47.066406 12.363281 47.105469 12.25 47.105469 C 12.125 47.101562 12 47.101562 11.875 47.109375 C 11.785156 47.113281 11.738281 47.164062 11.734375 47.253906 C 11.734375 47.335938 11.777344 47.394531 11.855469 47.386719 C 12.082031 47.375 12.089844 47.511719 12.078125 47.671875 C 12.074219 47.742188 12.082031 47.8125 12.078125 47.878906 C 12.066406 48.019531 12.117188 48.101562 12.269531 48.097656 C 12.390625 48.09375 12.425781 48.15625 12.421875 48.269531 C 12.414062 48.382812 12.421875 48.496094 12.421875 48.613281 C 12.417969 48.726562 12.460938 48.800781 12.585938 48.804688 C 12.707031 48.804688 12.757812 48.871094 12.773438 48.984375 C 12.785156 49.085938 12.84375 49.152344 12.957031 49.144531 C 13.09375 49.132812 13.140625 49.199219 13.136719 49.328125 C 13.132812 49.40625 13.152344 49.492188 13.246094 49.488281 C 13.472656 49.480469 13.496094 49.613281 13.480469 49.785156 C 13.476562 49.855469 13.484375 49.925781 13.480469 49.992188 C 13.476562 50.125 13.539062 50.203125 13.671875 50.203125 C 13.785156 50.203125 13.84375 50.234375 13.832031 50.359375 C 13.816406 50.488281 13.886719 50.558594 14.011719 50.554688 C 14.144531 50.550781 14.199219 50.609375 14.195312 50.738281 C 14.191406 50.839844 14.242188 50.90625 14.347656 50.898438 C 14.492188 50.894531 14.542969 50.96875 14.535156 51.097656 C 14.53125 51.210938 14.59375 51.273438 14.703125 51.265625 C 14.84375 51.257812 14.90625 51.304688 14.894531 51.449219 C 14.886719 51.558594 14.949219 51.625 15.0625 51.617188 C 15.199219 51.605469 15.25 51.667969 15.238281 51.796875 C 15.226562 51.914062 15.289062 51.96875 15.402344 51.960938 C 15.542969 51.949219 15.601562 52.011719 15.597656 52.148438 C 15.59375 52.273438 15.667969 52.320312 15.78125 52.320312 C 15.910156 52.320312 16.035156 52.320312 16.160156 52.320312 C 16.226562 52.320312 16.300781 52.332031 16.292969 52.417969 C 16.265625 52.660156 16.414062 52.675781 16.59375 52.667969 C 16.675781 52.664062 16.765625 52.679688 16.847656 52.671875 C 16.960938 52.660156 17.007812 52.695312 16.996094 52.8125 C 16.980469 52.96875 17.0625 53.035156 17.214844 53.023438 C 17.3125 53.011719 17.351562 53.058594 17.347656 53.152344 C 17.339844 53.328125 17.4375 53.382812 17.59375 53.371094 C 17.664062 53.363281 17.734375 53.371094 17.800781 53.367188 C 17.890625 53.367188 17.980469 53.363281 17.984375 53.242188 C 17.988281 53.125 17.917969 53.078125 17.808594 53.082031 C 17.695312 53.085938 17.636719 53.039062 17.644531 52.921875 C 17.65625 52.789062 17.589844 52.730469 17.460938 52.730469 C 17.355469 52.734375 17.28125 52.703125 17.285156 52.578125 C 17.292969 52.4375 17.230469 52.375 17.089844 52.382812 C 16.996094 52.386719 16.933594 52.347656 16.941406 52.242188 C 16.957031 52.046875 16.835938 52.011719 16.652344 52.011719 M 36.828125 62.933594 C 36.710938 62.941406 36.691406 63.023438 36.695312 63.113281 C 36.695312 63.230469 36.648438 63.289062 36.53125 63.277344 C 36.378906 63.265625 36.324219 63.351562 36.328125 63.484375 C 36.328125 63.585938 36.289062 63.632812 36.183594 63.628906 C 36.027344 63.617188 35.972656 63.707031 35.980469 63.851562 C 35.984375 63.933594 35.980469 64.011719 35.984375 64.09375 C 35.992188 64.210938 36.035156 64.289062 36.175781 64.277344 C 36.269531 64.269531 36.332031 64.300781 36.324219 64.410156 C 36.3125 64.574219 36.394531 64.640625 36.550781 64.628906 C 36.652344 64.621094 36.703125 64.664062 36.691406 64.769531 C 36.675781 64.9375 36.753906 64.996094 36.914062 64.984375 C 36.980469 64.976562 37.050781 64.976562 37.121094 64.980469 C 37.273438 64.996094 37.347656 64.933594 37.332031 64.773438 C 37.324219 64.679688 37.363281 64.621094 37.46875 64.628906 C 37.621094 64.640625 37.691406 64.574219 37.683594 64.417969 C 37.679688 64.328125 37.726562 64.277344 37.820312 64.289062 C 38.011719 64.3125 38.066406 64.214844 38.046875 64.042969 C 38.039062 63.972656 38.046875 63.898438 38.046875 63.824219 C 38.050781 63.6875 37.992188 63.617188 37.851562 63.628906 C 37.738281 63.636719 37.675781 63.597656 37.683594 63.476562 C 37.691406 63.335938 37.628906 63.273438 37.492188 63.28125 C 37.398438 63.285156 37.324219 63.25 37.335938 63.144531 C 37.351562 62.945312 37.242188 62.914062 37.082031 62.929688 C 37.007812 62.9375 36.933594 62.929688 36.828125 62.933594 M 27.214844 62.984375 C 27.183594 63.027344 27.183594 63.082031 27.1875 63.132812 C 27.191406 63.234375 27.148438 63.285156 27.046875 63.277344 C 26.886719 63.261719 26.828125 63.339844 26.839844 63.492188 C 26.847656 63.582031 26.800781 63.632812 26.707031 63.628906 C 26.539062 63.617188 26.484375 63.703125 26.492188 63.859375 C 26.5 63.933594 26.496094 64.007812 26.492188 64.082031 C 26.484375 64.226562 26.535156 64.300781 26.691406 64.285156 C 26.773438 64.277344 26.847656 64.292969 26.839844 64.398438 C 26.824219 64.574219 26.917969 64.632812 27.078125 64.628906 C 27.171875 64.625 27.195312 64.679688 27.1875 64.757812 C 27.167969 64.933594 27.25 65 27.417969 64.984375 C 27.492188 64.976562 27.570312 64.972656 27.640625 64.980469 C 27.789062 64.996094 27.855469 64.933594 27.84375 64.785156 C 27.835938 64.679688 27.878906 64.625 27.992188 64.628906 C 28.132812 64.632812 28.207031 64.566406 28.195312 64.417969 C 28.1875 64.328125 28.230469 64.273438 28.324219 64.277344 C 28.515625 64.289062 28.554688 64.179688 28.542969 64.019531 C 28.535156 63.949219 28.539062 63.878906 28.539062 63.8125 C 28.542969 63.691406 28.480469 63.625 28.363281 63.628906 C 28.238281 63.636719 28.183594 63.585938 28.191406 63.460938 C 28.203125 63.339844 28.148438 63.273438 28.023438 63.28125 C 27.878906 63.292969 27.824219 63.226562 27.828125 63.09375 C 27.828125 63.011719 27.804688 62.9375 27.707031 62.933594 C 27.550781 62.929688 27.390625 62.894531 27.214844 62.984375 M 17.675781 64.65625 C 17.757812 64.988281 17.757812 64.984375 18.117188 64.980469 C 18.261719 64.980469 18.347656 64.9375 18.339844 64.777344 C 18.332031 64.679688 18.367188 64.621094 18.476562 64.628906 C 18.636719 64.640625 18.710938 64.558594 18.707031 64.402344 C 18.703125 64.300781 18.761719 64.273438 18.847656 64.273438 C 18.996094 64.273438 19.046875 64.191406 19.050781 64.058594 C 19.054688 63.976562 19.054688 63.898438 19.050781 63.816406 C 19.046875 63.695312 18.992188 63.617188 18.859375 63.628906 C 18.753906 63.636719 18.695312 63.59375 18.699219 63.484375 C 18.703125 63.339844 18.636719 63.269531 18.492188 63.28125 C 18.394531 63.285156 18.332031 63.242188 18.339844 63.140625 C 18.355469 62.96875 18.269531 62.917969 18.113281 62.929688 C 18.039062 62.9375 17.964844 62.933594 17.890625 62.929688 C 17.761719 62.925781 17.695312 62.980469 17.703125 63.113281 C 17.707031 63.210938 17.675781 63.285156 17.558594 63.277344 C 17.414062 63.269531 17.351562 63.34375 17.351562 63.484375 C 17.351562 63.570312 17.324219 63.636719 17.222656 63.625 C 17.039062 63.605469 16.992188 63.707031 16.996094 63.863281 C 16.996094 63.933594 16.992188 64 16.992188 64.070312 C 16.988281 64.214844 17.046875 64.296875 17.203125 64.285156 C 17.269531 64.28125 17.355469 64.28125 17.347656 64.367188 C 17.328125 64.601562 17.492188 64.617188 17.675781 64.65625 M 18.652344 53.671875 C 18.707031 53.503906 18.679688 53.449219 18.523438 53.4375 C 18.417969 53.425781 18.308594 53.429688 18.199219 53.433594 C 18.117188 53.4375 18.078125 53.492188 18.078125 53.570312 C 18.074219 53.652344 18.105469 53.710938 18.191406 53.714844 C 18.335938 53.71875 18.488281 53.746094 18.652344 53.671875 M 36.640625 53.429688 C 36.582031 53.433594 36.523438 53.429688 36.46875 53.441406 C 36.394531 53.460938 36.355469 53.511719 36.355469 53.589844 C 36.359375 53.679688 36.417969 53.710938 36.492188 53.710938 C 36.605469 53.714844 36.71875 53.714844 36.835938 53.710938 C 36.925781 53.707031 36.964844 53.652344 36.96875 53.566406 C 36.972656 53.476562 36.917969 53.441406 36.839844 53.433594 C 36.785156 53.429688 36.726562 53.429688 36.640625 53.429688 Z M 36.640625 53.429688 " fill-opacity="1" fill-rule="nonzero"/></g><path fill="#ffffff" d="M 82.085938 39.550781 C 81.933594 39.722656 81.894531 42.300781 81.914062 48.75 L 81.972656 57.699219 L 86.742188 57.699219 L 86.800781 48.65625 C 86.839844 41.535156 86.800781 39.570312 86.609375 39.4375 C 86.171875 39.167969 82.335938 39.246094 82.085938 39.550781 Z M 82.085938 39.550781 " fill-opacity="1" fill-rule="nonzero"/><path fill="#ffffff" d="M 89.703125 39.664062 C 89.492188 40.066406 89.433594 56.574219 89.644531 57.375 C 89.738281 57.777344 89.835938 57.796875 92.085938 57.796875 C 94.054688 57.796875 94.453125 57.738281 94.550781 57.492188 C 94.757812 56.957031 94.683594 40.046875 94.472656 39.648438 C 94.28125 39.320312 94.054688 39.285156 92.085938 39.285156 C 90.121094 39.285156 89.894531 39.320312 89.703125 39.664062 Z M 89.703125 39.664062 " fill-opacity="1" fill-rule="nonzero"/><path fill="#ffffff" d="M 97.46875 39.398438 C 97.394531 39.476562 97.335938 40.390625 97.335938 41.421875 L 97.335938 43.292969 L 102.125 43.292969 L 102.070312 41.324219 L 102.011719 39.378906 L 99.796875 39.320312 C 98.59375 39.304688 97.546875 39.339844 97.46875 39.398438 Z M 97.46875 39.398438 " fill-opacity="1" fill-rule="nonzero"/><path fill="#ffffff" d="M 147.738281 39.550781 C 147.585938 39.722656 147.527344 40.429688 147.566406 41.515625 L 147.625 43.195312 L 152.394531 43.195312 L 152.453125 41.402344 C 152.492188 40.085938 152.433594 39.550781 152.261719 39.4375 C 152.128906 39.359375 151.097656 39.285156 149.992188 39.285156 C 148.484375 39.285156 147.890625 39.359375 147.738281 39.550781 Z M 147.738281 39.550781 " fill-opacity="1" fill-rule="nonzero"/><path fill="#ffffff" d="M 224.191406 39.398438 C 224.117188 39.476562 224.058594 40.390625 224.058594 41.421875 L 224.058594 43.292969 L 228.847656 43.292969 L 228.792969 41.324219 L 228.734375 39.378906 L 226.519531 39.320312 C 225.320312 39.304688 224.269531 39.339844 224.191406 39.398438 Z M 224.191406 39.398438 " fill-opacity="1" fill-rule="nonzero"/><path fill="#ffffff" d="M 137.71875 40.925781 C 137.660156 41.097656 137.605469 42.070312 137.605469 43.121094 L 137.605469 45.007812 L 136.765625 45.007812 C 135.792969 45.007812 135.695312 45.144531 135.695312 46.613281 C 135.695312 47.796875 135.90625 48.0625 136.878906 48.0625 L 137.605469 48.0625 L 137.605469 50.105469 C 137.605469 51.25 137.660156 53.007812 137.738281 54.015625 L 137.851562 55.886719 L 139.683594 55.886719 L 139.742188 56.785156 L 139.800781 57.699219 L 145.335938 57.699219 L 145.390625 56.382812 C 145.429688 55.449219 145.371094 55.011719 145.199219 54.914062 C 145.066406 54.820312 144.417969 54.742188 143.75 54.742188 L 142.566406 54.742188 L 142.605469 51.441406 L 142.664062 48.160156 L 144 48.0625 L 145.335938 47.96875 L 145.335938 45.105469 L 144 45.007812 L 142.664062 44.914062 L 142.605469 42.757812 L 142.546875 40.621094 L 140.199219 40.621094 C 138.214844 40.621094 137.816406 40.675781 137.71875 40.925781 Z M 137.71875 40.925781 " fill-opacity="1" fill-rule="nonzero"/><path fill="#ffffff" d="M 49.375 45.144531 C 49.300781 45.199219 49.242188 49.1875 49.242188 54 C 49.242188 62.148438 49.261719 62.757812 49.585938 62.890625 C 49.757812 62.988281 50.882812 63.027344 52.066406 62.988281 L 54.203125 62.929688 L 54.203125 57.796875 L 57.734375 57.796875 C 60.425781 57.796875 61.265625 57.738281 61.285156 57.546875 C 61.304688 57.433594 61.324219 57.015625 61.34375 56.652344 C 61.359375 55.984375 61.359375 55.984375 62.371094 55.925781 L 63.363281 55.867188 L 63.363281 46.957031 L 62.773438 46.839844 C 62.449219 46.785156 61.972656 46.726562 61.722656 46.726562 C 61.304688 46.726562 61.265625 46.652344 61.265625 45.867188 L 61.265625 45.007812 L 55.367188 45.007812 L 55.3125 45.714844 C 55.253906 46.441406 55.253906 46.441406 54.355469 46.5 L 53.441406 46.554688 L 53.441406 45.007812 L 51.476562 45.007812 C 50.386719 45.007812 49.433594 45.066406 49.375 45.144531 Z M 58.402344 51.382812 L 58.402344 54.722656 L 56.378906 54.78125 C 55.273438 54.820312 54.320312 54.800781 54.28125 54.761719 C 54.242188 54.722656 54.203125 53.195312 54.203125 51.363281 L 54.203125 48.0625 L 58.402344 48.0625 Z M 58.402344 51.382812 " fill-opacity="1" fill-rule="nonzero"/><path fill="#ffffff" d="M 67.714844 45.90625 C 67.660156 46.785156 67.640625 46.824219 67.085938 46.785156 C 66.78125 46.765625 66.324219 46.804688 66.09375 46.839844 L 65.65625 46.917969 L 65.65625 55.867188 L 66.667969 55.925781 L 67.660156 55.984375 L 67.714844 56.898438 L 67.773438 57.796875 L 72.679688 57.757812 L 77.582031 57.699219 L 77.640625 56.785156 L 77.699219 55.886719 L 79.777344 55.886719 L 79.777344 51.421875 C 79.777344 47.089844 79.757812 46.9375 79.394531 46.824219 C 79.1875 46.746094 78.726562 46.726562 78.382812 46.765625 C 77.792969 46.824219 77.773438 46.804688 77.679688 45.964844 L 77.582031 45.105469 L 72.679688 45.046875 L 67.773438 45.007812 Z M 74.625 51.402344 L 74.625 54.742188 L 70.617188 54.742188 L 70.617188 48.0625 L 74.625 48.0625 Z M 74.625 51.402344 " fill-opacity="1" fill-rule="nonzero"/><path fill="#ffffff" d="M 97.46875 45.144531 C 97.394531 45.199219 97.335938 48.082031 97.335938 51.535156 L 97.335938 57.816406 L 99.683594 57.757812 L 102.011719 57.699219 L 102.070312 51.34375 L 102.105469 45.007812 L 99.855469 45.007812 C 98.613281 45.007812 97.527344 45.066406 97.46875 45.144531 Z M 97.46875 45.144531 " fill-opacity="1" fill-rule="nonzero"/><path fill="#ffffff" d="M 104.433594 51.34375 L 104.492188 57.699219 L 109.265625 57.699219 L 109.320312 52.871094 L 109.359375 48.0625 L 113.367188 48.0625 L 113.40625 52.871094 L 113.460938 57.699219 L 118.234375 57.699219 L 118.289062 52.320312 L 118.328125 46.9375 L 117.335938 46.878906 L 116.324219 46.824219 L 116.269531 45.90625 L 116.210938 45.007812 L 113.117188 45.046875 L 110.027344 45.105469 L 109.96875 45.8125 L 109.914062 46.535156 L 108.023438 46.535156 L 108.023438 45.007812 L 104.398438 45.007812 Z M 104.433594 51.34375 " fill-opacity="1" fill-rule="nonzero"/><path fill="#ffffff" d="M 121.421875 46.480469 L 121.476562 47.96875 L 125.257812 48.023438 L 129.035156 48.0625 L 128.976562 48.980469 L 128.921875 49.875 L 125.773438 49.972656 L 122.625 50.066406 L 122.605469 50.832031 L 122.605469 51.59375 L 121.628906 51.652344 C 120.808594 51.6875 120.636719 51.785156 120.542969 52.128906 C 120.390625 52.679688 120.390625 53.902344 120.542969 55.011719 L 120.675781 55.886719 L 122.507812 55.886719 L 122.566406 56.785156 L 122.625 57.699219 L 125.542969 57.757812 L 128.445312 57.816406 L 128.445312 56.25 L 129.359375 56.308594 C 130.257812 56.363281 130.257812 56.363281 130.3125 57.070312 L 130.371094 57.796875 L 133.980469 57.796875 L 133.980469 46.957031 L 133.40625 46.824219 C 133.101562 46.746094 132.757812 46.746094 132.660156 46.804688 C 132.222656 47.089844 131.878906 46.667969 131.878906 45.847656 L 131.878906 45.007812 L 121.363281 45.007812 Z M 129.015625 53.882812 L 129.015625 54.742188 L 125.390625 54.742188 L 125.390625 53.023438 L 129.015625 53.023438 Z M 129.015625 53.882812 " fill-opacity="1" fill-rule="nonzero"/><path fill="#ffffff" d="M 147.625 45.238281 C 147.566406 45.371094 147.546875 48.234375 147.566406 51.59375 L 147.625 57.699219 L 152.394531 57.699219 L 152.394531 45.105469 L 150.046875 45.046875 C 148.273438 45.007812 147.679688 45.066406 147.625 45.238281 Z M 147.625 45.238281 " fill-opacity="1" fill-rule="nonzero"/><path fill="#ffffff" d="M 156.785156 45.238281 C 156.746094 45.371094 156.671875 45.792969 156.652344 46.15625 C 156.59375 46.824219 156.59375 46.824219 155.582031 46.878906 L 154.589844 46.9375 L 154.628906 51.363281 L 154.6875 55.792969 L 155.679688 55.851562 L 156.671875 55.90625 L 156.726562 56.804688 L 156.785156 57.699219 L 161.707031 57.757812 L 166.613281 57.796875 L 166.613281 55.886719 L 168.714844 55.886719 L 168.714844 46.917969 L 167.96875 46.917969 C 166.765625 46.917969 166.613281 46.785156 166.613281 45.847656 L 166.613281 45.007812 L 161.746094 45.007812 C 158.007812 45.007812 156.84375 45.066406 156.785156 45.238281 Z M 163.75 51.402344 L 163.75 54.742188 L 159.742188 54.742188 L 159.742188 48.0625 L 163.75 48.0625 Z M 163.75 51.402344 " fill-opacity="1" fill-rule="nonzero"/><path fill="#ffffff" d="M 170.925781 45.164062 C 170.871094 45.277344 170.890625 53.578125 170.984375 57.070312 L 171.003906 57.796875 L 173.371094 57.796875 C 175.355469 57.796875 175.753906 57.738281 175.851562 57.492188 C 175.90625 57.320312 175.964844 55.144531 175.964844 52.625 L 175.964844 48.042969 L 177.929688 48.101562 L 179.878906 48.160156 L 179.972656 52.929688 L 180.070312 57.699219 L 184.839844 57.699219 L 184.839844 47.011719 L 183.886719 46.917969 L 182.929688 46.824219 L 182.742188 45.105469 L 179.648438 45.046875 L 176.539062 45.007812 L 176.539062 46.535156 L 174.628906 46.535156 L 174.628906 45.007812 L 172.835938 45.007812 C 171.84375 45.007812 170.984375 45.085938 170.925781 45.164062 Z M 170.925781 45.164062 " fill-opacity="1" fill-rule="nonzero"/><path fill="#ffffff" d="M 189.230469 45.238281 C 189.191406 45.371094 189.113281 45.792969 189.09375 46.15625 C 189.039062 46.824219 189.039062 46.824219 188.046875 46.878906 L 187.035156 46.9375 L 187.035156 48.828125 C 187.035156 49.855469 187.089844 50.832031 187.148438 51.003906 C 187.226562 51.230469 187.53125 51.308594 188.179688 51.308594 L 189.113281 51.308594 L 189.171875 52.109375 L 189.230469 52.929688 L 191.957031 52.988281 L 194.667969 53.042969 L 194.667969 54.742188 L 191.097656 54.742188 C 189.113281 54.742188 187.398438 54.820312 187.261719 54.914062 C 187.089844 55.011719 187.035156 55.449219 187.074219 56.382812 L 187.128906 57.699219 L 197.4375 57.699219 L 197.492188 56.804688 L 197.550781 55.90625 L 198.542969 55.851562 L 199.535156 55.792969 L 199.59375 54.171875 C 199.667969 51.804688 199.628906 51.6875 198.484375 51.6875 L 197.550781 51.6875 L 197.492188 50.867188 L 197.4375 50.066406 L 194.667969 49.972656 L 191.902344 49.875 L 191.902344 48.160156 L 195.414062 48.101562 C 197.359375 48.082031 199.019531 47.988281 199.132812 47.890625 C 199.269531 47.777344 199.324219 47.167969 199.285156 46.363281 L 199.210938 45.007812 L 194.269531 45.007812 C 190.46875 45.007812 189.285156 45.066406 189.230469 45.238281 Z M 189.230469 45.238281 " fill-opacity="1" fill-rule="nonzero"/><path fill="#ffffff" d="M 209.117188 45.238281 C 209.078125 45.371094 209.078125 46.039062 209.152344 46.726562 L 209.269531 47.96875 L 212.953125 48.023438 L 216.617188 48.0625 L 216.617188 49.972656 L 210.316406 49.972656 L 210.316406 51.6875 L 208.21875 51.6875 L 208.21875 55.867188 L 209.230469 55.925781 L 210.222656 55.984375 L 210.28125 56.898438 L 210.335938 57.816406 L 216.140625 57.699219 L 216.195312 56.976562 C 216.253906 56.269531 216.273438 56.269531 217.09375 56.269531 C 217.914062 56.269531 217.933594 56.269531 217.988281 56.976562 L 218.046875 57.699219 L 219.917969 57.757812 L 221.769531 57.816406 L 221.769531 52.355469 C 221.769531 48.140625 221.710938 46.917969 221.539062 46.898438 C 221.40625 46.878906 220.949219 46.859375 220.527344 46.839844 C 219.765625 46.824219 219.765625 46.824219 219.667969 45.964844 L 219.574219 45.105469 L 214.402344 45.046875 C 210.355469 45.007812 209.191406 45.046875 209.117188 45.238281 Z M 216.617188 53.882812 L 216.617188 54.761719 L 214.859375 54.703125 L 213.085938 54.648438 L 213.027344 54.113281 C 212.914062 53.101562 213.027344 53.023438 214.898438 53.023438 L 216.617188 53.023438 Z M 216.617188 53.882812 " fill-opacity="1" fill-rule="nonzero"/><path fill="#ffffff" d="M 224.058594 51.402344 L 224.058594 57.796875 L 228.773438 57.796875 L 228.886719 55.640625 C 229.058594 52.910156 229.058594 50.257812 228.886719 47.335938 L 228.773438 45.007812 L 224.058594 45.007812 Z M 224.058594 51.402344 " fill-opacity="1" fill-rule="nonzero"/><path fill="#ffffff" d="M 201.941406 53.675781 C 201.785156 53.847656 201.730469 54.570312 201.769531 55.8125 L 201.824219 57.699219 L 205.949219 57.816406 L 205.832031 53.503906 L 204 53.445312 C 202.589844 53.40625 202.113281 53.464844 201.941406 53.675781 Z M 201.941406 53.675781 " fill-opacity="1" fill-rule="nonzero"/></svg>