<svg xmlns="http://www.w3.org/2000/svg" xmlns:xlink="http://www.w3.org/1999/xlink" width="219.50" zoomAndPan="magnify" viewBox="9.75 32.50 219.50 34.25" height="34.25" preserveAspectRatio="xMidYMid meet" version="1.0"><defs><clipPath id="488bcec02c"><path d="M 9.898438 32 L 45.148438 32 L 45.148438 67 L 9.898438 67 Z M 9.898438 32 " clip-rule="nonzero"/></clipPath></defs><g clip-path="url(#488bcec02c)"><path fill="#000000" d="M 9.933594 47.164062 C 9.933594 46.910156 9.933594 46.660156 9.949219 46.386719 C 10.128906 46.378906 10.265625 46.355469 10.253906 46.140625 C 10.25 46.042969 10.316406 46.019531 10.40625 46.019531 C 10.632812 46.019531 10.863281 46.015625 11.09375 46.019531 C 11.222656 46.019531 11.304688 45.96875 11.304688 45.828125 C 11.304688 45.710938 11.367188 45.664062 11.480469 45.671875 C 11.53125 45.675781 11.582031 45.675781 11.632812 45.671875 C 11.800781 45.667969 11.996094 45.71875 12.039062 45.46875 C 12.039062 45.457031 12.058594 45.441406 12.074219 45.4375 C 12.214844 45.382812 12.347656 45.292969 12.511719 45.308594 C 12.636719 45.316406 12.722656 45.269531 12.714844 45.121094 C 12.710938 45.007812 12.769531 44.976562 12.875 44.976562 C 13.265625 44.976562 13.65625 44.96875 14.046875 44.964844 C 14.273438 44.960938 14.308594 44.933594 14.308594 44.707031 C 14.316406 44.160156 14.3125 43.617188 14.3125 43.074219 C 14.3125 41.769531 14.316406 40.46875 14.3125 39.167969 C 14.3125 39.019531 14.359375 38.964844 14.511719 38.964844 C 15.558594 38.96875 16.609375 38.964844 17.660156 38.964844 C 18.667969 38.964844 19.679688 38.964844 20.6875 38.960938 C 20.828125 38.960938 20.910156 38.992188 20.894531 39.152344 C 20.882812 39.285156 20.96875 39.316406 21.082031 39.316406 C 21.398438 39.316406 21.710938 39.316406 22.027344 39.320312 C 22.164062 39.320312 22.230469 39.269531 22.234375 39.128906 C 22.234375 39.054688 22.246094 38.984375 22.347656 38.964844 C 22.589844 38.921875 22.589844 38.917969 22.589844 38.664062 C 22.589844 38.59375 22.597656 38.527344 22.589844 38.457031 C 22.578125 38.320312 22.621094 38.25 22.769531 38.265625 C 22.898438 38.28125 22.945312 38.210938 22.941406 38.09375 C 22.941406 37.964844 22.949219 37.839844 22.953125 37.714844 C 22.953125 37.609375 22.996094 37.550781 23.109375 37.558594 C 23.238281 37.570312 23.304688 37.503906 23.300781 37.378906 C 23.296875 37.246094 23.355469 37.191406 23.488281 37.203125 C 23.601562 37.214844 23.664062 37.160156 23.65625 37.046875 C 23.644531 36.902344 23.707031 36.851562 23.847656 36.859375 C 23.964844 36.867188 24.007812 36.796875 24.003906 36.683594 C 24.003906 36.558594 24.007812 36.433594 24.003906 36.304688 C 24.003906 36.203125 24.050781 36.160156 24.148438 36.15625 C 24.28125 36.15625 24.410156 36.148438 24.542969 36.148438 C 24.652344 36.144531 24.703125 36.09375 24.703125 35.988281 C 24.703125 35.863281 24.707031 35.734375 24.707031 35.609375 C 24.703125 35.496094 24.746094 35.441406 24.871094 35.449219 C 24.976562 35.453125 25.089844 35.441406 25.195312 35.449219 C 25.367188 35.464844 25.425781 35.386719 25.414062 35.226562 C 25.410156 35.128906 25.421875 35.03125 25.414062 34.933594 C 25.40625 34.804688 25.445312 34.742188 25.585938 34.75 C 25.707031 34.757812 25.828125 34.738281 25.949219 34.738281 C 26.074219 34.738281 26.128906 34.675781 26.128906 34.5625 C 26.132812 34.445312 26.136719 34.332031 26.128906 34.21875 C 26.121094 34.085938 26.164062 34.023438 26.304688 34.035156 C 26.425781 34.050781 26.484375 33.984375 26.480469 33.863281 C 26.476562 33.769531 26.480469 33.679688 26.480469 33.585938 C 26.480469 33.347656 26.480469 33.347656 26.714844 33.34375 C 26.8125 33.34375 26.910156 33.339844 27.007812 33.335938 C 27.117188 33.332031 27.171875 33.277344 27.171875 33.160156 C 27.167969 33.027344 27.171875 32.898438 27.171875 32.765625 C 27.171875 32.671875 27.214844 32.628906 27.308594 32.628906 C 27.472656 32.628906 27.640625 32.628906 27.808594 32.628906 C 27.914062 32.625 27.949219 32.679688 27.945312 32.777344 C 27.945312 32.898438 27.953125 33.019531 27.945312 33.136719 C 27.941406 33.28125 28.007812 33.335938 28.144531 33.332031 C 28.257812 33.328125 28.371094 33.332031 28.488281 33.335938 C 28.59375 33.335938 28.644531 33.378906 28.640625 33.492188 C 28.636719 33.621094 28.636719 33.753906 28.640625 33.886719 C 28.640625 33.972656 28.679688 34.042969 28.769531 34.03125 C 28.988281 34.003906 28.992188 34.125 28.988281 34.289062 C 28.984375 34.769531 28.933594 34.734375 29.429688 34.742188 C 29.703125 34.746094 29.703125 34.742188 29.703125 35.015625 C 29.707031 35.5 29.65625 35.445312 30.136719 35.449219 C 30.398438 35.449219 30.398438 35.449219 30.398438 35.707031 C 30.402344 36.214844 30.398438 36.136719 30.839844 36.148438 C 31.109375 36.152344 31.109375 36.152344 31.109375 36.410156 C 31.113281 36.492188 31.117188 36.574219 31.113281 36.652344 C 31.105469 36.796875 31.160156 36.871094 31.3125 36.859375 C 31.417969 36.847656 31.476562 36.886719 31.460938 37.003906 C 31.445312 37.152344 31.511719 37.21875 31.664062 37.207031 C 31.769531 37.195312 31.828125 37.246094 31.820312 37.355469 C 31.8125 37.5 31.882812 37.566406 32.027344 37.558594 C 32.128906 37.550781 32.171875 37.605469 32.171875 37.703125 C 32.171875 37.8125 32.179688 37.921875 32.175781 38.03125 C 32.167969 38.179688 32.214844 38.261719 32.378906 38.257812 C 32.488281 38.253906 32.527344 38.3125 32.527344 38.417969 C 32.523438 38.539062 32.527344 38.660156 32.527344 38.78125 C 32.53125 38.894531 32.585938 38.964844 32.707031 38.960938 C 32.832031 38.957031 32.886719 39.011719 32.875 39.136719 C 32.863281 39.257812 32.917969 39.316406 33.042969 39.316406 C 33.375 39.316406 33.707031 39.316406 34.039062 39.316406 C 34.144531 39.316406 34.214844 39.273438 34.210938 39.167969 C 34.207031 38.980469 34.320312 38.964844 34.46875 38.964844 C 36.492188 38.96875 38.519531 38.96875 40.542969 38.972656 C 40.789062 38.972656 40.808594 38.992188 40.808594 39.238281 C 40.804688 39.757812 40.792969 40.28125 40.796875 40.804688 C 40.8125 42.105469 40.8125 43.40625 40.800781 44.707031 C 40.796875 44.921875 40.832031 44.960938 41.046875 44.960938 C 41.429688 44.964844 41.816406 44.964844 42.199219 44.964844 C 42.316406 44.964844 42.40625 44.980469 42.398438 45.128906 C 42.390625 45.253906 42.460938 45.304688 42.578125 45.304688 C 42.695312 45.304688 42.808594 45.3125 42.921875 45.304688 C 43.050781 45.300781 43.117188 45.34375 43.101562 45.484375 C 43.085938 45.613281 43.152344 45.671875 43.28125 45.671875 C 43.402344 45.667969 43.523438 45.675781 43.644531 45.667969 C 43.757812 45.664062 43.820312 45.699219 43.8125 45.820312 C 43.804688 45.972656 43.886719 46.023438 44.027344 46.019531 C 44.246094 46.015625 44.464844 46.023438 44.679688 46.015625 C 44.8125 46.011719 44.875 46.054688 44.871094 46.1875 C 44.867188 46.320312 44.9375 46.375 45.066406 46.367188 C 45.105469 46.363281 45.144531 46.371094 45.183594 46.375 C 45.183594 46.613281 45.183594 46.855469 45.167969 47.117188 C 44.902344 47.140625 44.898438 47.140625 44.855469 47.386719 C 44.835938 47.484375 44.777344 47.488281 44.707031 47.488281 C 44.558594 47.484375 44.503906 47.558594 44.507812 47.703125 C 44.511719 47.929688 44.503906 48.160156 44.507812 48.390625 C 44.507812 48.492188 44.476562 48.558594 44.359375 48.550781 C 44.210938 48.539062 44.152344 48.609375 44.15625 48.753906 C 44.160156 48.828125 44.136719 48.902344 44.042969 48.894531 C 43.832031 48.875 43.792969 49.003906 43.800781 49.171875 C 43.804688 49.253906 43.792969 49.335938 43.800781 49.414062 C 43.8125 49.550781 43.765625 49.621094 43.617188 49.609375 C 43.492188 49.601562 43.445312 49.671875 43.449219 49.792969 C 43.453125 49.914062 43.441406 50.03125 43.449219 50.152344 C 43.457031 50.273438 43.40625 50.320312 43.289062 50.308594 C 43.160156 50.296875 43.09375 50.359375 43.097656 50.492188 C 43.101562 50.601562 43.0625 50.667969 42.941406 50.65625 C 42.796875 50.640625 42.742188 50.714844 42.75 50.851562 C 42.761719 50.96875 42.707031 51.023438 42.589844 51.019531 C 42.453125 51.015625 42.394531 51.085938 42.394531 51.21875 C 42.398438 51.316406 42.347656 51.375 42.25 51.371094 C 42.097656 51.363281 42.046875 51.441406 42.042969 51.578125 C 42.042969 51.652344 42.023438 51.707031 41.929688 51.722656 C 41.6875 51.753906 41.6875 51.761719 41.683594 52.007812 C 41.683594 52.089844 41.679688 52.167969 41.6875 52.25 C 41.691406 52.363281 41.65625 52.4375 41.527344 52.4375 C 41.398438 52.433594 41.335938 52.5 41.339844 52.628906 C 41.339844 52.738281 41.277344 52.785156 41.175781 52.78125 C 41.035156 52.773438 40.976562 52.839844 40.980469 52.976562 C 40.984375 53.09375 40.921875 53.140625 40.808594 53.132812 C 40.699219 53.128906 40.589844 53.136719 40.480469 53.132812 C 40.34375 53.128906 40.269531 53.1875 40.277344 53.324219 C 40.285156 53.449219 40.222656 53.484375 40.109375 53.480469 C 40.019531 53.472656 39.933594 53.503906 39.9375 53.601562 C 39.953125 53.832031 39.824219 53.855469 39.644531 53.839844 C 39.570312 53.832031 39.496094 53.84375 39.421875 53.84375 C 39.289062 53.839844 39.210938 53.898438 39.214844 54.035156 C 39.21875 54.15625 39.164062 54.199219 39.050781 54.191406 C 38.953125 54.1875 38.867188 54.226562 38.871094 54.332031 C 38.886719 54.535156 38.773438 54.558594 38.613281 54.542969 C 38.542969 54.539062 38.464844 54.546875 38.390625 54.542969 C 38.246094 54.53125 38.15625 54.574219 38.167969 54.742188 C 38.175781 54.851562 38.117188 54.894531 38.007812 54.890625 C 37.890625 54.886719 37.769531 54.890625 37.648438 54.890625 C 37.523438 54.890625 37.445312 54.945312 37.457031 55.074219 C 37.46875 55.222656 37.390625 55.242188 37.269531 55.242188 C 36.941406 55.234375 36.617188 55.238281 36.289062 55.234375 C 36.140625 55.230469 36.058594 55.285156 36.058594 55.4375 C 36.054688 55.5625 35.992188 55.605469 35.871094 55.605469 C 35.535156 55.597656 35.195312 55.605469 34.855469 55.605469 C 34.726562 55.601562 34.644531 55.640625 34.644531 55.785156 C 34.648438 55.914062 34.578125 55.949219 34.457031 55.949219 C 33.386719 55.949219 32.3125 55.945312 31.242188 55.949219 C 31.097656 55.953125 31.042969 55.894531 31.039062 55.761719 C 31.039062 55.648438 30.972656 55.601562 30.863281 55.601562 C 30.660156 55.605469 30.460938 55.605469 30.261719 55.609375 C 30.167969 55.609375 30.082031 55.632812 30.082031 55.75 C 30.082031 55.859375 30.171875 55.871094 30.253906 55.875 C 30.355469 55.878906 30.414062 55.90625 30.40625 56.027344 C 30.394531 56.171875 30.460938 56.253906 30.617188 56.242188 C 30.71875 56.234375 30.769531 56.277344 30.769531 56.378906 C 30.769531 56.507812 30.84375 56.574219 30.960938 56.578125 C 31.089844 56.582031 31.128906 56.640625 31.125 56.761719 C 31.125 56.886719 31.191406 56.945312 31.320312 56.941406 C 31.441406 56.9375 31.5625 56.945312 31.683594 56.945312 C 31.761719 56.949219 31.820312 56.972656 31.820312 57.0625 C 31.820312 57.265625 31.953125 57.304688 32.117188 57.304688 C 32.394531 57.304688 32.667969 57.304688 32.945312 57.304688 C 33.574219 57.304688 34.207031 57.304688 34.839844 57.304688 C 34.90625 57.304688 34.992188 57.277344 35.011719 57.394531 C 35.058594 57.648438 35.058594 57.648438 35.328125 57.648438 C 35.394531 57.652344 35.464844 57.65625 35.53125 57.648438 C 35.65625 57.636719 35.71875 57.6875 35.714844 57.8125 C 35.714844 57.9375 35.765625 58.007812 35.898438 57.996094 C 36.007812 57.988281 36.0625 58.039062 36.058594 58.148438 C 36.050781 58.28125 36.101562 58.355469 36.246094 58.351562 C 36.347656 58.347656 36.40625 58.398438 36.402344 58.507812 C 36.394531 58.644531 36.464844 58.707031 36.601562 58.703125 C 36.703125 58.699219 36.765625 58.738281 36.757812 58.851562 C 36.742188 58.996094 36.820312 59.050781 36.953125 59.054688 C 37.066406 59.054688 37.117188 59.105469 37.109375 59.222656 C 37.101562 59.308594 37.121094 59.410156 37.222656 59.398438 C 37.480469 59.375 37.464844 59.535156 37.453125 59.703125 C 37.449219 59.765625 37.457031 59.828125 37.453125 59.890625 C 37.441406 60.039062 37.5 60.121094 37.660156 60.117188 C 37.777344 60.109375 37.8125 60.164062 37.808594 60.285156 C 37.796875 60.632812 37.808594 60.984375 37.800781 61.335938 C 37.796875 61.480469 37.859375 61.53125 37.996094 61.523438 C 38.113281 61.519531 38.234375 61.527344 38.355469 61.523438 C 38.46875 61.523438 38.523438 61.566406 38.519531 61.6875 C 38.511719 61.804688 38.523438 61.917969 38.515625 62.03125 C 38.507812 62.164062 38.550781 62.242188 38.699219 62.234375 C 38.804688 62.230469 38.875 62.269531 38.867188 62.394531 C 38.863281 62.515625 38.917969 62.589844 39.050781 62.589844 C 39.164062 62.585938 39.21875 62.636719 39.210938 62.753906 C 39.207031 62.882812 39.277344 62.949219 39.402344 62.941406 C 39.527344 62.933594 39.574219 62.988281 39.574219 63.113281 C 39.574219 63.71875 39.574219 64.328125 39.578125 64.9375 C 39.578125 65.050781 39.550781 65.125 39.414062 65.113281 C 39.28125 65.105469 39.203125 65.171875 39.210938 65.308594 C 39.21875 65.433594 39.160156 65.46875 39.046875 65.460938 C 38.921875 65.453125 38.859375 65.523438 38.867188 65.640625 C 38.875 65.777344 38.808594 65.824219 38.683594 65.820312 C 38.554688 65.8125 38.507812 65.886719 38.515625 66.003906 C 38.523438 66.117188 38.476562 66.179688 38.355469 66.171875 C 38.226562 66.164062 38.164062 66.21875 38.167969 66.351562 C 38.171875 66.476562 38.113281 66.523438 37.988281 66.523438 C 37.382812 66.519531 36.773438 66.519531 36.164062 66.523438 C 36.042969 66.523438 35.976562 66.484375 35.988281 66.355469 C 35.996094 66.222656 35.933594 66.164062 35.804688 66.171875 C 35.691406 66.175781 35.628906 66.128906 35.636719 66.011719 C 35.648438 65.878906 35.585938 65.816406 35.457031 65.820312 C 35.347656 65.824219 35.28125 65.785156 35.289062 65.660156 C 35.300781 65.523438 35.226562 65.453125 35.09375 65.460938 C 34.96875 65.472656 34.925781 65.414062 34.929688 65.304688 C 34.929688 65.175781 34.863281 65.109375 34.738281 65.117188 C 34.613281 65.121094 34.582031 65.058594 34.582031 64.945312 C 34.582031 64.332031 34.585938 63.71875 34.582031 63.105469 C 34.582031 62.980469 34.628906 62.925781 34.753906 62.929688 C 34.894531 62.9375 34.953125 62.863281 34.945312 62.730469 C 34.9375 62.625 34.984375 62.582031 35.085938 62.589844 C 35.226562 62.597656 35.300781 62.535156 35.292969 62.386719 C 35.285156 62.285156 35.332031 62.230469 35.433594 62.238281 C 35.605469 62.253906 35.640625 62.160156 35.640625 62.007812 C 35.640625 61.523438 35.648438 61.519531 36.140625 61.535156 C 36.28125 61.535156 36.339844 61.476562 36.339844 61.339844 C 36.339844 61.132812 36.339844 60.929688 36.339844 60.722656 C 36.34375 60.582031 36.28125 60.519531 36.140625 60.535156 C 36.023438 60.546875 35.96875 60.496094 35.980469 60.378906 C 35.992188 60.238281 35.917969 60.179688 35.785156 60.183594 C 35.6875 60.183594 35.628906 60.140625 35.636719 60.039062 C 35.652344 59.890625 35.582031 59.824219 35.4375 59.828125 C 35.335938 59.828125 35.273438 59.792969 35.285156 59.675781 C 35.296875 59.53125 35.226562 59.460938 35.082031 59.46875 C 34.96875 59.476562 34.921875 59.421875 34.929688 59.316406 C 34.9375 59.164062 34.855469 59.117188 34.714844 59.121094 C 34.492188 59.125 34.269531 59.121094 34.042969 59.121094 C 33.96875 59.121094 33.878906 59.121094 33.882812 59.015625 C 33.898438 58.785156 33.757812 58.773438 33.585938 58.773438 C 32.925781 58.777344 32.265625 58.773438 31.605469 58.773438 C 31.507812 58.773438 31.398438 58.78125 31.40625 58.632812 C 31.414062 58.472656 31.324219 58.421875 31.183594 58.421875 C 30.96875 58.421875 30.757812 58.414062 30.546875 58.417969 C 30.410156 58.421875 30.335938 58.378906 30.339844 58.234375 C 30.34375 58.113281 30.273438 58.054688 30.15625 58.058594 C 30.039062 58.0625 29.992188 58.015625 29.988281 57.898438 C 29.984375 57.785156 29.910156 57.71875 29.796875 57.71875 C 29.6875 57.714844 29.644531 57.664062 29.644531 57.558594 C 29.648438 57.429688 29.582031 57.363281 29.457031 57.363281 C 29.335938 57.367188 29.289062 57.304688 29.289062 57.195312 C 29.285156 57.066406 29.21875 57.007812 29.09375 57.011719 C 28.988281 57.015625 28.929688 56.960938 28.933594 56.855469 C 28.9375 56.707031 28.863281 56.644531 28.722656 56.652344 C 28.613281 56.660156 28.582031 56.605469 28.582031 56.507812 C 28.585938 56.386719 28.585938 56.265625 28.578125 56.144531 C 28.574219 56.050781 28.535156 55.96875 28.429688 55.964844 C 28.320312 55.960938 28.296875 56.050781 28.292969 56.144531 C 28.292969 56.289062 28.292969 56.429688 28.292969 56.574219 C 28.292969 58.148438 28.292969 59.71875 28.292969 61.289062 C 28.292969 61.503906 28.332031 61.539062 28.546875 61.535156 C 28.644531 61.535156 28.742188 61.542969 28.839844 61.535156 C 28.972656 61.519531 29.007812 61.582031 29 61.703125 C 28.996094 61.820312 29.003906 61.933594 29.003906 62.050781 C 29.003906 62.167969 29.058594 62.234375 29.179688 62.226562 C 29.304688 62.21875 29.363281 62.265625 29.359375 62.394531 C 29.351562 62.523438 29.40625 62.585938 29.539062 62.582031 C 29.648438 62.578125 29.714844 62.621094 29.707031 62.746094 C 29.695312 62.875 29.761719 62.9375 29.886719 62.933594 C 30 62.933594 30.050781 62.980469 30.050781 63.101562 C 30.046875 63.714844 30.046875 64.328125 30.050781 64.941406 C 30.050781 65.054688 30.019531 65.121094 29.894531 65.113281 C 29.753906 65.101562 29.695312 65.171875 29.703125 65.308594 C 29.710938 65.414062 29.671875 65.472656 29.554688 65.457031 C 29.410156 65.441406 29.339844 65.507812 29.347656 65.65625 C 29.351562 65.769531 29.300781 65.828125 29.179688 65.820312 C 29.042969 65.8125 28.972656 65.875 28.988281 66.015625 C 29.003906 66.136719 28.949219 66.183594 28.832031 66.175781 C 28.707031 66.164062 28.644531 66.226562 28.648438 66.34375 C 28.648438 66.476562 28.59375 66.523438 28.460938 66.523438 C 27.855469 66.519531 27.246094 66.519531 26.636719 66.523438 C 26.523438 66.523438 26.460938 66.496094 26.476562 66.367188 C 26.488281 66.230469 26.425781 66.160156 26.285156 66.171875 C 26.167969 66.179688 26.113281 66.121094 26.117188 66.007812 C 26.117188 65.878906 26.054688 65.816406 25.929688 65.820312 C 25.816406 65.820312 25.757812 65.769531 25.765625 65.652344 C 25.773438 65.523438 25.710938 65.449219 25.582031 65.460938 C 25.453125 65.472656 25.40625 65.414062 25.414062 65.292969 C 25.421875 65.167969 25.351562 65.109375 25.234375 65.117188 C 25.101562 65.121094 25.066406 65.054688 25.066406 64.9375 C 25.070312 64.328125 25.070312 63.71875 25.066406 63.113281 C 25.066406 62.992188 25.101562 62.925781 25.230469 62.929688 C 25.359375 62.9375 25.421875 62.875 25.414062 62.746094 C 25.410156 62.636719 25.464844 62.582031 25.570312 62.585938 C 25.722656 62.59375 25.773438 62.515625 25.773438 62.378906 C 25.773438 62.300781 25.796875 62.230469 25.886719 62.238281 C 26.117188 62.257812 26.117188 62.113281 26.117188 61.953125 C 26.117188 61.539062 26.121094 61.539062 26.523438 61.539062 C 26.816406 61.535156 26.824219 61.527344 26.824219 61.242188 C 26.824219 60.105469 26.824219 58.96875 26.824219 57.832031 C 26.824219 57.277344 26.824219 56.71875 26.824219 56.164062 C 26.824219 56.058594 26.8125 55.957031 26.675781 55.957031 C 26.550781 55.957031 26.539062 56.058594 26.535156 56.152344 C 26.535156 56.269531 26.53125 56.382812 26.535156 56.496094 C 26.539062 56.605469 26.503906 56.660156 26.386719 56.648438 C 26.25 56.632812 26.179688 56.691406 26.183594 56.832031 C 26.1875 56.949219 26.144531 57.019531 26.011719 57.011719 C 25.875 57.003906 25.816406 57.078125 25.820312 57.214844 C 25.820312 57.277344 25.820312 57.359375 25.734375 57.355469 C 25.582031 57.351562 25.496094 57.425781 25.425781 57.550781 C 25.394531 57.613281 25.320312 57.660156 25.257812 57.691406 C 25.167969 57.734375 25.121094 57.796875 25.128906 57.894531 C 25.136719 58.023438 25.070312 58.066406 24.949219 58.058594 C 24.828125 58.046875 24.765625 58.109375 24.769531 58.230469 C 24.78125 58.390625 24.699219 58.417969 24.558594 58.414062 C 24.335938 58.40625 24.109375 58.414062 23.886719 58.417969 C 23.808594 58.417969 23.714844 58.4375 23.722656 58.53125 C 23.742188 58.789062 23.578125 58.777344 23.398438 58.777344 C 22.757812 58.773438 22.117188 58.777344 21.472656 58.773438 C 21.347656 58.773438 21.230469 58.785156 21.238281 58.949219 C 21.246094 59.09375 21.171875 59.125 21.046875 59.121094 C 20.824219 59.117188 20.601562 59.125 20.375 59.121094 C 20.238281 59.117188 20.171875 59.175781 20.175781 59.3125 C 20.175781 59.40625 20.15625 59.472656 20.042969 59.464844 C 19.886719 59.457031 19.820312 59.535156 19.828125 59.6875 C 19.835938 59.796875 19.777344 59.824219 19.679688 59.816406 C 19.546875 59.804688 19.46875 59.863281 19.480469 60.003906 C 19.492188 60.132812 19.429688 60.183594 19.308594 60.179688 C 19.1875 60.171875 19.128906 60.238281 19.132812 60.359375 C 19.136719 60.492188 19.074219 60.542969 18.941406 60.53125 C 18.816406 60.523438 18.765625 60.59375 18.761719 60.710938 C 18.761719 60.851562 18.761719 60.996094 18.761719 61.140625 C 18.761719 61.519531 18.761719 61.519531 19.144531 61.523438 C 19.550781 61.527344 19.472656 61.523438 19.480469 61.855469 C 19.484375 61.90625 19.484375 61.957031 19.480469 62.007812 C 19.472656 62.148438 19.53125 62.230469 19.675781 62.230469 C 19.789062 62.226562 19.847656 62.277344 19.84375 62.394531 C 19.839844 62.535156 19.917969 62.589844 20.050781 62.585938 C 20.136719 62.582031 20.195312 62.621094 20.183594 62.71875 C 20.171875 62.867188 20.238281 62.929688 20.382812 62.929688 C 20.476562 62.929688 20.539062 62.960938 20.539062 63.070312 C 20.539062 63.699219 20.539062 64.332031 20.539062 64.960938 C 20.539062 65.054688 20.503906 65.121094 20.398438 65.113281 C 20.25 65.097656 20.1875 65.167969 20.183594 65.3125 C 20.183594 65.414062 20.140625 65.472656 20.027344 65.460938 C 19.890625 65.449219 19.820312 65.519531 19.828125 65.65625 C 19.832031 65.773438 19.785156 65.828125 19.664062 65.816406 C 19.515625 65.800781 19.46875 65.875 19.480469 66.007812 C 19.488281 66.128906 19.433594 66.179688 19.316406 66.171875 C 19.1875 66.164062 19.121094 66.222656 19.125 66.355469 C 19.132812 66.480469 19.070312 66.523438 18.949219 66.523438 C 18.339844 66.519531 17.730469 66.519531 17.125 66.523438 C 17.011719 66.523438 16.945312 66.488281 16.953125 66.367188 C 16.964844 66.214844 16.886719 66.160156 16.746094 66.167969 C 16.648438 66.175781 16.597656 66.125 16.601562 66.023438 C 16.609375 65.886719 16.542969 65.820312 16.410156 65.820312 C 16.292969 65.816406 16.246094 65.761719 16.25 65.648438 C 16.257812 65.519531 16.183594 65.453125 16.058594 65.457031 C 15.949219 65.460938 15.898438 65.410156 15.898438 65.304688 C 15.894531 65.179688 15.828125 65.117188 15.703125 65.117188 C 15.582031 65.121094 15.546875 65.058594 15.546875 64.945312 C 15.546875 64.328125 15.546875 63.707031 15.546875 63.089844 C 15.546875 62.980469 15.589844 62.925781 15.699219 62.929688 C 15.835938 62.9375 15.898438 62.875 15.898438 62.738281 C 15.898438 62.644531 15.933594 62.582031 16.039062 62.585938 C 16.195312 62.59375 16.257812 62.511719 16.253906 62.367188 C 16.253906 62.28125 16.292969 62.230469 16.378906 62.238281 C 16.589844 62.257812 16.601562 62.132812 16.605469 61.96875 C 16.613281 61.46875 16.515625 61.554688 17.066406 61.53125 C 17.273438 61.523438 17.292969 61.515625 17.308594 61.3125 C 17.332031 60.980469 17.3125 60.648438 17.308594 60.316406 C 17.304688 60.195312 17.332031 60.117188 17.480469 60.125 C 17.609375 60.128906 17.675781 60.054688 17.667969 59.917969 C 17.664062 59.808594 17.671875 59.699219 17.667969 59.589844 C 17.660156 59.472656 17.695312 59.398438 17.828125 59.410156 C 17.972656 59.421875 18.027344 59.351562 18.015625 59.214844 C 18.007812 59.105469 18.058594 59.054688 18.167969 59.0625 C 18.308594 59.074219 18.367188 59.003906 18.359375 58.867188 C 18.351562 58.757812 18.398438 58.703125 18.511719 58.714844 C 18.648438 58.730469 18.714844 58.664062 18.714844 58.527344 C 18.714844 58.410156 18.765625 58.34375 18.890625 58.351562 C 19.023438 58.355469 19.082031 58.28125 19.074219 58.160156 C 19.066406 58.039062 19.117188 57.992188 19.234375 58 C 19.332031 58.003906 19.417969 57.964844 19.414062 57.859375 C 19.40625 57.671875 19.503906 57.636719 19.660156 57.652344 C 19.742188 57.65625 19.820312 57.648438 19.902344 57.648438 C 20.027344 57.648438 20.117188 57.601562 20.113281 57.460938 C 20.113281 57.335938 20.175781 57.304688 20.289062 57.304688 C 20.484375 57.308594 20.675781 57.304688 20.871094 57.304688 C 21.589844 57.304688 22.308594 57.304688 23.023438 57.304688 C 23.128906 57.304688 23.261719 57.3125 23.273438 57.183594 C 23.292969 56.964844 23.429688 56.945312 23.59375 56.949219 C 23.664062 56.953125 23.730469 56.945312 23.800781 56.945312 C 23.925781 56.941406 23.996094 56.878906 24 56.757812 C 24 56.640625 24.054688 56.59375 24.167969 56.589844 C 24.292969 56.585938 24.355469 56.515625 24.355469 56.390625 C 24.351562 56.292969 24.398438 56.238281 24.5 56.246094 C 24.632812 56.25 24.703125 56.191406 24.703125 56.054688 C 24.703125 55.945312 24.742188 55.882812 24.867188 55.886719 C 24.957031 55.886719 25.046875 55.859375 25.035156 55.742188 C 25.027344 55.625 24.933594 55.613281 24.847656 55.609375 C 24.652344 55.605469 24.457031 55.609375 24.261719 55.605469 C 24.128906 55.601562 24.050781 55.652344 24.0625 55.796875 C 24.066406 55.90625 24.015625 55.949219 23.90625 55.949219 C 22.8125 55.949219 21.714844 55.949219 20.621094 55.949219 C 20.53125 55.949219 20.476562 55.925781 20.484375 55.824219 C 20.496094 55.648438 20.40625 55.597656 20.242188 55.601562 C 19.902344 55.609375 19.5625 55.597656 19.226562 55.597656 C 19.113281 55.597656 19.046875 55.5625 19.058594 55.441406 C 19.070312 55.277344 18.984375 55.230469 18.835938 55.234375 C 18.511719 55.238281 18.183594 55.230469 17.855469 55.238281 C 17.722656 55.242188 17.648438 55.214844 17.664062 55.0625 C 17.675781 54.9375 17.609375 54.882812 17.488281 54.886719 C 17.367188 54.890625 17.246094 54.882812 17.125 54.890625 C 17 54.898438 16.941406 54.847656 16.949219 54.722656 C 16.957031 54.585938 16.886719 54.539062 16.757812 54.542969 C 16.644531 54.546875 16.53125 54.539062 16.414062 54.542969 C 16.300781 54.546875 16.242188 54.503906 16.253906 54.382812 C 16.269531 54.242188 16.199219 54.183594 16.0625 54.1875 C 15.984375 54.1875 15.898438 54.183594 15.902344 54.078125 C 15.914062 53.867188 15.785156 53.832031 15.617188 53.835938 C 15.539062 53.839844 15.457031 53.828125 15.378906 53.832031 C 15.25 53.839844 15.175781 53.800781 15.191406 53.660156 C 15.203125 53.527344 15.140625 53.46875 15.007812 53.476562 C 14.910156 53.480469 14.835938 53.457031 14.847656 53.335938 C 14.859375 53.175781 14.777344 53.117188 14.628906 53.128906 C 14.558594 53.136719 14.507812 53.117188 14.488281 53.035156 C 14.421875 52.777344 14.421875 52.78125 14.160156 52.777344 C 14.09375 52.777344 14.03125 52.773438 13.96875 52.777344 C 13.84375 52.78125 13.769531 52.742188 13.78125 52.601562 C 13.785156 52.519531 13.757812 52.4375 13.664062 52.441406 C 13.417969 52.457031 13.417969 52.304688 13.429688 52.132812 C 13.433594 52.070312 13.429688 52.003906 13.433594 51.941406 C 13.441406 51.796875 13.375 51.710938 13.230469 51.699219 C 13.132812 51.691406 13.085938 51.648438 13.085938 51.546875 C 13.089844 51.425781 13.027344 51.371094 12.90625 51.371094 C 12.820312 51.371094 12.742188 51.351562 12.734375 51.246094 C 12.726562 51.113281 12.679688 51.023438 12.546875 50.96875 C 12.472656 50.9375 12.417969 50.855469 12.378906 50.777344 C 12.355469 50.722656 12.320312 50.683594 12.261719 50.660156 C 12.148438 50.605469 12.046875 50.535156 12.007812 50.402344 C 11.992188 50.347656 11.945312 50.308594 11.890625 50.3125 C 11.691406 50.332031 11.664062 50.214844 11.671875 50.054688 C 11.679688 49.980469 11.671875 49.90625 11.671875 49.832031 C 11.671875 49.691406 11.632812 49.59375 11.46875 49.605469 C 11.347656 49.613281 11.308594 49.546875 11.3125 49.433594 C 11.316406 49.320312 11.308594 49.203125 11.308594 49.089844 C 11.3125 48.964844 11.261719 48.890625 11.125 48.898438 C 11.015625 48.90625 10.949219 48.867188 10.957031 48.742188 C 10.96875 48.601562 10.898438 48.542969 10.761719 48.554688 C 10.648438 48.5625 10.609375 48.507812 10.613281 48.398438 C 10.613281 48.164062 10.605469 47.929688 10.613281 47.695312 C 10.617188 47.546875 10.5625 47.476562 10.414062 47.488281 C 10.324219 47.492188 10.261719 47.476562 10.246094 47.367188 C 10.214844 47.125 10.183594 47.105469 9.933594 47.164062 M 27.890625 47.25 C 27.890625 46.671875 27.890625 46.089844 27.890625 45.511719 C 27.890625 45.40625 27.894531 45.3125 28.035156 45.3125 C 28.191406 45.3125 28.238281 45.222656 28.238281 45.078125 C 28.234375 44.855469 28.238281 44.632812 28.238281 44.40625 C 28.238281 44.324219 28.257812 44.257812 28.359375 44.257812 C 28.542969 44.257812 28.589844 44.144531 28.582031 43.984375 C 28.578125 43.910156 28.585938 43.835938 28.582031 43.761719 C 28.570312 43.632812 28.605469 43.550781 28.753906 43.546875 C 28.882812 43.546875 28.929688 43.460938 28.933594 43.339844 C 28.933594 43.230469 28.9375 43.121094 28.9375 43.015625 C 28.941406 42.90625 28.976562 42.839844 29.101562 42.847656 C 29.242188 42.855469 29.304688 42.773438 29.292969 42.644531 C 29.285156 42.527344 29.339844 42.496094 29.445312 42.496094 C 29.585938 42.5 29.652344 42.425781 29.648438 42.28125 C 29.644531 42.179688 29.648438 42.074219 29.648438 41.972656 C 29.644531 41.863281 29.675781 41.792969 29.800781 41.796875 C 29.933594 41.796875 30.003906 41.722656 29.992188 41.589844 C 29.980469 41.46875 30.039062 41.421875 30.152344 41.421875 C 30.273438 41.421875 30.351562 41.375 30.34375 41.238281 C 30.335938 41.128906 30.390625 41.082031 30.5 41.089844 C 30.640625 41.101562 30.699219 41.027344 30.695312 40.890625 C 30.691406 40.777344 30.746094 40.722656 30.859375 40.722656 C 30.945312 40.722656 31.039062 40.699219 31.035156 40.601562 C 31.035156 40.359375 31.191406 40.363281 31.359375 40.371094 C 31.421875 40.375 31.484375 40.375 31.546875 40.371094 C 31.648438 40.367188 31.738281 40.339844 31.738281 40.222656 C 31.734375 40.105469 31.644531 40.085938 31.550781 40.089844 C 31.4375 40.09375 31.402344 40.035156 31.40625 39.929688 C 31.410156 39.804688 31.402344 39.679688 31.402344 39.550781 C 31.402344 39.476562 31.382812 39.394531 31.300781 39.402344 C 31.027344 39.421875 31.042969 39.25 31.054688 39.070312 C 31.058594 39.003906 31.042969 38.933594 31.042969 38.863281 C 31.042969 38.738281 30.992188 38.667969 30.859375 38.675781 C 30.75 38.683594 30.691406 38.644531 30.707031 38.53125 C 30.730469 38.378906 30.664062 38.316406 30.515625 38.328125 C 30.410156 38.335938 30.347656 38.289062 30.351562 38.179688 C 30.355469 38.023438 30.28125 37.960938 30.132812 37.972656 C 30.027344 37.976562 29.992188 37.917969 29.992188 37.820312 C 29.996094 37.699219 29.988281 37.578125 29.996094 37.457031 C 30 37.316406 29.941406 37.25 29.800781 37.265625 C 29.683594 37.28125 29.628906 37.234375 29.644531 37.113281 C 29.660156 36.976562 29.59375 36.90625 29.453125 36.917969 C 29.339844 36.929688 29.28125 36.875 29.285156 36.761719 C 29.289062 36.625 29.234375 36.554688 29.09375 36.5625 C 28.980469 36.566406 28.917969 36.519531 28.929688 36.398438 C 28.941406 36.261719 28.867188 36.210938 28.742188 36.214844 C 28.617188 36.214844 28.566406 36.15625 28.578125 36.03125 C 28.59375 35.910156 28.535156 35.84375 28.410156 35.855469 C 28.273438 35.867188 28.222656 35.800781 28.234375 35.671875 C 28.242188 35.570312 28.199219 35.496094 28.085938 35.511719 C 27.886719 35.535156 27.882812 35.421875 27.882812 35.269531 C 27.882812 34.765625 27.972656 34.808594 27.394531 34.804688 C 27.277344 34.804688 27.226562 34.863281 27.226562 34.976562 C 27.230469 35.101562 27.226562 35.226562 27.226562 35.351562 C 27.230469 35.460938 27.1875 35.515625 27.074219 35.503906 C 26.921875 35.488281 26.871094 35.566406 26.878906 35.710938 C 26.886719 35.8125 26.835938 35.859375 26.734375 35.851562 C 26.585938 35.839844 26.523438 35.910156 26.535156 36.054688 C 26.546875 36.167969 26.492188 36.207031 26.382812 36.203125 C 26.25 36.195312 26.175781 36.257812 26.183594 36.398438 C 26.1875 36.511719 26.132812 36.566406 26.015625 36.558594 C 25.898438 36.550781 25.832031 36.609375 25.832031 36.730469 C 25.835938 36.867188 25.78125 36.933594 25.636719 36.917969 C 25.523438 36.90625 25.464844 36.964844 25.472656 37.082031 C 25.484375 37.226562 25.417969 37.277344 25.28125 37.265625 C 25.171875 37.257812 25.125 37.320312 25.125 37.425781 C 25.125 37.546875 25.121094 37.667969 25.125 37.785156 C 25.128906 37.902344 25.09375 37.976562 24.964844 37.972656 C 24.839844 37.96875 24.769531 38.023438 24.773438 38.15625 C 24.777344 38.269531 24.722656 38.328125 24.609375 38.324219 C 24.476562 38.316406 24.417969 38.378906 24.421875 38.507812 C 24.425781 38.628906 24.375 38.6875 24.246094 38.675781 C 24.117188 38.667969 24.058594 38.738281 24.058594 38.863281 C 24.0625 38.992188 24.058594 39.117188 24.058594 39.242188 C 24.058594 39.316406 24.035156 39.378906 23.953125 39.375 C 23.71875 39.359375 23.699219 39.507812 23.714844 39.6875 C 23.71875 39.753906 23.710938 39.824219 23.714844 39.894531 C 23.726562 40.027344 23.679688 40.101562 23.53125 40.089844 C 23.445312 40.085938 23.371094 40.117188 23.371094 40.222656 C 23.371094 40.328125 23.441406 40.363281 23.527344 40.367188 C 23.65625 40.371094 23.78125 40.375 23.90625 40.371094 C 24.011719 40.371094 24.070312 40.410156 24.0625 40.523438 C 24.046875 40.671875 24.121094 40.730469 24.261719 40.726562 C 24.363281 40.722656 24.429688 40.765625 24.425781 40.878906 C 24.421875 41.011719 24.484375 41.082031 24.621094 41.078125 C 24.726562 41.078125 24.78125 41.128906 24.773438 41.238281 C 24.769531 41.359375 24.828125 41.421875 24.949219 41.417969 C 25.082031 41.417969 25.136719 41.476562 25.128906 41.609375 C 25.121094 41.699219 25.144531 41.785156 25.25 41.777344 C 25.460938 41.761719 25.488281 41.875 25.472656 42.039062 C 25.464844 42.113281 25.472656 42.191406 25.472656 42.265625 C 25.472656 42.40625 25.523438 42.496094 25.683594 42.492188 C 25.792969 42.488281 25.839844 42.535156 25.828125 42.648438 C 25.8125 42.796875 25.886719 42.863281 26.03125 42.847656 C 26.136719 42.839844 26.175781 42.890625 26.175781 42.988281 C 26.175781 43.121094 26.179688 43.253906 26.183594 43.386719 C 26.1875 43.464844 26.207031 43.550781 26.304688 43.542969 C 26.539062 43.523438 26.546875 43.664062 26.535156 43.835938 C 26.53125 43.914062 26.539062 43.996094 26.535156 44.074219 C 26.527344 44.207031 26.589844 44.269531 26.71875 44.257812 C 26.855469 44.242188 26.886719 44.304688 26.882812 44.425781 C 26.878906 44.644531 26.882812 44.863281 26.886719 45.082031 C 26.890625 45.179688 26.90625 45.292969 27.03125 45.296875 C 27.21875 45.304688 27.234375 45.40625 27.234375 45.558594 C 27.226562 46.1875 27.226562 46.820312 27.230469 47.449219 C 27.234375 47.71875 27.285156 47.769531 27.515625 47.777344 C 27.851562 47.78125 27.886719 47.746094 27.890625 47.402344 C 27.890625 47.363281 27.890625 47.324219 27.890625 47.25 M 18.09375 47.128906 C 18.035156 47.109375 18.011719 47.0625 18.015625 47.007812 C 18.027344 46.824219 17.917969 46.789062 17.765625 46.792969 C 17.546875 46.796875 17.328125 46.789062 17.113281 46.789062 C 16.996094 46.792969 16.933594 46.75 16.945312 46.628906 C 16.960938 46.472656 16.871094 46.425781 16.738281 46.425781 C 16.542969 46.425781 16.347656 46.425781 16.152344 46.425781 C 16.019531 46.425781 15.945312 46.496094 15.945312 46.625 C 15.941406 46.945312 15.949219 47.265625 15.953125 47.585938 C 15.957031 47.710938 16.015625 47.78125 16.144531 47.777344 C 16.289062 47.769531 16.3125 47.847656 16.3125 47.972656 C 16.308594 48.195312 16.316406 48.417969 16.3125 48.640625 C 16.308594 48.78125 16.359375 48.851562 16.5 48.839844 C 16.617188 48.832031 16.664062 48.886719 16.660156 49.003906 C 16.65625 49.125 16.660156 49.246094 16.664062 49.363281 C 16.667969 49.441406 16.683594 49.535156 16.777344 49.53125 C 17.027344 49.515625 17.015625 49.671875 17.003906 49.839844 C 17 49.902344 17.007812 49.964844 17.003906 50.027344 C 17 50.171875 17.066406 50.246094 17.207031 50.246094 C 17.324219 50.242188 17.375 50.296875 17.375 50.410156 C 17.371094 50.539062 17.429688 50.605469 17.558594 50.601562 C 17.671875 50.597656 17.730469 50.640625 17.726562 50.761719 C 17.722656 50.871094 17.78125 50.933594 17.890625 50.945312 C 17.996094 50.957031 18.058594 51.011719 18.070312 51.121094 C 18.078125 51.253906 18.15625 51.316406 18.285156 51.308594 C 18.398438 51.304688 18.4375 51.363281 18.433594 51.46875 C 18.429688 51.601562 18.492188 51.671875 18.632812 51.660156 C 18.75 51.652344 18.78125 51.722656 18.777344 51.820312 C 18.773438 51.949219 18.828125 52.019531 18.960938 52.007812 C 19.09375 52 19.136719 52.074219 19.128906 52.1875 C 19.125 52.3125 19.191406 52.363281 19.3125 52.359375 C 19.425781 52.359375 19.539062 52.363281 19.65625 52.359375 C 19.765625 52.359375 19.832031 52.390625 19.828125 52.515625 C 19.824219 52.652344 19.902344 52.707031 20.035156 52.707031 C 20.160156 52.707031 20.285156 52.710938 20.414062 52.710938 C 20.5 52.714844 20.554688 52.753906 20.546875 52.847656 C 20.535156 53.027344 20.632812 53.074219 20.792969 53.074219 C 21.117188 53.070312 21.445312 53.074219 21.773438 53.070312 C 21.882812 53.070312 21.953125 53.101562 21.949219 53.222656 C 21.941406 53.390625 22.042969 53.417969 22.183594 53.417969 C 23.144531 53.417969 24.109375 53.417969 25.074219 53.417969 C 25.144531 53.417969 25.210938 53.414062 25.273438 53.382812 C 25.324219 53.359375 25.363281 53.324219 25.363281 53.265625 C 25.363281 53.199219 25.3125 53.152344 25.257812 53.152344 C 25.066406 53.148438 25.058594 53.027344 25.066406 52.882812 C 25.070312 52.796875 25.066406 52.710938 25.058594 52.625 C 25.050781 52.546875 25.015625 52.460938 24.933594 52.460938 C 24.691406 52.460938 24.699219 52.304688 24.710938 52.136719 C 24.714844 52.066406 24.707031 52 24.707031 51.929688 C 24.703125 51.800781 24.648438 51.71875 24.511719 51.722656 C 24.398438 51.726562 24.351562 51.675781 24.351562 51.570312 C 24.355469 51.445312 24.289062 51.386719 24.175781 51.382812 C 24.046875 51.378906 23.988281 51.320312 23.984375 51.195312 C 23.980469 51.066406 23.910156 51 23.785156 51.007812 C 23.675781 51.015625 23.644531 50.964844 23.648438 50.867188 C 23.652344 50.734375 23.582031 50.664062 23.449219 50.667969 C 23.34375 50.667969 23.289062 50.621094 23.285156 50.511719 C 23.28125 50.378906 23.210938 50.308594 23.078125 50.308594 C 22.984375 50.308594 22.941406 50.265625 22.945312 50.171875 C 22.945312 50.027344 22.871094 49.964844 22.730469 49.964844 C 22.640625 49.964844 22.585938 49.921875 22.59375 49.828125 C 22.605469 49.675781 22.539062 49.605469 22.386719 49.609375 C 22.289062 49.609375 22.238281 49.5625 22.242188 49.460938 C 22.242188 49.3125 22.167969 49.238281 22.019531 49.242188 C 21.964844 49.246094 21.894531 49.242188 21.902344 49.171875 C 21.929688 48.984375 21.820312 48.910156 21.671875 48.847656 C 21.628906 48.832031 21.574219 48.78125 21.566406 48.742188 C 21.53125 48.546875 21.394531 48.539062 21.242188 48.550781 C 21.167969 48.554688 21.09375 48.546875 21.019531 48.550781 C 20.894531 48.558594 20.824219 48.515625 20.832031 48.378906 C 20.839844 48.242188 20.761719 48.195312 20.636719 48.195312 C 20.523438 48.199219 20.40625 48.191406 20.292969 48.191406 C 20.179688 48.195312 20.121094 48.148438 20.125 48.027344 C 20.128906 47.894531 20.066406 47.824219 19.929688 47.832031 C 19.820312 47.84375 19.765625 47.796875 19.769531 47.6875 C 19.777344 47.535156 19.691406 47.488281 19.554688 47.488281 C 19.335938 47.492188 19.117188 47.484375 18.898438 47.488281 C 18.777344 47.492188 18.714844 47.449219 18.714844 47.324219 C 18.71875 47.183594 18.632812 47.136719 18.503906 47.140625 C 18.378906 47.140625 18.25 47.136719 18.09375 47.128906 M 39.164062 46.875 C 39.160156 46.804688 39.152344 46.734375 39.160156 46.667969 C 39.171875 46.496094 39.097656 46.425781 38.929688 46.425781 C 38.738281 46.433594 38.550781 46.425781 38.359375 46.429688 C 38.242188 46.429688 38.160156 46.480469 38.171875 46.617188 C 38.179688 46.753906 38.105469 46.796875 37.980469 46.796875 C 37.75 46.792969 37.523438 46.796875 37.292969 46.796875 C 37.195312 46.796875 37.105469 46.816406 37.113281 46.929688 C 37.128906 47.136719 37.007812 47.152344 36.855469 47.140625 C 36.78125 47.136719 36.703125 47.144531 36.628906 47.140625 C 36.484375 47.132812 36.394531 47.179688 36.40625 47.34375 C 36.414062 47.453125 36.355469 47.492188 36.246094 47.492188 C 36.019531 47.488281 35.789062 47.496094 35.558594 47.5 C 35.4375 47.5 35.339844 47.539062 35.351562 47.6875 C 35.359375 47.8125 35.292969 47.84375 35.183594 47.835938 C 35.09375 47.828125 35.003906 47.867188 35.007812 47.960938 C 35.015625 48.199219 34.871094 48.214844 34.695312 48.203125 C 34.632812 48.195312 34.566406 48.203125 34.503906 48.199219 C 34.363281 48.195312 34.285156 48.253906 34.285156 48.398438 C 34.289062 48.523438 34.222656 48.554688 34.113281 48.554688 C 34.003906 48.550781 33.894531 48.554688 33.785156 48.550781 C 33.660156 48.550781 33.585938 48.605469 33.585938 48.734375 C 33.585938 48.859375 33.53125 48.910156 33.410156 48.90625 C 33.289062 48.90625 33.226562 48.980469 33.230469 49.09375 C 33.234375 49.222656 33.171875 49.265625 33.054688 49.265625 C 32.925781 49.265625 32.863281 49.335938 32.871094 49.460938 C 32.875 49.5625 32.824219 49.613281 32.726562 49.613281 C 32.59375 49.609375 32.519531 49.664062 32.527344 49.804688 C 32.53125 49.910156 32.480469 49.964844 32.371094 49.964844 C 32.234375 49.960938 32.175781 50.035156 32.171875 50.164062 C 32.167969 50.246094 32.140625 50.308594 32.039062 50.3125 C 31.910156 50.3125 31.84375 50.394531 31.828125 50.515625 C 31.8125 50.605469 31.78125 50.664062 31.671875 50.65625 C 31.527344 50.648438 31.460938 50.726562 31.464844 50.867188 C 31.46875 50.964844 31.425781 51.019531 31.324219 51.015625 C 31.199219 51.015625 31.128906 51.082031 31.121094 51.203125 C 31.117188 51.316406 31.070312 51.371094 30.957031 51.375 C 30.84375 51.378906 30.773438 51.441406 30.769531 51.558594 C 30.765625 51.667969 30.726562 51.726562 30.605469 51.722656 C 30.460938 51.71875 30.398438 51.804688 30.398438 51.941406 C 30.398438 52.046875 30.394531 52.148438 30.398438 52.253906 C 30.402344 52.371094 30.371094 52.441406 30.238281 52.4375 C 30.09375 52.433594 30.046875 52.519531 30.050781 52.648438 C 30.054688 52.71875 30.046875 52.789062 30.050781 52.855469 C 30.070312 53.027344 30.054688 53.167969 29.828125 53.164062 C 29.765625 53.160156 29.722656 53.210938 29.71875 53.277344 C 29.71875 53.34375 29.761719 53.382812 29.824219 53.394531 C 29.886719 53.40625 29.949219 53.414062 30.011719 53.414062 C 30.320312 53.417969 30.628906 53.417969 30.941406 53.417969 C 31.59375 53.417969 32.25 53.417969 32.902344 53.417969 C 33.011719 53.417969 33.148438 53.425781 33.160156 53.28125 C 33.179688 53.082031 33.300781 53.074219 33.445312 53.074219 C 33.75 53.070312 34.054688 53.0625 34.355469 53.058594 C 34.492188 53.054688 34.578125 53.003906 34.574219 52.851562 C 34.570312 52.746094 34.628906 52.714844 34.726562 52.714844 C 34.859375 52.714844 34.988281 52.707031 35.121094 52.703125 C 35.207031 52.699219 35.28125 52.664062 35.277344 52.578125 C 35.269531 52.351562 35.40625 52.347656 35.570312 52.359375 C 35.636719 52.363281 35.707031 52.359375 35.773438 52.359375 C 35.90625 52.363281 35.984375 52.308594 35.984375 52.171875 C 35.984375 52.054688 36.042969 52.007812 36.152344 52.003906 C 36.265625 51.996094 36.335938 51.933594 36.335938 51.816406 C 36.335938 51.699219 36.390625 51.652344 36.507812 51.65625 C 36.636719 51.660156 36.699219 51.585938 36.691406 51.464844 C 36.6875 51.339844 36.75 51.300781 36.859375 51.304688 C 36.984375 51.304688 37.054688 51.246094 37.046875 51.117188 C 37.042969 51.015625 37.101562 50.96875 37.191406 50.960938 C 37.332031 50.949219 37.402344 50.882812 37.394531 50.738281 C 37.390625 50.640625 37.4375 50.59375 37.539062 50.59375 C 37.671875 50.597656 37.746094 50.535156 37.746094 50.398438 C 37.746094 50.273438 37.816406 50.242188 37.925781 50.25 C 38.054688 50.261719 38.113281 50.195312 38.109375 50.066406 C 38.109375 49.949219 38.117188 49.835938 38.113281 49.722656 C 38.105469 49.601562 38.140625 49.53125 38.273438 49.535156 C 38.386719 49.539062 38.433594 49.472656 38.441406 49.363281 C 38.445312 49.238281 38.457031 49.113281 38.460938 48.988281 C 38.460938 48.886719 38.496094 48.835938 38.601562 48.839844 C 38.761719 48.84375 38.808594 48.75 38.804688 48.605469 C 38.800781 48.390625 38.808594 48.171875 38.804688 47.953125 C 38.800781 47.84375 38.832031 47.773438 38.953125 47.777344 C 39.113281 47.78125 39.160156 47.6875 39.160156 47.542969 C 39.160156 47.332031 39.160156 47.121094 39.164062 46.875 M 21.179688 42.023438 C 21.167969 41.882812 21.175781 41.765625 21.371094 41.78125 C 21.472656 41.789062 21.527344 41.71875 21.527344 41.617188 C 21.53125 41.480469 21.535156 41.34375 21.53125 41.207031 C 21.523438 40.796875 21.597656 40.789062 21.101562 40.792969 C 20.910156 40.792969 20.714844 40.804688 20.53125 40.730469 C 20.574219 40.535156 20.484375 40.433594 20.289062 40.433594 C 18.917969 40.429688 17.546875 40.429688 16.175781 40.433594 C 15.992188 40.433594 15.941406 40.484375 15.941406 40.667969 C 15.941406 40.886719 15.953125 41.105469 15.953125 41.320312 C 15.953125 42.445312 15.945312 43.570312 15.945312 44.695312 C 15.945312 44.933594 15.980469 44.960938 16.214844 44.960938 C 16.542969 44.964844 16.867188 44.964844 17.195312 44.964844 C 17.300781 44.964844 17.375 44.996094 17.371094 45.121094 C 17.367188 45.261719 17.453125 45.304688 17.582031 45.304688 C 17.703125 45.300781 17.824219 45.304688 17.941406 45.308594 C 18.023438 45.308594 18.078125 45.335938 18.074219 45.425781 C 18.0625 45.648438 18.167969 45.671875 18.355469 45.671875 C 18.675781 45.671875 19 45.671875 19.320312 45.671875 C 19.390625 45.671875 19.46875 45.660156 19.484375 45.769531 C 19.519531 46.015625 19.523438 46.015625 19.769531 46.019531 C 19.84375 46.019531 19.917969 46.023438 19.992188 46.015625 C 20.128906 46.003906 20.203125 46.046875 20.183594 46.199219 C 20.167969 46.332031 20.238281 46.371094 20.359375 46.367188 C 20.484375 46.363281 20.609375 46.367188 20.738281 46.367188 C 20.839844 46.367188 20.902344 46.40625 20.890625 46.519531 C 20.878906 46.671875 20.953125 46.726562 21.097656 46.722656 C 21.183594 46.71875 21.242188 46.75 21.238281 46.851562 C 21.226562 47.019531 21.316406 47.0625 21.46875 47.066406 C 21.886719 47.078125 21.894531 47.070312 21.894531 46.640625 C 21.894531 46.492188 21.839844 46.417969 21.695312 46.429688 C 21.554688 46.4375 21.535156 46.359375 21.535156 46.25 C 21.535156 46.128906 21.53125 46.007812 21.53125 45.886719 C 21.527344 45.800781 21.488281 45.730469 21.398438 45.738281 C 21.183594 45.75 21.179688 45.625 21.179688 45.464844 C 21.183594 44.328125 21.179688 43.191406 21.179688 42.023438 M 39.160156 44.152344 C 39.160156 42.996094 39.160156 41.835938 39.15625 40.675781 C 39.15625 40.460938 39.132812 40.433594 38.945312 40.433594 C 37.585938 40.429688 36.226562 40.433594 34.867188 40.429688 C 34.714844 40.429688 34.632812 40.484375 34.636719 40.636719 C 34.644531 40.777344 34.566406 40.796875 34.453125 40.792969 C 34.242188 40.789062 34.03125 40.800781 33.820312 40.792969 C 33.644531 40.785156 33.578125 40.863281 33.585938 41.027344 C 33.589844 41.21875 33.589844 41.40625 33.589844 41.597656 C 33.585938 41.726562 33.640625 41.792969 33.769531 41.785156 C 33.902344 41.773438 33.941406 41.835938 33.941406 41.957031 C 33.9375 43.164062 33.9375 44.367188 33.9375 45.570312 C 33.941406 45.679688 33.914062 45.75 33.785156 45.734375 C 33.640625 45.71875 33.589844 45.804688 33.589844 45.933594 C 33.589844 46.042969 33.582031 46.152344 33.585938 46.261719 C 33.59375 46.386719 33.539062 46.445312 33.414062 46.433594 C 33.273438 46.417969 33.242188 46.5 33.234375 46.621094 C 33.207031 47.085938 33.230469 47.078125 33.699219 47.0625 C 33.808594 47.058594 33.875 46.996094 33.871094 46.890625 C 33.871094 46.75 33.949219 46.714844 34.066406 46.710938 C 34.152344 46.710938 34.222656 46.675781 34.21875 46.585938 C 34.203125 46.371094 34.328125 46.351562 34.492188 46.363281 C 34.558594 46.367188 34.628906 46.359375 34.695312 46.363281 C 34.839844 46.375 34.929688 46.324219 34.929688 46.167969 C 34.933594 46.0625 34.988281 46.011719 35.097656 46.019531 C 35.214844 46.023438 35.335938 46.015625 35.457031 46.015625 C 35.566406 46.015625 35.640625 45.972656 35.636719 45.855469 C 35.625 45.695312 35.71875 45.667969 35.851562 45.671875 C 36.160156 45.675781 36.46875 45.667969 36.78125 45.671875 C 36.945312 45.675781 37.046875 45.613281 37.046875 45.4375 C 37.046875 45.339844 37.097656 45.304688 37.1875 45.304688 C 37.3125 45.304688 37.4375 45.300781 37.566406 45.300781 C 37.671875 45.300781 37.746094 45.257812 37.746094 45.140625 C 37.746094 44.992188 37.828125 44.964844 37.957031 44.964844 C 38.253906 44.96875 38.554688 44.964844 38.851562 44.964844 C 39.140625 44.964844 39.15625 44.949219 39.15625 44.667969 C 39.160156 44.507812 39.160156 44.347656 39.160156 44.152344 M 31.769531 45.867188 C 31.777344 45.78125 31.828125 45.734375 31.90625 45.707031 C 32.046875 45.660156 32.105469 45.558594 32.105469 45.40625 C 32.101562 44.289062 32.101562 43.167969 32.101562 42.050781 C 32.101562 41.953125 32.085938 41.859375 31.964844 41.851562 C 31.828125 41.84375 31.828125 41.949219 31.828125 42.039062 C 31.824219 42.148438 31.789062 42.203125 31.671875 42.1875 C 31.515625 42.171875 31.445312 42.242188 31.464844 42.398438 C 31.476562 42.511719 31.433594 42.570312 31.308594 42.558594 C 31.15625 42.542969 31.105469 42.625 31.113281 42.765625 C 31.121094 42.871094 31.109375 42.972656 31.117188 43.078125 C 31.125 43.210938 31.0625 43.261719 30.929688 43.253906 C 30.816406 43.25 30.699219 43.257812 30.585938 43.253906 C 30.453125 43.246094 30.398438 43.3125 30.398438 43.4375 C 30.398438 43.570312 30.394531 43.703125 30.394531 43.835938 C 30.394531 43.910156 30.367188 43.964844 30.289062 43.960938 C 30.0625 43.945312 30.035156 44.078125 30.050781 44.253906 C 30.054688 44.339844 30.046875 44.425781 30.050781 44.511719 C 30.054688 44.621094 30.007812 44.671875 29.898438 44.664062 C 29.742188 44.65625 29.703125 44.746094 29.703125 44.882812 C 29.707031 45.105469 29.699219 45.328125 29.703125 45.554688 C 29.707031 45.671875 29.667969 45.742188 29.535156 45.730469 C 29.398438 45.71875 29.351562 45.792969 29.355469 45.917969 C 29.359375 46.035156 29.351562 46.148438 29.355469 46.261719 C 29.359375 46.378906 29.320312 46.4375 29.195312 46.425781 C 29.066406 46.414062 29.003906 46.476562 29 46.605469 C 29 46.714844 28.988281 46.824219 28.988281 46.933594 C 28.976562 47.871094 29.015625 48.8125 28.988281 49.753906 C 28.980469 50.074219 29 50.394531 29.007812 50.71875 C 29.011719 50.808594 29.035156 50.894531 29.148438 50.902344 C 29.257812 50.910156 29.277344 50.824219 29.285156 50.742188 C 29.292969 50.667969 29.3125 50.597656 29.402344 50.605469 C 29.621094 50.617188 29.644531 50.476562 29.644531 50.316406 C 29.644531 50.234375 29.648438 50.152344 29.644531 50.074219 C 29.640625 49.964844 29.675781 49.898438 29.800781 49.902344 C 29.925781 49.910156 29.992188 49.839844 29.992188 49.714844 C 29.992188 49.597656 30.050781 49.550781 30.160156 49.542969 C 30.300781 49.539062 30.34375 49.449219 30.347656 49.324219 C 30.347656 49.210938 30.351562 49.097656 30.355469 48.980469 C 30.355469 48.894531 30.390625 48.835938 30.488281 48.84375 C 30.644531 48.851562 30.707031 48.765625 30.710938 48.621094 C 30.710938 48.535156 30.757812 48.5 30.839844 48.496094 C 30.996094 48.480469 31.050781 48.375 31.054688 48.234375 C 31.058594 48.132812 31.058594 48.027344 31.058594 47.925781 C 31.058594 47.855469 31.074219 47.789062 31.152344 47.785156 C 31.378906 47.777344 31.402344 47.625 31.402344 47.449219 C 31.40625 47.371094 31.40625 47.289062 31.40625 47.210938 C 31.40625 47.128906 31.4375 47.078125 31.527344 47.078125 C 31.707031 47.078125 31.757812 46.972656 31.753906 46.808594 C 31.753906 46.503906 31.757812 46.199219 31.769531 45.867188 M 25.453125 45.515625 C 25.40625 45.457031 25.414062 45.386719 25.414062 45.316406 C 25.414062 45.164062 25.414062 45.007812 25.410156 44.855469 C 25.410156 44.757812 25.375 44.667969 25.269531 44.671875 C 25.078125 44.683594 25.054688 44.578125 25.066406 44.425781 C 25.070312 44.347656 25.0625 44.265625 25.066406 44.1875 C 25.066406 44.050781 25.019531 43.960938 24.867188 43.96875 C 24.746094 43.972656 24.710938 43.914062 24.714844 43.796875 C 24.722656 43.671875 24.714844 43.546875 24.710938 43.421875 C 24.703125 43.3125 24.644531 43.253906 24.53125 43.253906 C 24.410156 43.257812 24.289062 43.25 24.167969 43.257812 C 24.050781 43.265625 24 43.222656 24.003906 43.101562 C 24.007812 42.992188 24 42.882812 24.003906 42.773438 C 24.007812 42.644531 23.957031 42.5625 23.816406 42.566406 C 23.6875 42.566406 23.648438 42.503906 23.652344 42.382812 C 23.65625 42.285156 23.621094 42.207031 23.511719 42.207031 C 23.355469 42.207031 23.277344 42.152344 23.285156 41.988281 C 23.289062 41.898438 23.222656 41.855469 23.136719 41.855469 C 23.050781 41.851562 23.019531 41.914062 23.011719 41.988281 C 23.007812 42.023438 23 42.058594 23 42.089844 C 22.996094 43.21875 22.984375 44.351562 23.011719 45.480469 C 23.015625 45.605469 23.066406 45.675781 23.199219 45.667969 C 23.320312 45.664062 23.351562 45.722656 23.351562 45.835938 C 23.347656 46.167969 23.359375 46.5 23.355469 46.832031 C 23.351562 46.988281 23.398438 47.078125 23.566406 47.070312 C 23.675781 47.066406 23.71875 47.121094 23.714844 47.230469 C 23.710938 47.355469 23.714844 47.480469 23.71875 47.605469 C 23.722656 47.6875 23.753906 47.769531 23.84375 47.765625 C 24.070312 47.753906 24.070312 47.894531 24.0625 48.054688 C 24.058594 48.121094 24.0625 48.191406 24.0625 48.261719 C 24.058594 48.394531 24.109375 48.484375 24.257812 48.476562 C 24.375 48.472656 24.425781 48.527344 24.425781 48.644531 C 24.421875 48.738281 24.453125 48.832031 24.558594 48.828125 C 24.757812 48.824219 24.78125 48.9375 24.769531 49.09375 C 24.761719 49.160156 24.773438 49.230469 24.769531 49.300781 C 24.765625 49.449219 24.816406 49.542969 24.984375 49.542969 C 25.078125 49.542969 25.128906 49.589844 25.125 49.691406 C 25.121094 49.835938 25.195312 49.90625 25.335938 49.894531 C 25.445312 49.886719 25.476562 49.9375 25.476562 50.035156 C 25.480469 50.164062 25.492188 50.289062 25.5 50.414062 C 25.507812 50.519531 25.5625 50.589844 25.671875 50.59375 C 25.769531 50.597656 25.835938 50.625 25.847656 50.738281 C 25.851562 50.785156 25.878906 50.824219 25.929688 50.832031 C 25.988281 50.84375 26.023438 50.804688 26.050781 50.757812 C 26.109375 50.65625 26.109375 50.546875 26.109375 50.4375 C 26.109375 49.28125 26.113281 48.121094 26.113281 46.964844 C 26.113281 46.84375 26.109375 46.722656 26.105469 46.605469 C 26.105469 46.511719 26.0625 46.441406 25.964844 46.445312 C 25.769531 46.453125 25.742188 46.339844 25.765625 46.191406 C 25.8125 45.90625 25.703125 45.695312 25.453125 45.515625 M 37.472656 53.398438 C 37.632812 53.410156 37.761719 53.386719 37.75 53.175781 C 37.746094 53.101562 37.804688 53.070312 37.878906 53.074219 C 38 53.074219 38.121094 53.066406 38.242188 53.070312 C 38.382812 53.078125 38.464844 53.019531 38.457031 52.871094 C 38.449219 52.738281 38.519531 52.703125 38.632812 52.703125 C 38.722656 52.703125 38.804688 52.671875 38.796875 52.570312 C 38.78125 52.363281 38.90625 52.351562 39.058594 52.359375 C 39.132812 52.363281 39.207031 52.355469 39.28125 52.359375 C 39.425781 52.367188 39.515625 52.320312 39.507812 52.15625 C 39.5 52.0625 39.542969 52 39.648438 52.007812 C 39.796875 52.019531 39.855469 51.949219 39.855469 51.804688 C 39.855469 51.699219 39.914062 51.65625 40.019531 51.660156 C 40.15625 51.664062 40.222656 51.59375 40.214844 51.457031 C 40.207031 51.34375 40.269531 51.300781 40.371094 51.304688 C 40.519531 51.308594 40.578125 51.238281 40.570312 51.09375 C 40.566406 50.996094 40.621094 50.941406 40.71875 50.949219 C 40.859375 50.953125 40.917969 50.886719 40.914062 50.75 C 40.910156 50.65625 40.957031 50.589844 41.058594 50.601562 C 41.230469 50.617188 41.28125 50.527344 41.277344 50.375 C 41.273438 50.304688 41.296875 50.261719 41.378906 50.246094 C 41.625 50.210938 41.625 50.207031 41.625 49.960938 C 41.628906 49.886719 41.632812 49.8125 41.625 49.738281 C 41.617188 49.613281 41.65625 49.535156 41.796875 49.542969 C 41.925781 49.550781 41.988281 49.484375 41.984375 49.355469 C 41.980469 49.246094 42.023438 49.179688 42.144531 49.1875 C 42.265625 49.191406 42.324219 49.132812 42.324219 49.011719 C 42.320312 48.890625 42.371094 48.832031 42.5 48.835938 C 42.625 48.84375 42.6875 48.769531 42.6875 48.644531 C 42.691406 48.519531 42.691406 48.394531 42.691406 48.265625 C 42.6875 48.195312 42.707031 48.152344 42.792969 48.140625 C 43.039062 48.113281 43.039062 48.109375 43.039062 47.851562 C 43.039062 47.78125 43.042969 47.714844 43.039062 47.644531 C 43.027344 47.5 43.070312 47.414062 43.238281 47.429688 C 43.335938 47.4375 43.382812 47.371094 43.382812 47.277344 C 43.382812 47.167969 43.320312 47.140625 43.226562 47.140625 C 43.105469 47.140625 42.984375 47.136719 42.867188 47.140625 C 42.746094 47.144531 42.683594 47.101562 42.691406 46.972656 C 42.699219 46.839844 42.628906 46.789062 42.5 46.792969 C 42.386719 46.796875 42.269531 46.785156 42.15625 46.792969 C 42.035156 46.796875 41.964844 46.757812 41.980469 46.625 C 41.992188 46.472656 41.90625 46.421875 41.769531 46.425781 C 41.484375 46.425781 41.195312 46.421875 40.910156 46.421875 C 40.675781 46.425781 40.640625 46.457031 40.640625 46.691406 C 40.636719 47.121094 40.636719 47.550781 40.636719 47.980469 C 40.640625 48.109375 40.617188 48.210938 40.453125 48.199219 C 40.3125 48.1875 40.277344 48.273438 40.277344 48.394531 C 40.277344 48.636719 40.277344 48.875 40.277344 49.117188 C 40.277344 49.191406 40.269531 49.246094 40.175781 49.265625 C 39.929688 49.308594 39.929688 49.3125 39.929688 49.554688 C 39.925781 49.628906 39.925781 49.703125 39.929688 49.777344 C 39.9375 49.90625 39.890625 49.976562 39.753906 49.96875 C 39.628906 49.957031 39.574219 50.023438 39.578125 50.144531 C 39.578125 50.265625 39.570312 50.386719 39.574219 50.503906 C 39.578125 50.609375 39.542969 50.667969 39.425781 50.65625 C 39.292969 50.644531 39.21875 50.707031 39.226562 50.84375 C 39.230469 50.96875 39.183594 51.027344 39.050781 51.011719 C 38.917969 50.996094 38.863281 51.070312 38.863281 51.195312 C 38.863281 51.316406 38.859375 51.4375 38.863281 51.558594 C 38.867188 51.671875 38.824219 51.730469 38.703125 51.71875 C 38.574219 51.710938 38.503906 51.761719 38.515625 51.898438 C 38.53125 52.039062 38.46875 52.082031 38.335938 52.070312 C 38.222656 52.0625 38.164062 52.117188 38.171875 52.234375 C 38.179688 52.367188 38.125 52.425781 37.992188 52.421875 C 37.886719 52.417969 37.808594 52.460938 37.8125 52.582031 C 37.816406 52.722656 37.757812 52.792969 37.609375 52.78125 C 37.535156 52.773438 37.457031 52.804688 37.46875 52.890625 C 37.488281 53.082031 37.410156 53.148438 37.226562 53.148438 C 37.140625 53.148438 37.109375 53.234375 37.117188 53.316406 C 37.128906 53.398438 37.1875 53.414062 37.257812 53.410156 C 37.320312 53.40625 37.382812 53.402344 37.472656 53.398438 M 16.667969 52.058594 C 16.613281 52.039062 16.601562 51.996094 16.605469 51.949219 C 16.617188 51.78125 16.554688 51.695312 16.375 51.71875 C 16.289062 51.730469 16.253906 51.6875 16.253906 51.597656 C 16.257812 51.472656 16.253906 51.34375 16.25 51.21875 C 16.25 51.089844 16.199219 51.011719 16.054688 51.015625 C 15.949219 51.023438 15.894531 50.972656 15.90625 50.863281 C 15.914062 50.71875 15.847656 50.644531 15.699219 50.660156 C 15.574219 50.671875 15.542969 50.609375 15.546875 50.496094 C 15.550781 50.371094 15.542969 50.246094 15.542969 50.117188 C 15.539062 50.03125 15.503906 49.960938 15.414062 49.96875 C 15.203125 49.988281 15.175781 49.871094 15.191406 49.707031 C 15.195312 49.632812 15.1875 49.558594 15.191406 49.484375 C 15.199219 49.335938 15.136719 49.246094 14.984375 49.25 C 14.863281 49.25 14.839844 49.195312 14.84375 49.089844 C 14.847656 48.867188 14.84375 48.644531 14.84375 48.417969 C 14.839844 48.285156 14.792969 48.195312 14.640625 48.199219 C 14.519531 48.207031 14.480469 48.136719 14.484375 48.027344 C 14.484375 47.976562 14.484375 47.921875 14.484375 47.871094 C 14.484375 47.453125 14.484375 47.035156 14.484375 46.617188 C 14.484375 46.492188 14.433594 46.421875 14.300781 46.421875 C 13.96875 46.425781 13.636719 46.421875 13.304688 46.421875 C 13.210938 46.425781 13.136719 46.460938 13.140625 46.558594 C 13.152344 46.777344 13.023438 46.800781 12.855469 46.792969 C 12.78125 46.789062 12.707031 46.796875 12.632812 46.792969 C 12.5 46.789062 12.421875 46.839844 12.425781 46.980469 C 12.429688 47.101562 12.367188 47.140625 12.257812 47.140625 C 12.128906 47.136719 12.003906 47.140625 11.878906 47.144531 C 11.789062 47.148438 11.742188 47.199219 11.738281 47.289062 C 11.738281 47.371094 11.785156 47.429688 11.863281 47.425781 C 12.085938 47.410156 12.097656 47.546875 12.082031 47.710938 C 12.078125 47.777344 12.085938 47.847656 12.082031 47.917969 C 12.074219 48.054688 12.121094 48.140625 12.273438 48.132812 C 12.394531 48.128906 12.433594 48.195312 12.425781 48.308594 C 12.421875 48.421875 12.429688 48.535156 12.425781 48.652344 C 12.425781 48.765625 12.464844 48.839844 12.59375 48.84375 C 12.714844 48.84375 12.761719 48.910156 12.777344 49.023438 C 12.792969 49.128906 12.847656 49.195312 12.960938 49.183594 C 13.097656 49.171875 13.148438 49.238281 13.144531 49.367188 C 13.140625 49.449219 13.160156 49.535156 13.253906 49.53125 C 13.480469 49.519531 13.503906 49.65625 13.488281 49.828125 C 13.484375 49.898438 13.492188 49.964844 13.488281 50.035156 C 13.484375 50.167969 13.546875 50.246094 13.679688 50.246094 C 13.792969 50.246094 13.851562 50.277344 13.839844 50.402344 C 13.824219 50.53125 13.894531 50.601562 14.019531 50.597656 C 14.15625 50.59375 14.207031 50.652344 14.203125 50.78125 C 14.203125 50.882812 14.25 50.949219 14.359375 50.945312 C 14.503906 50.9375 14.550781 51.011719 14.546875 51.144531 C 14.542969 51.257812 14.605469 51.320312 14.714844 51.3125 C 14.855469 51.300781 14.917969 51.351562 14.90625 51.496094 C 14.898438 51.605469 14.960938 51.671875 15.074219 51.660156 C 15.210938 51.652344 15.261719 51.714844 15.25 51.84375 C 15.238281 51.960938 15.300781 52.015625 15.417969 52.007812 C 15.558594 51.996094 15.617188 52.058594 15.609375 52.199219 C 15.605469 52.324219 15.679688 52.371094 15.796875 52.371094 C 15.921875 52.367188 16.046875 52.367188 16.175781 52.367188 C 16.242188 52.371094 16.316406 52.382812 16.304688 52.464844 C 16.28125 52.707031 16.429688 52.722656 16.609375 52.714844 C 16.691406 52.710938 16.78125 52.726562 16.863281 52.71875 C 16.976562 52.710938 17.023438 52.742188 17.011719 52.863281 C 16.996094 53.015625 17.078125 53.085938 17.230469 53.070312 C 17.328125 53.0625 17.371094 53.109375 17.367188 53.199219 C 17.355469 53.378906 17.453125 53.429688 17.613281 53.417969 C 17.679688 53.414062 17.75 53.417969 17.820312 53.417969 C 17.910156 53.417969 18 53.414062 18.003906 53.292969 C 18.007812 53.175781 17.933594 53.128906 17.828125 53.132812 C 17.714844 53.136719 17.65625 53.089844 17.664062 52.96875 C 17.671875 52.839844 17.609375 52.777344 17.480469 52.78125 C 17.375 52.78125 17.296875 52.75 17.304688 52.625 C 17.3125 52.488281 17.246094 52.421875 17.109375 52.429688 C 17.011719 52.433594 16.949219 52.394531 16.957031 52.289062 C 16.972656 52.09375 16.851562 52.058594 16.667969 52.058594 M 36.890625 63.003906 C 36.773438 63.015625 36.753906 63.09375 36.757812 63.1875 C 36.757812 63.300781 36.710938 63.363281 36.59375 63.351562 C 36.4375 63.339844 36.386719 63.425781 36.390625 63.558594 C 36.390625 63.660156 36.351562 63.707031 36.246094 63.703125 C 36.089844 63.691406 36.035156 63.78125 36.042969 63.929688 C 36.046875 64.007812 36.042969 64.089844 36.046875 64.167969 C 36.054688 64.285156 36.097656 64.367188 36.234375 64.351562 C 36.328125 64.34375 36.394531 64.375 36.386719 64.484375 C 36.375 64.648438 36.457031 64.71875 36.613281 64.707031 C 36.714844 64.699219 36.765625 64.742188 36.753906 64.84375 C 36.738281 65.015625 36.820312 65.074219 36.976562 65.058594 C 37.046875 65.054688 37.113281 65.054688 37.183594 65.058594 C 37.335938 65.070312 37.410156 65.007812 37.398438 64.851562 C 37.386719 64.753906 37.425781 64.695312 37.53125 64.707031 C 37.683594 64.71875 37.757812 64.648438 37.75 64.496094 C 37.746094 64.40625 37.789062 64.351562 37.886719 64.363281 C 38.074219 64.386719 38.128906 64.289062 38.113281 64.121094 C 38.105469 64.046875 38.109375 63.972656 38.113281 63.898438 C 38.117188 63.761719 38.058594 63.691406 37.917969 63.703125 C 37.804688 63.710938 37.738281 63.667969 37.746094 63.546875 C 37.753906 63.410156 37.695312 63.347656 37.554688 63.351562 C 37.464844 63.359375 37.390625 63.324219 37.398438 63.21875 C 37.417969 63.019531 37.304688 62.988281 37.144531 63.003906 C 37.070312 63.007812 36.996094 63.003906 36.890625 63.003906 M 27.257812 63.054688 C 27.222656 63.101562 27.226562 63.152344 27.226562 63.203125 C 27.234375 63.304688 27.1875 63.359375 27.085938 63.351562 C 26.925781 63.335938 26.871094 63.414062 26.878906 63.566406 C 26.886719 63.65625 26.839844 63.707031 26.746094 63.703125 C 26.578125 63.691406 26.523438 63.777344 26.53125 63.933594 C 26.535156 64.007812 26.535156 64.082031 26.53125 64.15625 C 26.523438 64.300781 26.574219 64.378906 26.730469 64.359375 C 26.8125 64.351562 26.886719 64.367188 26.878906 64.472656 C 26.863281 64.648438 26.957031 64.710938 27.117188 64.703125 C 27.210938 64.703125 27.238281 64.753906 27.226562 64.835938 C 27.210938 65.011719 27.292969 65.074219 27.460938 65.058594 C 27.535156 65.054688 27.609375 65.050781 27.683594 65.058594 C 27.832031 65.074219 27.898438 65.007812 27.886719 64.863281 C 27.878906 64.753906 27.917969 64.703125 28.035156 64.703125 C 28.171875 64.710938 28.25 64.644531 28.238281 64.496094 C 28.230469 64.40625 28.273438 64.347656 28.367188 64.351562 C 28.558594 64.363281 28.601562 64.253906 28.585938 64.09375 C 28.578125 64.023438 28.582031 63.953125 28.582031 63.886719 C 28.585938 63.765625 28.523438 63.699219 28.40625 63.703125 C 28.28125 63.710938 28.226562 63.660156 28.234375 63.53125 C 28.246094 63.410156 28.1875 63.34375 28.066406 63.355469 C 27.921875 63.367188 27.867188 63.300781 27.871094 63.164062 C 27.871094 63.082031 27.84375 63.007812 27.75 63.007812 C 27.589844 63.003906 27.429688 62.96875 27.257812 63.054688 M 17.695312 64.730469 C 17.777344 65.066406 17.777344 65.0625 18.136719 65.058594 C 18.28125 65.058594 18.367188 65.011719 18.359375 64.851562 C 18.351562 64.753906 18.386719 64.699219 18.496094 64.707031 C 18.65625 64.714844 18.734375 64.632812 18.726562 64.480469 C 18.726562 64.375 18.785156 64.347656 18.867188 64.347656 C 19.015625 64.351562 19.070312 64.265625 19.074219 64.132812 C 19.074219 64.050781 19.074219 63.972656 19.070312 63.890625 C 19.066406 63.769531 19.011719 63.691406 18.878906 63.703125 C 18.773438 63.710938 18.71875 63.667969 18.71875 63.558594 C 18.722656 63.414062 18.65625 63.34375 18.511719 63.355469 C 18.414062 63.359375 18.351562 63.316406 18.359375 63.214844 C 18.375 63.042969 18.289062 62.992188 18.132812 63.003906 C 18.058594 63.007812 17.984375 63.007812 17.910156 63.003906 C 17.78125 63 17.714844 63.054688 17.71875 63.1875 C 17.726562 63.285156 17.695312 63.359375 17.578125 63.351562 C 17.429688 63.34375 17.371094 63.417969 17.371094 63.558594 C 17.371094 63.644531 17.339844 63.710938 17.238281 63.699219 C 17.058594 63.679688 17.011719 63.78125 17.011719 63.9375 C 17.015625 64.007812 17.011719 64.074219 17.007812 64.144531 C 17.003906 64.292969 17.0625 64.375 17.222656 64.363281 C 17.285156 64.359375 17.371094 64.355469 17.363281 64.441406 C 17.347656 64.679688 17.507812 64.691406 17.695312 64.730469 M 18.671875 53.722656 C 18.726562 53.554688 18.699219 53.5 18.546875 53.488281 C 18.4375 53.476562 18.328125 53.480469 18.21875 53.484375 C 18.136719 53.488281 18.097656 53.542969 18.097656 53.621094 C 18.09375 53.703125 18.125 53.761719 18.210938 53.765625 C 18.355469 53.769531 18.507812 53.796875 18.671875 53.722656 M 36.703125 53.480469 C 36.644531 53.484375 36.585938 53.480469 36.53125 53.492188 C 36.457031 53.507812 36.414062 53.5625 36.417969 53.640625 C 36.417969 53.730469 36.476562 53.761719 36.554688 53.765625 C 36.667969 53.765625 36.78125 53.765625 36.898438 53.761719 C 36.988281 53.757812 37.027344 53.699219 37.03125 53.617188 C 37.035156 53.527344 36.980469 53.492188 36.90625 53.484375 C 36.847656 53.480469 36.789062 53.480469 36.703125 53.480469 Z M 36.703125 53.480469 " fill-opacity="1" fill-rule="nonzero"/></g><path fill="#000000" d="M 82.117188 39.523438 C 81.964844 39.695312 81.925781 42.269531 81.945312 48.714844 L 82.003906 57.660156 L 86.777344 57.660156 L 86.835938 48.621094 C 86.875 41.507812 86.835938 39.542969 86.644531 39.410156 C 86.207031 39.144531 82.367188 39.21875 82.117188 39.523438 Z M 82.117188 39.523438 " fill-opacity="1" fill-rule="nonzero"/><path fill="#000000" d="M 89.738281 39.640625 C 89.527344 40.039062 89.472656 56.535156 89.683594 57.335938 C 89.777344 57.734375 89.871094 57.753906 92.125 57.753906 C 94.09375 57.753906 94.496094 57.695312 94.589844 57.449219 C 94.800781 56.914062 94.722656 40.019531 94.515625 39.621094 C 94.324219 39.296875 94.09375 39.257812 92.125 39.257812 C 90.160156 39.257812 89.929688 39.296875 89.738281 39.640625 Z M 89.738281 39.640625 " fill-opacity="1" fill-rule="nonzero"/><path fill="#000000" d="M 97.511719 39.371094 C 97.4375 39.449219 97.378906 40.363281 97.378906 41.394531 L 97.378906 43.261719 L 102.171875 43.261719 L 102.117188 41.296875 L 102.058594 39.351562 L 99.84375 39.296875 C 98.640625 39.277344 97.589844 39.316406 97.511719 39.371094 Z M 97.511719 39.371094 " fill-opacity="1" fill-rule="nonzero"/><path fill="#000000" d="M 147.824219 39.523438 C 147.667969 39.695312 147.613281 40.402344 147.652344 41.488281 L 147.707031 43.167969 L 152.484375 43.167969 L 152.539062 41.375 C 152.578125 40.058594 152.519531 39.523438 152.347656 39.410156 C 152.214844 39.335938 151.183594 39.257812 150.078125 39.257812 C 148.566406 39.257812 147.976562 39.335938 147.824219 39.523438 Z M 147.824219 39.523438 " fill-opacity="1" fill-rule="nonzero"/><path fill="#000000" d="M 224.335938 39.371094 C 224.261719 39.449219 224.203125 40.363281 224.203125 41.394531 L 224.203125 43.261719 L 228.996094 43.261719 L 228.941406 41.296875 L 228.882812 39.351562 L 226.667969 39.296875 C 225.464844 39.277344 224.414062 39.316406 224.335938 39.371094 Z M 224.335938 39.371094 " fill-opacity="1" fill-rule="nonzero"/><path fill="#000000" d="M 137.796875 40.898438 C 137.738281 41.070312 137.679688 42.042969 137.679688 43.089844 L 137.679688 44.976562 L 136.839844 44.976562 C 135.867188 44.976562 135.769531 45.113281 135.769531 46.578125 C 135.769531 47.761719 135.980469 48.027344 136.953125 48.027344 L 137.679688 48.027344 L 137.679688 50.070312 C 137.679688 51.214844 137.738281 52.96875 137.8125 53.976562 L 137.929688 55.847656 L 139.761719 55.847656 L 139.820312 56.742188 L 139.875 57.660156 L 145.414062 57.660156 L 145.472656 56.34375 C 145.511719 55.410156 145.453125 54.96875 145.28125 54.875 C 145.148438 54.777344 144.5 54.703125 143.832031 54.703125 L 142.644531 54.703125 L 142.683594 51.402344 L 142.742188 48.125 L 144.078125 48.027344 L 145.414062 47.933594 L 145.414062 45.074219 L 144.078125 44.976562 L 142.742188 44.882812 L 142.683594 42.726562 L 142.628906 40.59375 L 140.277344 40.59375 C 138.292969 40.59375 137.890625 40.648438 137.796875 40.898438 Z M 137.796875 40.898438 " fill-opacity="1" fill-rule="nonzero"/><path fill="#000000" d="M 49.382812 45.113281 C 49.304688 45.167969 49.246094 49.152344 49.246094 53.960938 C 49.246094 62.101562 49.265625 62.710938 49.589844 62.84375 C 49.761719 62.941406 50.890625 62.976562 52.074219 62.941406 L 54.214844 62.882812 L 54.214844 57.753906 L 57.746094 57.753906 C 60.441406 57.753906 61.28125 57.695312 61.300781 57.507812 C 61.320312 57.390625 61.335938 56.972656 61.355469 56.609375 C 61.375 55.941406 61.375 55.941406 62.386719 55.886719 L 63.382812 55.828125 L 63.382812 46.921875 L 62.789062 46.808594 C 62.464844 46.75 61.988281 46.695312 61.738281 46.695312 C 61.320312 46.695312 61.28125 46.617188 61.28125 45.835938 L 61.28125 44.976562 L 55.378906 44.976562 L 55.320312 45.683594 C 55.265625 46.410156 55.265625 46.410156 54.367188 46.464844 L 53.449219 46.523438 L 53.449219 44.976562 L 51.480469 44.976562 C 50.394531 44.976562 49.4375 45.035156 49.382812 45.113281 Z M 58.414062 51.347656 L 58.414062 54.683594 L 56.390625 54.742188 C 55.28125 54.777344 54.328125 54.761719 54.289062 54.722656 C 54.25 54.683594 54.214844 53.160156 54.214844 51.328125 L 54.214844 48.027344 L 58.414062 48.027344 Z M 58.414062 51.347656 " fill-opacity="1" fill-rule="nonzero"/><path fill="#000000" d="M 67.734375 45.875 C 67.679688 46.75 67.660156 46.789062 67.105469 46.75 C 66.800781 46.734375 66.339844 46.769531 66.113281 46.808594 L 65.671875 46.886719 L 65.671875 55.828125 L 66.683594 55.886719 L 67.679688 55.941406 L 67.734375 56.859375 L 67.792969 57.753906 L 72.703125 57.714844 L 77.609375 57.660156 L 77.667969 56.742188 L 77.726562 55.847656 L 79.808594 55.847656 L 79.808594 51.386719 C 79.808594 47.058594 79.789062 46.902344 79.425781 46.789062 C 79.214844 46.714844 78.757812 46.695312 78.414062 46.734375 C 77.820312 46.789062 77.800781 46.769531 77.707031 45.933594 L 77.609375 45.074219 L 72.703125 45.015625 L 67.792969 44.976562 Z M 74.648438 51.367188 L 74.648438 54.703125 L 70.640625 54.703125 L 70.640625 48.027344 L 74.648438 48.027344 Z M 74.648438 51.367188 " fill-opacity="1" fill-rule="nonzero"/><path fill="#000000" d="M 97.511719 45.113281 C 97.4375 45.167969 97.378906 48.046875 97.378906 51.5 L 97.378906 57.773438 L 99.730469 57.714844 L 102.058594 57.660156 L 102.117188 51.308594 L 102.152344 44.976562 L 99.902344 44.976562 C 98.660156 44.976562 97.570312 45.035156 97.511719 45.113281 Z M 97.511719 45.113281 " fill-opacity="1" fill-rule="nonzero"/><path fill="#000000" d="M 104.484375 51.308594 L 104.542969 57.660156 L 109.316406 57.660156 L 109.375 52.835938 L 109.414062 48.027344 L 113.421875 48.027344 L 113.460938 52.835938 L 113.519531 57.660156 L 118.292969 57.660156 L 118.351562 52.28125 L 118.390625 46.902344 L 117.394531 46.847656 L 116.382812 46.789062 L 116.328125 45.875 L 116.269531 44.976562 L 113.175781 45.015625 L 110.082031 45.074219 L 110.023438 45.777344 L 109.964844 46.503906 L 108.074219 46.503906 L 108.074219 44.976562 L 104.445312 44.976562 Z M 104.484375 51.308594 " fill-opacity="1" fill-rule="nonzero"/><path fill="#000000" d="M 121.484375 46.445312 L 121.539062 47.933594 L 125.324219 47.992188 L 129.105469 48.027344 L 129.046875 48.945312 L 128.988281 49.839844 L 125.839844 49.9375 L 122.6875 50.03125 L 122.667969 50.792969 L 122.667969 51.558594 L 121.695312 51.613281 C 120.871094 51.652344 120.699219 51.746094 120.605469 52.089844 C 120.453125 52.644531 120.453125 53.863281 120.605469 54.96875 L 120.738281 55.847656 L 122.570312 55.847656 L 122.628906 56.742188 L 122.6875 57.660156 L 125.609375 57.714844 L 128.511719 57.773438 L 128.511719 56.210938 L 129.429688 56.265625 C 130.328125 56.324219 130.328125 56.324219 130.382812 57.027344 L 130.441406 57.753906 L 134.050781 57.753906 L 134.050781 46.921875 L 133.476562 46.789062 C 133.171875 46.714844 132.828125 46.714844 132.734375 46.769531 C 132.292969 47.058594 131.949219 46.636719 131.949219 45.816406 L 131.949219 44.976562 L 121.425781 44.976562 Z M 129.085938 53.84375 L 129.085938 54.703125 L 125.457031 54.703125 L 125.457031 52.988281 L 129.085938 52.988281 Z M 129.085938 53.84375 " fill-opacity="1" fill-rule="nonzero"/><path fill="#000000" d="M 147.707031 45.207031 C 147.652344 45.339844 147.632812 48.199219 147.652344 51.558594 L 147.707031 57.660156 L 152.484375 57.660156 L 152.484375 45.074219 L 150.132812 45.015625 C 148.355469 44.976562 147.765625 45.035156 147.707031 45.207031 Z M 147.707031 45.207031 " fill-opacity="1" fill-rule="nonzero"/><path fill="#000000" d="M 156.875 45.207031 C 156.835938 45.339844 156.761719 45.761719 156.742188 46.121094 C 156.683594 46.789062 156.683594 46.789062 155.671875 46.847656 L 154.679688 46.902344 L 154.71875 51.328125 L 154.773438 55.75 L 155.769531 55.808594 L 156.761719 55.867188 L 156.820312 56.761719 L 156.875 57.660156 L 161.804688 57.714844 L 166.710938 57.753906 L 166.710938 55.847656 L 168.8125 55.847656 L 168.8125 46.886719 L 168.070312 46.886719 C 166.863281 46.886719 166.710938 46.75 166.710938 45.816406 L 166.710938 44.976562 L 161.84375 44.976562 C 158.097656 44.976562 156.933594 45.035156 156.875 45.207031 Z M 163.847656 51.367188 L 163.847656 54.703125 L 159.835938 54.703125 L 159.835938 48.027344 L 163.847656 48.027344 Z M 163.847656 51.367188 " fill-opacity="1" fill-rule="nonzero"/><path fill="#000000" d="M 171.027344 45.132812 C 170.972656 45.246094 170.992188 53.539062 171.085938 57.027344 L 171.105469 57.753906 L 173.472656 57.753906 C 175.460938 57.753906 175.859375 57.695312 175.957031 57.449219 C 176.015625 57.277344 176.070312 55.101562 176.070312 52.585938 L 176.070312 48.011719 L 178.039062 48.066406 L 179.988281 48.125 L 180.082031 52.890625 L 180.179688 57.660156 L 184.953125 57.660156 L 184.953125 46.980469 L 183.996094 46.886719 L 183.042969 46.789062 L 182.949219 45.933594 L 182.851562 45.074219 L 179.757812 45.015625 L 176.644531 44.976562 L 176.644531 46.503906 L 174.734375 46.503906 L 174.734375 44.976562 L 172.9375 44.976562 C 171.945312 44.976562 171.085938 45.054688 171.027344 45.132812 Z M 171.027344 45.132812 " fill-opacity="1" fill-rule="nonzero"/><path fill="#000000" d="M 189.347656 45.207031 C 189.308594 45.339844 189.230469 45.761719 189.210938 46.121094 C 189.15625 46.789062 189.15625 46.789062 188.160156 46.847656 L 187.148438 46.902344 L 187.148438 48.792969 C 187.148438 49.820312 187.207031 50.792969 187.265625 50.964844 C 187.339844 51.195312 187.644531 51.269531 188.296875 51.269531 L 189.230469 51.269531 L 189.289062 52.070312 L 189.347656 52.890625 L 192.078125 52.949219 L 194.789062 53.007812 L 194.789062 54.703125 L 191.21875 54.703125 C 189.230469 54.703125 187.511719 54.777344 187.378906 54.875 C 187.207031 54.96875 187.148438 55.410156 187.1875 56.34375 L 187.246094 57.660156 L 197.558594 57.660156 L 197.617188 56.761719 L 197.671875 55.867188 L 198.667969 55.808594 L 199.660156 55.75 L 199.71875 54.132812 C 199.792969 51.765625 199.753906 51.652344 198.609375 51.652344 L 197.671875 51.652344 L 197.617188 50.832031 L 197.558594 50.03125 L 194.789062 49.9375 L 192.019531 49.839844 L 192.019531 48.125 L 195.535156 48.066406 C 197.484375 48.046875 199.144531 47.953125 199.257812 47.859375 C 199.390625 47.742188 199.449219 47.132812 199.410156 46.332031 L 199.335938 44.976562 L 194.386719 44.976562 C 190.585938 44.976562 189.402344 45.035156 189.347656 45.207031 Z M 189.347656 45.207031 " fill-opacity="1" fill-rule="nonzero"/><path fill="#000000" d="M 209.25 45.207031 C 209.210938 45.339844 209.210938 46.007812 209.285156 46.695312 L 209.402344 47.933594 L 213.085938 47.992188 L 216.753906 48.027344 L 216.753906 49.9375 L 210.453125 49.9375 L 210.453125 51.652344 L 208.351562 51.652344 L 208.351562 55.828125 L 209.363281 55.886719 L 210.355469 55.941406 L 210.414062 56.859375 L 210.46875 57.773438 L 213.375 57.714844 L 216.277344 57.660156 L 216.335938 56.933594 C 216.390625 56.226562 216.410156 56.226562 217.230469 56.226562 C 218.054688 56.226562 218.074219 56.226562 218.128906 56.933594 L 218.1875 57.660156 L 220.058594 57.714844 L 221.910156 57.773438 L 221.910156 52.320312 C 221.910156 48.105469 221.855469 46.886719 221.683594 46.867188 C 221.546875 46.847656 221.089844 46.828125 220.671875 46.808594 C 219.90625 46.789062 219.90625 46.789062 219.808594 45.933594 L 219.714844 45.074219 L 214.539062 45.015625 C 210.488281 44.976562 209.324219 45.015625 209.25 45.207031 Z M 216.753906 53.84375 L 216.753906 54.722656 L 214.996094 54.664062 L 213.222656 54.609375 L 213.164062 54.074219 C 213.050781 53.0625 213.164062 52.988281 215.035156 52.988281 L 216.753906 52.988281 Z M 216.753906 53.84375 " fill-opacity="1" fill-rule="nonzero"/><path fill="#000000" d="M 224.203125 51.367188 L 224.203125 57.753906 L 228.921875 57.753906 L 229.035156 55.597656 C 229.207031 52.871094 229.207031 50.222656 229.035156 47.304688 L 228.921875 44.976562 L 224.203125 44.976562 Z M 224.203125 51.367188 " fill-opacity="1" fill-rule="nonzero"/><path fill="#000000" d="M 202.066406 53.636719 C 201.914062 53.808594 201.855469 54.53125 201.894531 55.769531 L 201.953125 57.660156 L 204.015625 57.714844 L 206.078125 57.773438 L 206.019531 55.617188 L 205.964844 53.464844 L 204.128906 53.40625 C 202.714844 53.367188 202.238281 53.425781 202.066406 53.636719 Z M 202.066406 53.636719 " fill-opacity="1" fill-rule="nonzero"/></svg>