<svg xmlns="http://www.w3.org/2000/svg" viewBox="0 0 660 487.198" fill="currentColor">
  <g transform="translate(174.026 23.766) scale(0.831)"><path fill="currentColor" d="M 0.367188 162.230469 C 0.367188 159.539062 0.367188 156.84375 0.523438 153.953125 C 2.445312 153.878906 3.875 153.628906 3.769531 151.320312 C 3.722656 150.289062 4.449219 150.03125 5.367188 150.035156 C 7.804688 150.050781 10.246094 150.015625 12.6875 150.027344 C 14.058594 150.03125 14.9375 149.511719 14.945312 148.019531 C 14.953125 146.773438 15.589844 146.273438 16.796875 146.359375 C 17.34375 146.398438 17.894531 146.371094 18.445312 146.355469 C 20.207031 146.292969 22.289062 146.851562 22.734375 144.175781 C 22.757812 144.039062 22.972656 143.890625 23.125 143.835938 C 24.644531 143.285156 26.023438 142.328125 27.765625 142.472656 C 29.113281 142.582031 30.039062 142.046875 29.960938 140.496094 C 29.898438 139.292969 30.507812 138.9375 31.648438 138.941406 C 35.796875 138.941406 39.945312 138.875 44.09375 138.820312 C 46.519531 138.789062 46.898438 138.5 46.921875 136.078125 C 46.972656 130.285156 46.929688 124.488281 46.929688 118.695312 C 46.9375 104.84375 46.964844 90.992188 46.933594 77.144531 C 46.929688 75.578125 47.441406 74.988281 49.046875 74.992188 C 60.214844 75.03125 71.382812 75 82.546875 74.992188 C 93.289062 74.988281 104.027344 75 114.769531 74.960938 C 116.242188 74.957031 117.132812 75.277344 116.976562 76.984375 C 116.847656 78.386719 117.757812 78.75 118.953125 78.75 C 122.308594 78.75 125.664062 78.730469 129.019531 78.769531 C 130.449219 78.789062 131.183594 78.21875 131.210938 76.746094 C 131.230469 75.945312 131.335938 75.210938 132.425781 75.015625 C 135.007812 74.546875 135 74.5 135.015625 71.792969 C 135.019531 71.0625 135.078125 70.324219 135.003906 69.597656 C 134.859375 68.140625 135.34375 67.394531 136.925781 67.574219 C 138.285156 67.730469 138.769531 66.992188 138.753906 65.707031 C 138.734375 64.367188 138.816406 63.023438 138.847656 61.683594 C 138.871094 60.589844 139.316406 59.933594 140.507812 60.035156 C 141.90625 60.152344 142.582031 59.464844 142.550781 58.117188 C 142.519531 56.703125 143.144531 56.128906 144.542969 56.273438 C 145.757812 56.394531 146.4375 55.8125 146.332031 54.570312 C 146.203125 53.035156 146.902344 52.492188 148.363281 52.585938 C 149.621094 52.664062 150.074219 51.917969 150.054688 50.738281 C 150.03125 49.398438 150.097656 48.054688 150.058594 46.710938 C 150.03125 45.628906 150.519531 45.144531 151.574219 45.128906 C 152.980469 45.105469 154.382812 45.039062 155.785156 45.019531 C 156.917969 45.007812 157.464844 44.453125 157.472656 43.332031 C 157.484375 41.992188 157.519531 40.648438 157.507812 39.304688 C 157.5 38.113281 157.953125 37.492188 159.253906 37.578125 C 160.40625 37.652344 161.574219 37.515625 162.726562 37.609375 C 164.527344 37.753906 165.152344 36.914062 165.054688 35.226562 C 164.992188 34.191406 165.105469 33.148438 165.039062 32.117188 C 164.953125 30.75 165.382812 30.066406 166.890625 30.160156 C 168.164062 30.234375 169.449219 30.035156 170.730469 30.042969 C 172.046875 30.050781 172.632812 29.386719 172.660156 28.148438 C 172.6875 26.925781 172.746094 25.703125 172.664062 24.488281 C 172.570312 23.101562 173.019531 22.421875 174.507812 22.566406 C 175.8125 22.699219 176.421875 22.027344 176.378906 20.71875 C 176.351562 19.742188 176.367188 18.765625 176.378906 17.789062 C 176.402344 15.234375 176.40625 15.242188 178.886719 15.214844 C 179.921875 15.203125 180.960938 15.171875 181.996094 15.121094 C 183.167969 15.0625 183.761719 14.476562 183.730469 13.25 C 183.695312 11.847656 183.75 10.441406 183.746094 9.039062 C 183.746094 8.058594 184.199219 7.582031 185.191406 7.585938 C 186.960938 7.597656 188.730469 7.605469 190.5 7.574219 C 191.625 7.550781 192.003906 8.136719 191.988281 9.167969 C 191.96875 10.449219 192.039062 11.730469 191.984375 13.011719 C 191.917969 14.519531 192.621094 15.109375 194.074219 15.0625 C 195.292969 15.023438 196.515625 15.089844 197.738281 15.09375 C 198.863281 15.09375 199.402344 15.585938 199.359375 16.765625 C 199.304688 18.167969 199.347656 19.570312 199.363281 20.976562 C 199.375 21.890625 199.785156 22.640625 200.757812 22.515625 C 203.0625 22.226562 203.101562 23.519531 203.082031 25.265625 C 203.023438 30.363281 202.488281 30 207.75 30.0625 C 210.683594 30.09375 210.671875 30.085938 210.6875 32.980469 C 210.722656 38.128906 210.167969 37.558594 215.296875 37.589844 C 218.054688 37.605469 218.058594 37.59375 218.074219 40.339844 C 218.109375 45.742188 218.0625 44.925781 222.753906 45.023438 C 225.613281 45.085938 225.613281 45.070312 225.648438 47.835938 C 225.660156 48.691406 225.71875 49.546875 225.664062 50.398438 C 225.570312 51.929688 226.164062 52.726562 227.777344 52.585938 C 228.898438 52.492188 229.53125 52.882812 229.390625 54.140625 C 229.21875 55.703125 229.929688 56.433594 231.515625 56.289062 C 232.664062 56.183594 233.257812 56.703125 233.203125 57.867188 C 233.128906 59.425781 233.855469 60.109375 235.402344 60.019531 C 236.476562 59.957031 236.941406 60.535156 236.933594 61.589844 C 236.925781 62.75 237.027344 63.910156 236.96875 65.066406 C 236.886719 66.628906 237.402344 67.535156 239.121094 67.464844 C 240.28125 67.417969 240.734375 68.046875 240.703125 69.179688 C 240.667969 70.460938 240.710938 71.742188 240.734375 73.023438 C 240.753906 74.265625 241.324219 75.011719 242.632812 74.953125 C 243.976562 74.890625 244.53125 75.492188 244.410156 76.816406 C 244.289062 78.105469 244.859375 78.753906 246.199219 78.746094 C 249.738281 78.726562 253.277344 78.730469 256.816406 78.742188 C 257.902344 78.746094 258.648438 78.285156 258.628906 77.160156 C 258.589844 75.152344 259.789062 74.988281 261.371094 74.992188 C 282.914062 75.039062 304.453125 75.050781 325.996094 75.078125 C 328.601562 75.082031 328.820312 75.285156 328.8125 77.894531 C 328.789062 83.445312 328.632812 89 328.691406 94.550781 C 328.84375 108.402344 328.871094 122.25 328.730469 136.101562 C 328.707031 138.367188 329.058594 138.785156 331.339844 138.800781 C 335.429688 138.828125 339.515625 138.820312 343.605469 138.808594 C 344.839844 138.804688 345.804688 139.011719 345.71875 140.585938 C 345.648438 141.910156 346.394531 142.4375 347.652344 142.433594 C 348.871094 142.425781 350.09375 142.511719 351.3125 142.457031 C 352.683594 142.394531 353.382812 142.839844 353.199219 144.34375 C 353.027344 145.742188 353.757812 146.359375 355.140625 146.328125 C 356.421875 146.300781 357.707031 146.394531 358.984375 146.320312 C 360.203125 146.25 360.867188 146.648438 360.789062 147.945312 C 360.691406 149.566406 361.566406 150.070312 363.054688 150.039062 C 365.371094 149.984375 367.695312 150.085938 370.011719 150 C 371.394531 149.949219 372.078125 150.402344 372.023438 151.839844 C 371.96875 153.253906 372.738281 153.808594 374.089844 153.730469 C 374.511719 153.707031 374.941406 153.78125 375.367188 153.808594 C 375.367188 156.378906 375.367188 158.949219 375.207031 161.714844 C 372.375 161.96875 372.328125 161.957031 371.851562 164.59375 C 371.667969 165.625 371.035156 165.683594 370.273438 165.660156 C 368.6875 165.617188 368.121094 166.421875 368.152344 167.933594 C 368.203125 170.375 368.136719 172.816406 368.15625 175.257812 C 368.164062 176.347656 367.820312 177.070312 366.601562 176.980469 C 365.015625 176.863281 364.371094 177.613281 364.425781 179.148438 C 364.457031 179.9375 364.226562 180.722656 363.242188 180.636719 C 360.964844 180.4375 360.582031 181.777344 360.648438 183.59375 C 360.679688 184.449219 360.566406 185.308594 360.636719 186.15625 C 360.761719 187.613281 360.253906 188.363281 358.695312 188.253906 C 357.34375 188.160156 356.863281 188.894531 356.910156 190.175781 C 356.953125 191.457031 356.839844 192.738281 356.90625 194.015625 C 356.96875 195.296875 356.449219 195.808594 355.191406 195.691406 C 353.8125 195.5625 353.109375 196.207031 353.171875 197.605469 C 353.226562 198.792969 352.808594 199.492188 351.492188 199.367188 C 349.96875 199.226562 349.363281 199.988281 349.484375 201.445312 C 349.589844 202.683594 349.019531 203.273438 347.785156 203.230469 C 346.304688 203.179688 345.6875 203.960938 345.699219 205.371094 C 345.707031 206.410156 345.203125 207.007812 344.144531 206.957031 C 342.542969 206.878906 341.976562 207.714844 341.960938 209.1875 C 341.953125 209.949219 341.757812 210.558594 340.757812 210.699219 C 338.148438 211.066406 338.152344 211.113281 338.144531 213.75 C 338.140625 214.601562 338.101562 215.460938 338.152344 216.3125 C 338.226562 217.550781 337.851562 218.324219 336.449219 218.300781 C 335.085938 218.277344 334.445312 219 334.460938 220.351562 C 334.476562 221.515625 333.8125 222.027344 332.726562 221.972656 C 331.226562 221.898438 330.617188 222.601562 330.65625 224.050781 C 330.6875 225.28125 330.03125 225.78125 328.808594 225.71875 C 327.652344 225.660156 326.488281 225.761719 325.332031 225.714844 C 323.882812 225.65625 323.097656 226.285156 323.167969 227.746094 C 323.230469 229.078125 322.566406 229.457031 321.382812 229.398438 C 320.4375 229.347656 319.492188 229.660156 319.554688 230.71875 C 319.699219 233.144531 318.324219 233.40625 316.445312 233.238281 C 315.660156 233.164062 314.859375 233.285156 314.066406 233.261719 C 312.640625 233.21875 311.816406 233.875 311.863281 235.304688 C 311.90625 236.621094 311.316406 237.042969 310.105469 236.980469 C 309.066406 236.925781 308.148438 237.335938 308.21875 238.46875 C 308.351562 240.621094 307.160156 240.878906 305.480469 240.738281 C 304.691406 240.671875 303.890625 240.773438 303.101562 240.714844 C 301.550781 240.597656 300.601562 241.066406 300.722656 242.828125 C 300.804688 244 300.1875 244.460938 299.039062 244.417969 C 297.757812 244.371094 296.476562 244.417969 295.195312 244.414062 C 293.871094 244.40625 293.03125 244.984375 293.15625 246.378906 C 293.300781 247.972656 292.472656 248.171875 291.167969 248.144531 C 287.691406 248.074219 284.210938 248.132812 280.734375 248.066406 C 279.160156 248.035156 278.28125 248.625 278.269531 250.257812 C 278.257812 251.582031 277.59375 252.027344 276.300781 252.011719 C 272.699219 251.960938 269.097656 252.035156 265.5 252.003906 C 264.113281 251.992188 263.238281 252.417969 263.253906 253.945312 C 263.269531 255.300781 262.519531 255.6875 261.265625 255.6875 C 249.851562 255.664062 238.441406 255.652344 227.03125 255.699219 C 225.527344 255.707031 224.917969 255.117188 224.902344 253.691406 C 224.886719 252.464844 224.1875 251.976562 223.003906 251.996094 C 220.871094 252.035156 218.734375 252.023438 216.597656 252.058594 C 215.617188 252.078125 214.707031 252.300781 214.707031 253.542969 C 214.707031 254.734375 215.644531 254.859375 216.511719 254.886719 C 217.597656 254.925781 218.234375 255.226562 218.136719 256.496094 C 218.019531 258.058594 218.734375 258.9375 220.410156 258.804688 C 221.464844 258.722656 222.027344 259.160156 222.019531 260.261719 C 222.011719 261.617188 222.792969 262.339844 224.050781 262.367188 C 225.421875 262.402344 225.84375 263.039062 225.816406 264.304688 C 225.785156 265.65625 226.515625 266.273438 227.886719 266.238281 C 229.167969 266.207031 230.449219 266.285156 231.730469 266.296875 C 232.5625 266.304688 233.214844 266.550781 233.207031 267.507812 C 233.195312 269.699219 234.605469 270.101562 236.371094 270.101562 C 239.300781 270.101562 242.230469 270.117188 245.160156 270.113281 C 251.871094 270.113281 258.585938 270.097656 265.296875 270.113281 C 266.023438 270.117188 266.917969 269.8125 267.140625 271.042969 C 267.625 273.761719 267.660156 273.757812 270.496094 273.773438 C 271.226562 273.777344 271.964844 273.828125 272.691406 273.753906 C 274.007812 273.621094 274.660156 274.152344 274.632812 275.484375 C 274.605469 276.824219 275.164062 277.582031 276.597656 277.46875 C 277.75 277.378906 278.332031 277.890625 278.265625 279.0625 C 278.1875 280.476562 278.742188 281.265625 280.257812 281.230469 C 281.363281 281.203125 281.980469 281.730469 281.929688 282.894531 C 281.867188 284.371094 282.609375 285.019531 284.046875 284.964844 C 285.15625 284.921875 285.804688 285.355469 285.703125 286.570312 C 285.574219 288.074219 286.398438 288.6875 287.78125 288.699219 C 289.011719 288.710938 289.546875 289.269531 289.441406 290.515625 C 289.363281 291.425781 289.566406 292.488281 290.660156 292.382812 C 293.398438 292.117188 293.222656 293.824219 293.121094 295.609375 C 293.082031 296.277344 293.152344 296.953125 293.109375 297.621094 C 293.003906 299.199219 293.617188 300.070312 295.300781 300 C 296.546875 299.949219 296.933594 300.515625 296.894531 301.804688 C 296.777344 305.523438 296.878906 309.246094 296.804688 312.96875 C 296.769531 314.507812 297.433594 315.050781 298.882812 314.996094 C 300.160156 314.949219 301.445312 315.011719 302.726562 314.992188 C 303.933594 314.972656 304.523438 315.453125 304.445312 316.738281 C 304.371094 317.957031 304.488281 319.183594 304.425781 320.398438 C 304.355469 321.8125 304.796875 322.640625 306.367188 322.554688 C 307.511719 322.492188 308.234375 322.898438 308.171875 324.230469 C 308.113281 325.53125 308.707031 326.324219 310.117188 326.3125 C 311.308594 326.300781 311.90625 326.8125 311.835938 328.089844 C 311.757812 329.449219 312.507812 330.164062 313.851562 330.078125 C 315.203125 329.992188 315.699219 330.542969 315.695312 331.875 C 315.671875 338.34375 315.695312 344.8125 315.722656 351.28125 C 315.726562 352.492188 315.433594 353.292969 313.972656 353.183594 C 312.554688 353.078125 311.734375 353.796875 311.816406 355.246094 C 311.890625 356.589844 311.265625 356.9375 310.058594 356.859375 C 308.761719 356.773438 308.09375 357.515625 308.15625 358.761719 C 308.230469 360.214844 307.558594 360.738281 306.195312 360.679688 C 304.851562 360.625 304.339844 361.378906 304.425781 362.644531 C 304.503906 363.847656 304.011719 364.511719 302.734375 364.433594 C 301.359375 364.34375 300.664062 364.949219 300.726562 366.359375 C 300.785156 367.679688 300.140625 368.179688 298.828125 368.171875 C 292.359375 368.136719 285.890625 368.140625 279.421875 368.171875 C 278.136719 368.179688 277.425781 367.75 277.523438 366.386719 C 277.625 364.976562 276.945312 364.34375 275.570312 364.414062 C 274.359375 364.480469 273.710938 363.984375 273.808594 362.707031 C 273.910156 361.3125 273.242188 360.667969 271.863281 360.703125 C 270.699219 360.730469 270.007812 360.300781 270.109375 358.984375 C 270.222656 357.519531 269.433594 356.773438 268.019531 356.878906 C 266.703125 356.980469 266.25 356.386719 266.261719 355.195312 C 266.28125 353.832031 265.585938 353.136719 264.238281 353.203125 C 262.914062 353.265625 262.5625 352.570312 262.566406 351.398438 C 262.585938 344.871094 262.605469 338.339844 262.570312 331.808594 C 262.5625 330.46875 263.09375 329.890625 264.398438 329.949219 C 265.890625 330.015625 266.542969 329.253906 266.429688 327.816406 C 266.34375 326.695312 266.859375 326.246094 267.929688 326.308594 C 269.449219 326.390625 270.238281 325.722656 270.132812 324.144531 C 270.058594 323.078125 270.546875 322.496094 271.628906 322.585938 C 273.480469 322.738281 273.855469 321.757812 273.855469 320.128906 C 273.855469 314.972656 273.902344 314.945312 279.140625 315.085938 C 280.632812 315.125 281.277344 314.480469 281.273438 313.039062 C 281.265625 310.84375 281.265625 308.648438 281.289062 306.453125 C 281.308594 304.984375 280.65625 304.28125 279.164062 304.457031 C 277.894531 304.609375 277.34375 304.0625 277.449219 302.789062 C 277.578125 301.292969 276.804688 300.679688 275.367188 300.714844 C 274.335938 300.738281 273.71875 300.261719 273.8125 299.171875 C 273.949219 297.597656 273.21875 296.902344 271.691406 296.933594 C 270.601562 296.957031 269.945312 296.589844 270.058594 295.332031 C 270.195312 293.792969 269.421875 293.039062 267.886719 293.128906 C 266.695312 293.195312 266.207031 292.628906 266.265625 291.492188 C 266.347656 289.875 265.496094 289.378906 263.992188 289.417969 C 261.613281 289.484375 259.230469 289.425781 256.851562 289.414062 C 256.039062 289.410156 255.078125 289.414062 255.148438 288.28125 C 255.300781 285.832031 253.808594 285.726562 251.96875 285.738281 C 244.949219 285.78125 237.933594 285.742188 230.914062 285.734375 C 229.851562 285.730469 228.703125 285.796875 228.785156 284.222656 C 228.871094 282.507812 227.933594 281.980469 226.402344 281.984375 C 224.148438 281.992188 221.886719 281.886719 219.632812 281.945312 C 218.199219 281.980469 217.421875 281.507812 217.453125 279.988281 C 217.480469 278.679688 216.734375 278.070312 215.5 278.121094 C 214.257812 278.171875 213.742188 277.660156 213.695312 276.425781 C 213.648438 275.210938 212.886719 274.515625 211.679688 274.484375 C 210.511719 274.457031 210.046875 273.917969 210.0625 272.785156 C 210.082031 271.445312 209.371094 270.726562 208.039062 270.738281 C 206.78125 270.75 206.28125 270.089844 206.25 268.9375 C 206.214844 267.578125 205.539062 266.949219 204.171875 266.988281 C 203.058594 267.023438 202.453125 266.457031 202.488281 265.316406 C 202.539062 263.742188 201.730469 263.085938 200.230469 263.171875 C 199.09375 263.238281 198.734375 262.648438 198.753906 261.605469 C 198.78125 260.328125 198.769531 259.042969 198.710938 257.761719 C 198.667969 256.761719 198.234375 255.878906 197.140625 255.847656 C 195.941406 255.8125 195.695312 256.757812 195.6875 257.761719 C 195.679688 259.285156 195.675781 260.8125 195.675781 262.335938 C 195.675781 279.058594 195.675781 295.78125 195.683594 312.503906 C 195.683594 314.769531 196.078125 315.128906 198.363281 315.101562 C 199.398438 315.085938 200.445312 315.1875 201.46875 315.085938 C 202.914062 314.945312 203.277344 315.617188 203.203125 316.910156 C 203.128906 318.125 203.21875 319.347656 203.214844 320.570312 C 203.214844 321.84375 203.796875 322.550781 205.105469 322.457031 C 206.421875 322.367188 207.074219 322.890625 206.996094 324.238281 C 206.914062 325.609375 207.527344 326.289062 208.9375 326.242188 C 210.105469 326.203125 210.8125 326.675781 210.699219 327.972656 C 210.582031 329.375 211.285156 330.003906 212.640625 330.003906 C 213.820312 330 214.382812 330.472656 214.371094 331.765625 C 214.328125 338.292969 214.339844 344.824219 214.363281 351.355469 C 214.371094 352.527344 214.042969 353.261719 212.714844 353.160156 C 211.21875 353.050781 210.574219 353.785156 210.683594 355.246094 C 210.769531 356.390625 210.328125 356.988281 209.101562 356.84375 C 207.542969 356.664062 206.824219 357.371094 206.886719 358.941406 C 206.933594 360.132812 206.371094 360.777344 205.121094 360.695312 C 203.652344 360.597656 202.914062 361.253906 203.078125 362.75 C 203.21875 364.039062 202.640625 364.566406 201.398438 364.460938 C 200.078125 364.351562 199.421875 365.027344 199.445312 366.28125 C 199.46875 367.695312 198.871094 368.191406 197.464844 368.179688 C 190.996094 368.128906 184.527344 368.140625 178.058594 368.171875 C 176.855469 368.179688 176.195312 367.863281 176.332031 366.519531 C 176.472656 365.074219 175.800781 364.316406 174.308594 364.414062 C 173.066406 364.496094 172.492188 363.902344 172.511719 362.691406 C 172.535156 361.328125 171.875 360.660156 170.511719 360.675781 C 169.304688 360.691406 168.707031 360.132812 168.78125 358.886719 C 168.859375 357.527344 168.21875 356.753906 166.835938 356.871094 C 165.445312 356.984375 164.960938 356.386719 165.035156 355.070312 C 165.109375 353.757812 164.367188 353.140625 163.121094 353.195312 C 161.71875 353.257812 161.355469 352.558594 161.363281 351.292969 C 161.394531 344.824219 161.398438 338.351562 161.363281 331.882812 C 161.355469 330.617188 161.703125 329.882812 163.09375 329.949219 C 164.464844 330.011719 165.148438 329.371094 165.058594 327.96875 C 164.984375 326.808594 165.582031 326.242188 166.699219 326.296875 C 168.308594 326.375 168.871094 325.539062 168.863281 324.066406 C 168.859375 323.261719 169.128906 322.507812 170.085938 322.59375 C 172.511719 322.808594 172.511719 321.246094 172.515625 319.539062 C 172.53125 315.15625 172.554688 315.15625 176.828125 315.132812 C 179.945312 315.117188 180.0625 315.011719 180.0625 311.972656 C 180.0625 299.890625 180.054688 287.804688 180.054688 275.722656 C 180.054688 269.800781 180.058594 263.882812 180.058594 257.960938 C 180.058594 256.855469 179.9375 255.777344 178.484375 255.78125 C 177.125 255.78125 177.011719 256.828125 176.988281 257.847656 C 176.960938 259.070312 176.933594 260.289062 176.972656 261.511719 C 177.003906 262.644531 176.632812 263.253906 175.382812 263.105469 C 173.9375 262.9375 173.1875 263.578125 173.230469 265.082031 C 173.265625 266.308594 172.8125 267.070312 171.421875 266.992188 C 169.945312 266.914062 169.308594 267.703125 169.347656 269.128906 C 169.367188 269.820312 169.371094 270.667969 168.460938 270.636719 C 166.816406 270.582031 165.917969 271.367188 165.179688 272.738281 C 164.832031 273.378906 164.066406 273.898438 163.371094 274.226562 C 162.410156 274.683594 161.929688 275.332031 161.992188 276.359375 C 162.074219 277.738281 161.402344 278.207031 160.105469 278.105469 C 158.8125 278.007812 158.128906 278.664062 158.203125 279.957031 C 158.300781 281.648438 157.4375 281.964844 155.9375 281.902344 C 153.5625 281.800781 151.179688 281.902344 148.804688 281.945312 C 147.976562 281.960938 146.96875 282.144531 147.042969 283.128906 C 147.25 285.898438 145.496094 285.765625 143.621094 285.753906 C 136.785156 285.71875 129.949219 285.746094 123.113281 285.742188 C 121.796875 285.738281 120.550781 285.855469 120.632812 287.613281 C 120.703125 289.128906 119.910156 289.464844 118.59375 289.4375 C 116.214844 289.386719 113.832031 289.472656 111.453125 289.425781 C 110 289.398438 109.265625 290 109.300781 291.464844 C 109.320312 292.4375 109.09375 293.171875 107.894531 293.097656 C 106.242188 292.992188 105.539062 293.839844 105.636719 295.429688 C 105.707031 296.597656 105.085938 296.90625 104.042969 296.816406 C 102.613281 296.691406 101.8125 297.300781 101.929688 298.820312 C 102.035156 300.167969 101.390625 300.707031 100.089844 300.664062 C 98.796875 300.621094 98.164062 301.300781 98.214844 302.578125 C 98.273438 304.011719 97.582031 304.554688 96.199219 304.441406 C 94.875 304.335938 94.304688 305.082031 94.289062 306.328125 C 94.269531 307.851562 94.273438 309.378906 94.273438 310.902344 C 94.265625 314.953125 94.269531 314.941406 98.328125 314.980469 C 102.65625 315.019531 101.828125 314.964844 101.929688 318.5 C 101.945312 319.050781 101.960938 319.601562 101.925781 320.148438 C 101.820312 321.644531 102.441406 322.511719 104 322.492188 C 105.21875 322.480469 105.820312 323.019531 105.792969 324.238281 C 105.761719 325.730469 106.554688 326.308594 107.96875 326.269531 C 108.917969 326.242188 109.503906 326.675781 109.414062 327.699219 C 109.273438 329.269531 110 329.953125 111.535156 329.941406 C 112.5 329.933594 113.195312 330.285156 113.191406 331.425781 C 113.183594 338.136719 113.191406 344.851562 113.1875 351.5625 C 113.183594 352.550781 112.816406 353.25 111.679688 353.152344 C 110.117188 353.019531 109.421875 353.757812 109.410156 355.277344 C 109.402344 356.363281 108.960938 356.996094 107.738281 356.875 C 106.265625 356.730469 105.550781 357.5 105.605469 358.925781 C 105.652344 360.171875 105.140625 360.785156 103.886719 360.644531 C 102.296875 360.464844 101.804688 361.273438 101.917969 362.707031 C 102.015625 363.953125 101.410156 364.515625 100.175781 364.4375 C 98.804688 364.351562 98.105469 364.984375 98.15625 366.375 C 98.203125 367.710938 97.546875 368.179688 96.25 368.175781 C 89.78125 368.140625 83.308594 368.144531 76.839844 368.171875 C 75.652344 368.175781 74.933594 367.804688 75.03125 366.511719 C 75.160156 364.890625 74.34375 364.320312 72.832031 364.402344 C 71.777344 364.460938 71.242188 363.921875 71.296875 362.847656 C 71.371094 361.398438 70.671875 360.675781 69.238281 360.671875 C 67.996094 360.671875 67.527344 360.074219 67.570312 358.847656 C 67.617188 357.507812 66.859375 356.792969 65.523438 356.839844 C 64.355469 356.882812 63.832031 356.335938 63.8125 355.226562 C 63.792969 353.859375 63.054688 353.199219 61.746094 353.222656 C 60.449219 353.242188 60.066406 352.578125 60.066406 351.398438 C 60.085938 344.804688 60.085938 338.214844 60.058594 331.625 C 60.054688 330.464844 60.546875 329.878906 61.679688 329.941406 C 63.15625 330.019531 63.824219 329.347656 63.820312 327.898438 C 63.820312 326.921875 64.167969 326.222656 65.3125 326.28125 C 66.964844 326.371094 67.648438 325.515625 67.609375 323.945312 C 67.589844 323.046875 68.023438 322.5 68.921875 322.582031 C 71.15625 322.785156 71.3125 321.453125 71.335938 319.714844 C 71.417969 314.386719 70.378906 315.304688 76.25 315.058594 C 78.429688 314.964844 78.644531 314.886719 78.808594 312.730469 C 79.078125 309.191406 78.871094 305.65625 78.796875 302.121094 C 78.769531 300.84375 79.066406 300.019531 80.625 300.089844 C 82.03125 300.148438 82.714844 299.347656 82.640625 297.886719 C 82.582031 296.730469 82.675781 295.566406 82.617188 294.410156 C 82.554688 293.148438 82.925781 292.375 84.34375 292.5 C 85.878906 292.636719 86.449219 291.859375 86.328125 290.414062 C 86.234375 289.242188 86.792969 288.710938 87.957031 288.796875 C 89.464844 288.90625 90.085938 288.160156 89.988281 286.707031 C 89.914062 285.554688 90.417969 284.984375 91.613281 285.109375 C 93.082031 285.257812 93.792969 284.554688 93.789062 283.109375 C 93.785156 281.851562 94.320312 281.15625 95.652344 281.21875 C 97.066406 281.28125 97.675781 280.507812 97.589844 279.183594 C 97.503906 277.902344 98.054688 277.394531 99.304688 277.480469 C 100.355469 277.554688 101.242188 277.109375 101.203125 275.996094 C 101.136719 274.003906 102.179688 273.636719 103.839844 273.78125 C 104.6875 273.855469 105.546875 273.773438 106.402344 273.761719 C 107.734375 273.742188 108.6875 273.269531 108.660156 271.75 C 108.636719 270.453125 109.320312 270.085938 110.507812 270.113281 C 112.578125 270.160156 114.65625 270.117188 116.730469 270.117188 C 124.359375 270.113281 131.988281 270.113281 139.617188 270.117188 C 140.734375 270.117188 142.148438 270.1875 142.273438 268.804688 C 142.488281 266.472656 143.914062 266.292969 145.683594 266.332031 C 146.414062 266.347656 147.148438 266.277344 147.878906 266.269531 C 149.203125 266.25 149.976562 265.585938 149.996094 264.269531 C 150.015625 263.023438 150.582031 262.523438 151.777344 262.484375 C 153.097656 262.441406 153.78125 261.71875 153.765625 260.378906 C 153.753906 259.328125 154.230469 258.773438 155.3125 258.824219 C 156.742188 258.894531 157.488281 258.257812 157.480469 256.785156 C 157.476562 255.640625 157.902344 254.972656 159.21875 255.003906 C 160.171875 255.027344 161.125 254.726562 161.03125 253.460938 C 160.941406 252.230469 159.941406 252.101562 159.011719 252.074219 C 156.9375 252.015625 154.863281 252.046875 152.789062 252.011719 C 151.378906 251.984375 150.546875 252.527344 150.644531 254.042969 C 150.722656 255.226562 150.160156 255.683594 149.015625 255.683594 C 137.359375 255.671875 125.703125 255.671875 114.046875 255.683594 C 113.105469 255.683594 112.496094 255.4375 112.585938 254.339844 C 112.742188 252.460938 111.75 251.949219 110.011719 251.984375 C 106.414062 252.050781 102.8125 251.953125 99.210938 251.957031 C 98.03125 251.960938 97.308594 251.558594 97.414062 250.265625 C 97.550781 248.542969 96.65625 248.042969 95.078125 248.066406 C 91.601562 248.121094 88.121094 248.03125 84.644531 248.113281 C 83.222656 248.144531 82.425781 247.855469 82.59375 246.230469 C 82.726562 244.917969 82.019531 244.347656 80.714844 244.386719 C 79.433594 244.425781 78.148438 244.328125 76.871094 244.402344 C 75.539062 244.480469 74.925781 243.945312 75.003906 242.613281 C 75.089844 241.167969 74.320312 240.664062 72.976562 240.710938 C 71.757812 240.75 70.535156 240.664062 69.316406 240.71875 C 68.074219 240.773438 67.476562 240.292969 67.597656 239.015625 C 67.742188 237.523438 67.03125 236.878906 65.5625 236.929688 C 64.742188 236.957031 63.804688 236.890625 63.855469 235.785156 C 63.964844 233.527344 62.625 233.152344 60.824219 233.203125 C 59.972656 233.226562 59.117188 233.117188 58.269531 233.171875 C 56.914062 233.257812 56.144531 232.820312 56.28125 231.324219 C 56.410156 229.925781 55.75 229.273438 54.34375 229.363281 C 53.285156 229.429688 52.515625 229.148438 52.617188 227.867188 C 52.75 226.167969 51.890625 225.558594 50.289062 225.683594 C 49.574219 225.738281 49.023438 225.535156 48.804688 224.679688 C 48.113281 221.957031 48.085938 221.960938 45.300781 221.929688 C 44.632812 221.921875 43.957031 221.898438 43.289062 221.929688 C 41.960938 221.996094 41.179688 221.546875 41.28125 220.054688 C 41.339844 219.191406 41.054688 218.304688 40.050781 218.371094 C 37.421875 218.542969 37.445312 216.890625 37.566406 215.066406 C 37.609375 214.398438 37.535156 213.722656 37.574219 213.054688 C 37.664062 211.507812 36.980469 210.582031 35.425781 210.453125 C 34.378906 210.367188 33.882812 209.910156 33.914062 208.84375 C 33.949219 207.550781 33.277344 206.957031 31.992188 206.972656 C 31.074219 206.980469 30.230469 206.773438 30.160156 205.644531 C 30.070312 204.246094 29.554688 203.285156 28.164062 202.691406 C 27.367188 202.351562 26.785156 201.492188 26.386719 200.65625 C 26.109375 200.070312 25.730469 199.679688 25.140625 199.398438 C 23.917969 198.8125 22.820312 198.085938 22.414062 196.652344 C 22.25 196.078125 21.765625 195.671875 21.183594 195.722656 C 19.0625 195.910156 18.761719 194.664062 18.867188 192.984375 C 18.917969 192.195312 18.839844 191.398438 18.847656 190.605469 C 18.867188 189.121094 18.441406 188.074219 16.671875 188.191406 C 15.386719 188.273438 14.96875 187.570312 15.015625 186.371094 C 15.0625 185.152344 14.980469 183.929688 14.996094 182.710938 C 15.015625 181.371094 14.46875 180.605469 13.050781 180.683594 C 11.859375 180.753906 11.164062 180.320312 11.257812 179.019531 C 11.363281 177.519531 10.636719 176.875 9.171875 176.996094 C 7.980469 177.089844 7.550781 176.511719 7.570312 175.359375 C 7.605469 172.859375 7.519531 170.355469 7.589844 167.851562 C 7.632812 166.300781 7.058594 165.546875 5.464844 165.664062 C 4.527344 165.730469 3.835938 165.558594 3.679688 164.375 C 3.332031 161.785156 3 161.609375 0.367188 162.230469 M 191.371094 163.128906 C 191.375 156.964844 191.390625 150.804688 191.371094 144.640625 C 191.367188 143.507812 191.433594 142.539062 192.929688 142.542969 C 194.597656 142.542969 195.105469 141.566406 195.078125 140.035156 C 195.03125 137.65625 195.082031 135.277344 195.082031 132.898438 C 195.078125 132.007812 195.277344 131.308594 196.363281 131.3125 C 198.34375 131.316406 198.820312 130.109375 198.738281 128.410156 C 198.699219 127.621094 198.785156 126.820312 198.730469 126.03125 C 198.628906 124.660156 199.007812 123.800781 200.582031 123.757812 C 201.941406 123.722656 202.460938 122.835938 202.464844 121.546875 C 202.464844 120.386719 202.53125 119.230469 202.546875 118.070312 C 202.558594 116.917969 202.953125 116.222656 204.269531 116.304688 C 205.753906 116.394531 206.429688 115.527344 206.324219 114.148438 C 206.226562 112.875 206.804688 112.570312 207.925781 112.578125 C 209.417969 112.585938 210.136719 111.796875 210.078125 110.269531 C 210.035156 109.175781 210.105469 108.074219 210.085938 106.976562 C 210.066406 105.847656 210.363281 105.101562 211.710938 105.113281 C 213.128906 105.128906 213.851562 104.34375 213.738281 102.90625 C 213.636719 101.644531 214.238281 101.121094 215.441406 101.121094 C 216.730469 101.121094 217.5625 100.636719 217.46875 99.171875 C 217.398438 97.996094 217.984375 97.515625 219.144531 97.597656 C 220.625 97.707031 221.28125 96.925781 221.226562 95.5 C 221.179688 94.269531 221.746094 93.699219 222.96875 93.707031 C 223.890625 93.710938 224.867188 93.441406 224.863281 92.40625 C 224.84375 89.835938 226.492188 89.882812 228.277344 89.972656 C 228.945312 90.007812 229.621094 89.980469 230.289062 89.957031 C 231.351562 89.917969 232.328125 89.640625 232.304688 88.355469 C 232.285156 87.140625 231.304688 86.925781 230.335938 86.953125 C 229.121094 86.984375 228.738281 86.394531 228.773438 85.265625 C 228.816406 83.925781 228.769531 82.582031 228.757812 81.238281 C 228.75 80.445312 228.53125 79.558594 227.648438 79.632812 C 224.773438 79.867188 224.9375 78.03125 225.035156 76.125 C 225.070312 75.398438 224.9375 74.664062 224.941406 73.933594 C 224.945312 72.589844 224.371094 71.832031 222.960938 71.929688 C 221.820312 72.007812 221.191406 71.605469 221.363281 70.371094 C 221.582031 68.78125 220.890625 68.078125 219.304688 68.210938 C 218.183594 68.300781 217.519531 67.820312 217.566406 66.652344 C 217.628906 64.992188 216.835938 64.335938 215.226562 64.421875 C 214.136719 64.480469 213.734375 63.847656 213.765625 62.800781 C 213.800781 61.519531 213.71875 60.234375 213.777344 58.957031 C 213.84375 57.46875 213.207031 56.753906 211.71875 56.925781 C 210.449219 57.070312 209.890625 56.605469 210.035156 55.292969 C 210.195312 53.824219 209.519531 53.097656 208.015625 53.226562 C 206.785156 53.332031 206.164062 52.773438 206.210938 51.542969 C 206.265625 50.113281 205.679688 49.347656 204.175781 49.425781 C 202.972656 49.484375 202.324219 48.976562 202.4375 47.695312 C 202.558594 46.257812 201.777344 45.695312 200.453125 45.722656 C 199.117188 45.75 198.589844 45.113281 198.722656 43.796875 C 198.855469 42.5 198.226562 41.808594 196.910156 41.910156 C 195.449219 42.023438 194.933594 41.351562 195.039062 39.960938 C 195.121094 38.886719 194.667969 38.097656 193.46875 38.242188 C 191.351562 38.503906 191.328125 37.285156 191.324219 35.6875 C 191.3125 30.316406 192.269531 30.765625 186.109375 30.753906 C 184.882812 30.75 184.328125 31.339844 184.34375 32.550781 C 184.359375 33.890625 184.304688 35.234375 184.34375 36.578125 C 184.378906 37.734375 183.902344 38.3125 182.722656 38.191406 C 181.085938 38.027344 180.527344 38.84375 180.632812 40.363281 C 180.710938 41.441406 180.148438 41.964844 179.082031 41.878906 C 177.488281 41.75 176.824219 42.480469 176.972656 44.039062 C 177.089844 45.238281 176.5 45.667969 175.339844 45.605469 C 173.925781 45.527344 173.15625 46.195312 173.21875 47.679688 C 173.269531 48.898438 172.710938 49.480469 171.453125 49.398438 C 170.1875 49.320312 169.472656 49.921875 169.507812 51.226562 C 169.542969 52.683594 168.9375 53.367188 167.421875 53.214844 C 166.191406 53.089844 165.570312 53.734375 165.671875 54.957031 C 165.796875 56.5 165.074219 57.03125 163.613281 56.921875 C 162.460938 56.835938 161.964844 57.503906 161.972656 58.617188 C 161.980469 59.898438 161.925781 61.179688 161.976562 62.460938 C 162.027344 63.707031 161.644531 64.46875 160.25 64.425781 C 158.921875 64.390625 158.175781 64.980469 158.238281 66.398438 C 158.289062 67.605469 157.707031 68.234375 156.476562 68.167969 C 155.082031 68.09375 154.429688 68.753906 154.476562 70.128906 C 154.523438 71.421875 153.988281 72.03125 152.625 71.929688 C 151.25 71.828125 150.621094 72.570312 150.636719 73.933594 C 150.652344 75.277344 150.613281 76.617188 150.613281 77.960938 C 150.613281 78.722656 150.359375 79.382812 149.515625 79.339844 C 146.988281 79.210938 146.796875 80.773438 146.945312 82.675781 C 147.003906 83.40625 146.914062 84.144531 146.96875 84.871094 C 147.074219 86.304688 146.585938 87.070312 145.011719 86.96875 C 144.082031 86.90625 143.289062 87.238281 143.296875 88.386719 C 143.304688 89.484375 144.046875 89.867188 144.984375 89.910156 C 146.324219 89.972656 147.667969 89.996094 149.011719 89.96875 C 150.144531 89.945312 150.765625 90.363281 150.648438 91.570312 C 150.492188 93.167969 151.269531 93.792969 152.800781 93.734375 C 153.878906 93.691406 154.574219 94.152344 154.535156 95.335938 C 154.484375 96.78125 155.167969 97.496094 156.609375 97.484375 C 157.746094 97.472656 158.300781 98.007812 158.25 99.164062 C 158.1875 100.449219 158.828125 101.117188 160.105469 101.105469 C 161.496094 101.09375 162.109375 101.722656 161.992188 103.128906 C 161.914062 104.0625 162.1875 105.015625 163.296875 104.921875 C 165.527344 104.742188 165.839844 105.933594 165.660156 107.71875 C 165.578125 108.503906 165.675781 109.304688 165.671875 110.097656 C 165.664062 111.609375 166.226562 112.570312 167.917969 112.507812 C 169.066406 112.46875 169.59375 112.972656 169.449219 114.183594 C 169.265625 115.765625 170.066406 116.445312 171.609375 116.316406 C 172.714844 116.222656 173.160156 116.75 173.152344 117.816406 C 173.148438 119.21875 173.1875 120.625 173.226562 122.027344 C 173.253906 122.878906 173.496094 123.773438 174.507812 123.6875 C 177.011719 123.472656 177.109375 124.984375 176.980469 126.796875 C 176.917969 127.648438 177 128.507812 176.960938 129.359375 C 176.894531 130.773438 177.570312 131.441406 178.941406 131.289062 C 180.382812 131.132812 180.71875 131.816406 180.683594 133.105469 C 180.625 135.421875 180.652344 137.742188 180.707031 140.058594 C 180.730469 141.117188 180.902344 142.332031 182.257812 142.371094 C 184.234375 142.425781 184.40625 143.515625 184.390625 145.125 C 184.328125 151.835938 184.339844 158.546875 184.378906 165.257812 C 184.398438 168.101562 184.964844 168.675781 187.414062 168.726562 C 190.960938 168.800781 191.363281 168.402344 191.371094 164.765625 C 191.375 164.339844 191.371094 163.914062 191.371094 163.128906 M 87.175781 161.828125 C 86.539062 161.644531 86.308594 161.15625 86.347656 160.566406 C 86.472656 158.59375 85.300781 158.230469 83.671875 158.261719 C 81.355469 158.300781 79.035156 158.226562 76.714844 158.25 C 75.507812 158.261719 74.84375 157.808594 74.96875 156.53125 C 75.132812 154.863281 74.148438 154.386719 72.742188 154.371094 C 70.667969 154.351562 68.59375 154.355469 66.515625 154.347656 C 65.101562 154.347656 64.300781 155.101562 64.292969 156.46875 C 64.277344 159.882812 64.351562 163.296875 64.402344 166.710938 C 64.417969 168.03125 65.039062 168.804688 66.421875 168.730469 C 67.953125 168.652344 68.238281 169.503906 68.210938 170.804688 C 68.15625 173.183594 68.257812 175.566406 68.199219 177.945312 C 68.160156 179.410156 68.707031 180.152344 70.210938 180.050781 C 71.472656 179.964844 71.972656 180.535156 71.917969 181.789062 C 71.867188 183.066406 71.914062 184.351562 71.960938 185.632812 C 71.988281 186.457031 72.183594 187.445312 73.167969 187.386719 C 75.8125 187.230469 75.714844 188.890625 75.59375 190.679688 C 75.546875 191.347656 75.617188 192.023438 75.585938 192.695312 C 75.519531 194.203125 76.21875 195.023438 77.734375 195 C 78.980469 194.980469 79.53125 195.554688 79.503906 196.761719 C 79.476562 198.113281 80.101562 198.820312 81.492188 198.777344 C 82.679688 198.738281 83.316406 199.214844 83.269531 200.5 C 83.222656 201.65625 83.839844 202.324219 85.003906 202.453125 C 86.117188 202.574219 86.8125 203.136719 86.902344 204.296875 C 87.011719 205.726562 87.839844 206.378906 89.199219 206.332031 C 90.421875 206.289062 90.824219 206.890625 90.78125 208 C 90.730469 209.449219 91.414062 210.171875 92.886719 210.066406 C 94.132812 209.976562 94.480469 210.699219 94.453125 211.773438 C 94.417969 213.113281 94.984375 213.867188 96.414062 213.761719 C 97.804688 213.660156 98.246094 214.4375 98.199219 215.675781 C 98.152344 217.003906 98.832031 217.539062 100.117188 217.503906 C 101.335938 217.46875 102.558594 217.542969 103.777344 217.507812 C 104.941406 217.472656 105.667969 217.816406 105.625 219.144531 C 105.574219 220.625 106.402344 221.203125 107.808594 221.191406 C 109.148438 221.175781 110.492188 221.214844 111.832031 221.238281 C 112.785156 221.253906 113.351562 221.683594 113.273438 222.695312 C 113.125 224.605469 114.171875 225.109375 115.863281 225.085938 C 119.339844 225.039062 122.820312 225.09375 126.296875 225.050781 C 127.476562 225.039062 128.214844 225.398438 128.167969 226.679688 C 128.101562 228.476562 129.199219 228.761719 130.660156 228.757812 C 140.914062 228.738281 151.167969 228.746094 161.421875 228.742188 C 162.15625 228.742188 162.890625 228.722656 163.566406 228.378906 C 164.074219 228.117188 164.511719 227.753906 164.515625 227.136719 C 164.519531 226.40625 163.980469 225.929688 163.371094 225.917969 C 161.332031 225.871094 161.25 224.582031 161.332031 223.058594 C 161.382812 222.148438 161.328125 221.226562 161.257812 220.316406 C 161.191406 219.46875 160.808594 218.558594 159.941406 218.558594 C 157.347656 218.554688 157.453125 216.902344 157.566406 215.113281 C 157.613281 214.386719 157.527344 213.652344 157.511719 212.917969 C 157.488281 211.546875 156.894531 210.679688 155.425781 210.71875 C 154.257812 210.75 153.71875 210.214844 153.753906 209.085938 C 153.796875 207.773438 153.074219 207.128906 151.878906 207.101562 C 150.496094 207.0625 149.886719 206.425781 149.847656 205.089844 C 149.804688 203.746094 149.027344 203.046875 147.730469 203.113281 C 146.558594 203.175781 146.230469 202.664062 146.257812 201.605469 C 146.296875 200.1875 145.554688 199.472656 144.125 199.480469 C 143.019531 199.484375 142.453125 198.976562 142.414062 197.828125 C 142.371094 196.4375 141.605469 195.6875 140.210938 195.679688 C 139.207031 195.675781 138.738281 195.195312 138.761719 194.226562 C 138.796875 192.675781 137.984375 192.015625 136.507812 192.015625 C 135.550781 192.015625 134.96875 191.578125 135.042969 190.578125 C 135.164062 188.953125 134.457031 188.175781 132.828125 188.214844 C 131.777344 188.238281 131.277344 187.742188 131.292969 186.65625 C 131.316406 185.078125 130.507812 184.296875 128.910156 184.339844 C 128.351562 184.355469 127.59375 184.316406 127.691406 183.597656 C 127.96875 181.585938 126.828125 180.777344 125.214844 180.148438 C 124.757812 179.96875 124.207031 179.441406 124.121094 178.992188 C 123.730469 176.921875 122.292969 176.867188 120.675781 176.96875 C 119.886719 177.023438 119.085938 176.933594 118.296875 176.984375 C 116.949219 177.070312 116.207031 176.617188 116.300781 175.128906 C 116.390625 173.699219 115.53125 173.203125 114.222656 173.210938 C 113.003906 173.214844 111.78125 173.160156 110.5625 173.167969 C 109.371094 173.175781 108.71875 172.679688 108.769531 171.425781 C 108.832031 169.976562 108.164062 169.238281 106.683594 169.347656 C 105.535156 169.433594 104.957031 168.964844 105 167.78125 C 105.0625 166.175781 104.15625 165.652344 102.691406 165.667969 C 100.375 165.695312 98.050781 165.617188 95.734375 165.683594 C 94.4375 165.71875 93.789062 165.265625 93.792969 163.929688 C 93.800781 162.421875 92.890625 161.945312 91.523438 161.957031 C 90.183594 161.96875 88.839844 161.914062 87.175781 161.828125 M 311.300781 159.128906 C 311.28125 158.394531 311.199219 157.65625 311.257812 156.933594 C 311.40625 155.128906 310.597656 154.351562 308.816406 154.386719 C 306.804688 154.429688 304.789062 154.367188 302.777344 154.398438 C 301.507812 154.417969 300.65625 154.957031 300.746094 156.394531 C 300.839844 157.847656 300.078125 158.3125 298.730469 158.292969 C 296.289062 158.257812 293.847656 158.3125 291.40625 158.308594 C 290.390625 158.308594 289.414062 158.53125 289.5 159.734375 C 289.652344 161.917969 288.398438 162.105469 286.746094 161.984375 C 285.957031 161.925781 285.15625 162.023438 284.367188 161.972656 C 282.820312 161.875 281.859375 162.375 281.96875 164.113281 C 282.046875 165.308594 281.4375 165.699219 280.296875 165.691406 C 277.855469 165.675781 275.414062 165.746094 272.976562 165.789062 C 271.664062 165.8125 270.648438 166.207031 270.75 167.78125 C 270.835938 169.125 270.15625 169.457031 268.957031 169.367188 C 268.015625 169.292969 267.078125 169.683594 267.109375 170.707031 C 267.1875 173.25 265.640625 173.390625 263.761719 173.253906 C 263.09375 173.203125 262.417969 173.285156 261.75 173.253906 C 260.253906 173.179688 259.398438 173.800781 259.433594 175.363281 C 259.464844 176.683594 258.738281 177.03125 257.574219 176.996094 C 256.417969 176.957031 255.257812 177.011719 254.097656 176.992188 C 252.761719 176.96875 251.984375 177.574219 251.984375 178.933594 C 251.984375 180.25 251.40625 180.785156 250.09375 180.769531 C 248.835938 180.753906 248.167969 181.539062 248.195312 182.753906 C 248.222656 184.117188 247.5625 184.5625 246.308594 184.574219 C 244.964844 184.582031 244.300781 185.308594 244.375 186.671875 C 244.433594 187.75 243.886719 188.273438 242.84375 188.257812 C 241.433594 188.242188 240.640625 188.8125 240.707031 190.316406 C 240.753906 191.449219 240.210938 192.027344 239.0625 192.007812 C 237.609375 191.980469 236.972656 192.757812 236.921875 194.15625 C 236.890625 195.023438 236.597656 195.6875 235.535156 195.703125 C 234.132812 195.722656 233.453125 196.578125 233.261719 197.878906 C 233.121094 198.835938 232.757812 199.46875 231.628906 199.386719 C 230.070312 199.273438 229.386719 200.125 229.417969 201.605469 C 229.441406 202.660156 229.007812 203.222656 227.921875 203.210938 C 226.578125 203.195312 225.835938 203.921875 225.773438 205.195312 C 225.71875 206.410156 225.207031 206.960938 224.003906 207.019531 C 222.804688 207.078125 222.0625 207.722656 222.027344 208.976562 C 221.992188 210.152344 221.550781 210.761719 220.261719 210.730469 C 218.75 210.695312 218.070312 211.601562 218.0625 213.058594 C 218.058594 214.160156 218.011719 215.257812 218.066406 216.355469 C 218.128906 217.601562 217.761719 218.359375 216.359375 218.328125 C 214.847656 218.296875 214.34375 219.207031 214.375 220.578125 C 214.394531 221.308594 214.320312 222.046875 214.386719 222.773438 C 214.558594 224.59375 214.425781 226.105469 211.988281 226.039062 C 211.320312 226.023438 210.867188 226.550781 210.84375 227.25 C 210.820312 227.976562 211.289062 228.371094 211.957031 228.488281 C 212.613281 228.605469 213.28125 228.710938 213.945312 228.714844 C 217.242188 228.75 220.539062 228.757812 223.832031 228.757812 C 230.789062 228.761719 237.75 228.765625 244.707031 228.738281 C 245.851562 228.734375 247.320312 228.816406 247.457031 227.285156 C 247.644531 225.195312 248.929688 225.089844 250.488281 225.074219 C 253.71875 225.042969 256.953125 224.980469 260.183594 224.917969 C 261.605469 224.890625 262.535156 224.332031 262.484375 222.734375 C 262.449219 221.617188 263.0625 221.273438 264.105469 221.28125 C 265.507812 221.289062 266.910156 221.167969 268.3125 221.132812 C 269.222656 221.109375 269.996094 220.75 269.960938 219.808594 C 269.871094 217.414062 271.351562 217.367188 273.074219 217.496094 C 273.800781 217.550781 274.539062 217.476562 275.269531 217.496094 C 276.664062 217.527344 277.5 216.964844 277.484375 215.476562 C 277.472656 214.246094 278.097656 213.761719 279.292969 213.699219 C 280.472656 213.636719 281.246094 212.972656 281.25 211.71875 C 281.253906 210.472656 281.820312 209.976562 283.050781 210.015625 C 284.414062 210.058594 285.082031 209.28125 285.027344 207.953125 C 284.96875 206.652344 285.640625 206.234375 286.808594 206.253906 C 288.148438 206.277344 288.878906 205.65625 288.8125 204.257812 C 288.765625 203.183594 289.367188 202.679688 290.34375 202.605469 C 291.824219 202.496094 292.570312 201.789062 292.496094 200.265625 C 292.449219 199.214844 292.949219 198.6875 294.042969 198.71875 C 295.457031 198.761719 296.226562 198.066406 296.226562 196.625 C 296.222656 195.308594 296.976562 194.96875 298.132812 195.054688 C 299.535156 195.160156 300.140625 194.460938 300.113281 193.082031 C 300.085938 191.863281 300.191406 190.640625 300.128906 189.421875 C 300.0625 188.160156 300.441406 187.417969 301.832031 187.457031 C 303.070312 187.492188 303.570312 186.773438 303.625 185.628906 C 303.6875 184.289062 303.808594 182.949219 303.820312 181.609375 C 303.832031 180.558594 304.203125 180.007812 305.324219 180.042969 C 307.019531 180.097656 307.519531 179.082031 307.5 177.570312 C 307.472656 175.25 307.53125 172.929688 307.484375 170.613281 C 307.460938 169.445312 307.769531 168.707031 309.085938 168.738281 C 310.78125 168.777344 311.289062 167.769531 311.28125 166.265625 C 311.265625 164.007812 311.292969 161.75 311.300781 159.128906 M 119.996094 107.527344 C 119.882812 106.058594 119.957031 104.8125 122.015625 104.960938 C 123.097656 105.039062 123.6875 104.300781 123.714844 103.222656 C 123.753906 101.757812 123.765625 100.292969 123.742188 98.832031 C 123.671875 94.488281 124.421875 94.40625 119.175781 94.421875 C 117.128906 94.429688 115.070312 94.558594 113.117188 93.765625 C 113.535156 91.710938 112.621094 90.601562 110.527344 90.601562 C 95.945312 90.589844 81.363281 90.59375 66.78125 90.605469 C 64.828125 90.609375 64.269531 91.164062 64.277344 93.121094 C 64.285156 95.4375 64.410156 97.757812 64.40625 100.074219 C 64.386719 112.027344 64.324219 123.984375 64.316406 135.941406 C 64.3125 138.484375 64.667969 138.78125 67.183594 138.804688 C 70.660156 138.832031 74.140625 138.832031 77.617188 138.824219 C 78.75 138.824219 79.527344 139.140625 79.484375 140.46875 C 79.4375 142.003906 80.351562 142.457031 81.71875 142.433594 C 83 142.414062 84.28125 142.457031 85.5625 142.476562 C 86.398438 142.484375 87.019531 142.765625 86.964844 143.742188 C 86.828125 146.101562 87.941406 146.347656 89.953125 146.34375 C 93.371094 146.339844 96.789062 146.335938 100.203125 146.351562 C 100.972656 146.351562 101.789062 146.203125 101.964844 147.402344 C 102.339844 150.019531 102.386719 150.011719 104.980469 150.023438 C 105.773438 150.027344 106.570312 150.074219 107.359375 150.007812 C 108.800781 149.890625 109.605469 150.355469 109.398438 151.949219 C 109.214844 153.363281 109.988281 153.765625 111.257812 153.726562 C 112.597656 153.6875 113.941406 153.75 115.28125 153.746094 C 116.386719 153.742188 117.046875 154.164062 116.9375 155.371094 C 116.785156 156.976562 117.597656 157.582031 119.109375 157.53125 C 120.019531 157.5 120.679688 157.828125 120.605469 158.898438 C 120.476562 160.703125 121.453125 161.15625 123.078125 161.195312 C 127.527344 161.292969 127.582031 161.222656 127.59375 156.636719 C 127.597656 155.054688 127.007812 154.28125 125.5 154.390625 C 123.984375 154.496094 123.769531 153.65625 123.777344 152.476562 C 123.785156 151.199219 123.757812 149.917969 123.726562 148.636719 C 123.703125 147.722656 123.265625 146.984375 122.328125 147.042969 C 120.050781 147.191406 119.984375 145.832031 119.988281 144.125 C 120.019531 132.046875 120 119.964844 119.996094 107.527344 M 311.269531 130.1875 C 311.265625 117.859375 311.265625 105.535156 311.257812 93.207031 C 311.253906 90.925781 310.984375 90.601562 308.980469 90.601562 C 294.519531 90.59375 280.054688 90.617188 265.59375 90.589844 C 264 90.585938 263.101562 91.164062 263.175781 92.789062 C 263.242188 94.277344 262.425781 94.46875 261.222656 94.445312 C 258.964844 94.402344 256.707031 94.515625 254.449219 94.433594 C 252.613281 94.371094 251.914062 95.195312 251.96875 96.953125 C 252.027344 98.964844 252.035156 100.980469 252 102.992188 C 251.976562 104.367188 252.539062 105.089844 253.949219 104.980469 C 255.328125 104.871094 255.742188 105.53125 255.742188 106.832031 C 255.714844 119.648438 255.71875 132.460938 255.738281 145.277344 C 255.738281 146.449219 255.46875 147.15625 254.085938 147.007812 C 252.570312 146.84375 252.015625 147.738281 252.011719 149.125 C 252.007812 150.285156 251.9375 151.445312 251.988281 152.601562 C 252.050781 153.929688 251.496094 154.570312 250.164062 154.441406 C 248.660156 154.296875 248.320312 155.136719 248.242188 156.4375 C 247.945312 161.402344 248.1875 161.300781 253.171875 161.125 C 254.355469 161.082031 255.050781 160.445312 255.03125 159.308594 C 255.003906 157.800781 255.824219 157.429688 257.085938 157.414062 C 257.988281 157.40625 258.765625 157.027344 258.699219 156.0625 C 258.546875 153.800781 259.875 153.582031 261.601562 153.710938 C 262.328125 153.761719 263.066406 153.660156 263.796875 153.707031 C 265.332031 153.8125 266.273438 153.304688 266.292969 151.601562 C 266.304688 150.488281 266.898438 149.980469 268.046875 150.027344 C 269.328125 150.074219 270.609375 150.015625 271.890625 150.007812 C 273.027344 149.996094 273.847656 149.5625 273.78125 148.304688 C 273.683594 146.578125 274.648438 146.304688 276.074219 146.328125 C 279.371094 146.375 282.667969 146.296875 285.960938 146.34375 C 287.726562 146.367188 288.800781 145.734375 288.796875 143.847656 C 288.796875 142.8125 289.332031 142.453125 290.285156 142.453125 C 291.628906 142.453125 292.96875 142.40625 294.3125 142.402344 C 295.460938 142.398438 296.25 141.945312 296.238281 140.714844 C 296.222656 139.117188 297.121094 138.816406 298.476562 138.832031 C 301.648438 138.875 304.820312 138.835938 307.996094 138.828125 C 311.070312 138.820312 311.226562 138.675781 311.257812 135.679688 C 311.273438 133.972656 311.265625 132.261719 311.269531 130.1875 M 232.636719 148.414062 C 232.726562 147.511719 233.265625 147.011719 234.089844 146.734375 C 235.621094 146.21875 236.242188 145.144531 236.238281 143.523438 C 236.199219 131.625 236.203125 119.722656 236.199219 107.824219 C 236.195312 106.765625 236.03125 105.792969 234.730469 105.707031 C 233.277344 105.613281 233.261719 106.726562 233.257812 107.714844 C 233.253906 108.847656 232.851562 109.441406 231.625 109.296875 C 229.96875 109.097656 229.21875 109.84375 229.414062 111.519531 C 229.558594 112.746094 229.089844 113.367188 227.769531 113.230469 C 226.144531 113.058594 225.601562 113.929688 225.683594 115.441406 C 225.742188 116.535156 225.636719 117.640625 225.699219 118.734375 C 225.78125 120.179688 225.117188 120.707031 223.730469 120.636719 C 222.515625 120.574219 221.289062 120.671875 220.070312 120.617188 C 218.644531 120.550781 218.066406 121.25 218.0625 122.589844 C 218.058594 123.992188 218.03125 125.394531 218.039062 126.796875 C 218.042969 127.59375 217.71875 128.195312 216.902344 128.136719 C 214.507812 127.964844 214.207031 129.375 214.355469 131.257812 C 214.425781 132.167969 214.324219 133.089844 214.359375 134.003906 C 214.402344 135.152344 213.925781 135.714844 212.742188 135.644531 C 211.097656 135.542969 210.652344 136.492188 210.675781 137.949219 C 210.710938 140.328125 210.640625 142.707031 210.679688 145.085938 C 210.699219 146.359375 210.289062 147.082031 208.898438 146.972656 C 207.449219 146.855469 206.941406 147.640625 206.972656 148.980469 C 207 150.199219 206.929688 151.421875 206.96875 152.640625 C 207.011719 153.855469 206.589844 154.480469 205.269531 154.359375 C 203.910156 154.230469 203.230469 154.90625 203.207031 156.285156 C 203.1875 157.441406 203.070312 158.597656 203.058594 159.757812 C 202.960938 169.761719 203.34375 179.765625 203.074219 189.773438 C 202.980469 193.183594 203.183594 196.601562 203.289062 200.015625 C 203.320312 200.972656 203.574219 201.917969 204.757812 201.992188 C 205.917969 202.066406 206.121094 201.179688 206.214844 200.28125 C 206.300781 199.484375 206.53125 198.75 207.480469 198.8125 C 209.796875 198.964844 210.027344 197.457031 210.042969 195.738281 C 210.050781 194.882812 210.078125 194.027344 210.050781 193.175781 C 210.011719 192.011719 210.371094 191.304688 211.707031 191.367188 C 213.054688 191.429688 213.761719 190.6875 213.75 189.355469 C 213.738281 188.113281 214.375 187.589844 215.535156 187.535156 C 217.015625 187.46875 217.503906 186.546875 217.519531 185.210938 C 217.535156 183.992188 217.554688 182.773438 217.597656 181.550781 C 217.625 180.640625 218.003906 180.015625 219.035156 180.070312 C 220.683594 180.15625 221.367188 179.265625 221.390625 177.738281 C 221.40625 176.820312 221.875 176.449219 222.75 176.375 C 224.421875 176.234375 225.007812 175.121094 225.058594 173.613281 C 225.09375 172.515625 225.082031 171.414062 225.082031 170.316406 C 225.082031 169.582031 225.253906 168.886719 226.105469 168.847656 C 228.492188 168.734375 228.742188 167.105469 228.761719 165.273438 C 228.773438 164.417969 228.792969 163.5625 228.796875 162.707031 C 228.796875 161.851562 229.101562 161.3125 230.066406 161.308594 C 231.992188 161.304688 232.519531 160.164062 232.503906 158.429688 C 232.472656 155.195312 232.550781 151.960938 232.636719 148.414062 M 165.476562 144.6875 C 164.972656 144.0625 165.054688 143.308594 165.046875 142.585938 C 165.027344 140.9375 165.039062 139.289062 165.019531 137.644531 C 165.007812 136.625 164.617188 135.667969 163.511719 135.71875 C 161.472656 135.8125 161.210938 134.714844 161.339844 133.101562 C 161.40625 132.253906 161.3125 131.394531 161.332031 130.539062 C 161.367188 129.09375 160.851562 128.160156 159.234375 128.230469 C 157.941406 128.285156 157.546875 127.632812 157.605469 126.414062 C 157.671875 125.078125 157.617188 123.730469 157.546875 122.394531 C 157.484375 121.242188 156.839844 120.628906 155.644531 120.644531 C 154.363281 120.65625 153.082031 120.589844 151.804688 120.664062 C 150.5625 120.738281 149.980469 120.289062 150.027344 119.007812 C 150.070312 117.847656 149.992188 116.6875 150.03125 115.53125 C 150.078125 114.128906 149.535156 113.257812 148.050781 113.292969 C 146.660156 113.324219 146.242188 112.625 146.308594 111.359375 C 146.359375 110.324219 145.949219 109.484375 144.789062 109.492188 C 143.144531 109.503906 142.300781 108.921875 142.390625 107.144531 C 142.441406 106.203125 141.726562 105.730469 140.820312 105.726562 C 139.910156 105.722656 139.570312 106.355469 139.472656 107.164062 C 139.429688 107.527344 139.367188 107.890625 139.363281 108.253906 C 139.335938 120.269531 139.199219 132.28125 139.488281 144.296875 C 139.519531 145.632812 140.070312 146.398438 141.464844 146.320312 C 142.78125 146.246094 143.109375 146.882812 143.097656 148.097656 C 143.0625 151.636719 143.183594 155.171875 143.132812 158.707031 C 143.109375 160.351562 143.601562 161.292969 145.390625 161.21875 C 146.542969 161.171875 147.019531 161.757812 146.984375 162.910156 C 146.9375 164.25 146.972656 165.59375 147.015625 166.933594 C 147.046875 167.792969 147.398438 168.683594 148.328125 168.632812 C 150.738281 168.5 150.765625 169.980469 150.652344 171.6875 C 150.605469 172.414062 150.65625 173.148438 150.648438 173.882812 C 150.632812 175.316406 151.152344 176.261719 152.761719 176.199219 C 153.992188 176.15625 154.546875 176.730469 154.515625 177.960938 C 154.496094 178.960938 154.8125 179.949219 155.953125 179.925781 C 158.066406 179.890625 158.328125 181.074219 158.179688 182.742188 C 158.117188 183.46875 158.230469 184.207031 158.203125 184.9375 C 158.140625 186.527344 158.691406 187.527344 160.464844 187.527344 C 161.488281 187.523438 162.027344 188.035156 161.984375 189.125 C 161.921875 190.664062 162.707031 191.40625 164.230469 191.28125 C 165.378906 191.183594 165.71875 191.710938 165.726562 192.78125 C 165.730469 194.117188 165.859375 195.457031 165.964844 196.796875 C 166.050781 197.90625 166.601562 198.652344 167.785156 198.695312 C 168.832031 198.730469 169.550781 199.054688 169.644531 200.230469 C 169.6875 200.753906 169.972656 201.167969 170.53125 201.253906 C 171.171875 201.347656 171.542969 200.945312 171.835938 200.441406 C 172.441406 199.382812 172.425781 198.214844 172.429688 197.058594 C 172.457031 184.738281 172.480469 172.417969 172.496094 160.101562 C 172.496094 158.820312 172.453125 157.539062 172.410156 156.257812 C 172.378906 155.28125 171.933594 154.515625 170.898438 154.5625 C 168.839844 154.65625 168.53125 153.460938 168.792969 151.871094 C 169.296875 148.839844 168.109375 146.597656 165.476562 144.6875 M 293.339844 228.539062 C 295.035156 228.660156 296.402344 228.429688 296.292969 226.195312 C 296.25 225.394531 296.871094 225.070312 297.664062 225.078125 C 298.941406 225.089844 300.226562 225.03125 301.503906 225.074219 C 303.003906 225.121094 303.878906 224.511719 303.785156 222.945312 C 303.699219 221.527344 304.449219 221.136719 305.679688 221.152344 C 306.640625 221.167969 307.511719 220.800781 307.433594 219.738281 C 307.269531 217.53125 308.578125 217.410156 310.199219 217.503906 C 310.988281 217.550781 311.785156 217.441406 312.574219 217.484375 C 314.113281 217.566406 315.070312 217.089844 314.96875 215.339844 C 314.914062 214.335938 315.34375 213.648438 316.457031 213.746094 C 318.054688 213.882812 318.675781 213.113281 318.671875 211.605469 C 318.667969 210.464844 319.289062 210 320.425781 210.039062 C 321.863281 210.09375 322.585938 209.332031 322.503906 207.894531 C 322.433594 206.6875 323.066406 206.222656 324.15625 206.257812 C 325.722656 206.3125 326.371094 205.5625 326.296875 204.03125 C 326.246094 202.976562 326.824219 202.425781 327.867188 202.472656 C 329.363281 202.542969 329.96875 201.824219 329.933594 200.382812 C 329.910156 199.375 330.382812 198.683594 331.464844 198.785156 C 333.300781 198.957031 333.859375 198.003906 333.800781 196.382812 C 333.769531 195.625 334 195.160156 334.894531 195.027344 C 337.507812 194.640625 337.5 194.601562 337.515625 191.964844 C 337.523438 191.171875 337.566406 190.375 337.515625 189.585938 C 337.429688 188.265625 337.824219 187.453125 339.324219 187.523438 C 340.6875 187.589844 341.367188 186.90625 341.320312 185.53125 C 341.28125 184.351562 341.734375 183.667969 343.019531 183.726562 C 344.304688 183.785156 344.957031 183.183594 344.921875 181.867188 C 344.886719 180.601562 345.421875 179.953125 346.789062 180.027344 C 348.15625 180.101562 348.785156 179.289062 348.808594 177.984375 C 348.835938 176.640625 348.855469 175.300781 348.832031 173.957031 C 348.820312 173.171875 349.015625 172.734375 349.914062 172.625 C 352.539062 172.304688 352.535156 172.265625 352.546875 169.539062 C 352.550781 168.804688 352.605469 168.070312 352.542969 167.34375 C 352.417969 165.785156 352.871094 164.875 354.660156 165.027344 C 355.710938 165.117188 356.179688 164.445312 356.199219 163.417969 C 356.21875 162.269531 355.53125 161.957031 354.546875 161.964844 C 353.265625 161.96875 351.980469 161.925781 350.703125 161.976562 C 349.414062 162.03125 348.746094 161.566406 348.839844 160.183594 C 348.9375 158.769531 348.167969 158.222656 346.8125 158.265625 C 345.59375 158.300781 344.371094 158.207031 343.152344 158.257812 C 341.882812 158.304688 341.132812 157.902344 341.261719 156.5 C 341.414062 154.863281 340.5 154.34375 339.042969 154.347656 C 335.992188 154.355469 332.941406 154.328125 329.890625 154.34375 C 327.382812 154.351562 327.027344 154.6875 327.011719 157.199219 C 326.984375 161.773438 326.996094 166.351562 327.003906 170.925781 C 327.007812 172.289062 326.785156 173.355469 325.015625 173.214844 C 323.554688 173.101562 323.144531 174.015625 323.152344 175.308594 C 323.175781 177.871094 323.152344 180.433594 323.160156 182.996094 C 323.160156 183.789062 323.0625 184.386719 322.0625 184.5625 C 319.449219 185.019531 319.453125 185.0625 319.445312 187.660156 C 319.441406 188.453125 319.410156 189.25 319.453125 190.039062 C 319.53125 191.386719 319.0625 192.144531 317.578125 192.039062 C 316.265625 191.945312 315.691406 192.636719 315.703125 193.921875 C 315.71875 195.203125 315.652344 196.484375 315.691406 197.761719 C 315.722656 198.890625 315.367188 199.507812 314.117188 199.378906 C 312.671875 199.234375 311.910156 199.898438 311.96875 201.382812 C 312.019531 202.683594 311.53125 203.316406 310.128906 203.144531 C 308.71875 202.976562 308.128906 203.769531 308.128906 205.109375 C 308.128906 206.390625 308.070312 207.671875 308.121094 208.953125 C 308.171875 210.191406 307.683594 210.792969 306.417969 210.691406 C 305.054688 210.578125 304.277344 211.125 304.4375 212.574219 C 304.597656 214.0625 303.90625 214.53125 302.515625 214.414062 C 301.308594 214.316406 300.667969 214.933594 300.757812 216.171875 C 300.859375 217.566406 300.265625 218.179688 298.847656 218.140625 C 297.75 218.113281 296.902344 218.582031 296.9375 219.84375 C 296.980469 221.367188 296.378906 222.097656 294.78125 221.96875 C 293.996094 221.90625 293.171875 222.230469 293.273438 223.160156 C 293.492188 225.160156 292.664062 225.894531 290.71875 225.894531 C 289.78125 225.898438 289.464844 226.78125 289.558594 227.660156 C 289.648438 228.527344 290.292969 228.695312 291.03125 228.660156 C 291.699219 228.632812 292.367188 228.597656 293.339844 228.539062 M 71.988281 214.292969 C 71.429688 214.09375 71.285156 213.617188 71.320312 213.117188 C 71.457031 211.351562 70.789062 210.445312 68.902344 210.675781 C 67.980469 210.789062 67.578125 210.332031 67.601562 209.386719 C 67.632812 208.046875 67.585938 206.703125 67.570312 205.359375 C 67.558594 203.984375 66.992188 203.132812 65.492188 203.203125 C 64.339844 203.257812 63.789062 202.757812 63.875 201.574219 C 63.988281 200.035156 63.285156 199.242188 61.714844 199.410156 C 60.359375 199.554688 60.019531 198.871094 60.054688 197.679688 C 60.097656 196.339844 60.042969 194.996094 60.023438 193.652344 C 60.007812 192.742188 59.621094 191.976562 58.652344 192.070312 C 56.40625 192.28125 56.121094 191.027344 56.28125 189.261719 C 56.351562 188.476562 56.253906 187.675781 56.292969 186.882812 C 56.371094 185.316406 55.691406 184.378906 54.09375 184.402344 C 52.820312 184.421875 52.570312 183.8125 52.589844 182.710938 C 52.628906 180.332031 52.585938 177.953125 52.574219 175.570312 C 52.566406 174.152344 52.054688 173.195312 50.4375 173.25 C 49.152344 173.296875 48.726562 172.570312 48.769531 171.398438 C 48.789062 170.851562 48.757812 170.300781 48.757812 169.753906 C 48.761719 165.300781 48.765625 160.84375 48.777344 156.390625 C 48.78125 155.066406 48.234375 154.328125 46.824219 154.332031 C 43.285156 154.351562 39.742188 154.335938 36.203125 154.34375 C 35.238281 154.347656 34.417969 154.726562 34.472656 155.796875 C 34.59375 158.089844 33.214844 158.355469 31.449219 158.269531 C 30.65625 158.230469 29.859375 158.300781 29.066406 158.273438 C 27.675781 158.230469 26.808594 158.753906 26.871094 160.273438 C 26.925781 161.558594 26.257812 161.988281 25.066406 161.960938 C 23.722656 161.933594 22.378906 161.953125 21.039062 162.011719 C 20.105469 162.054688 19.601562 162.613281 19.570312 163.550781 C 19.539062 164.4375 20.035156 165.050781 20.867188 164.992188 C 23.25 164.832031 23.367188 166.285156 23.234375 168.03125 C 23.179688 168.757812 23.257812 169.496094 23.210938 170.226562 C 23.113281 171.707031 23.644531 172.601562 25.257812 172.542969 C 26.554688 172.496094 26.945312 173.179688 26.886719 174.378906 C 26.824219 175.59375 26.890625 176.816406 26.871094 178.039062 C 26.851562 179.265625 27.304688 180.066406 28.640625 180.074219 C 29.941406 180.082031 30.460938 180.816406 30.625 182 C 30.777344 183.101562 31.371094 183.816406 32.578125 183.714844 C 34.035156 183.59375 34.558594 184.300781 34.5 185.667969 C 34.460938 186.515625 34.683594 187.433594 35.695312 187.390625 C 38.109375 187.292969 38.332031 188.71875 38.179688 190.566406 C 38.121094 191.292969 38.21875 192.03125 38.1875 192.761719 C 38.132812 194.1875 38.792969 194.996094 40.214844 195.003906 C 41.410156 195.007812 42.058594 195.347656 41.914062 196.6875 C 41.765625 198.058594 42.492188 198.792969 43.84375 198.742188 C 45.269531 198.691406 45.832031 199.328125 45.792969 200.703125 C 45.765625 201.785156 46.296875 202.484375 47.441406 202.4375 C 48.96875 202.378906 49.492188 203.152344 49.445312 204.5625 C 49.402344 205.769531 50.054688 206.4375 51.234375 206.351562 C 52.714844 206.246094 53.371094 206.753906 53.269531 208.300781 C 53.1875 209.472656 53.828125 210.164062 55.058594 210.066406 C 56.515625 209.953125 57.035156 210.617188 56.914062 212.015625 C 56.808594 213.25 57.46875 213.851562 58.683594 213.746094 C 60.191406 213.617188 60.804688 214.304688 60.753906 215.765625 C 60.710938 217.097656 61.496094 217.601562 62.726562 217.59375 C 64.066406 217.585938 65.410156 217.578125 66.75 217.589844 C 67.457031 217.597656 68.25 217.722656 68.152344 218.628906 C 67.875 221.207031 69.46875 221.363281 71.355469 221.285156 C 72.269531 221.25 73.191406 221.402344 74.09375 221.324219 C 75.273438 221.222656 75.796875 221.566406 75.671875 222.839844 C 75.507812 224.480469 76.367188 225.222656 77.984375 225.0625 C 79.03125 224.960938 79.46875 225.460938 79.417969 226.441406 C 79.316406 228.34375 80.359375 228.890625 82.054688 228.769531 C 82.78125 228.714844 83.519531 228.769531 84.25 228.765625 C 85.210938 228.757812 86.179688 228.695312 86.21875 227.410156 C 86.253906 226.164062 85.480469 225.671875 84.335938 225.703125 C 83.117188 225.742188 82.511719 225.253906 82.597656 223.976562 C 82.691406 222.597656 82 221.941406 80.628906 221.960938 C 79.515625 221.980469 78.6875 221.648438 78.761719 220.3125 C 78.84375 218.84375 78.15625 218.175781 76.679688 218.246094 C 75.667969 218.296875 74.992188 217.859375 75.078125 216.753906 C 75.238281 214.671875 73.96875 214.296875 71.988281 214.292969 M 287.128906 330.742188 C 285.902344 330.839844 285.675781 331.695312 285.707031 332.683594 C 285.738281 333.902344 285.214844 334.542969 283.96875 334.429688 C 282.328125 334.285156 281.785156 335.207031 281.800781 336.636719 C 281.8125 337.699219 281.390625 338.214844 280.285156 338.152344 C 278.59375 338.058594 278.023438 339.007812 278.101562 340.558594 C 278.144531 341.410156 278.097656 342.265625 278.148438 343.113281 C 278.222656 344.363281 278.699219 345.226562 280.171875 345.085938 C 281.167969 344.992188 281.859375 345.316406 281.773438 346.492188 C 281.640625 348.238281 282.511719 348.960938 284.183594 348.835938 C 285.277344 348.75 285.816406 349.214844 285.695312 350.3125 C 285.492188 352.117188 286.367188 352.746094 288.054688 352.597656 C 288.78125 352.535156 289.519531 352.53125 290.246094 352.59375 C 291.875 352.726562 292.664062 352.066406 292.515625 350.386719 C 292.425781 349.351562 292.828125 348.742188 293.96875 348.832031 C 295.589844 348.960938 296.34375 348.226562 296.277344 346.585938 C 296.238281 345.632812 296.699219 345.058594 297.722656 345.1875 C 299.746094 345.445312 300.324219 344.417969 300.144531 342.601562 C 300.066406 341.816406 300.113281 341.019531 300.132812 340.226562 C 300.167969 338.796875 299.546875 338.03125 298.050781 338.152344 C 296.859375 338.25 296.15625 337.816406 296.238281 336.519531 C 296.335938 335.054688 295.691406 334.371094 294.199219 334.445312 C 293.230469 334.492188 292.441406 334.132812 292.539062 333.007812 C 292.722656 330.894531 291.53125 330.5625 289.824219 330.714844 C 289.039062 330.78125 288.246094 330.722656 287.128906 330.742188 M 184.644531 331.277344 C 184.304688 331.761719 184.316406 332.320312 184.339844 332.867188 C 184.390625 333.941406 183.917969 334.511719 182.835938 334.414062 C 181.113281 334.261719 180.527344 335.105469 180.644531 336.703125 C 180.714844 337.675781 180.230469 338.210938 179.226562 338.148438 C 177.429688 338.03125 176.839844 338.976562 176.941406 340.621094 C 176.988281 341.414062 176.980469 342.210938 176.929688 343 C 176.832031 344.523438 177.394531 345.339844 179.035156 345.160156 C 179.910156 345.066406 180.722656 345.226562 180.632812 346.351562 C 180.480469 348.238281 181.464844 348.878906 183.152344 348.820312 C 184.160156 348.789062 184.4375 349.359375 184.347656 350.214844 C 184.144531 352.082031 185.019531 352.773438 186.808594 352.601562 C 187.597656 352.527344 188.402344 352.515625 189.1875 352.589844 C 190.769531 352.738281 191.476562 352.0625 191.351562 350.492188 C 191.265625 349.363281 191.699219 348.785156 192.914062 348.828125 C 194.402344 348.875 195.199219 348.171875 195.082031 346.597656 C 195.011719 345.640625 195.464844 345.019531 196.449219 345.078125 C 198.515625 345.195312 198.933594 344.039062 198.777344 342.3125 C 198.710938 341.585938 198.742188 340.847656 198.753906 340.117188 C 198.773438 338.832031 198.140625 338.136719 196.871094 338.183594 C 195.546875 338.230469 194.945312 337.710938 195.0625 336.359375 C 195.175781 335.066406 194.566406 334.355469 193.246094 334.46875 C 191.714844 334.601562 191.148438 333.875 191.167969 332.445312 C 191.179688 331.578125 190.898438 330.78125 189.894531 330.757812 C 188.207031 330.710938 186.492188 330.34375 184.644531 331.277344 M 82.929688 349.109375 C 83.785156 352.65625 83.785156 352.609375 87.617188 352.585938 C 89.179688 352.574219 90.097656 352.105469 89.984375 350.394531 C 89.917969 349.359375 90.300781 348.757812 91.445312 348.832031 C 93.140625 348.9375 93.960938 348.070312 93.914062 346.421875 C 93.882812 345.328125 94.503906 345.035156 95.394531 345.042969 C 96.976562 345.054688 97.550781 344.144531 97.582031 342.730469 C 97.605469 341.875 97.609375 341.023438 97.570312 340.167969 C 97.511719 338.894531 96.949219 338.054688 95.539062 338.15625 C 94.394531 338.238281 93.800781 337.78125 93.828125 336.609375 C 93.863281 335.085938 93.15625 334.351562 91.601562 334.453125 C 90.570312 334.519531 89.914062 334.0625 90.007812 332.964844 C 90.167969 331.125 89.230469 330.585938 87.578125 330.71875 C 86.792969 330.78125 85.996094 330.761719 85.203125 330.726562 C 83.835938 330.671875 83.136719 331.257812 83.199219 332.667969 C 83.242188 333.71875 82.921875 334.503906 81.675781 334.4375 C 80.105469 334.351562 79.46875 335.136719 79.472656 336.640625 C 79.476562 337.527344 79.15625 338.25 78.085938 338.132812 C 76.136719 337.917969 75.644531 339.015625 75.671875 340.667969 C 75.683594 341.398438 75.636719 342.128906 75.613281 342.863281 C 75.5625 344.429688 76.207031 345.300781 77.890625 345.179688 C 78.570312 345.132812 79.480469 345.125 79.414062 346.023438 C 79.21875 348.539062 80.949219 348.6875 82.929688 349.109375 M 93.320312 231.980469 C 93.894531 230.207031 93.625 229.636719 91.972656 229.484375 C 90.824219 229.375 89.65625 229.410156 88.5 229.460938 C 87.625 229.5 87.21875 230.066406 87.195312 230.925781 C 87.171875 231.777344 87.5 232.414062 88.398438 232.445312 C 89.96875 232.503906 91.5625 232.800781 93.320312 231.980469 M 285.136719 229.402344 C 284.53125 229.445312 283.910156 229.414062 283.324219 229.542969 C 282.519531 229.722656 282.082031 230.292969 282.101562 231.136719 C 282.125 232.070312 282.75 232.40625 283.554688 232.429688 C 284.773438 232.464844 285.992188 232.464844 287.207031 232.417969 C 288.171875 232.386719 288.59375 231.765625 288.632812 230.855469 C 288.671875 229.925781 288.101562 229.542969 287.28125 229.460938 C 286.675781 229.40625 286.066406 229.417969 285.136719 229.402344 Z M 285.136719 229.402344 " fill-opacity="1" fill-rule="nonzero"/></g>
  <g transform="translate(-135.04 246.884) scale(3.342)"><path d="M82.117 39.523c-.152.172-.191 2.747-.172 9.192l.059 8.945h4.773l.059-9.039c.039-7.113 0-9.078-.191-9.21-.438-.266-4.278-.192-4.528.112m7.621.117c-.21.4-.265 16.895-.054 17.696.093.398.187.418 2.441.418 1.969 0 2.371-.059 2.465-.305.21-.535.133-17.43-.074-17.828-.192-.324-.422-.363-2.391-.363-1.965 0-2.195.039-2.387.383m7.774-.27c-.075.078-.133.992-.133 2.024v1.867h4.793l-.055-1.965-.058-1.945-2.215-.055c-1.203-.02-2.254.02-2.332.074m50.312.152c-.156.172-.21.88-.172 1.965l.055 1.68h4.777l.055-1.793c.04-1.316-.02-1.852-.191-1.965-.133-.074-1.164-.152-2.27-.152-1.512 0-2.101.078-2.254.265m76.512-.152c-.074.078-.133.992-.133 2.024v1.867h4.793l-.055-1.965-.058-1.945-2.215-.055c-1.203-.02-2.254.02-2.332.074m-86.539 1.527c-.059.172-.117 1.145-.117 2.192v1.887h-.84c-.973 0-1.07.136-1.07 1.601 0 1.184.21 1.45 1.183 1.45h.727v2.042c0 1.145.058 2.899.132 3.907l.118 1.87h1.832l.058.895.055.918h5.54l.058-1.316c.039-.934-.02-1.375-.192-1.469-.133-.098-.781-.172-1.449-.172h-1.187l.039-3.3.058-3.278 1.336-.098 1.336-.093v-2.86l-1.336-.097-1.336-.094-.058-2.156-.055-2.133h-2.352c-1.984 0-2.386.054-2.48.304m-88.414 4.215c-.078.055-.137 4.04-.137 8.848 0 8.14.02 8.75.344 8.883.172.097 1.3.133 2.484.097l2.14-.058v-5.13h3.532c2.695 0 3.535-.058 3.555-.245.02-.117.035-.535.054-.899.02-.668.02-.668 1.032-.722l.996-.059v-8.906l-.594-.113a7.4 7.4 0 0 0-1.05-.114c-.419 0-.458-.078-.458-.86v-.858H55.38l-.059.707c-.054.726-.054.726-.953.78l-.918.06v-1.547h-1.97c-1.085 0-2.042.058-2.097.136m9.031 6.235v3.336l-2.023.058c-1.11.035-2.063.02-2.102-.02-.039-.038-.074-1.562-.074-3.394v-3.3h4.2Zm9.32-5.473c-.054.875-.074.914-.629.875a5.6 5.6 0 0 0-.992.059l-.441.078v8.941l1.012.059.996.054.054.918.059.895 4.91-.04 4.906-.054.059-.918.059-.894h2.082v-4.461c0-4.328-.02-4.485-.383-4.598-.211-.074-.668-.094-1.012-.055-.594.055-.613.036-.707-.8l-.098-.86-4.906-.058-4.91-.04Zm6.914 5.492v3.336h-4.007v-6.676h4.007Zm22.864-6.254c-.075.055-.133 2.934-.133 6.387v6.273l2.351-.058 2.329-.055.058-6.351.035-6.332h-2.25c-1.242 0-2.332.058-2.39.136m6.972 6.196.059 6.351h4.773l.059-4.824.04-4.809h4.007l.039 4.809.059 4.824h4.773l.059-5.379.039-5.379-.996-.054-1.012-.059-.055-.914-.058-.898-3.094.039-3.094.058-.059.703-.058.727h-1.89v-1.527h-3.63Zm17-4.864.055 1.489 3.785.058 3.781.035-.058.918-.059.895-3.148.097-3.153.094-.019.762v.766l-.973.054c-.824.04-.996.133-1.09.477-.152.555-.152 1.773 0 2.879l.133.879h1.832l.059.894.058.918 2.922.055 2.903.058v-1.562l.918.055c.898.058.898.058.953.761l.058.727h3.61V46.922l-.574-.133c-.305-.074-.649-.074-.743-.02-.441.29-.785-.132-.785-.953v-.84h-10.523Zm7.602 7.399v.86h-3.629v-1.716h3.629Zm18.621-8.637c-.055.133-.074 2.992-.055 6.352l.055 6.101h4.777V45.074l-2.351-.058c-1.778-.04-2.367.02-2.426.191m9.168 0a5.3 5.3 0 0 0-.133.914c-.058.668-.058.668-1.07.727l-.992.054.039 4.426.054 4.422.997.059.992.058.058.895.055.898 4.93.055 4.906.039v-1.906h2.101v-8.961h-.742c-1.207 0-1.36-.137-1.36-1.07v-.84h-4.866c-3.746 0-4.91.058-4.969.23m6.973 6.16v3.336h-4.012v-6.676h4.012Zm7.179-6.234c-.054.113-.035 8.406.059 11.894l.02.727h2.367c1.988 0 2.386-.059 2.484-.305.059-.172.113-2.347.113-4.863v-4.574l1.97.054 1.948.059.094 4.766.098 4.77h4.773V46.98l-.957-.094-.953-.098-.094-.855-.097-.86-3.094-.058-3.113-.04v1.528h-1.91v-1.527h-1.798c-.992 0-1.851.078-1.91.156m18.321.075a5 5 0 0 0-.137.914c-.055.668-.055.668-1.05.727l-1.013.054v1.891c0 1.027.059 2 .118 2.172.074.23.379.305 1.03.305h.934l.06.8.058.82 2.73.06 2.711.058v1.695h-3.57c-1.989 0-3.707.074-3.84.172-.172.094-.23.535-.191 1.469l.058 1.316h10.313l.058-.898.055-.895.996-.058.992-.059.059-1.617c.074-2.367.035-2.48-1.11-2.48h-.937l-.055-.821-.058-.8-2.77-.094-2.77-.098v-1.715l3.516-.059c1.95-.02 3.61-.113 3.723-.207.133-.117.191-.726.152-1.527l-.074-1.355h-4.95c-3.8 0-4.984.058-5.038.23m19.902 0c-.04.133-.04.8.035 1.488l.117 1.239 3.684.058 3.668.035v1.91h-6.3v1.715h-2.102v4.176l1.011.059.992.054.06.918.054.914 2.906-.058 2.902-.055.059-.726c.055-.707.074-.707.894-.707.825 0 .844 0 .899.707l.059.726 1.87.055 1.852.058V52.32c0-4.215-.055-5.433-.226-5.453-.137-.02-.594-.039-1.012-.058-.766-.02-.766-.02-.863-.875l-.094-.86-5.176-.058c-4.05-.04-5.215 0-5.289.191m7.504 8.637v.879l-1.758-.059-1.773-.055-.059-.535c-.113-1.011 0-1.086 1.871-1.086h1.719Zm7.449-2.477v6.387h4.719l.113-2.156a67 67 0 0 0 0-8.293l-.113-2.328h-4.719Zm-22.137 2.27c-.152.172-.21.894-.171 2.133l.058 1.89 2.063.055 2.062.058-.058-2.156-.055-2.152-1.836-.059c-1.414-.039-1.89.02-2.063.23m0 0"/></g>
</svg>
