<svg xmlns="http://www.w3.org/2000/svg" viewBox="49.23 39.23 179.97 23.77" fill="currentColor"><path d="M82.117 39.523c-.152.172-.191 2.747-.172 9.192l.059 8.945h4.773l.059-9.039c.039-7.113 0-9.078-.191-9.21-.438-.266-4.278-.192-4.528.112m7.621.117c-.21.4-.265 16.895-.054 17.696.093.398.187.418 2.441.418 1.969 0 2.371-.059 2.465-.305.21-.535.133-17.43-.074-17.828-.192-.324-.422-.363-2.391-.363-1.965 0-2.195.039-2.387.383m7.774-.27c-.075.078-.133.992-.133 2.024v1.867h4.793l-.055-1.965-.058-1.945-2.215-.055c-1.203-.02-2.254.02-2.332.074m50.312.152c-.156.172-.21.88-.172 1.965l.055 1.68h4.777l.055-1.793c.04-1.316-.02-1.852-.191-1.965-.133-.074-1.164-.152-2.27-.152-1.512 0-2.101.078-2.254.265m76.512-.152c-.074.078-.133.992-.133 2.024v1.867h4.793l-.055-1.965-.058-1.945-2.215-.055c-1.203-.02-2.254.02-2.332.074m-86.539 1.527c-.059.172-.117 1.145-.117 2.192v1.887h-.84c-.973 0-1.07.136-1.07 1.601 0 1.184.21 1.45 1.183 1.45h.727v2.042c0 1.145.058 2.899.132 3.907l.118 1.87h1.832l.058.895.055.918h5.54l.058-1.316c.039-.934-.02-1.375-.192-1.469-.133-.098-.781-.172-1.449-.172h-1.187l.039-3.3.058-3.278 1.336-.098 1.336-.093v-2.86l-1.336-.097-1.336-.094-.058-2.156-.055-2.133h-2.352c-1.984 0-2.386.054-2.48.304m-88.414 4.215c-.078.055-.137 4.04-.137 8.848 0 8.14.02 8.75.344 8.883.172.097 1.3.133 2.484.097l2.14-.058v-5.13h3.532c2.695 0 3.535-.058 3.555-.245.02-.117.035-.535.054-.899.02-.668.02-.668 1.032-.722l.996-.059v-8.906l-.594-.113a7.4 7.4 0 0 0-1.05-.114c-.419 0-.458-.078-.458-.86v-.858H55.38l-.059.707c-.054.726-.054.726-.953.78l-.918.06v-1.547h-1.97c-1.085 0-2.042.058-2.097.136m9.031 6.235v3.336l-2.023.058c-1.11.035-2.063.02-2.102-.02-.039-.038-.074-1.562-.074-3.394v-3.3h4.2Zm9.32-5.473c-.054.875-.074.914-.629.875a5.6 5.6 0 0 0-.992.059l-.441.078v8.941l1.012.059.996.054.054.918.059.895 4.91-.04 4.906-.054.059-.918.059-.894h2.082v-4.461c0-4.328-.02-4.485-.383-4.598-.211-.074-.668-.094-1.012-.055-.594.055-.613.036-.707-.8l-.098-.86-4.906-.058-4.91-.04Zm6.914 5.492v3.336h-4.007v-6.676h4.007Zm22.864-6.254c-.075.055-.133 2.934-.133 6.387v6.273l2.351-.058 2.329-.055.058-6.351.035-6.332h-2.25c-1.242 0-2.332.058-2.39.136m6.972 6.196.059 6.351h4.773l.059-4.824.04-4.809h4.007l.039 4.809.059 4.824h4.773l.059-5.379.039-5.379-.996-.054-1.012-.059-.055-.914-.058-.898-3.094.039-3.094.058-.059.703-.058.727h-1.89v-1.527h-3.63Zm17-4.864.055 1.489 3.785.058 3.781.035-.058.918-.059.895-3.148.097-3.153.094-.019.762v.766l-.973.054c-.824.04-.996.133-1.09.477-.152.555-.152 1.773 0 2.879l.133.879h1.832l.059.894.058.918 2.922.055 2.903.058v-1.562l.918.055c.898.058.898.058.953.761l.058.727h3.61V46.922l-.574-.133c-.305-.074-.649-.074-.743-.02-.441.29-.785-.132-.785-.953v-.84h-10.523Zm7.602 7.399v.86h-3.629v-1.716h3.629Zm18.621-8.637c-.055.133-.074 2.992-.055 6.352l.055 6.101h4.777V45.074l-2.351-.058c-1.778-.04-2.367.02-2.426.191m9.168 0a5.3 5.3 0 0 0-.133.914c-.058.668-.058.668-1.07.727l-.992.054.039 4.426.054 4.422.997.059.992.058.058.895.055.898 4.93.055 4.906.039v-1.906h2.101v-8.961h-.742c-1.207 0-1.36-.137-1.36-1.07v-.84h-4.866c-3.746 0-4.91.058-4.969.23m6.973 6.16v3.336h-4.012v-6.676h4.012Zm7.179-6.234c-.054.113-.035 8.406.059 11.894l.02.727h2.367c1.988 0 2.386-.059 2.484-.305.059-.172.113-2.347.113-4.863v-4.574l1.97.054 1.948.059.094 4.766.098 4.77h4.773V46.98l-.957-.094-.953-.098-.094-.855-.097-.86-3.094-.058-3.113-.04v1.528h-1.91v-1.527h-1.798c-.992 0-1.851.078-1.91.156m18.321.075a5 5 0 0 0-.137.914c-.055.668-.055.668-1.05.727l-1.013.054v1.891c0 1.027.059 2 .118 2.172.074.23.379.305 1.03.305h.934l.06.8.058.82 2.73.06 2.711.058v1.695h-3.57c-1.989 0-3.707.074-3.84.172-.172.094-.23.535-.191 1.469l.058 1.316h10.313l.058-.898.055-.895.996-.058.992-.059.059-1.617c.074-2.367.035-2.48-1.11-2.48h-.937l-.055-.821-.058-.8-2.77-.094-2.77-.098v-1.715l3.516-.059c1.95-.02 3.61-.113 3.723-.207.133-.117.191-.726.152-1.527l-.074-1.355h-4.95c-3.8 0-4.984.058-5.038.23m19.902 0c-.04.133-.04.8.035 1.488l.117 1.239 3.684.058 3.668.035v1.91h-6.3v1.715h-2.102v4.176l1.011.059.992.054.06.918.054.914 2.906-.058 2.902-.055.059-.726c.055-.707.074-.707.894-.707.825 0 .844 0 .899.707l.059.726 1.87.055 1.852.058V52.32c0-4.215-.055-5.433-.226-5.453-.137-.02-.594-.039-1.012-.058-.766-.02-.766-.02-.863-.875l-.094-.86-5.176-.058c-4.05-.04-5.215 0-5.289.191m7.504 8.637v.879l-1.758-.059-1.773-.055-.059-.535c-.113-1.011 0-1.086 1.871-1.086h1.719Zm7.449-2.477v6.387h4.719l.113-2.156a67 67 0 0 0 0-8.293l-.113-2.328h-4.719Zm-22.137 2.27c-.152.172-.21.894-.171 2.133l.058 1.89 2.063.055 2.062.058-.058-2.156-.055-2.152-1.836-.059c-1.414-.039-1.89.02-2.063.23m0 0"/></svg>
