<?xml version="1.0" encoding="UTF-8" standalone="no"?>
<svg
   width="1080"
   viewBox="0 0 810 150"
   height="200"
   version="1.2"
   id="svg13"
   sodipodi:docname="409540cb-7b90-467d-961e-23810e2c333d.svg"
   xmlns:inkscape="http://www.inkscape.org/namespaces/inkscape"
   xmlns:sodipodi="http://sodipodi.sourceforge.net/DTD/sodipodi-0.dtd"
   xmlns="http://www.w3.org/2000/svg"
   xmlns:svg="http://www.w3.org/2000/svg">
  <sodipodi:namedview
     id="namedview13"
     pagecolor="#ffffff"
     bordercolor="#000000"
     borderopacity="0.25"
     inkscape:showpageshadow="2"
     inkscape:pageopacity="0.0"
     inkscape:pagecheckerboard="0"
     inkscape:deskcolor="#d1d1d1" />
  <defs
     id="defs5">
    <clipPath
       id="a">
      <path
         d="M15 17.64h120v114.75H15zm0 0"
         id="path1" />
    </clipPath>
    <clipPath
       id="b">
      <path
         d="M152.246 55H200v73.555h-47.754zm0 0"
         id="path2" />
    </clipPath>
    <clipPath
       id="c">
      <path
         d="M272 28.805h12V101h-12zm0 0"
         id="path3" />
    </clipPath>
    <clipPath
       id="d">
      <path
         d="M300 28.805h12V101h-12zm0 0"
         id="path4" />
    </clipPath>
    <clipPath
       id="e">
      <path
         d="M777 30h13.496v70H777zm0 0"
         id="path5" />
    </clipPath>
  </defs>
  <g
     clip-path="url(#a)"
     id="g6">
    <path
       style="stroke:none;fill-rule:evenodd;fill:#fff;fill-opacity:1"
       d="M73.832 19.293a1893.685 1893.685 0 0 0-7.742 9.047c-1.93 2.273-3.274 3.898-4.266 5.156-.988 1.258-1.62 2.149-2.117 2.957-.5.805-.86 1.531-1.309 2.453-.14.285-.277.563-.402.813-.121.254-.238.48-.332.676a20.107 20.107 0 0 1-.34.652c-.008.008-.062 0-.156-.02s-.227-.047-.383-.09c-.16-.039-.351-.09-.558-.148-.207-.059-.43-.121-.668-.191-1.079-.32-1.895-.559-2.684-.743-.79-.18-1.55-.3-2.516-.382-.96-.082-2.129-.121-3.734-.145-1.602-.02-3.64-.023-6.348-.023H35.31l-2.485-.004H30.34v20.574l-.527.059-.524.058-1.055.117c-.59.067-1.203.157-1.84.274-.636.113-1.292.25-1.968.414-.676.16-1.371.348-2.086.555-.715.21-1.445.441-2.195.695-.47.16-1.024.36-1.594.574a64.38 64.38 0 0 0-1.684.649c-.523.207-.992.398-1.328.546-.336.149-.539.246-.539.274 0 .039.07.234.191.535.118.297.29.7.485 1.156.195.453.418.961.644 1.473.227.508.461 1.02.676 1.484a52.041 52.041 0 0 0 9.54 13.926 47.507 47.507 0 0 0 6.14 5.41c2.164 1.59 4.426 2.953 6.75 4.047a51.197 51.197 0 0 0 3.414 1.461c1.129.43 2.242.805 3.36 1.125 1.112.324 2.226.59 3.343.809a39.04 39.04 0 0 0 3.375.504c.84.085 1.781.136 2.777.156a51.632 51.632 0 0 0 6.203-.266 34.786 34.786 0 0 0 2.836-.394 59.177 59.177 0 0 1 2.633-.442c.149-.02.235-.023.246-.015.043.043-.02.195-.152.414a9.01 9.01 0 0 1-.582.812c-.242.313-.527.645-.813.965-.289.316-.582.617-.851.86-.57.519-1.168.968-1.809 1.355-.64.383-1.324.703-2.07.969-.746.261-1.555.464-2.441.617-.891.156-1.856.258-2.926.316-1.36.07-2.582.207-3.703.422-1.118.211-2.13.496-3.07.871-.938.375-1.801.84-2.618 1.403a15.82 15.82 0 0 0-2.351 2 14.205 14.205 0 0 0-1.489 1.765 13.256 13.256 0 0 0-1.148 1.945 15.518 15.518 0 0 0-.856 2.207 20.834 20.834 0 0 0-.59 2.543c-.058.348-.105.61-.156.817-.05.207-.105.36-.183.484a1.184 1.184 0 0 1-.325.332c-.144.106-.332.211-.578.356a9.157 9.157 0 0 0-2.543 2.183 8.797 8.797 0 0 0-1.52 2.813 8.33 8.33 0 0 0-.382 3.113 7.995 7.995 0 0 0 .852 3.098 7.95 7.95 0 0 0 1.574 2.117 9.294 9.294 0 0 0 2.168 1.566c.789.418 1.629.715 2.469.868.84.152 1.68.167 2.472.007a7.941 7.941 0 0 0 1.188-.336c.406-.144.82-.32 1.222-.515.399-.2.79-.418 1.149-.653.36-.234.691-.476.976-.73a6.93 6.93 0 0 0 1.473-1.86c.39-.71.68-1.492.855-2.308.176-.82.243-1.676.188-2.527a8.74 8.74 0 0 0-.531-2.516 5.919 5.919 0 0 0-.68-1.281c-.289-.43-.64-.856-1.031-1.258a10.34 10.34 0 0 0-1.262-1.11 8.299 8.299 0 0 0-1.379-.847c-.414-.2-.722-.352-.95-.492-.226-.137-.366-.27-.44-.43-.075-.16-.083-.352-.043-.613.039-.266.125-.598.242-1.043.226-.871.566-1.695 1.004-2.465a10.426 10.426 0 0 1 3.672-3.754c.77-.46 1.605-.836 2.492-1.102.152-.046.386-.093.675-.144a30.829 30.829 0 0 1 2.246-.273c.43-.043.876-.075 1.317-.102a41.754 41.754 0 0 0 2.773-.25 19.813 19.813 0 0 0 2.243-.406 13.283 13.283 0 0 0 1.918-.621c.609-.246 1.199-.536 1.804-.88a20.824 20.824 0 0 0 1.774-1.116c.539-.383 1.031-.786 1.511-1.227.48-.445.942-.934 1.415-1.488.468-.559.953-1.18 1.468-1.899l.309-.426.308-.43.313-.429.309-.426v19.633l-.399.262-.402.265-.797.532a11.66 11.66 0 0 0-1.567 1.21c-.44.41-.808.837-1.113 1.305-.305.465-.55.97-.746 1.535-.2.567-.351 1.192-.473 1.903a7.401 7.401 0 0 0 .024 2.574 8.502 8.502 0 0 0 2.441 4.543 7.787 7.787 0 0 0 2.157 1.496c.804.367 1.632.61 2.46.715.829.105 1.66.082 2.47-.07a7.963 7.963 0 0 0 2.343-.828 8.831 8.831 0 0 0 2.094-1.567c.406-.402.738-.789 1.011-1.18.27-.394.48-.796.641-1.234.156-.441.266-.918.336-1.473.07-.55.102-1.171.105-1.894 0-.524 0-.93-.011-1.266a6.504 6.504 0 0 0-.074-.836 3.967 3.967 0 0 0-.192-.683c-.09-.23-.207-.485-.355-.805a7.845 7.845 0 0 0-1.594-2.262 8.117 8.117 0 0 0-1.07-.879 9.342 9.342 0 0 0-1.254-.718l-.348-.164-.348-.16-.343-.165-.348-.164v-4.957l-.004-2.476v-2.48c0-1.36.004-2.657.012-3.833.008-1.176.02-2.23.035-3.11.016-.882.035-1.589.055-2.07.02-.48.043-.734.066-.707.02.028.074.102.156.208l.301.421c.121.168.258.364.406.575.145.207.305.433.461.664.38.543.735 1.027 1.09 1.468.352.438.703.832 1.063 1.2.363.367.742.707 1.148 1.039.406.328.844.652 1.332.98.777.528 1.5.965 2.223 1.328.718.364 1.437.657 2.203.89.765.235 1.582.411 2.496.544.914.137 1.93.23 3.094.3.433.024.867.055 1.289.087a40.742 40.742 0 0 1 2.148.215c.27.035.477.07.602.101.965.234 1.898.64 2.761 1.168a11.119 11.119 0 0 1 2.34 1.93 10.355 10.355 0 0 1 1.688 2.437c.43.867.707 1.781.805 2.695l.03.313.032.309.035.316.031.309-.27.14-.538.274-.274.136c-.828.426-1.558.922-2.183 1.493a7.954 7.954 0 0 0-1.54 1.91 7.731 7.731 0 0 0-.87 2.273 9.264 9.264 0 0 0-.172 2.594c.066.96.285 1.871.64 2.703a7.903 7.903 0 0 0 1.446 2.258 8.316 8.316 0 0 0 2.14 1.683c.817.45 1.727.782 2.715.98 1.309.255 2.617.126 3.836-.3a8.813 8.813 0 0 0 3.266-2.05 8.893 8.893 0 0 0 2.117-3.239c.453-1.21.613-2.527.387-3.848a9.06 9.06 0 0 0-1.504-3.644 9.344 9.344 0 0 0-1.301-1.477 8.97 8.97 0 0 0-1.61-1.16c-.18-.097-.347-.2-.507-.293-.16-.097-.305-.183-.434-.265-.125-.082-.23-.153-.312-.211a.573.573 0 0 1-.137-.121.813.813 0 0 1-.063-.184c-.027-.094-.058-.223-.097-.375a11.147 11.147 0 0 1-.11-.512c-.039-.187-.082-.39-.12-.594-.098-.5-.227-1.023-.383-1.554a19.7 19.7 0 0 0-.551-1.594c-.207-.527-.43-1.039-.668-1.512a12.868 12.868 0 0 0-.735-1.3 12.93 12.93 0 0 0-1.582-1.954 15.064 15.064 0 0 0-1.98-1.691 15.833 15.833 0 0 0-2.27-1.355 14.35 14.35 0 0 0-2.449-.934 9.33 9.33 0 0 0-.836-.188 25.72 25.72 0 0 0-1.094-.18 40.224 40.224 0 0 0-2.605-.269 51.614 51.614 0 0 1-1.281-.11 47.27 47.27 0 0 1-1.242-.128 37.65 37.65 0 0 1-1.067-.14 12.643 12.643 0 0 1-.746-.133 11.48 11.48 0 0 1-1.508-.458c-.5-.187-.996-.414-1.472-.668a12.371 12.371 0 0 1-2.606-1.847 16.117 16.117 0 0 1-1.676-1.836 5.604 5.604 0 0 1-.465-.707c-.097-.192-.125-.324-.074-.375.016-.016.117-.012.285.004.168.015.407.047.696.09.293.039.633.093 1.008.156.37.062.78.137 1.207.215a60.65 60.65 0 0 0 1.789.304c.527.079 1.011.133 1.535.172.523.04 1.09.063 1.777.078.692.016 1.504.02 2.527.024 1.22 0 2.204-.008 3.06-.031a27.474 27.474 0 0 0 2.257-.153 20.662 20.662 0 0 0 2.047-.336 48.885 48.885 0 0 0 2.426-.59 44.634 44.634 0 0 0 5.347-1.761 42.256 42.256 0 0 0 4.98-2.387 43.059 43.059 0 0 0 4.633-3.031 46.976 46.976 0 0 0 4.329-3.692 55.822 55.822 0 0 0 3.312-3.468 49.244 49.244 0 0 0 2.879-3.63 50.142 50.142 0 0 0 2.516-3.886 57.29 57.29 0 0 0 2.23-4.258c.375-.793.691-1.48.95-2.066.257-.59.46-1.078.613-1.473.144-.398.242-.7.285-.918.047-.219.039-.351-.016-.402-.078-.07-.41-.23-.902-.442a57.272 57.272 0 0 0-1.828-.73c-.692-.262-1.434-.535-2.121-.777a36.517 36.517 0 0 0-1.778-.586 54.289 54.289 0 0 0-3.531-.879 48.341 48.341 0 0 0-1.715-.332 23.874 23.874 0 0 0-1.465-.215l-.633-.07-.312-.04-.316-.035V39.301l-2.461.004h-2.461l-2.457.004h-2.461c-2.645.004-4.664.007-6.266.03-1.605.024-2.797.067-3.789.141-.992.079-1.789.192-2.598.356-.812.164-1.64.383-2.703.668a23.531 23.531 0 0 1-1.203.3c-.16.036-.289.06-.383.075-.093.016-.148.02-.156.008a29.962 29.962 0 0 1-.355-.672c-.102-.2-.22-.434-.348-.692a79.19 79.19 0 0 1-.418-.828c-.45-.902-.785-1.578-1.168-2.234-.379-.66-.805-1.297-1.422-2.117-.617-.817-1.433-1.82-2.594-3.203-1.16-1.387-2.671-3.153-4.68-5.508-1.398-1.64-2.53-2.961-3.44-4.02a272.265 272.265 0 0 0-2.122-2.441c-.523-.59-.875-.973-1.11-1.211-.237-.234-.355-.324-.402-.32-.015 0-.07.047-.156.132-.086.086-.199.207-.34.356-.136.148-.296.328-.472.523-.172.2-.364.414-.555.641m7.059 11.504a151.52 151.52 0 0 1 3.582 4.336 58.05 58.05 0 0 1 2.488 3.336c.66.965 1.16 1.793 1.516 2.515.355.72.57 1.332.66 1.868.023.14.039.25.031.347a.526.526 0 0 1-.09.262 1.205 1.205 0 0 1-.266.262c-.12.093-.285.199-.492.332-.332.21-.773.554-1.265.976-.493.426-1.043.934-1.594 1.473a43.455 43.455 0 0 0-1.625 1.672 25.487 25.487 0 0 0-1.348 1.574c-.398.512-.812 1.09-1.222 1.703a39.76 39.76 0 0 0-1.204 1.91 39.73 39.73 0 0 0-1.085 1.946c-.329.636-.622 1.25-.86 1.812-.34.809-.672 1.727-.976 2.688-.305.96-.582 1.964-.817 2.945-.234.984-.43 1.945-.562 2.816-.137.871-.215 1.653-.215 2.282-.004.609-.024 1.054-.055 1.332-.035.277-.086.386-.152.328-.067-.055-.149-.278-.246-.664a26.572 26.572 0 0 1-.336-1.66 76.29 76.29 0 0 0-.54-2.758 81.86 81.86 0 0 0-.624-2.66c-.211-.844-.43-1.637-.645-2.34a22.878 22.878 0 0 0-.617-1.801 24.472 24.472 0 0 0-.742-1.66 48.94 48.94 0 0 0-2.047-3.746c-.36-.59-.707-1.13-1.027-1.582a21.393 21.393 0 0 0-1.153-1.446 44.776 44.776 0 0 0-1.558-1.71 47.283 47.283 0 0 0-1.657-1.657c-.539-.512-1.043-.96-1.468-1.3-.172-.141-.34-.278-.489-.41a8.144 8.144 0 0 1-.402-.376 3.846 3.846 0 0 1-.27-.293c-.066-.082-.101-.144-.101-.176 0-.105.098-.378.262-.753.16-.372.386-.848.644-1.356.258-.508.547-1.05.828-1.562a24.735 24.735 0 0 1 1.582-2.508c.262-.371.543-.746.871-1.16.329-.418.7-.871 1.149-1.407.45-.535.973-1.144 1.601-1.87.235-.27.536-.614.875-1.005.336-.394.715-.832 1.114-1.293.394-.46.808-.937 1.215-1.41.402-.472.8-.933 1.168-1.363l.668-.777.668-.774.667-.777.665-.778.117.118.113.12.117.118.113.117a110.75 110.75 0 0 1 1.668 1.914l1.555 1.809c.57.664 1.184 1.383 1.813 2.12M51.227 44.149c.425.09.867.2 1.304.317.434.117.864.242 1.254.37.395.13.754.259 1.055.38.297.12.535.234.687.332.051.035.09.094.11.191.02.098.023.239.011.442-.015.199-.046.457-.097.793-.055.336-.125.75-.215 1.257-.094.524-.172.989-.23 1.446-.06.457-.106.91-.137 1.41a32.68 32.68 0 0 0-.067 1.7c-.011.648-.015 1.401-.015 2.312 0 .98.004 1.761.015 2.414.012.648.035 1.172.07 1.644.04.473.09.89.165 1.336.07.446.164.918.285 1.488.074.348.156.72.242 1.094.082.375.168.754.254 1.11.086.359.168.695.242.992.074.3.14.554.195.75.055.195.102.383.149.554.043.172.082.329.113.461.031.13.059.239.07.317.016.078.02.125.012.133a.942.942 0 0 1-.183-.079 35.955 35.955 0 0 1-1.148-.629c-.255-.144-.532-.304-.821-.472a95.651 95.651 0 0 0-2.031-1.152 44.616 44.616 0 0 0-1.723-.899 34 34 0 0 0-1.633-.75 44.224 44.224 0 0 0-1.762-.715 50.86 50.86 0 0 0-2.855-1.004 45.68 45.68 0 0 0-2.8-.793 39.106 39.106 0 0 0-2.653-.562 26.924 26.924 0 0 0-2.406-.309l-.426-.03-.426-.036-.426-.031-.426-.035V43.758h7.215c1.578.004 2.832.008 3.852.015 1.02.012 1.8.028 2.437.055a20.37 20.37 0 0 1 1.547.117c.43.051.797.117 1.196.203m64.886 7.493c0 1.23-.008 2.34-.015 3.312-.008.977-.02 1.817-.04 2.504-.015.691-.038 1.23-.062 1.602-.023.367-.05.57-.082.59a1.259 1.259 0 0 1-.281.07c-.153.031-.367.062-.617.101-.254.035-.547.078-.868.117-.32.043-.664.083-1.02.122-.765.086-1.538.199-2.323.343-.79.141-1.59.313-2.407.516-.816.203-1.652.434-2.503.7-.856.26-1.73.558-2.625.882-.735.266-1.305.477-1.801.672-.496.195-.918.375-1.348.578-.43.203-.867.43-1.398.723-.528.289-1.149.644-1.946 1.101a34.54 34.54 0 0 1-1.644.895 9.035 9.035 0 0 1-.528.242c-.128.055-.21.074-.226.059-.016-.016-.02-.082-.012-.184a5.49 5.49 0 0 1 .055-.422c.031-.172.066-.371.113-.59.043-.219.098-.457.156-.699.258-1.082.454-1.906.602-2.613.152-.703.258-1.282.332-1.867.078-.583.125-1.172.156-1.895.035-.723.059-1.578.086-2.695.024-.98.04-1.77.043-2.434.004-.66-.004-1.2-.027-1.684a17.76 17.76 0 0 0-.113-1.355 29.95 29.95 0 0 0-.223-1.445c-.152-.887-.27-1.543-.336-2.035-.066-.493-.086-.825-.04-1.059a.664.664 0 0 1 .333-.492c.18-.117.437-.207.781-.336.692-.266 1.29-.469 1.926-.63.637-.16 1.309-.276 2.152-.358.84-.082 1.852-.133 3.164-.16 1.309-.032 2.922-.044 4.965-.047l3.813-.008h1.902l1.906-.004v7.883m-25.05-2.368c.195 1.02.343 1.977.437 2.91.098.934.14 1.837.133 2.75a25.621 25.621 0 0 1-.18 2.797c-.11.961-.273 1.961-.488 3.036a39.395 39.395 0 0 1-.746 3.12 31.161 31.161 0 0 1-.946 2.829c-.355.906-.75 1.781-1.187 2.64a30.9 30.9 0 0 1-1.473 2.555c-.215.34-.597.86-1.074 1.469a76.18 76.18 0 0 1-1.625 2.012 79.82 79.82 0 0 1-1.73 2.011 30.987 30.987 0 0 1-1.387 1.489l-.258.25-.262.254-.257.253-.262.254.02-1.62.023-1.622.02-1.617.019-1.621c.02-1.414.035-2.543.058-3.465.02-.922.047-1.637.082-2.227.036-.59.082-1.054.141-1.472.059-.422.133-.797.227-1.211a38.117 38.117 0 0 1 1.086-3.91c.418-1.235.89-2.403 1.433-3.524a28.68 28.68 0 0 1 1.82-3.222 31.184 31.184 0 0 1 2.258-3.012 18.08 18.08 0 0 1 1.012-1.086c.367-.363.746-.715 1.106-1.023.355-.31.69-.575.964-.762.27-.188.48-.297.59-.297.035 0 .07.031.11.086.039.05.078.129.12.226a4.214 4.214 0 0 1 .216.75m-28.895.91c.914.915 1.738 1.86 2.488 2.86a25.52 25.52 0 0 1 2.028 3.187 30.027 30.027 0 0 1 1.636 3.645 42.64 42.64 0 0 1 1.32 4.23c.122.485.22.872.294 1.274.074.406.125.832.164 1.387.043.554.07 1.242.09 2.171.023.934.039 2.11.058 3.645.02 1.441.035 2.566.04 3.438.003.87 0 1.488-.016 1.921-.016.434-.043.68-.086.813-.04.129-.094.14-.16.101-.106-.058-.376-.324-.743-.722-.367-.399-.84-.926-1.34-1.512a82.643 82.643 0 0 1-1.539-1.832 48.185 48.185 0 0 1-1.34-1.695c-.34-.45-.722-1.031-1.117-1.688a40.534 40.534 0 0 1-1.183-2.125 43.623 43.623 0 0 1-1.075-2.207 21.82 21.82 0 0 1-.773-1.933c-.07-.215-.152-.477-.238-.762-.082-.29-.172-.602-.258-.922a49.961 49.961 0 0 1-.461-1.844c-.187-.86-.316-2.113-.395-3.508a62.606 62.606 0 0 1-.066-4.378c.027-1.434.106-2.762.227-3.735.12-.969.285-1.578.492-1.578.023 0 .097.05.21.14.11.09.259.22.438.38a44.358 44.358 0 0 1 1.305 1.25m53.23 15.39a24.897 24.897 0 0 1-.965 4.492 26.72 26.72 0 0 1-.824 2.25 33.11 33.11 0 0 1-1.058 2.305c-.344.676-.66 1.262-.98 1.805-.321.543-.641 1.035-.997 1.523-.351.485-.734.961-1.18 1.473-.445.508-.953 1.05-1.542 1.66a35.204 35.204 0 0 1-1.579 1.54c-.496.448-.976.847-1.468 1.21-.493.367-1 .703-1.551 1.031-.55.328-1.145.649-1.817.989-.84.421-1.624.761-2.445 1.03a15.58 15.58 0 0 1-2.683.626c-1.004.152-2.145.25-3.532.308-1.382.063-3.011.082-4.98.082H82.18l.03-.113.036-.113.031-.113.035-.114c.055-.199.243-.582.516-1.074.274-.496.633-1.101 1.027-1.746.399-.645.836-1.324 1.266-1.969.43-.644.852-1.25 1.219-1.746a44.604 44.604 0 0 1 5.883-6.445 41.569 41.569 0 0 1 6.812-4.977 38.048 38.048 0 0 1 7.477-3.36 34.711 34.711 0 0 1 7.886-1.585c.11-.008.22-.02.325-.027.105-.008.203-.02.293-.028.09-.008.164-.02.226-.023.063-.008.106-.016.13-.02.023-.004.038.024.05.078a.934.934 0 0 1 .023.239c.004.101 0 .226-.007.363-.008.137-.02.29-.04.45M30.934 66.89c.242 1.234.562 2.488.945 3.738a41.182 41.182 0 0 0 1.32 3.68 37.438 37.438 0 0 0 1.61 3.425 27.185 27.185 0 0 0 1.816 2.961c.45.633.992 1.313 1.594 2.004a38.232 38.232 0 0 0 1.949 2.074c.687.68 1.395 1.34 2.098 1.942.699.597 1.39 1.144 2.03 1.597.298.208.575.407.825.59.25.184.469.352.649.496.18.141.32.258.41.344.09.082.129.133.105.14-.066.028-.328-.038-.71-.167-.384-.13-.891-.324-1.458-.555a48.612 48.612 0 0 1-1.812-.777 38.066 38.066 0 0 1-7.352-4.297 42.01 42.01 0 0 1-5.043-4.422 44.733 44.733 0 0 1-4.37-5.254 45.026 45.026 0 0 1-3.575-5.941c-.125-.258-.25-.504-.356-.735-.109-.226-.207-.433-.285-.609-.078-.176-.14-.32-.18-.422-.042-.101-.058-.164-.05-.172.008-.008.062-.031.148-.066.09-.035.211-.082.36-.137.144-.05.32-.113.507-.18l.614-.21c.433-.145.988-.297 1.593-.446a39.578 39.578 0 0 1 3.805-.73c.574-.078 1.07-.125 1.434-.133l.23-.004.235-.004.23-.004.234-.004.114.57.109.57.113.567.114.57m8.199-1.87c1.383.238 2.8.59 4.226 1.039 1.426.449 2.856 1 4.27 1.636a42.064 42.064 0 0 1 4.16 2.164c1.348.801 2.648 1.68 3.879 2.621.41.317.95.778 1.547 1.32a69.069 69.069 0 0 1 1.914 1.805c.652.641 1.3 1.293 1.871 1.899a31.34 31.34 0 0 1 1.422 1.586 46.416 46.416 0 0 1 1.726 2.27c.57.796 1.125 1.613 1.622 2.39.5.781.94 1.52 1.285 2.152.343.637.593 1.172.71 1.543l.032.114.035.113.04.113.03.113h-5.511c-1.918 0-3.48-.02-4.801-.078-1.324-.058-2.41-.156-3.371-.312a15.68 15.68 0 0 1-2.63-.653c-.831-.289-1.651-.652-2.581-1.109a20.527 20.527 0 0 1-3.137-1.926 24.776 24.776 0 0 1-2.902-2.523 26.07 26.07 0 0 1-2.528-2.988 24.005 24.005 0 0 1-2.011-3.305 35.404 35.404 0 0 1-1.192-2.649 38.321 38.321 0 0 1-.968-2.66 25.394 25.394 0 0 1-.645-2.39c-.156-.72-.238-1.348-.238-1.832 0-.211 0-.371.011-.489.012-.12.032-.203.079-.257.043-.055.105-.082.203-.098.093-.016.222-.016.39-.016.094 0 .25.012.453.032.204.023.454.05.73.09.278.035.583.078.903.128.32.047.653.102.977.157m84.953.085c.336.06.809.168 1.336.297.523.13 1.101.282 1.64.434.543.152 1.051.305 1.43.43.387.125.649.222.7.273.027.023-.028.184-.149.45-.121.265-.3.632-.527 1.062-.223.433-.493.93-.79 1.457a56.9 56.9 0 0 1-.937 1.633 44.31 44.31 0 0 1-3.473 5.027 46.345 46.345 0 0 1-4.12 4.531 43.203 43.203 0 0 1-4.571 3.848 34.726 34.726 0 0 1-4.82 2.969 42.898 42.898 0 0 1-3.02 1.367c-.469.191-.89.351-1.207.457-.32.105-.535.156-.598.137-.027-.012.004-.055.079-.133.074-.074.195-.18.351-.309.153-.129.348-.281.563-.445.218-.164.465-.344.722-.531a31.987 31.987 0 0 0 3.067-2.473 30.025 30.025 0 0 0 4.992-5.887 32.018 32.018 0 0 0 1.953-3.441c.398-.809.75-1.57 1.059-2.309a30.121 30.121 0 0 0 1.48-4.39c.188-.758.363-1.547.52-2.391l.109-.59.113-.586.11-.59.109-.586h1.133c.156 0 .347.008.566.024.215.012.457.035.703.062a20.21 20.21 0 0 1 1.477.203m-79.191 55.711c.363.23.671.555.917.934.247.379.426.816.536 1.273.109.457.148.938.105 1.407a3.61 3.61 0 0 1-.371 1.336c-.156.304-.332.57-.539.808a3.303 3.303 0 0 1-1.512.996 4.104 4.104 0 0 1-.965.184 4.468 4.468 0 0 1-1.03-.043 3.427 3.427 0 0 1-1.719-.805 4.434 4.434 0 0 1-.696-.77 3.378 3.378 0 0 1-.555-1.284 4.203 4.203 0 0 1-.046-1.434c.066-.48.21-.945.43-1.36.214-.413.507-.78.87-1.058a3.654 3.654 0 0 1 1.059-.555c.383-.132.789-.207 1.2-.222.41-.02.82.023 1.214.12.39.102.766.259 1.102.473m64.375-.195c.175.086.37.23.574.406.199.176.402.38.586.598.187.215.36.438.492.652.133.211.226.407.266.567.019.07.035.168.042.285.012.113.02.25.024.398.004.145 0 .301-.004.457a8.875 8.875 0 0 1-.023.461 3.545 3.545 0 0 1-.774 1.953 3.866 3.866 0 0 1-3.625 1.368 3.584 3.584 0 0 1-1.883-.95 4.289 4.289 0 0 1-.55-.609 2.827 2.827 0 0 1-.352-.637 3.475 3.475 0 0 1-.188-.746 6.793 6.793 0 0 1-.054-.941c0-.352.027-.672.082-.961.05-.293.137-.555.25-.797.117-.242.265-.465.449-.676.188-.21.406-.41.668-.601.25-.188.547-.328.879-.434a4.168 4.168 0 0 1 1.05-.187c.364-.024.735 0 1.09.066.36.062.7.176 1 .328m-31.93.473c.177.125.368.328.556.57.183.242.367.531.527.824.16.293.297.598.394.88a2.5 2.5 0 0 1 .16.737c0 .258-.074.567-.206.895a5.551 5.551 0 0 1-.54.996 6 6 0 0 1-.742.906c-.265.27-.547.489-.816.63a2.93 2.93 0 0 1-1.024.3 3.709 3.709 0 0 1-1.117-.047 3.928 3.928 0 0 1-1.066-.37 3.194 3.194 0 0 1-.871-.669 4.034 4.034 0 0 1-.68-1.012 4.028 4.028 0 0 1-.355-1.12 3.802 3.802 0 0 1-.012-1.153 3.5 3.5 0 0 1 .344-1.094c.187-.363.375-.664.586-.91.21-.242.441-.43.71-.57.266-.14.57-.23.922-.282a6.496 6.496 0 0 1 1.239-.046c.254.011.472.027.664.046.195.024.363.055.515.098a2.284 2.284 0 0 1 .813.39"
       id="path6" />
  </g>
  <g
     clip-path="url(#b)"
     id="g7">
    <path
       style="stroke:none;fill-rule:nonzero;fill:#fff;fill-opacity:1"
       d="M162.133 56.746v10.352a26.243 26.243 0 0 1 1.926-4.274 11.624 11.624 0 0 1 2.656-2.957c3.207-2.762 7.18-4.14 11.918-4.14a21.538 21.538 0 0 1 8.402 1.675 18.034 18.034 0 0 1 6.676 4.621 19.49 19.49 0 0 1 3.871 7.157 30.952 30.952 0 0 1 1.422 9.61c0 7.105-1.816 12.702-5.45 16.804-3.632 4.101-8.609 6.144-14.921 6.136-7.809 0-13.176-3.488-16.102-10.46v37.273h-10.285V56.746zm14.363 2.742a11.39 11.39 0 0 0-5.71 1.418 13.625 13.625 0 0 0-4.384 3.914 18.676 18.676 0 0 0-2.847 6.04 28.127 28.127 0 0 0-1.024 7.82c0 5.824 1.278 10.507 3.828 14.047.555.828 1.203 1.57 1.95 2.234a11.684 11.684 0 0 0 2.445 1.684c.883.46 1.812.8 2.785 1.027.973.226 1.961.324 2.957.305 1.438 0 2.809-.29 4.125-.868a10.944 10.944 0 0 0 3.41-2.285c1.156-1.222 2.11-3.234 2.856-6.039a35.912 35.912 0 0 0 1.12-9.187c0-6.98-.917-12.075-2.753-15.29-1.832-3.214-4.754-4.82-8.758-4.82zm0 0"
       id="path7" />
  </g>
  <path
     style="stroke:none;fill-rule:nonzero;fill:#fff;fill-opacity:1"
     d="M234.36 55.43c7.6 0 13.535 2.082 17.796 6.246 4.262 4.164 6.38 9.969 6.348 17.41a25.228 25.228 0 0 1-2.09 10.352 19.213 19.213 0 0 1-5.652 7.613 22.96 22.96 0 0 1-7.414 3.695 30.83 30.83 0 0 1-8.989 1.258c-7.539 0-13.449-2.063-17.726-6.188-4.278-4.125-6.418-9.836-6.422-17.136a26.04 26.04 0 0 1 1.684-9.61 20.13 20.13 0 0 1 4.843-7.394 21.02 21.02 0 0 1 7.637-4.672 29.011 29.011 0 0 1 9.984-1.574zm.1 3.254c-4.487 0-7.815 1.656-9.987 4.972-2.172 3.32-3.258 8.461-3.258 15.43 0 13.14 4.281 19.707 12.84 19.703 4.613 0 8.007-1.61 10.183-4.828 2.176-3.219 3.262-8.246 3.262-15.082 0-6.969-1.055-12.078-3.16-15.332-2.106-3.254-5.399-4.875-9.88-4.871zm0 0"
     id="path8" />
  <g
     clip-path="url(#c)"
     id="g9">
    <path
       style="stroke:none;fill-rule:nonzero;fill:#fff;fill-opacity:1"
       d="M283.156 100.613h-10.285V28.816h10.285zm0 0"
       id="path9" />
  </g>
  <g
     clip-path="url(#d)"
     id="g10">
    <path
       style="stroke:none;fill-rule:nonzero;fill:#fff;fill-opacity:1"
       d="M300.883 28.816h10.285v71.797h-10.285zm0 0"
       id="path10" />
  </g>
  <path
     style="stroke:none;fill-rule:nonzero;fill:#fff;fill-opacity:1"
     d="M333.996 30.852a6.98 6.98 0 0 1 2.629.355c.855.29 1.625.723 2.309 1.305a5.696 5.696 0 0 1 1.375 2.027c.312.773.445 1.578.406 2.41a5.404 5.404 0 0 1-1.832 4.266 8.106 8.106 0 0 1-2.313 1.203 8.13 8.13 0 0 1-5.148 0 8.055 8.055 0 0 1-2.313-1.203 5.499 5.499 0 0 1-1.84-4.38 5.498 5.498 0 0 1 1.84-4.324 7.047 7.047 0 0 1 4.887-1.66zm5.094 69.761h-10.293V56.746h10.293zM366.285 68.93c2.473-8.797 8.246-13.2 17.317-13.203 6.597 0 11.183 2.132 13.757 6.402a13.428 13.428 0 0 1 1.684 4.266 30.3 30.3 0 0 1 .453 5.914v28.304h-10.285v-27.93a35.029 35.029 0 0 0-.356-5.788 10.562 10.562 0 0 0-1.171-3.332 7.287 7.287 0 0 0-2.97-2.641 9.16 9.16 0 0 0-4.183-.914 11.953 11.953 0 0 0-5.855 1.52 10.887 10.887 0 0 0-4.324 4.066 21.083 21.083 0 0 0-2.551 6.75 48.375 48.375 0 0 0-.801 9.699v18.57h-10.29V56.746h9.575zM444.633 91.172c-1.485 3.723-3.508 6.414-6.067 8.074-2.562 1.66-5.937 2.488-10.132 2.484-5.028 0-8.95-1.132-11.77-3.402-2.816-2.266-4.226-5.398-4.226-9.394 0-5.422 2.75-9.282 8.253-11.579 1.207-.52 2.45-.925 3.73-1.226a44.112 44.112 0 0 1 4.888-.863 93.215 93.215 0 0 1 6.37-.563c2.38-.137 5.13-.273 8.255-.406v-4.363c0-4.133-.66-7.032-1.989-8.684-1.324-1.656-3.648-2.488-6.976-2.492-3.13 0-5.399.797-6.832 2.387-1.43 1.59-2.172 4.117-2.223 7.57v.2h-10.902c-.02-.97.086-1.923.316-2.868a11.14 11.14 0 0 1 1.031-2.692 11.317 11.317 0 0 1 3.902-4.191c3.427-2.297 8.266-3.45 14.512-3.453 7.747 0 13.247 1.762 16.512 5.285a11.134 11.134 0 0 1 2.543 4.57c.555 2.305.8 4.641.742 7.008v28.04h-9.937zm-.742-13.91c-3.278-.043-6.54.16-9.782.605-2.257.301-4.406.953-6.445 1.957a7.74 7.74 0 0 0-3.562 3.504 11.938 11.938 0 0 0-1.067 5.332c0 2.914.73 5.149 2.188 6.703 1.46 1.559 3.511 2.336 6.164 2.336 2.445.043 4.668-.636 6.675-2.031 2.051-1.477 3.493-3.406 4.32-5.79A19.422 19.422 0 0 0 443.556 85c.28-2.57.402-5.152.363-7.738zM472.035 56.746V44.34l10.293-2.438v14.844h13.856v3.555h-13.856v27.82c0 3.457.438 5.914 1.32 7.266.883 1.351 2.41 2.078 4.582 2.078a23.486 23.486 0 0 0 3.012-.25 44.56 44.56 0 0 0 4.02-.742l.742-.2v3.653a60.24 60.24 0 0 1-6.496 1.34c-1.738.25-3.488.382-5.242.398a13.514 13.514 0 0 1-6.215-1.367 9.742 9.742 0 0 1-4.281-4.008 12.211 12.211 0 0 1-1.329-3.555 25.83 25.83 0 0 1-.406-5.175V60.3h-8.047v-3.555zM512.379 30.852a6.98 6.98 0 0 1 2.629.355c.855.29 1.625.723 2.308 1.305a5.696 5.696 0 0 1 1.375 2.027c.313.773.446 1.578.407 2.41a5.326 5.326 0 0 1-.434 2.336c-.32.75-.789 1.39-1.398 1.93a8.133 8.133 0 0 1-4.89 1.621 8.133 8.133 0 0 1-4.892-1.621 5.468 5.468 0 0 1-1.406-1.98 5.401 5.401 0 0 1-.426-2.391 5.47 5.47 0 0 1 .43-2.367c.32-.758.79-1.414 1.402-1.965a7.065 7.065 0 0 1 4.895-1.66zm5.086 69.761H507.18V56.746h10.285zM555.98 55.43c7.61 0 13.54 2.082 17.797 6.246 4.258 4.164 6.387 9.969 6.387 17.41a25.292 25.292 0 0 1-2.09 10.352 19.287 19.287 0 0 1-5.652 7.613 22.863 22.863 0 0 1-7.418 3.695 30.802 30.802 0 0 1-9.024 1.258c-7.535 0-13.445-2.063-17.726-6.188-4.281-4.125-6.422-9.847-6.422-17.168a26.04 26.04 0 0 1 1.684-9.609 20.116 20.116 0 0 1 4.843-7.39 20.967 20.967 0 0 1 7.637-4.672 29.016 29.016 0 0 1 9.984-1.547zm.102 3.254c-4.45 0-7.816 1.656-9.98 4.972-2.168 3.32-3.266 8.465-3.266 15.438 0 13.14 4.281 19.707 12.84 19.703 4.613 0 8.008-1.61 10.187-4.828 2.184-3.219 3.266-8.246 3.258-15.082 0-6.969-1.05-12.078-3.152-15.332-2.102-3.254-5.395-4.88-9.887-4.88zM604.066 68.93c2.446-8.797 8.22-13.2 17.317-13.203 6.586 0 11.172 2.132 13.758 6.402a13.321 13.321 0 0 1 1.675 4.266c.352 1.957.504 3.925.461 5.914v28.304h-10.289v-27.93a35.028 35.028 0 0 0-.355-5.788 10.76 10.76 0 0 0-1.172-3.332 7.252 7.252 0 0 0-2.965-2.641 9.19 9.19 0 0 0-4.176-.914c-2.086.004-4.039.512-5.86 1.52a11.04 11.04 0 0 0-4.331 4.066 21.16 21.16 0 0 0-2.543 6.75 48.097 48.097 0 0 0-.809 9.699v18.57h-10.285V56.746h9.574zM660 87.316c0 3.856.832 6.684 2.492 8.477 1.66 1.793 4.328 2.691 8 2.691 1.246.059 2.461-.097 3.653-.464a10.58 10.58 0 0 0 3.277-1.672 6.573 6.573 0 0 0 1.965-2.375c.465-.95.695-1.95.68-3.008a5.371 5.371 0 0 0-.512-2.414 5.419 5.419 0 0 0-1.528-1.946c-1.359-1.152-3.668-2.171-6.925-3.054l-5.704-1.508c-5.093-1.285-8.707-2.91-10.851-4.871-2.14-1.961-3.203-4.61-3.188-7.942a11.317 11.317 0 0 1 1.328-5.527 12.672 12.672 0 0 1 3.665-4.266 17.052 17.052 0 0 1 5.703-2.742 26.29 26.29 0 0 1 7.336-.968c5.367 0 9.547 1.117 12.53 3.355 2.99 2.238 4.684 5.52 5.095 9.848h-9.7a32.928 32.928 0 0 0-.355-3.965 9.663 9.663 0 0 0-.867-2.735 5.548 5.548 0 0 0-2.903-2.437 11.204 11.204 0 0 0-4.64-.918 10.014 10.014 0 0 0-3.348.426c-1.09.332-2.094.832-3.015 1.504a5.908 5.908 0 0 0-1.86 2.183 5.923 5.923 0 0 0-.64 2.793c-.016.848.148 1.66.496 2.438a5.649 5.649 0 0 0 1.492 1.996c1.328 1.183 3.476 2.152 6.472 2.89l7.336 1.93c4.48 1.153 7.739 2.746 9.774 4.778a10.398 10.398 0 0 1 2.34 3.593c.53 1.36.77 2.77.718 4.227a12.156 12.156 0 0 1-1.25 5.773 12.182 12.182 0 0 1-1.632 2.492 12.197 12.197 0 0 1-2.184 2.024c-3.36 2.535-7.922 3.805-13.7 3.808-6.109 0-10.862-1.27-14.26-3.808-3.395-2.535-5.165-6.074-5.302-10.606zM750.879 90.535c-1.484 3.719-3.504 6.41-6.067 8.07-2.562 1.66-5.937 2.489-10.132 2.485-5.028 0-8.95-1.133-11.77-3.403-2.816-2.265-4.226-5.398-4.226-9.394 0-5.422 2.754-9.281 8.254-11.578a22.781 22.781 0 0 1 3.73-1.227 44.273 44.273 0 0 1 4.887-.863 93.44 93.44 0 0 1 6.37-.563c2.38-.136 5.134-.273 8.255-.406v-4.363c0-4.133-.66-7.027-1.985-8.684-1.324-1.656-3.652-2.488-6.98-2.492-3.13 0-5.399.797-6.828 2.387-1.434 1.59-2.176 4.117-2.227 7.57v.2h-10.902a11.317 11.317 0 0 1 5.25-9.75c3.426-2.297 8.265-3.45 14.515-3.454 7.743 0 13.247 1.762 16.508 5.285a11.275 11.275 0 0 1 2.543 4.57c.551 2.294.801 4.65.742 7.009v28.039h-9.937zm-.742-13.914c-3.27-.043-6.54.16-9.782.606-2.242.296-4.418.96-6.445 1.96a7.881 7.881 0 0 0-3.558 3.504 12.032 12.032 0 0 0-1.07 5.329c0 2.914.73 5.148 2.187 6.707 1.46 1.554 3.515 2.335 6.164 2.335a11.409 11.409 0 0 0 6.676-2.035c2-1.441 3.511-3.46 4.324-5.789a19.55 19.55 0 0 0 1.172-4.879c.277-2.57.398-5.152.363-7.738zm0 0"
     id="path11" />
  <g
     clip-path="url(#e)"
     id="g12">
    <path
       style="stroke:none;fill-rule:nonzero;fill:#fff;fill-opacity:1"
       d="M783.77 30.21a7.036 7.036 0 0 1 4.937 1.661 5.742 5.742 0 0 1 1.781 4.438 5.406 5.406 0 0 1-1.832 4.265 8.18 8.18 0 0 1-9.781 0 5.533 5.533 0 0 1-1.832-4.37 5.527 5.527 0 0 1 1.832-4.333 7.09 7.09 0 0 1 4.895-1.66zm5.085 69.763H778.57V56.105h10.285zm0 0"
       id="path12" />
  </g>
  <path
     style="stroke:none;fill-rule:nonzero;fill:#fff;fill-opacity:1"
     d="M703.91 89.89c1.8-.097 3.57.5 4.942 1.665a5.733 5.733 0 0 1 1.777 4.437 5.41 5.41 0 0 1-1.832 4.266 8.18 8.18 0 0 1-9.774 0 5.52 5.52 0 0 1-1.84-4.38 5.512 5.512 0 0 1 1.84-4.323 7.092 7.092 0 0 1 4.887-1.664zm0 0"
     id="path13" />
</svg>
