<?xml version="1.0" standalone="no"?>
<!DOCTYPE svg PUBLIC "-//W3C//DTD SVG 20010904//EN"
 "http://www.w3.org/TR/2001/REC-SVG-20010904/DTD/svg10.dtd">
<svg version="1.0" xmlns="http://www.w3.org/2000/svg"
 width="386.000000pt" height="386.000000pt" viewBox="0 0 386.000000 386.000000"
 preserveAspectRatio="xMidYMid meet">
<metadata>
Created by potrace 1.14, written by Peter Selinger 2001-2017
</metadata>
<g transform="translate(0.000000,386.000000) scale(0.100000,-0.100000)"
fill="#000000" stroke="none">
<path d="M0 1930 l0 -1930 1930 0 1930 0 0 1930 0 1930 -1930 0 -1930 0 0
-1930z m3255 1735 c31 -30 32 -73 4 -109 -43 -54 -129 -19 -129 53 0 72 75
107 125 56z m-949 -109 c56 -48 25 -140 -46 -138 -47 1 -70 27 -70 78 0 34 5
47 26 63 35 27 57 26 90 -3z m-923 -568 c54 -28 64 -93 21 -133 -31 -29 -55
-31 -89 -9 -46 30 -44 113 4 139 32 18 37 18 64 3z m626 -9 c42 -25 49 -33 88
-89 69 -101 122 -249 157 -435 16 -85 36 -314 36 -414 0 -301 -75 -651 -170
-796 -25 -39 -27 -40 -85 -40 l-60 0 -3 320 -2 320 30 17 c67 38 90 134 49
208 -26 47 -66 70 -118 70 -35 0 -49 -7 -83 -38 -35 -33 -41 -46 -45 -89 -6
-61 16 -114 61 -145 17 -12 34 -27 38 -33 4 -5 8 -146 8 -313 0 -344 8 -316
-89 -317 l-54 0 -37 73 c-59 116 -97 245 -127 432 -21 133 -24 525 -5 650 37
241 90 405 171 528 68 104 161 139 240 91z m584 -187 c11 -10 17 -30 17 -58 0
-34 -5 -47 -27 -64 -62 -48 -145 26 -111 98 24 50 79 61 121 24z m-1635 -146
c66 -23 181 -107 264 -192 89 -91 135 -149 226 -289 l66 -100 12 -175 c7 -96
17 -200 23 -230 34 -187 67 -297 127 -420 12 -25 18 -49 14 -54 -8 -8 -106
-52 -141 -63 -21 -6 -68 99 -128 288 -19 62 -14 86 28 128 65 65 67 154 5 217
-31 31 -40 34 -91 34 -53 0 -59 -3 -95 -40 -35 -37 -38 -46 -38 -96 0 -30 5
-65 12 -77 14 -27 56 -65 80 -73 10 -3 20 -17 24 -32 25 -122 53 -209 100
-309 40 -83 40 -83 15 -111 -25 -30 -36 -28 -95 17 -247 186 -494 584 -611
981 -35 122 -48 207 -48 330 0 107 3 132 21 170 12 25 27 53 35 62 37 47 119
61 195 34z m2102 -3 c40 -27 49 -39 72 -90 31 -69 30 -278 -2 -408 -25 -104
-73 -251 -101 -312 -10 -24 -19 -45 -19 -47 0 -11 -68 -148 -111 -223 -94
-163 -194 -296 -310 -411 -74 -73 -163 -137 -178 -128 -30 19 -29 43 5 110 38
77 86 213 105 300 11 50 18 62 50 83 65 43 90 120 61 186 -26 58 -69 89 -126
89 -55 0 -91 -23 -117 -73 -37 -73 -20 -142 47 -196 l37 -29 -13 -55 c-25
-111 -104 -308 -129 -323 -6 -4 -35 4 -64 18 -28 13 -62 27 -74 31 -30 8 -29
24 6 93 67 132 106 287 136 532 8 69 15 159 15 201 0 73 2 78 47 150 159 250
347 440 498 502 54 22 134 22 165 0z m-1073 -595 c48 -45 13 -138 -52 -138
-14 0 -37 11 -50 25 -72 71 28 182 102 113z m-1497 -226 c104 -27 162 -48 255
-92 l80 -37 45 -89 c55 -109 163 -275 240 -369 67 -82 203 -214 247 -240 30
-18 30 -18 29 -104 -1 -77 2 -91 27 -133 l28 -47 -28 -8 c-16 -4 -63 -7 -105
-6 -201 3 -452 96 -708 261 -141 91 -180 122 -298 237 -117 112 -181 196 -235
305 -37 76 -41 93 -42 160 0 106 21 133 145 184 31 12 245 -2 320 -22z m3235
7 c37 -14 64 -32 83 -56 24 -33 27 -44 26 -117 0 -64 -5 -92 -24 -131 -53
-112 -151 -238 -280 -361 -177 -168 -451 -334 -675 -409 -136 -46 -283 -70
-363 -60 -85 11 -84 9 -50 73 27 51 30 64 25 124 -2 36 -1 70 2 75 3 5 29 25
56 45 146 106 334 343 460 581 l54 103 83 36 c115 50 183 74 248 89 30 6 69
15 85 20 17 4 71 8 122 8 71 1 105 -4 148 -20z m-2307 -125 c23 -23 22 -87 -2
-113 -46 -50 -126 -12 -126 60 0 69 79 101 128 53z m1137 1 c29 -28 33 -79 9
-113 -23 -33 -86 -31 -113 4 -61 78 36 178 104 109z m-647 -653 c2 -62 7 -84
18 -89 31 -12 44 16 44 98 l0 79 28 0 c61 0 231 -53 281 -88 16 -12 6 -32 -53
-110 -31 -43 -38 -57 -29 -70 20 -33 47 -19 93 50 26 39 51 67 60 65 19 -3 60
-75 60 -108 1 -128 -177 -246 -400 -266 -228 -21 -447 46 -537 164 -40 52 -39
133 1 191 16 23 34 42 40 42 7 0 30 -28 53 -63 49 -75 77 -101 98 -94 26 11
17 41 -35 116 -27 40 -50 77 -50 82 0 27 203 89 280 86 l45 -2 3 -83z m-380
-410 c105 -72 278 -109 457 -98 135 9 259 44 337 98 24 16 31 17 67 6 49 -15
50 -26 11 -94 -54 -94 -182 -185 -310 -219 -83 -22 -249 -19 -340 6 -135 36
-268 135 -314 233 -22 47 -21 66 7 66 12 0 29 5 37 10 19 13 18 13 48 -8z
m519 -396 c3 -3 -2 -22 -12 -42 -13 -27 -38 -135 -45 -192 0 -2 -30 -2 -67 0
l-68 3 -7 56 c-4 30 -14 75 -23 100 -34 91 -42 84 95 82 67 -1 124 -4 127 -7z"/>
<path d="M959 2247 c-38 -26 -68 -78 -69 -121 0 -39 34 -106 66 -130 17 -12
43 -18 74 -18 59 0 92 21 120 79 25 54 25 83 0 134 -39 76 -124 101 -191 56z
m136 -89 c16 -30 17 -40 8 -61 -29 -63 -104 -72 -136 -18 -22 37 -21 49 3 89
19 30 24 33 63 30 37 -3 44 -7 62 -40z"/>
<path d="M2840 2268 c-110 -57 -108 -211 4 -267 46 -23 47 -23 92 -6 120 46
126 219 9 275 -51 25 -51 25 -105 -2z m104 -74 c17 -18 26 -37 26 -59 0 -39
-41 -85 -77 -85 -13 0 -36 12 -50 26 -22 22 -25 32 -20 67 10 73 72 99 121 51z"/>
</g>
</svg>
