<svg width="120" height="80" version="1.1" viewBox="0 0 120 80" xmlns="http://www.w3.org/2000/svg">
<rect x="40" width="80" height="80" rx="4" fill="#fff" fill-rule="evenodd" />
<path d="m120 76v-8.6763h-9.651l-4.969-5.4944-4.994 5.4944h-31.822v-25.607h-10.27l12.74-28.831h12.286l4.3857 9.877v-9.877h15.208l2.64 7.4429 2.658-7.4429h11.789v-8.8854c0-2.2091-1.7909-4-4-4h-112c-2.2091 4.4409e-16 -4 1.7909-4 4v72c4.4409e-16 2.2091 1.7909 4 4 4h112c2.2091 0 4-1.7909 4-4zm-8.026-11.882h8.026l-10.616-11.258 10.616-11.13h-7.898l-6.556 7.1645-6.4935-7.1645h-8.0275l10.554 11.194-10.554 11.194h7.8041l6.5889-7.2283 6.556 7.2283zm1.878-11.249 6.148 6.5406v-13.027l-6.148 6.4861zm-35.78 6.0675v-3.4864h12.633v-5.0534h-12.633v-3.4859h12.953l5e-4 -5.1815h-19.062v22.388h19.062l-5e-4 -5.1813h-12.953zm35.883-20.456h6.045v-22.388h-9.403l-5.022 13.944-4.989-13.944h-9.5631v22.388h6.0446v-15.672l5.7575 15.672h5.373l5.757-15.704v15.704zm-29.809 0h6.8765l-9.8824-22.388h-7.8682l-9.8833 22.388h6.7166l1.8554-4.4776h10.298l1.887 4.4776zm-3.9976-9.4992h-6.0773l3.0387-7.3242 3.0386 7.3242z" fill="#0690FF"/>
</svg>
