<svg width="120" height="80" viewBox="0 0 120 80" fill="none" xmlns="http://www.w3.org/2000/svg">
<rect width="120" height="80" rx="4" fill="white"/>
<path d="M57.5437 26.997V35.9796H63.0833C64.4033 35.9796 65.4945 35.5352 66.3569 34.6486C67.2435 33.7642 67.6879 32.7082 67.6879 31.4872C67.6879 30.2904 67.2435 29.2476 66.3569 28.3588C65.4945 27.4502 64.4033 26.9948 63.0833 26.9948H57.5437V26.997ZM57.5437 39.141V49.5602H54.2349V23.8356H63.0129C65.2415 23.8356 67.1335 24.577 68.6933 26.062C70.2773 27.547 71.0693 29.3554 71.0693 31.4872C71.0693 33.6674 70.2773 35.489 68.6933 36.9476C67.1599 38.4106 65.2635 39.1388 63.0107 39.1388H57.5437V39.141ZM74.4133 44.1724C74.4133 45.0348 74.7785 45.752 75.5111 46.3284C76.2415 46.9004 77.0995 47.1886 78.0807 47.1886C79.4733 47.1886 80.7119 46.6738 81.8031 45.6464C82.8965 44.6146 83.4399 43.4046 83.4399 42.0164C82.4081 41.2024 80.9693 40.7954 79.1235 40.7954C77.7815 40.7954 76.6595 41.121 75.7619 41.7678C74.8621 42.4146 74.4133 43.2132 74.4133 44.1724ZM78.6945 31.3794C81.1409 31.3794 83.0703 32.0328 84.4871 33.3374C85.8995 34.6442 86.6079 36.435 86.6079 38.7098V49.5602H83.4421V47.1182H83.2991C81.9307 49.129 80.1091 50.1366 77.8299 50.1366C75.8895 50.1366 74.2637 49.5602 72.9569 48.4118C71.6501 47.2612 70.9967 45.8246 70.9967 44.0998C70.9967 42.2782 71.6853 40.8306 73.0647 39.7526C74.4441 38.6746 76.2833 38.1356 78.5867 38.1356C80.5491 38.1356 82.1705 38.4942 83.4399 39.2136V38.4568C83.4399 37.3084 82.9845 36.3316 82.0737 35.5308C81.1961 34.7411 80.0531 34.3114 78.8727 34.3274C77.0247 34.3274 75.5639 35.104 74.4837 36.6638L71.5709 34.829C73.1769 32.53 75.5529 31.3794 78.6945 31.3794ZM104.771 31.9558L93.7271 57.3218H90.3105L94.4113 48.447L87.1469 31.9558H90.7439L95.9953 44.6036H96.0657L101.174 31.9536L104.771 31.9558Z" fill="#3C4043"/>
<path d="M44.1722 36.8948C44.1722 35.8542 44.0842 34.8488 43.917 33.8896H29.9602V39.5832H37.955C37.6239 41.4215 36.5557 43.0445 34.9982 44.0756V47.7716H39.77C42.564 45.1976 44.1722 41.3916 44.1722 36.8948Z" fill="#4285F4"/>
<path d="M29.9603 51.34C33.9555 51.34 37.3171 50.031 39.7701 47.7738L34.9983 44.0756C33.6717 44.9688 31.9623 45.4902 29.9603 45.4902C26.1015 45.4902 22.8235 42.8898 21.6531 39.3874H16.7383V43.1956C19.2527 48.1909 24.3678 51.3425 29.9603 51.3422" fill="#34A853"/>
<path d="M21.6529 39.3874C21.0355 37.5518 21.0355 35.5646 21.6529 33.729V29.9208H16.7381C15.6991 31.9782 15.1587 34.2512 15.1606 36.556C15.1606 38.943 15.7327 41.198 16.7381 43.1934L21.6529 39.3852V39.3874Z" fill="#FABB05"/>
<path d="M29.96 27.6262C32.1424 27.6262 34.096 28.3742 35.636 29.8438V29.846L39.86 25.6264C37.2992 23.2416 33.9552 21.7764 29.9622 21.7764C24.3703 21.7757 19.2553 24.9264 16.7402 29.9208L21.655 33.729C22.8254 30.2266 26.1034 27.6262 29.9622 27.6262" fill="#E94235"/>
</svg>
