<svg width="120" height="80" viewBox="0 0 120 80" fill="none" xmlns="http://www.w3.org/2000/svg">
<rect width="120" height="80" rx="4" fill="white"/>
<path fill-rule="evenodd" clip-rule="evenodd" d="M76.2315 34.67C75.8559 37.1343 73.9727 37.1343 72.1505 37.1343H71.1141L71.8414 32.5332C71.8848 32.2553 72.1248 32.0508 72.4065 32.0508H72.8822C74.1224 32.0508 75.2934 32.0508 75.8975 32.7563C76.2589 33.1785 76.3679 33.8052 76.2315 34.67ZM75.4387 28.2401H68.5683C68.0979 28.2401 67.6984 28.5818 67.6249 29.0456L64.847 46.6499C64.7921 46.9969 65.0613 47.3112 65.4121 47.3112H68.9377C69.2663 47.3112 69.5462 47.0722 69.5976 46.7482L70.386 41.7567C70.4586 41.2929 70.859 40.9512 71.3285 40.9512H73.5023C78.0279 40.9512 80.6402 38.7631 81.3223 34.4248C81.6297 32.5288 81.3347 31.0382 80.4462 29.9945C79.4692 28.8474 77.7374 28.2401 75.4387 28.2401Z" fill="#009CDE"/>
<path fill-rule="evenodd" clip-rule="evenodd" d="M27.2281 34.67C26.8525 37.1343 24.9693 37.1343 23.1471 37.1343H22.1107L22.838 32.5332C22.8814 32.2553 23.1214 32.0508 23.4031 32.0508H23.8788C25.119 32.0508 26.29 32.0508 26.8941 32.7563C27.2556 33.1785 27.3645 33.8052 27.2281 34.67ZM26.4353 28.2401H19.5649C19.0945 28.2401 18.695 28.5818 18.6215 29.0456L15.8436 46.6499C15.7887 46.9969 16.0571 47.3112 16.4087 47.3112H19.6898C20.1593 47.3112 20.5588 46.9695 20.6323 46.5065L21.3826 41.7567C21.4552 41.2929 21.8556 40.9512 22.3251 40.9512H24.4989C29.0245 40.9512 31.6368 38.7631 32.3189 34.4248C32.6263 32.5288 32.3313 31.0382 31.4428 29.9945C30.4658 28.8474 28.734 28.2401 26.4353 28.2401Z" fill="#003087"/>
<path fill-rule="evenodd" clip-rule="evenodd" d="M42.3858 40.9899C42.0678 42.8683 40.5761 44.1296 38.6724 44.1296C37.7184 44.1296 36.954 43.8225 36.4632 43.2418C35.9769 42.6665 35.7935 41.8459 35.9477 40.9333C36.2435 39.0709 37.7601 37.7697 39.6344 37.7697C40.569 37.7697 41.3272 38.0795 41.8277 38.6655C42.3317 39.2559 42.5302 40.0809 42.3858 40.9899ZM46.9708 34.591H43.6808C43.3992 34.591 43.1591 34.7955 43.1148 35.0743L42.9704 35.9931L42.741 35.6603C42.0279 34.6273 40.4396 34.2812 38.854 34.2812C35.2195 34.2812 32.1147 37.0341 31.5106 40.8943C31.1961 42.8205 31.6426 44.6607 32.7357 45.9451C33.7393 47.1251 35.1717 47.6163 36.8787 47.6163C39.8089 47.6163 41.4335 45.7362 41.4335 45.7362L41.2865 46.6497C41.2316 46.9967 41.5 47.311 41.8525 47.311H44.8147C45.2851 47.311 45.6846 46.9702 45.7581 46.5063L47.5368 35.2523C47.5917 34.9053 47.3224 34.591 46.9708 34.591Z" fill="#003087"/>
<path fill-rule="evenodd" clip-rule="evenodd" d="M91.3887 40.9899C91.0707 42.8683 89.579 44.1296 87.6754 44.1296C86.7213 44.1296 85.9569 43.8225 85.4661 43.2418C84.9789 42.6665 84.7965 41.8459 84.9506 40.9333C85.2465 39.0709 86.763 37.7697 88.6374 37.7697C89.5719 37.7697 90.3302 38.0795 90.8306 38.6655C91.3347 39.2559 91.5331 40.0809 91.3887 40.9899ZM95.9737 34.591H92.6838C92.4021 34.591 92.162 34.7955 92.1177 35.0743L91.9734 35.9931L91.743 35.6603C91.0308 34.6273 89.4426 34.2812 87.857 34.2812C84.2225 34.2812 81.1177 37.0341 80.5135 40.8943C80.1991 42.8205 80.6455 44.6607 81.7386 45.9451C82.7423 47.1251 84.1746 47.6163 85.8816 47.6163C88.8119 47.6163 90.4365 45.7362 90.4365 45.7362L90.2894 46.6497C90.2345 46.9967 90.5029 47.311 90.8555 47.311H93.8176C94.288 47.311 94.6875 46.9702 94.761 46.5063L96.5397 35.2523C96.5947 34.9053 96.3254 34.591 95.9737 34.591Z" fill="#009CDE"/>
<path fill-rule="evenodd" clip-rule="evenodd" d="M64.4927 34.5911H61.186C60.8697 34.5911 60.5739 34.7478 60.3967 35.0098L55.8347 41.7229L53.9019 35.2718C53.7805 34.8682 53.4085 34.5911 52.9868 34.5911H49.7368C49.3444 34.5911 49.068 34.977 49.1947 35.3479L52.8354 46.0284L49.4108 50.857C49.1424 51.2359 49.4135 51.7599 49.8785 51.7599H53.1817C53.4944 51.7599 53.7876 51.6068 53.9665 51.3501L64.9631 35.4896C65.2262 35.1098 64.9551 34.5911 64.4927 34.5911Z" fill="#003087"/>
<path fill-rule="evenodd" clip-rule="evenodd" d="M99.8516 28.7239L97.0321 46.6504C96.9771 46.9973 97.2455 47.3116 97.5972 47.3116H100.434C100.903 47.3116 101.303 46.9699 101.376 46.5061L104.157 28.9018C104.212 28.5548 103.943 28.2406 103.591 28.2406H100.418C100.135 28.2406 99.895 28.445 99.8516 28.7239Z" fill="#009CDE"/>
</svg>
