<svg width="120" height="80" viewBox="0 0 120 80" fill="none" xmlns="http://www.w3.org/2000/svg">
<rect width="120" height="80" rx="4" fill="white"/>
<path fill-rule="evenodd" clip-rule="evenodd" d="M86.6666 44.9375L90.3239 35.0625L92.3809 44.9375H86.6666ZM100.952 52.8375L95.8086 27.1625H88.7383C86.3525 27.1625 85.7723 29.0759 85.7723 29.0759L76.1904 52.8375H82.8868L84.2269 49.0244H92.3947L93.1479 52.8375H100.952Z" fill="#1434CB"/>
<path fill-rule="evenodd" clip-rule="evenodd" d="M77.1866 33.5711L78.0952 28.244C78.0952 28.244 75.2896 27.1625 72.3648 27.1625C69.2031 27.1625 61.6955 28.5638 61.6955 35.3738C61.6955 41.7825 70.5071 41.8621 70.5071 45.2266C70.5071 48.5912 62.6034 47.9901 59.9955 45.8676L59.0476 51.4362C59.0476 51.4362 61.8919 52.8375 66.2397 52.8375C70.5869 52.8375 77.1467 50.5544 77.1467 44.3455C77.1467 37.8964 68.2552 37.296 68.2552 34.4921C68.2552 31.6882 74.4602 32.0484 77.1866 33.5711Z" fill="#1434CB"/>
<path fill-rule="evenodd" clip-rule="evenodd" d="M54.6517 52.8375H47.6191L52.0144 27.1625H59.0477L54.6517 52.8375Z" fill="#1434CB"/>
<path fill-rule="evenodd" clip-rule="evenodd" d="M42.3113 27.1625L35.9217 44.8213L35.1663 41.0185L35.167 41.0199L32.9114 29.4749C32.9114 29.4749 32.6394 27.1625 29.7324 27.1625H19.1709L19.0476 27.5966C19.0476 27.5966 22.2782 28.2669 26.057 30.5326L31.8793 52.8375H38.8617L49.5238 27.1625H42.3113Z" fill="#1434CB"/>
</svg>
