<svg aria-label="AI SDK logomark" role="img" xmlns="http://www.w3.org/2000/svg" height="90" width="311" fill="none" viewBox="0 0 311 90"><path fill="white" d="m2.97 86 29.7-82.36H51.1L80.81 86H65.03L58.2 66.51h-32.6L18.75 86H2.97ZM30 53.64h23.78l-11.83-34.8L30 53.64Zm100.9-50v13.1h-13.23V72.9h13.92V86H88.55V72.9h14.04V16.74H89.25V3.64h41.64Z"></path><rect width="154" height="75" x="153" y="7.5" stroke="white" stroke-width="8" rx="37.5"></rect><path fill="white" d="M183.6 51.85c.8 4.62 4.08 7.66 9.49 7.66 4.13 0 6.93-1.64 6.87-4.8-.06-3.17-2.74-5-9.49-6.63-9.36-2.25-15.38-6.02-15.38-12.95 0-7.85 6.57-12.77 16.42-12.77 9.6 0 16.17 5.9 17.2 14.6l-9.24.48c-.48-4.56-3.65-7.42-8.2-7.42-4.02 0-6.88 2.07-6.7 5.23.13 3.65 4.38 4.86 9 6.02 9.67 2.13 15.81 6.26 15.81 13.13 0 8.2-7.23 12.83-16.53 12.83-10.52 0-17.94-5.84-18.55-14.96l9.3-.42Zm43.17-28.52c13.99 0 21.83 7.78 21.83 21.65 0 13.8-7.72 21.52-21.46 21.52h-15.26V23.33h14.9Zm-5.65 35.39h5.65c8.4 0 12.4-4.44 12.4-13.8 0-9.37-4-13.8-12.4-13.8h-5.65v27.6Zm29.31-35.39h9.24v18.85l15.69-18.85h10.76l-15.87 19.03L287.1 66.5h-10.51l-12.4-17.94-4.5 5.23V66.5h-9.25V23.33Z"></path></svg>
